<svg xmlns="http://www.w3.org/2000/svg" width="75.888" height="14.768" viewBox="0 0 75.888 14.768">
  <path id="パス_6579" data-name="パス 6579" d="M-36.208-11.632a10.963,10.963,0,0,1-2.048-.112v2.08a11.527,11.527,0,0,1,2.016-.1h7.616a11.6,11.6,0,0,1-8.352,8.608,5.888,5.888,0,0,1,1.408,1.9A14.35,14.35,0,0,0-26.384-9.856a2.186,2.186,0,0,0,.3.032,1.857,1.857,0,0,0,1.856-1.856,1.854,1.854,0,0,0-1.856-1.84,1.844,1.844,0,0,0-1.84,1.856c-.272.016-.464.032-.944.032ZM-26.08-12.72a1.042,1.042,0,0,1,1.056,1.04,1.055,1.055,0,0,1-1.056,1.056,1.052,1.052,0,0,1-1.04-1.056A1.038,1.038,0,0,1-26.08-12.72Zm5.28.128a7.783,7.783,0,0,1,.08,1.648l-.064,8.64a5.642,5.642,0,0,1-.144,1.648L-19.9.576A4.584,4.584,0,0,1-18.944.3,14.586,14.586,0,0,0-13.12-1.888,11.928,11.928,0,0,0-9.552-5.616a7.516,7.516,0,0,1-1.52-1.632,9.455,9.455,0,0,1-3.264,3.664A11.508,11.508,0,0,1-18.7-1.824l.08-9.136a12.382,12.382,0,0,1,.1-1.616Zm26.224,2.48a3.158,3.158,0,0,1-1.232.272l-5.824.7v-2.016a8.445,8.445,0,0,1,.1-1.488H-3.744a7.952,7.952,0,0,1,.1,1.52v2.208l-1.7.208c-.432.048-1.12.1-1.408.1h-.384l.208,1.968c.336-.08.512-.128.736-.16l1.04-.144,1.5-.192v3.664a6.2,6.2,0,0,0,.16,2.032A2.122,2.122,0,0,0-2.112.032,11.039,11.039,0,0,0,.736.3,35.644,35.644,0,0,0,4.7.032,6.667,6.667,0,0,1,5.68-.032l-.1-2.16a17.717,17.717,0,0,1-4.912.624,3.521,3.521,0,0,1-1.984-.32c-.288-.24-.336-.512-.336-1.872v-3.6C1.024-7.728,1.84-7.84,3.28-8c.24-.032.368-.048.608-.1A8.159,8.159,0,0,1,.64-4.88,5.183,5.183,0,0,1,2.24-3.6,11.751,11.751,0,0,0,6.16-8.272a4.487,4.487,0,0,1,.448-.784ZM3.168-12.96a10.625,10.625,0,0,1,1.488,2.512L5.84-10.9a9.867,9.867,0,0,0-1.472-2.48Zm4.768,1.344a9.123,9.123,0,0,0-1.472-2.4l-1.136.432a11,11,0,0,1,1.424,2.448Zm2.016,1.344a16.8,16.8,0,0,1,4.08,3.248l1.376-1.744a22.661,22.661,0,0,0-4.128-3.088Zm.56,10.56A5.664,5.664,0,0,1,11.568.016a17.282,17.282,0,0,0,6.1-2.4,14.042,14.042,0,0,0,5.072-6.272,6.9,6.9,0,0,1-1.7-1.568,13.36,13.36,0,0,1-1.632,3.2A10.69,10.69,0,0,1,14.656-3.1,15.246,15.246,0,0,1,9.92-1.92ZM30.432.72a17.59,17.59,0,0,1-.064-1.776V-5.28A8.272,8.272,0,0,0,30.3-6.368a5.169,5.169,0,0,0,.544.272A37.855,37.855,0,0,1,36.512-3.04l1.12-1.888A47.007,47.007,0,0,0,30.368-8.3V-11.28a10.726,10.726,0,0,1,.064-1.68H28.24a10.284,10.284,0,0,1,.1,1.632V-1.072A10.779,10.779,0,0,1,28.24.72Z" transform="translate(38.256 14.016)" fill="#211613"/>
</svg>
