<svg xmlns="http://www.w3.org/2000/svg" width="66.2" height="30.92" viewBox="0 0 66.2 30.92">
  <path id="パス_6578" data-name="パス 6578" d="M-25.9-25.24h-7.72v3.52h3.12V0h4.6ZM-22.62-5.4V5.68h1.52l3.36-8.2V-5.4ZM-1.26-21.28c0-2.52-1.28-3.96-4.36-3.96h-4.64c-3.08,0-4.36,1.44-4.36,3.96V-3.96c0,2.52,1.28,3.96,4.36,3.96h4.64c3.08,0,4.36-1.44,4.36-3.96ZM-5.86-4.6c0,.84-.28,1.08-1.16,1.08H-8.86c-.88,0-1.12-.24-1.12-1.08V-20.64c0-.84.24-1.08,1.12-1.08h1.84c.88,0,1.16.24,1.16,1.08ZM15.66-21.28c0-2.52-1.28-3.96-4.36-3.96H6.66c-3.08,0-4.36,1.44-4.36,3.96V-3.96C2.3-1.44,3.58,0,6.66,0H11.3c3.08,0,4.36-1.44,4.36-3.96ZM11.06-4.6c0,.84-.28,1.08-1.16,1.08H8.06c-.88,0-1.12-.24-1.12-1.08V-20.64c0-.84.24-1.08,1.12-1.08H9.9c.88,0,1.16.24,1.16,1.08ZM32.58-21.28c0-2.52-1.28-3.96-4.36-3.96H23.58c-3.08,0-4.36,1.44-4.36,3.96V-3.96C19.22-1.44,20.5,0,23.58,0h4.64c3.08,0,4.36-1.44,4.36-3.96ZM27.98-4.6c0,.84-.28,1.08-1.16,1.08H24.98c-.88,0-1.12-.24-1.12-1.08V-20.64c0-.84.24-1.08,1.12-1.08h1.84c.88,0,1.16.24,1.16,1.08Z" transform="translate(33.62 25.24)" fill="#e65035"/>
</svg>
