<svg xmlns="http://www.w3.org/2000/svg" width="90.756" height="27.208" viewBox="0 0 90.756 27.208">
  <path id="パス_6581" data-name="パス 6581" d="M-11.052-6.336a15.759,15.759,0,0,0,2.3,1.272A4.194,4.194,0,0,1-8.04-6.4a10.57,10.57,0,0,1-3.024-1.6,8.812,8.812,0,0,1-2.076-2.1h-1.488a7.2,7.2,0,0,1-1.812,1.98,11.092,11.092,0,0,1-3.1,1.776,4.316,4.316,0,0,1,.708,1.224A15.9,15.9,0,0,0-16.56-6.348v.972a9.693,9.693,0,0,1,1.1-.048h3.228a11.243,11.243,0,0,1,1.176.048Zm-4.464-.24a6.185,6.185,0,0,1-.7-.024,10.712,10.712,0,0,0,2.364-2.292,9.81,9.81,0,0,0,2.412,2.3c-.18.012-.408.012-.708.012ZM-9.948-4.32a6.752,6.752,0,0,1-1.236.06h-5.472a14.789,14.789,0,0,1-1.5-.072v1.356c.5-.048,1-.072,1.488-.072h5.4L-13.236-.624a8.439,8.439,0,0,1-.924,1l1.38.768c.252-.384.456-.672.756-1.068l2.316-2.94c.144-.18.408-.48.528-.6ZM-2.94-9.948A12.259,12.259,0,0,1-3.3-7.86c-.264.012-.468.012-.612.012a8.332,8.332,0,0,1-1.62-.108v1.368l.636.012c.252.012.324.012.48.012s.216,0,.756-.012A18.461,18.461,0,0,1-4.788-3.744a10.923,10.923,0,0,1-1.164,1.92l1.38.768c.072-.144.072-.144.228-.432.456-.84.564-1.056.84-1.644a23.034,23.034,0,0,0,1.32-3.48c.744-.06,1.476-.144,1.908-.216a2.34,2.34,0,0,1,.384-.06L.072-8.268a10.293,10.293,0,0,1-1.92.336c.132-.528.192-.768.252-1.056a6.007,6.007,0,0,1,.192-.8Zm7.68,3.12A18.943,18.943,0,0,0,1.356-8.436L.636-7.272a14.687,14.687,0,0,1,3.456,1.68ZM4.692-1.416a2.149,2.149,0,0,1-.18-.168,4.425,4.425,0,0,0-.42-.324,7.5,7.5,0,0,0-1.9-1.1,12.741,12.741,0,0,1-.108-1.644,4,4,0,0,1,.144-1.212L.84-5.94a6.365,6.365,0,0,0-.1,1.212c0,.36.024.828.06,1.38A5.96,5.96,0,0,0-.312-3.456C-1.836-3.456-2.9-2.6-2.9-1.392S-1.872.624-.288.624A2.77,2.77,0,0,0,1.7-.048,1.918,1.918,0,0,0,2.22-1.32c0-.048-.012-.132-.024-.24A7.258,7.258,0,0,1,4.032-.072Zm-3.84-.66s.024.288.024.408C.876-1,.48-.66-.336-.66c-.744,0-1.176-.288-1.176-.78s.5-.828,1.284-.828A3.025,3.025,0,0,1,.852-2.076Zm9.192-6.5a21.72,21.72,0,0,0,4.68,1.5l.492-1.38A18,18,0,0,1,10.74-9.792Zm-.96,1.056a4.9,4.9,0,0,1-.072.7C8.8-5.412,8.6-4.08,8.508-3.336c-.06.456-.06.5-.1.72l1.512.048a2.612,2.612,0,0,1,.54-.516,5.461,5.461,0,0,1,2.988-.876c1.272,0,2.028.48,2.028,1.284,0,1.02-1.176,1.728-2.868,1.728a9.687,9.687,0,0,1-3.228-.6A5.325,5.325,0,0,1,9.564,0a11.034,11.034,0,0,0,3.06.42A5.184,5.184,0,0,0,15.792-.4a2.922,2.922,0,0,0,1.236-2.316c0-1.536-1.344-2.544-3.384-2.544a5.687,5.687,0,0,0-3.636,1.14L9.984-4.14c.036-.18.036-.18.06-.348a25.392,25.392,0,0,1,.54-2.952ZM-37.764,9.556V7.972a16.485,16.485,0,0,0,3.288-.816c.216-.072.264-.1.4-.132l-.984-1.164a9.832,9.832,0,0,1-4.044,1.02,13.949,13.949,0,0,1,.072,1.872c0,4.548-.3,6.12-1.44,7.512a5.537,5.537,0,0,1,1.188.792,7.311,7.311,0,0,0,1.068-2.412,15.659,15.659,0,0,0,.444-3.876h1.284V15.6a8.536,8.536,0,0,1-.072,1.416h1.4a8.279,8.279,0,0,1-.072-1.416V10.768h.3a6.837,6.837,0,0,1,.96.048V9.484a5.935,5.935,0,0,1-1.092.072Zm-4.992,1.4v.852h-1.212a6.6,6.6,0,0,1-1.116-.06v1.272a6.716,6.716,0,0,1,1.092-.06h.78a6.178,6.178,0,0,1-2.1,2.064,4.5,4.5,0,0,1,.612,1.224,6,6,0,0,0,1.98-2.22c-.024.276-.036.588-.036.816v1.2a7,7,0,0,1-.06.948h1.38a5.749,5.749,0,0,1-.072-1V14.8c0-.06-.012-.432-.012-.468-.012-.312-.012-.312-.024-.468a6.087,6.087,0,0,0,1.176,1.3,7.264,7.264,0,0,1,.576-1.14,5.263,5.263,0,0,1-1.236-1.056h.444a8.826,8.826,0,0,1,1.092.048v-1.26a6.627,6.627,0,0,1-1.092.06h-.924V10.96h.972a9.169,9.169,0,0,1,1.1.048V9.724a6.611,6.611,0,0,1-1.1.06h-.24a4.314,4.314,0,0,0,.264-.528,2.333,2.333,0,0,1,.2-.444c.108-.264.108-.264.18-.42l-1.02-.288h.492a9.483,9.483,0,0,1,1.128.048V6.868a6.6,6.6,0,0,1-1.116.06h-.816v-.18a4.4,4.4,0,0,1,.06-.876h-1.452a4.623,4.623,0,0,1,.06.876v.18H-43.7a6.909,6.909,0,0,1-1.152-.06V8.152A9.355,9.355,0,0,1-43.728,8.1h.564l-1.056.264a5.011,5.011,0,0,1,.528,1.416h-.288a6.511,6.511,0,0,1-1.116-.06v1.284A8.826,8.826,0,0,1-44,10.96Zm1.44-2.856a6.739,6.739,0,0,1-.672,1.68h-1.644l1.068-.288A5.313,5.313,0,0,0-43.08,8.1Zm13.14,3.7a5.846,5.846,0,0,1,.936.06V10.528a6.9,6.9,0,0,1-1.044.06h-.54c.036-.624.048-.876.06-1.56h.54a5.846,5.846,0,0,1,.936.06V7.828a6.9,6.9,0,0,1-1.044.06h-.42a10.222,10.222,0,0,1,.072-1.812h-1.392A9.89,9.89,0,0,1-30,7.888h-.564a7.008,7.008,0,0,1-1.068-.072V9.088a9.655,9.655,0,0,1,1.008-.06h.612c-.012.672-.024,1.032-.048,1.56h-.684a7.008,7.008,0,0,1-1.068-.072v1.356a7.864,7.864,0,0,1,1.128-.072h.54a7.1,7.1,0,0,1-.5,1.968A4.505,4.505,0,0,1-32.064,15.6a4.177,4.177,0,0,1,.948,1.044,5.612,5.612,0,0,0,1.344-1.764,7.236,7.236,0,0,0,.612-1.632,6.905,6.905,0,0,0,1.44,1.9,4.752,4.752,0,0,1,.564-.924c.036-.048.084-.12.156-.216A7.043,7.043,0,0,1-28.848,11.8Zm4.044,1.536v2.676c0,.636.4.864,1.5.864,1.584,0,1.776-.228,1.9-2.328a3.44,3.44,0,0,1-1.116-.54c-.06,1.572-.1,1.668-.6,1.668-.384,0-.48-.048-.48-.264V13.336h.276c.024,0,.216.012.5.024h.24a1.586,1.586,0,0,1,.348.024,10.761,10.761,0,0,1-.048-1.152V7.576a10.968,10.968,0,0,1,.048-1.212,8.672,8.672,0,0,1-1.164.048h-3.024A9.171,9.171,0,0,1-26.9,6.364a10.227,10.227,0,0,1,.048,1.188v4.632c0,.516-.012.888-.036,1.188.288-.024.612-.036.948-.036-.168,1.464-.864,2.2-2.568,2.736a4.539,4.539,0,0,1,.936,1.044,5.092,5.092,0,0,0,2.124-1.6,4.044,4.044,0,0,0,.708-2.184Zm-1.5-5.76h2.8v.8h-2.8Zm0,1.884h2.8v.8h-2.8Zm0,1.884h2.8v.84h-2.8Zm9.4-.576A9.6,9.6,0,0,1-15.2,10.72H-11.2a9.116,9.116,0,0,1,1.08.048V9.832a12.8,12.8,0,0,0,2.052,1.092A5.344,5.344,0,0,1-7.4,9.58a12.684,12.684,0,0,1-3.084-1.62,7.288,7.288,0,0,1-2.028-1.992h-1.428a7.9,7.9,0,0,1-1.9,2.016,11.2,11.2,0,0,1-3.012,1.668,5.573,5.573,0,0,1,.7,1.224,11.291,11.291,0,0,0,1.92-1.032Zm1.044-1.3c-.216,0-.288,0-.492-.012a10.245,10.245,0,0,0,2.5-2.328A9.775,9.775,0,0,0-10.68,9.46c-.228.012-.336.012-.528.012Zm.12,3.468a12.426,12.426,0,0,1-1.284,2.4c-.612.036-.972.048-1.056.048-.168,0-.372-.012-.7-.036l.192,1.464a14.269,14.269,0,0,1,1.548-.168c.48-.036,2.856-.252,4.044-.36.444-.048,1.164-.132,2.16-.264.2.288.324.456.72,1.044l1.152-.756a24.558,24.558,0,0,0-2.772-3.2l-1.188.528c.672.7.876.912,1.26,1.332-1.68.18-1.68.18-3.8.3a13.045,13.045,0,0,0,1.248-2.328H-9.42a11.165,11.165,0,0,1,1.4.072V11.62a11.3,11.3,0,0,1-1.4.072H-16.9a11.786,11.786,0,0,1-1.416-.072v1.392A11.242,11.242,0,0,1-16.9,12.94Zm12.78,1.98a9.036,9.036,0,0,1-3.408,1A3.871,3.871,0,0,1-4.968,17.1a14.251,14.251,0,0,0,1.836-.48A10.442,10.442,0,0,0-.948,15.556L-1.7,14.92H1.56l-.648.588A9.028,9.028,0,0,0,4.92,17.116a4.023,4.023,0,0,1,.744-1.176,9.518,9.518,0,0,1-3.456-1.02h.96c.6,0,.972.012,1.344.048a2.105,2.105,0,0,1-.036-.48c0-.048-.012-.312-.012-.78V10.672a10.787,10.787,0,0,1,.048-1.284c-.42.036-.756.048-1.344.048H-3.216c-.564,0-.972-.012-1.332-.048A11.874,11.874,0,0,1-4.5,10.672v3.036c0,.6-.024.96-.048,1.26.384-.036.732-.048,1.332-.048Zm-.924-4.488H3.168v.552H-3.216Zm0,1.452H3.168v.552H-3.216Zm0,1.452H3.168v.588H-3.216ZM4.02,7.12A7.3,7.3,0,0,1,4.068,6.2a10.429,10.429,0,0,1-1.356.06H-2.736A10.633,10.633,0,0,1-4.1,6.2a5.975,5.975,0,0,1,.06.924v.924c0,.324-.024.6-.048.9.36-.024.78-.036,1.32-.036H2.76c.528,0,.936.012,1.3.036-.024-.276-.036-.54-.036-.9Zm-1.332.156v.66H-2.724v-.66Zm14.652.156a6.7,6.7,0,0,1-1.188,1.416,8.152,8.152,0,0,1-.744-.6,13.083,13.083,0,0,0,1.236-1.38l-1-.66A6.591,6.591,0,0,1,14.64,7.5a3,3,0,0,1-.8-1.356A6.7,6.7,0,0,1,12.8,6.2H10.548a5.4,5.4,0,0,1-1-.06V7.348a5.342,5.342,0,0,1,.732-.048h1.584a6.268,6.268,0,0,1-1.14,1.212,14.841,14.841,0,0,0-1.68-1.464L8.16,7.84a10.051,10.051,0,0,1,1.608,1.4,10.187,10.187,0,0,1-2.256,1.188,3.749,3.749,0,0,1,.648,1.14,13.04,13.04,0,0,0,2.988-1.86v.78a4.522,4.522,0,0,1,.756-.048h2.652a4.6,4.6,0,0,1,.8.048V9.784a11.588,11.588,0,0,0,2.9,1.74,3.915,3.915,0,0,1,.624-1.2,12.532,12.532,0,0,1-1.824-.852A13,13,0,0,0,18.12,8.356a1.647,1.647,0,0,1,.216-.252ZM11.976,9.376h-.42a9.614,9.614,0,0,0,1.656-1.884,10.376,10.376,0,0,0,1.656,1.884H11.976ZM8.988,15.52a7.535,7.535,0,0,1-1.164-.06v1.3a8.891,8.891,0,0,1,1.248-.06h8.3a8.788,8.788,0,0,1,1.248.06v-1.3a7.708,7.708,0,0,1-1.176.06H15.4c.084-.12.36-.636.552-1l-1-.36h1.164a7.885,7.885,0,0,1,.864.036,5.878,5.878,0,0,1-.048-.876V11.8a5.259,5.259,0,0,1,.048-.8,6.789,6.789,0,0,1-.936.048H10.38A7.447,7.447,0,0,1,9.432,11a5.855,5.855,0,0,1,.048.816v1.512a6.891,6.891,0,0,1-.048.876,7.736,7.736,0,0,1,.864-.036H11.58l-1.056.384a4.621,4.621,0,0,1,.492.972Zm3.324,0a9.715,9.715,0,0,0-.6-1.356h3A7.161,7.161,0,0,1,14.1,15.52Zm-1.6-3.408H15.66v.972H10.716Zm14.256,2.316a10.9,10.9,0,0,0,.576-1.92l-.912-.3a9.137,9.137,0,0,1-.48,1.956Zm.684-2.784a8.084,8.084,0,0,1,1.056,1.908l.924-.612a7.814,7.814,0,0,0-1.044-1.788Zm-2.8-1.716v.8h-.612a10.2,10.2,0,0,1-1.188-.06V11.9a9.816,9.816,0,0,1,1.176-.06h.624V15.2a8.883,8.883,0,0,1-1.872.252l.18,1.32a7.242,7.242,0,0,1,.948-.216,26.886,26.886,0,0,0,3.216-.852v-.48l.384.852c.2-.144.2-.144.4-.276.816-.564.816-.564,1.02-.708a10.222,10.222,0,0,0,.852-.672v1.14c0,.264-.084.312-.528.312a4.708,4.708,0,0,1-.936-.12A3.469,3.469,0,0,1,26.8,16.96c.468.036.792.048,1.056.048.972,0,1.32-.288,1.32-1.092V14.38q-.036-.972-.072-1.332a6.706,6.706,0,0,0,.912,1.86,7.322,7.322,0,0,0,1.464,1.548,5.064,5.064,0,0,1,.72-1.176,5.827,5.827,0,0,1-1.848-1.728,13.412,13.412,0,0,0,1.6-1.7l-.984-.7a5.8,5.8,0,0,1-1.164,1.44,5.659,5.659,0,0,1-.576-1.776h1.608a10.226,10.226,0,0,1,1.14.06V9.688a7.422,7.422,0,0,1-1.152.072h-.072c.048-.624.108-1.68.144-2.3a10.157,10.157,0,0,1,.072-1.164,8.918,8.918,0,0,1-1.1.048h-2.82a8.159,8.159,0,0,1-1.2-.06V7.432a9.45,9.45,0,0,1,1.14-.048h2.688c-.012.324-.012.36-.036.66H27.2a6.2,6.2,0,0,1-1.092-.06v1.14A8.344,8.344,0,0,1,27.2,9.076H29.58c-.012.2-.024.324-.048.684H26.5a7.752,7.752,0,0,1-1.152-.072v1a5.533,5.533,0,0,1-.852.048h-.48v-.8h.348a4.214,4.214,0,0,1,.708.036v-.9l.1.084A4.33,4.33,0,0,1,25.9,8.08a4.792,4.792,0,0,1-1.752-2.016h-1.32a5.543,5.543,0,0,1-2.076,2.592A3.6,3.6,0,0,1,21.3,9.8c.252-.2.324-.264.552-.468v.636a6.994,6.994,0,0,1,.708-.036Zm5.124.888V13.1a12.831,12.831,0,0,1-2.664,1.74v-.252c-.636.192-.852.264-1.308.372v-3.12h.48a4.925,4.925,0,0,1,.936.06V10.864a8.523,8.523,0,0,1,1.068-.048Zm-5.64-1.968a7.151,7.151,0,0,0,1.2-1.7,7.1,7.1,0,0,0,1.272,1.692c-.156.012-.228.012-.444.012H22.344Zm.24,5.748a12.917,12.917,0,0,0-.528-2.328l-.936.288a12.079,12.079,0,0,1,.5,2.34ZM34.572,9.2a15.061,15.061,0,0,1,1.992-.24c2.328-.168,3.072-.24,4.044-.384A5.306,5.306,0,0,0,38.94,9.784,4.179,4.179,0,0,0,37.8,12.6,3.211,3.211,0,0,0,39.516,15.5a7.219,7.219,0,0,0,2.808.792c.228.036.252.036.408.072l.216-1.632c-.12.012-.228.012-.24.012a7.282,7.282,0,0,1-1.788-.312,2.015,2.015,0,0,1-1.6-1.956,3.9,3.9,0,0,1,2.424-3.2,5.367,5.367,0,0,1,2.376-.648,1.858,1.858,0,0,1,.252.012l-.084-1.524a6.465,6.465,0,0,1-1.236.1c-3.2.156-5.256.264-6.132.312-1.764.12-1.764.12-1.98.12-.06,0-.192,0-.456-.012Zm7.344,1.152a8.1,8.1,0,0,1,1.26,1.788l.84-.444a7.777,7.777,0,0,0-1.26-1.764Zm3.528.564A6.94,6.94,0,0,0,44.2,9.22l-.8.42a8.841,8.841,0,0,1,1.224,1.74Z" transform="translate(45.312 10.092)" fill="#211613"/>
</svg>
