<svg xmlns="http://www.w3.org/2000/svg" width="11.496" height="24.512" viewBox="0 0 11.496 24.512">
  <path id="パス_6582" data-name="パス 6582" d="M2.436,7.28h7.14v2.928c0,.288-.072.324-.54.324-.432,0-1.032-.048-1.824-.132a4.617,4.617,0,0,1,.372,1.3c.468.024,1.128.048,1.6.048a2.952,2.952,0,0,0,1.26-.168c.348-.18.492-.516.492-1.128V2.756a11.81,11.81,0,0,1,.048-1.308A11,11,0,0,1,9.672,1.5h-7.3a12.892,12.892,0,0,1-1.332-.048A10.339,10.339,0,0,1,1.092,2.6v7.848a11.4,11.4,0,0,1-.072,1.44H2.5a8.821,8.821,0,0,1-.06-1.392ZM5.28,6.02H2.436V2.768H5.28Zm1.3,0V2.768h3V6.02ZM4.344,20.248a5.964,5.964,0,0,1-.072.7A4.643,4.643,0,0,1,2.7,23.68a5.662,5.662,0,0,1-1.86,1.1,4.259,4.259,0,0,1,.876,1.176,6.951,6.951,0,0,0,3.048-2.64A6.385,6.385,0,0,0,5.7,20.248H8v.7a11.789,11.789,0,0,1-.372,3.192c-.108.18-.24.228-.684.228A9.865,9.865,0,0,1,5.5,24.208a5.154,5.154,0,0,1,.36,1.4c.8.036,1,.048,1.236.048,1.068,0,1.5-.168,1.764-.7a16.365,16.365,0,0,0,.5-5.016V19.54a12.237,12.237,0,0,0,1.488,1.26,5.587,5.587,0,0,1,.912-1.3,9.306,9.306,0,0,1-3.324-3.48,4.485,4.485,0,0,1-.468-1.044L6.636,15.5a4.922,4.922,0,0,1,.252.5,12,12,0,0,0,1.98,3.012c-.288.012-.456.012-.744.012H3.708A6.2,6.2,0,0,1,3.084,19a13.347,13.347,0,0,0,1.932-2.916,3.394,3.394,0,0,1,.324-.612L3.9,14.956a3.73,3.73,0,0,1-.48,1.212A9.252,9.252,0,0,1,.264,19.612a4.172,4.172,0,0,1,.924,1.176,11.929,11.929,0,0,0,1.5-1.332v.852a8.338,8.338,0,0,1,1.02-.06Z" transform="translate(-0.264 -1.448)" fill="#e65035"/>
</svg>
