<svg xmlns="http://www.w3.org/2000/svg" xmlns:xlink="http://www.w3.org/1999/xlink" width="243.354" height="239.331" viewBox="0 0 243.354 239.331">
  <defs>
    <filter id="パス_6577" x="0" y="0" width="243.354" height="239.331" filterUnits="userSpaceOnUse">
      <feOffset dy="3" input="SourceAlpha"/>
      <feGaussianBlur stdDeviation="3" result="blur"/>
      <feFlood flood-opacity="0.161"/>
      <feComposite operator="in" in2="blur"/>
      <feComposite in="SourceGraphic"/>
    </filter>
  </defs>
  <g transform="matrix(1, 0, 0, 1, 0, 0)" filter="url(#パス_6577)">
    <g id="パス_6577-2" data-name="パス 6577" transform="translate(17885.87 -8753.86) rotate(60)" fill="#fff">
      <path d="M -1199.498779296875 19902.986328125 L -1205.419189453125 19892.541015625 L -1205.550903320312 19892.30859375 L -1205.817626953125 19892.2890625 C -1215.778564453125 19891.55859375 -1225.367309570312 19888.978515625 -1234.3173828125 19884.62109375 C -1238.640747070312 19882.515625 -1242.797485351562 19879.994140625 -1246.671997070312 19877.123046875 C -1250.519165039062 19874.275390625 -1254.127563476562 19871.052734375 -1257.396850585938 19867.55078125 C -1271.004150390625 19852.97265625 -1278.497924804688 19833.955078125 -1278.497924804688 19814.001953125 C -1278.497924804688 19808.67578125 -1277.96142578125 19803.3515625 -1276.903198242188 19798.1796875 C -1275.871948242188 19793.138671875 -1274.333251953125 19788.181640625 -1272.329711914062 19783.4453125 C -1270.362426757812 19778.79296875 -1267.927490234375 19774.306640625 -1265.092529296875 19770.109375 C -1262.284301757812 19765.953125 -1259.059326171875 19762.044921875 -1255.507080078125 19758.4921875 C -1251.954711914062 19754.939453125 -1248.0458984375 19751.71484375 -1243.88916015625 19748.90625 C -1239.692626953125 19746.072265625 -1235.206420898438 19743.63671875 -1230.554931640625 19741.669921875 C -1225.817749023438 19739.666015625 -1220.860107421875 19738.126953125 -1215.820068359375 19737.095703125 C -1210.648315429688 19736.0390625 -1205.325073242188 19735.501953125 -1199.998168945312 19735.501953125 C -1194.671997070312 19735.501953125 -1189.34912109375 19736.0390625 -1184.177734375 19737.095703125 C -1179.137939453125 19738.126953125 -1174.180541992188 19739.666015625 -1169.443359375 19741.669921875 C -1164.792114257812 19743.63671875 -1160.305908203125 19746.072265625 -1156.109252929688 19748.90625 C -1151.952392578125 19751.71484375 -1148.04345703125 19754.939453125 -1144.491088867188 19758.4921875 C -1140.938598632812 19762.044921875 -1137.71337890625 19765.953125 -1134.905029296875 19770.109375 C -1132.06982421875 19774.306640625 -1129.634643554688 19778.79296875 -1127.667236328125 19783.4453125 C -1125.663452148438 19788.181640625 -1124.12451171875 19793.138671875 -1123.09326171875 19798.1796875 C -1122.034912109375 19803.3515625 -1121.498291015625 19808.67578125 -1121.498291015625 19814.001953125 C -1121.498291015625 19824.03515625 -1123.365356445312 19833.80859375 -1127.047607421875 19843.046875 C -1128.820190429688 19847.494140625 -1131.018798828125 19851.806640625 -1133.58251953125 19855.865234375 C -1136.11962890625 19859.880859375 -1139.041625976562 19863.69140625 -1142.267333984375 19867.19140625 C -1145.48681640625 19870.68359375 -1149.0419921875 19873.90234375 -1152.834106445312 19876.755859375 C -1156.651489257812 19879.62890625 -1160.749389648438 19882.166015625 -1165.014038085938 19884.291015625 C -1173.834594726562 19888.69140625 -1183.298461914062 19891.353515625 -1193.142700195312 19892.205078125 L -1193.404907226562 19892.228515625 L -1193.53466796875 19892.45703125 L -1199.498779296875 19902.986328125 Z" stroke="none"/>
      <path d="M -1199.498901367188 19901.970703125 L -1193.710205078125 19891.751953125 L -1193.185791015625 19891.70703125 C -1183.404418945312 19890.861328125 -1174.001220703125 19888.21484375 -1165.237182617188 19883.84375 C -1160.999755859375 19881.73046875 -1156.927856445312 19879.212890625 -1153.134765625 19876.357421875 C -1149.36669921875 19873.51953125 -1145.834106445312 19870.322265625 -1142.635009765625 19866.8515625 C -1139.4296875 19863.375 -1136.526245117188 19859.587890625 -1134.005249023438 19855.59765625 C -1131.457885742188 19851.56640625 -1129.273315429688 19847.28125 -1127.512084960938 19842.861328125 C -1123.853393554688 19833.681640625 -1121.998291015625 19823.97265625 -1121.998291015625 19814.001953125 C -1121.998291015625 19808.708984375 -1122.531494140625 19803.419921875 -1123.5830078125 19798.279296875 C -1124.607788085938 19793.271484375 -1126.136840820312 19788.345703125 -1128.127807617188 19783.638671875 C -1130.082641601562 19779.017578125 -1132.502197265625 19774.560546875 -1135.3193359375 19770.390625 C -1138.10986328125 19766.259765625 -1141.314575195312 19762.375 -1144.844604492188 19758.845703125 C -1148.37451171875 19755.31640625 -1152.258666992188 19752.111328125 -1156.38916015625 19749.322265625 C -1160.558959960938 19746.50390625 -1165.0166015625 19744.0859375 -1169.63818359375 19742.130859375 C -1174.344970703125 19740.140625 -1179.2705078125 19738.611328125 -1184.277954101562 19737.5859375 C -1189.41650390625 19736.53515625 -1194.70556640625 19736.001953125 -1199.998168945312 19736.001953125 C -1205.291381835938 19736.001953125 -1210.580932617188 19736.53515625 -1215.719848632812 19737.5859375 C -1220.727661132812 19738.611328125 -1225.6533203125 19740.140625 -1230.360229492188 19742.130859375 C -1234.98193359375 19744.0859375 -1239.439453125 19746.50390625 -1243.609252929688 19749.322265625 C -1247.739624023438 19752.111328125 -1251.623657226562 19755.31640625 -1255.153442382812 19758.845703125 C -1258.683227539062 19762.375 -1261.887817382812 19766.259765625 -1264.67822265625 19770.390625 C -1267.4951171875 19774.560546875 -1269.914428710938 19779.017578125 -1271.869140625 19783.638671875 C -1273.85986328125 19788.345703125 -1275.388671875 19793.271484375 -1276.413330078125 19798.279296875 C -1277.46484375 19803.41796875 -1277.997924804688 19808.708984375 -1277.997924804688 19814.001953125 C -1277.997924804688 19833.828125 -1270.551879882812 19852.724609375 -1257.031372070312 19867.208984375 C -1253.78271484375 19870.689453125 -1250.197143554688 19873.890625 -1246.374389648438 19876.72265625 C -1242.524536132812 19879.57421875 -1238.394287109375 19882.080078125 -1234.098510742188 19884.171875 C -1225.205810546875 19888.501953125 -1215.678466796875 19891.064453125 -1205.781005859375 19891.7890625 L -1205.247802734375 19891.828125 L -1204.984130859375 19892.294921875 L -1199.498901367188 19901.970703125 M -1199.498657226562 19904 L -1205.854125976562 19892.787109375 C -1246.751098632812 19889.7890625 -1278.997924804688 19855.66015625 -1278.997924804688 19814.001953125 C -1278.997924804688 19770.3671875 -1243.631591796875 19735.001953125 -1199.998168945312 19735.001953125 C -1156.36962890625 19735.001953125 -1120.998291015625 19770.3671875 -1120.998291015625 19814.001953125 C -1120.998291015625 19855.3046875 -1152.701782226562 19889.20703125 -1193.099609375 19892.703125 L -1199.498657226562 19904 Z" stroke="none" fill="#dbdbdb"/>
    </g>
  </g>
</svg>
