<svg xmlns="http://www.w3.org/2000/svg" width="94.149" height="11.52" viewBox="0 0 94.149 11.52">
  <path id="パス_6580" data-name="パス 6580" d="M-41.364-1.775h-3.182L-45.144,0H-47.03l3.082-8.637h2.039L-38.851,0h-1.957Zm-.5-1.488-1.078-3.4-1.113,3.4ZM-34.3-4.629a.818.818,0,0,0-.826-.463.986.986,0,0,0-.961.463,1.784,1.784,0,0,0-.135.785V0h-1.693V-6.375H-36.3v.932a2.687,2.687,0,0,1,.586-.709,2,2,0,0,1,1.26-.375,1.992,1.992,0,0,1,1.184.322,1.875,1.875,0,0,1,.551.768,2.123,2.123,0,0,1,.814-.826,2.485,2.485,0,0,1,1.148-.264,2.223,2.223,0,0,1,.832.164,1.856,1.856,0,0,1,.744.574,1.835,1.835,0,0,1,.363.82,5.67,5.67,0,0,1,.059.943L-28.767,0h-1.711V-4.066a1.335,1.335,0,0,0-.117-.6.833.833,0,0,0-.82-.445.96.96,0,0,0-.955.574A1.8,1.8,0,0,0-32.5-3.8V0h-1.682V-3.8A2.136,2.136,0,0,0-34.3-4.629ZM-26.979-5.7a2.727,2.727,0,0,1,2.273-.844,4.039,4.039,0,0,1,1.863.416,1.6,1.6,0,0,1,.814,1.57v2.93q0,.3.012.738a.928.928,0,0,0,.1.445.6.6,0,0,0,.246.193V0h-1.816a1.86,1.86,0,0,1-.105-.363q-.029-.17-.047-.387a3.431,3.431,0,0,1-.8.639A2.4,2.4,0,0,1-25.655.2a2.1,2.1,0,0,1-1.433-.5,1.766,1.766,0,0,1-.565-1.4A1.822,1.822,0,0,1-26.745-3.4a4.033,4.033,0,0,1,1.465-.41l.568-.07a2.607,2.607,0,0,0,.662-.146.5.5,0,0,0,.357-.475.563.563,0,0,0-.272-.542,1.7,1.7,0,0,0-.8-.149A1.042,1.042,0,0,0-25.6-4.9a1.218,1.218,0,0,0-.234.586h-1.611A2.451,2.451,0,0,1-26.979-5.7Zm1.242,4.488a.873.873,0,0,0,.574.193,1.7,1.7,0,0,0,.993-.316A1.349,1.349,0,0,0-23.7-2.484v-.621a1.815,1.815,0,0,1-.319.161,2.671,2.671,0,0,1-.442.114l-.375.07a2.421,2.421,0,0,0-.756.229.766.766,0,0,0-.387.709A.733.733,0,0,0-25.737-1.207ZM-15.618,0h-5.514V-1.3l3.275-3.727h-3.053V-6.387h5.18V-5l-3.24,3.627h3.352Zm6.4-5.578a3.727,3.727,0,0,1,.809,2.4A3.7,3.7,0,0,1-9.22-.776a2.971,2.971,0,0,1-2.455,1,2.971,2.971,0,0,1-2.455-1,3.7,3.7,0,0,1-.809-2.405,3.727,3.727,0,0,1,.809-2.4,2.951,2.951,0,0,1,2.455-1.014A2.951,2.951,0,0,1-9.22-5.578Zm-2.461.4a1.334,1.334,0,0,0-1.128.519,2.4,2.4,0,0,0-.4,1.479,2.413,2.413,0,0,0,.4,1.482,1.331,1.331,0,0,0,1.128.521A1.324,1.324,0,0,0-10.556-1.7a2.426,2.426,0,0,0,.393-1.482,2.413,2.413,0,0,0-.393-1.479A1.326,1.326,0,0,0-11.681-5.18Zm7.471.029a1.163,1.163,0,0,0-1.166.721,2.476,2.476,0,0,0-.164.973V0H-7.2V-6.375h1.611v.932a2.835,2.835,0,0,1,.609-.709,2.118,2.118,0,0,1,1.307-.387,2.465,2.465,0,0,1,1.62.519,2.109,2.109,0,0,1,.63,1.72V0H-3.138V-3.885a1.773,1.773,0,0,0-.135-.773A.948.948,0,0,0-4.21-5.15ZM5.371-7.512,5.179-8.556a6.881,6.881,0,0,1-.144-1.128l-1.584.252a5.59,5.59,0,0,1,.288,1.14l.18,1.008-2.232.348A8.845,8.845,0,0,1,.367-6.8l.24,1.476a11.073,11.073,0,0,1,1.32-.264L4.159-5.94l.36,1.968L1.6-3.5a8.732,8.732,0,0,1-1.272.12L.571-1.92a8.277,8.277,0,0,1,1.224-.252L4.759-2.64,5.191-.276A8.036,8.036,0,0,1,5.347.972L6.955.7A7.9,7.9,0,0,1,6.667-.552L6.235-2.868l2.856-.456.48-.072.192-.036a4.106,4.106,0,0,1,.552-.048l-.264-1.452A8.321,8.321,0,0,1,8.8-4.656L5.983-4.2l-.36-1.968,2.532-.4.684-.108.1-.024c.132-.012.192-.012.372-.024l-.18-1.068.612-.24a8.025,8.025,0,0,0-1.068-1.9L7.795-9.6a7.71,7.71,0,0,1,.9,1.548c-.18.036-.516.1-.792.144Zm5.868-1.14a7,7,0,0,0-1.056-1.824l-.852.336a8.6,8.6,0,0,1,1.032,1.86Zm9.912-.216a4.386,4.386,0,0,1-1.284.12H14.359a8.453,8.453,0,0,1-1.536-.084v1.56a9.526,9.526,0,0,1,1.512-.072h5.712a8.314,8.314,0,0,1-3.636,5.232A9.763,9.763,0,0,1,13.783-.888,4.416,4.416,0,0,1,14.839.54,11.684,11.684,0,0,0,19.3-2.52a11.28,11.28,0,0,0,2.46-5.028,1.8,1.8,0,0,1,.2-.54ZM28.159.54a13.192,13.192,0,0,1-.048-1.332V-3.96a6.2,6.2,0,0,0-.048-.816,3.877,3.877,0,0,0,.408.2A28.391,28.391,0,0,1,32.719-2.28l.84-1.416a35.255,35.255,0,0,0-5.448-2.532V-8.46a8.044,8.044,0,0,1,.048-1.26H26.515A7.713,7.713,0,0,1,26.587-8.5V-.8A8.084,8.084,0,0,1,26.515.54Zm9.12-6.468A7.511,7.511,0,0,1,35.947-6v1.284a9.809,9.809,0,0,1,1.332-.06h.912a7.593,7.593,0,0,1-2.544,1.7,2.576,2.576,0,0,1,.828,1.092,9.868,9.868,0,0,0,1.764-1.2v.612a8.985,8.985,0,0,1,1.272-.072h.36a2.744,2.744,0,0,1-.264.744A3.136,3.136,0,0,1,38.131-.624a5.467,5.467,0,0,1-1.512.48,3.331,3.331,0,0,1,.732,1.188,5.6,5.6,0,0,0,2.844-1.56,4.017,4.017,0,0,0,1.02-2.124h1.944a7.62,7.62,0,0,1-.24,1.992c-.048.18-.216.252-.528.252a9.046,9.046,0,0,1-1.4-.132A3.6,3.6,0,0,1,41.3.768c.5.024.744.036,1.02.036,1.152,0,1.56-.18,1.788-.768A12.4,12.4,0,0,0,44.5-3.1a10.08,10.08,0,0,0,1.848,1.224,3.788,3.788,0,0,1,.768-1.272,6.768,6.768,0,0,1-2.64-1.632h.948a13.49,13.49,0,0,1,1.356.06V-6a7.575,7.575,0,0,1-1.356.072H43.555a10.237,10.237,0,0,1-.576-1.056h1.74a10.567,10.567,0,0,1,1.344.06V-8.208a7.748,7.748,0,0,1-1.344.072h-.576a12.373,12.373,0,0,0,.972-1.392L43.759-9.9a7.428,7.428,0,0,1-1.08,1.764H41.491c.132-.432.264-.888.336-1.212.06-.276.108-.516.156-.684l-1.44-.156v.1a8.863,8.863,0,0,1-.372,1.956h-.624a10.869,10.869,0,0,0-.96-1.728l-1.248.384a8.349,8.349,0,0,1,.852,1.344h-.168a7.439,7.439,0,0,1-1.32-.072v1.284a10.162,10.162,0,0,1,1.32-.06h1.692a7.609,7.609,0,0,1-.588,1.056Zm3.276,0c.216-.4.348-.672.516-1.056h.66a9,9,0,0,0,.48,1.056Zm2.364,1.152a7.715,7.715,0,0,0,.852,1.008H38.9a7.948,7.948,0,0,0,.9-1.008Z" transform="translate(47.03 10.476)" fill="#e65035"/>
</svg>
