<svg id="コンポーネント_12_2" data-name="コンポーネント 12 – 2" xmlns="http://www.w3.org/2000/svg" width="325" height="78" viewBox="0 0 325 78">
  <rect id="長方形_23" data-name="長方形 23" width="325" height="78" rx="5" fill="#f19917"/>
  <path id="パス_6585" data-name="パス 6585" d="M10.206-7.392a18.385,18.385,0,0,0,2.688,1.484,4.893,4.893,0,0,1,.826-1.554,12.331,12.331,0,0,1-3.528-1.862,10.281,10.281,0,0,1-2.422-2.45H6.034A8.4,8.4,0,0,1,3.92-9.464,12.941,12.941,0,0,1,.308-7.392a5.036,5.036,0,0,1,.826,1.428A18.556,18.556,0,0,0,3.78-7.406v1.134a11.308,11.308,0,0,1,1.288-.056H8.834a13.117,13.117,0,0,1,1.372.056ZM5-7.672A7.216,7.216,0,0,1,4.186-7.7a12.5,12.5,0,0,0,2.758-2.674A11.445,11.445,0,0,0,9.758-7.686c-.21.014-.476.014-.826.014Zm6.5,2.632a7.877,7.877,0,0,1-1.442.07H3.668a17.254,17.254,0,0,1-1.75-.084v1.582c.588-.056,1.162-.084,1.736-.084h6.3L7.658-.728A9.846,9.846,0,0,1,6.58.434l1.61.9c.294-.448.532-.784.882-1.246l2.7-3.43c.168-.21.476-.56.616-.7Zm6.776-6.566a14.3,14.3,0,0,1-.42,2.436c-.308.014-.546.014-.714.014a9.721,9.721,0,0,1-1.89-.126v1.6l.742.014c.294.014.378.014.56.014s.252,0,.882-.014a21.538,21.538,0,0,1-1.316,3.3,12.743,12.743,0,0,1-1.358,2.24l1.61.9c.084-.168.084-.168.266-.5.532-.98.658-1.232.98-1.918a26.873,26.873,0,0,0,1.54-4.06c.868-.07,1.722-.168,2.226-.252a2.73,2.73,0,0,1,.448-.07l-.042-1.61a12.008,12.008,0,0,1-2.24.392c.154-.616.224-.9.294-1.232a7.008,7.008,0,0,1,.224-.938Zm8.96,3.64a22.1,22.1,0,0,0-3.948-1.876l-.84,1.358a17.135,17.135,0,0,1,4.032,1.96Zm-.056,6.314a2.507,2.507,0,0,1-.21-.2,5.162,5.162,0,0,0-.49-.378,8.747,8.747,0,0,0-2.212-1.288,14.864,14.864,0,0,1-.126-1.918A4.666,4.666,0,0,1,24.3-6.846L22.68-6.93a7.426,7.426,0,0,0-.112,1.414c0,.42.028.966.07,1.61a6.954,6.954,0,0,0-1.3-.126c-1.778,0-3.024.994-3.024,2.408S19.516.728,21.364.728a3.232,3.232,0,0,0,2.324-.784,2.237,2.237,0,0,0,.6-1.484c0-.056-.014-.154-.028-.28A8.467,8.467,0,0,1,26.4-.084Zm-4.48-.77s.028.336.028.476c0,.784-.462,1.176-1.414,1.176-.868,0-1.372-.336-1.372-.91s.588-.966,1.5-.966A3.529,3.529,0,0,1,22.694-2.422Zm9.324-7.588a25.34,25.34,0,0,0,5.46,1.75l.574-1.61a21,21,0,0,1-5.222-1.554ZM30.9-8.778a5.713,5.713,0,0,1-.084.812c-.252,1.652-.476,3.206-.588,4.074-.07.532-.07.588-.112.84L31.878-3a3.048,3.048,0,0,1,.63-.6A6.372,6.372,0,0,1,35.994-4.62c1.484,0,2.366.56,2.366,1.5,0,1.19-1.372,2.016-3.346,2.016a11.3,11.3,0,0,1-3.766-.7A6.213,6.213,0,0,1,31.458,0a12.873,12.873,0,0,0,3.57.49,6.048,6.048,0,0,0,3.7-.952,3.409,3.409,0,0,0,1.442-2.7c0-1.792-1.568-2.968-3.948-2.968A6.635,6.635,0,0,0,31.976-4.8l-.028-.028c.042-.21.042-.21.07-.406a29.624,29.624,0,0,1,.63-3.444ZM48.966-2.071H45.254L44.557,0h-2.2l3.6-10.076H48.33L51.9,0H49.615Zm-.588-1.736L47.12-7.772l-1.3,3.965ZM57.2-5.4a.954.954,0,0,0-.964-.54,1.15,1.15,0,0,0-1.121.54,2.081,2.081,0,0,0-.157.916V0H52.985V-7.437h1.894v1.087a3.135,3.135,0,0,1,.684-.827,2.339,2.339,0,0,1,1.47-.437,2.324,2.324,0,0,1,1.381.376,2.187,2.187,0,0,1,.643.9,2.477,2.477,0,0,1,.95-.964,2.9,2.9,0,0,1,1.34-.308,2.594,2.594,0,0,1,.971.191,2.166,2.166,0,0,1,.868.67,2.14,2.14,0,0,1,.424.957,6.615,6.615,0,0,1,.068,1.1L63.663,0h-2V-4.744a1.557,1.557,0,0,0-.137-.7.971.971,0,0,0-.957-.52,1.12,1.12,0,0,0-1.114.67,2.1,2.1,0,0,0-.157.854V0H57.34V-4.437A2.492,2.492,0,0,0,57.2-5.4Zm8.545-1.244A3.181,3.181,0,0,1,68.4-7.629a4.712,4.712,0,0,1,2.174.485,1.863,1.863,0,0,1,.95,1.832v3.418q0,.355.014.861a1.083,1.083,0,0,0,.116.52.7.7,0,0,0,.287.226V0H69.822A2.17,2.17,0,0,1,69.7-.424q-.034-.2-.055-.451a4,4,0,0,1-.93.745,2.8,2.8,0,0,1-1.422.362,2.445,2.445,0,0,1-1.671-.578,2.06,2.06,0,0,1-.66-1.637,2.125,2.125,0,0,1,1.06-1.989A4.7,4.7,0,0,1,67.73-4.45l.663-.082a3.041,3.041,0,0,0,.772-.171.586.586,0,0,0,.417-.554.657.657,0,0,0-.318-.632,1.986,1.986,0,0,0-.933-.174,1.216,1.216,0,0,0-.978.342,1.421,1.421,0,0,0-.273.684H65.2A2.859,2.859,0,0,1,65.748-6.645ZM67.2-1.408a1.018,1.018,0,0,0,.67.226,1.984,1.984,0,0,0,1.159-.369,1.574,1.574,0,0,0,.55-1.347v-.725a2.117,2.117,0,0,1-.373.188,3.116,3.116,0,0,1-.516.133l-.437.082a2.825,2.825,0,0,0-.882.267.894.894,0,0,0-.451.827A.855.855,0,0,0,67.2-1.408ZM79,0H72.57V-1.518l3.821-4.348H72.83V-7.451h6.043v1.62L75.093-1.6H79Zm7.465-6.508a4.348,4.348,0,0,1,.943,2.8,4.319,4.319,0,0,1-.943,2.806A3.466,3.466,0,0,1,83.6.26,3.466,3.466,0,0,1,80.739-.906,4.319,4.319,0,0,1,79.8-3.712a4.348,4.348,0,0,1,.943-2.8A3.442,3.442,0,0,1,83.6-7.69,3.442,3.442,0,0,1,86.468-6.508ZM83.6-6.043a1.557,1.557,0,0,0-1.316.6,2.8,2.8,0,0,0-.461,1.726,2.815,2.815,0,0,0,.461,1.729,1.553,1.553,0,0,0,1.316.608,1.544,1.544,0,0,0,1.313-.608,2.83,2.83,0,0,0,.458-1.729,2.815,2.815,0,0,0-.458-1.726A1.547,1.547,0,0,0,83.6-6.043Zm8.716.034a1.356,1.356,0,0,0-1.36.841,2.888,2.888,0,0,0-.191,1.135V0H88.819V-7.437H90.7v1.087a3.307,3.307,0,0,1,.711-.827,2.471,2.471,0,0,1,1.524-.451,2.876,2.876,0,0,1,1.89.6,2.46,2.46,0,0,1,.735,2.006V0h-2V-4.532a2.068,2.068,0,0,0-.157-.9A1.106,1.106,0,0,0,92.313-6.009ZM103.49-8.764l-.224-1.218A8.028,8.028,0,0,1,103.1-11.3L101.25-11a6.522,6.522,0,0,1,.336,1.33L101.8-8.5l-2.6.406a10.319,10.319,0,0,1-1.54.154l.28,1.722a12.918,12.918,0,0,1,1.54-.308l2.6-.406.42,2.3-3.4.546a10.188,10.188,0,0,1-1.484.14l.28,1.708a9.656,9.656,0,0,1,1.428-.294l3.458-.546.5,2.758a9.375,9.375,0,0,1,.182,1.456l1.876-.322A9.217,9.217,0,0,1,105-.644l-.5-2.7,3.332-.532.56-.084L108.614-4a4.79,4.79,0,0,1,.644-.056l-.308-1.694a9.708,9.708,0,0,1-1.456.322L104.2-4.9l-.42-2.3,2.954-.462.8-.126.112-.028c.154-.014.224-.014.434-.028l-.21-1.246.714-.28a9.362,9.362,0,0,0-1.246-2.212l-1.022.378a9,9,0,0,1,1.05,1.806c-.21.042-.6.112-.924.168Zm6.846-1.33a8.17,8.17,0,0,0-1.232-2.128l-.994.392a10.028,10.028,0,0,1,1.2,2.17Zm11.564-.252a5.117,5.117,0,0,1-1.5.14h-6.426a9.861,9.861,0,0,1-1.792-.1v1.82a11.114,11.114,0,0,1,1.764-.084h6.664a9.7,9.7,0,0,1-4.242,6.1A11.391,11.391,0,0,1,113.3-1.036,5.152,5.152,0,0,1,114.536.63a13.631,13.631,0,0,0,5.208-3.57,13.16,13.16,0,0,0,2.87-5.866,2.105,2.105,0,0,1,.238-.63ZM130.076.63a15.389,15.389,0,0,1-.056-1.554v-3.7a7.239,7.239,0,0,0-.056-.952,4.522,4.522,0,0,0,.476.238A33.123,33.123,0,0,1,135.4-2.66l.98-1.652a41.13,41.13,0,0,0-6.356-2.954v-2.6a9.385,9.385,0,0,1,.056-1.47h-1.918a9,9,0,0,1,.084,1.428V-.938A9.432,9.432,0,0,1,128.158.63Zm10.64-7.546A8.763,8.763,0,0,1,139.162-7v1.5a11.444,11.444,0,0,1,1.554-.07h1.064a8.859,8.859,0,0,1-2.968,1.988,3,3,0,0,1,.966,1.274,11.512,11.512,0,0,0,2.058-1.4V-3a10.482,10.482,0,0,1,1.484-.084h.42a3.2,3.2,0,0,1-.308.868A3.658,3.658,0,0,1,141.71-.728a6.378,6.378,0,0,1-1.764.56,3.886,3.886,0,0,1,.854,1.386A6.538,6.538,0,0,0,144.118-.6a4.687,4.687,0,0,0,1.19-2.478h2.268a8.89,8.89,0,0,1-.28,2.324c-.056.21-.252.294-.616.294a10.554,10.554,0,0,1-1.638-.154A4.2,4.2,0,0,1,145.406.9c.588.028.868.042,1.19.042,1.344,0,1.82-.21,2.086-.9a14.464,14.464,0,0,0,.462-3.654A11.76,11.76,0,0,0,151.3-2.184a4.419,4.419,0,0,1,.9-1.484,7.9,7.9,0,0,1-3.08-1.9h1.106a15.739,15.739,0,0,1,1.582.07V-7a8.838,8.838,0,0,1-1.582.084h-2.184a11.945,11.945,0,0,1-.672-1.232h2.03a12.328,12.328,0,0,1,1.568.07v-1.5a9.039,9.039,0,0,1-1.568.084h-.672a14.436,14.436,0,0,0,1.134-1.624l-1.582-.434a8.666,8.666,0,0,1-1.26,2.058H145.63c.154-.5.308-1.036.392-1.414.07-.322.126-.6.182-.8l-1.68-.182v.112a10.341,10.341,0,0,1-.434,2.282h-.728a12.682,12.682,0,0,0-1.12-2.016l-1.456.448a9.74,9.74,0,0,1,.994,1.568h-.2a8.679,8.679,0,0,1-1.54-.084v1.5a11.856,11.856,0,0,1,1.54-.07h1.974a8.876,8.876,0,0,1-.686,1.232Zm3.822,0c.252-.462.406-.784.6-1.232h.77a10.494,10.494,0,0,0,.56,1.232ZM147.3-5.572A9,9,0,0,0,148.29-4.4h-5.684a9.273,9.273,0,0,0,1.05-1.176ZM157.746,0h-2V-6.836h-2.331V-8.162a8.636,8.636,0,0,0,1.292-.123,1.822,1.822,0,0,0,.957-.52,1.711,1.711,0,0,0,.383-.711,1.632,1.632,0,0,0,.075-.4h1.62Zm5.277.7a1.973,1.973,0,0,1-.458.875,2.36,2.36,0,0,1-.851.6,2.2,2.2,0,0,1-.673.2V1.62a1.527,1.527,0,0,0,.865-.547A2.018,2.018,0,0,0,162.224,0h-1.183V-2.037h2.105V-.273A4.106,4.106,0,0,1,163.023.7Zm4.956-.451a2.8,2.8,0,0,1-2.656-1.326,7.672,7.672,0,0,1-.762-3.78,7.713,7.713,0,0,1,.762-3.787,2.8,2.8,0,0,1,2.656-1.333,2.808,2.808,0,0,1,2.659,1.333A7.743,7.743,0,0,1,171.4-4.86a7.672,7.672,0,0,1-.762,3.78A2.8,2.8,0,0,1,167.979.246Zm1.142-2.5a9.753,9.753,0,0,0,.267-2.611,9.567,9.567,0,0,0-.27-2.652,1.1,1.1,0,0,0-1.138-.861,1.119,1.119,0,0,0-1.148.861,9.233,9.233,0,0,0-.28,2.652,9.337,9.337,0,0,0,.28,2.615,1.128,1.128,0,0,0,1.148.906A1.119,1.119,0,0,0,169.121-2.249Zm6.645,2.5A2.8,2.8,0,0,1,173.11-1.08a7.672,7.672,0,0,1-.762-3.78,7.713,7.713,0,0,1,.762-3.787,2.8,2.8,0,0,1,2.656-1.333,2.808,2.808,0,0,1,2.659,1.333,7.743,7.743,0,0,1,.759,3.787,7.672,7.672,0,0,1-.762,3.78A2.8,2.8,0,0,1,175.766.246Zm1.142-2.5a9.753,9.753,0,0,0,.267-2.611,9.567,9.567,0,0,0-.27-2.652,1.1,1.1,0,0,0-1.138-.861,1.119,1.119,0,0,0-1.148.861,9.233,9.233,0,0,0-.28,2.652,9.337,9.337,0,0,0,.28,2.615,1.128,1.128,0,0,0,1.148.906A1.119,1.119,0,0,0,176.907-2.249Zm6.645,2.5A2.8,2.8,0,0,1,180.9-1.08a7.672,7.672,0,0,1-.762-3.78,7.713,7.713,0,0,1,.762-3.787,2.8,2.8,0,0,1,2.656-1.333,2.808,2.808,0,0,1,2.659,1.333,7.743,7.743,0,0,1,.759,3.787,7.672,7.672,0,0,1-.762,3.78A2.8,2.8,0,0,1,183.552.246Zm1.142-2.5a9.753,9.753,0,0,0,.267-2.611,9.567,9.567,0,0,0-.27-2.652,1.1,1.1,0,0,0-1.138-.861,1.119,1.119,0,0,0-1.148.861,9.233,9.233,0,0,0-.28,2.652,9.337,9.337,0,0,0,.28,2.615,1.128,1.128,0,0,0,1.148.906A1.119,1.119,0,0,0,184.693-2.249Zm5.631-2.091h8.33V-.924c0,.336-.084.378-.63.378-.5,0-1.2-.056-2.128-.154A5.387,5.387,0,0,1,196.33.812c.546.028,1.316.056,1.862.056a3.443,3.443,0,0,0,1.47-.2c.406-.21.574-.6.574-1.316V-9.618a13.78,13.78,0,0,1,.056-1.526,12.834,12.834,0,0,1-1.526.056h-8.512a15.04,15.04,0,0,1-1.554-.056,12.064,12.064,0,0,1,.056,1.344V-.644a13.3,13.3,0,0,1-.084,1.68h1.722a10.291,10.291,0,0,1-.07-1.624Zm3.318-1.47h-3.318V-9.6h3.318Zm1.512,0V-9.6h3.5V-5.81Zm9.646-4.368a9.592,9.592,0,0,1-1.792-.1v1.82a10.087,10.087,0,0,1,1.764-.084h6.664a10.153,10.153,0,0,1-7.308,7.532A5.152,5.152,0,0,1,205.36.658,12.556,12.556,0,0,0,213.4-8.624a1.913,1.913,0,0,0,.266.028,1.625,1.625,0,0,0,1.624-1.624,1.622,1.622,0,0,0-1.624-1.61,1.613,1.613,0,0,0-1.61,1.624c-.238.014-.406.028-.826.028Zm8.862-.952a.911.911,0,0,1,.924.91.923.923,0,0,1-.924.924.92.92,0,0,1-.91-.924A.908.908,0,0,1,213.662-11.13Zm4.62.112a6.811,6.811,0,0,1,.07,1.442l-.056,7.56a4.937,4.937,0,0,1-.126,1.442l.9,1.078a4.011,4.011,0,0,1,.84-.238A12.762,12.762,0,0,0,225-1.652a10.437,10.437,0,0,0,3.122-3.262,6.576,6.576,0,0,1-1.33-1.428,8.273,8.273,0,0,1-2.856,3.206,10.069,10.069,0,0,1-3.822,1.54l.07-7.994A10.835,10.835,0,0,1,220.27-11Zm22.946,2.17a2.763,2.763,0,0,1-1.078.238l-5.1.616V-9.758a7.389,7.389,0,0,1,.084-1.3h-1.932a6.958,6.958,0,0,1,.084,1.33V-7.8l-1.484.182c-.378.042-.98.084-1.232.084h-.336l.182,1.722c.294-.07.448-.112.644-.14l.91-.126,1.316-.168v3.206a5.421,5.421,0,0,0,.14,1.778,1.857,1.857,0,0,0,1.2,1.288,9.659,9.659,0,0,0,2.492.238A31.188,31.188,0,0,0,240.6.028a5.833,5.833,0,0,1,.854-.056l-.084-1.89a15.5,15.5,0,0,1-4.3.546,3.081,3.081,0,0,1-1.736-.28c-.252-.21-.294-.448-.294-1.638V-6.44c2.338-.322,3.052-.42,4.312-.56.21-.028.322-.042.532-.084a7.139,7.139,0,0,1-2.842,2.814,4.535,4.535,0,0,1,1.4,1.12,10.283,10.283,0,0,0,3.43-4.088,3.926,3.926,0,0,1,.392-.686Zm-1.974-2.492a9.3,9.3,0,0,1,1.3,2.2l1.036-.392A8.634,8.634,0,0,0,240.3-11.7Zm4.172,1.176a7.983,7.983,0,0,0-1.288-2.1l-.994.378a9.622,9.622,0,0,1,1.246,2.142Zm1.764,1.176a14.7,14.7,0,0,1,3.57,2.842l1.2-1.526a19.828,19.828,0,0,0-3.612-2.7Zm.49,9.24A4.956,4.956,0,0,1,246.6.014a15.122,15.122,0,0,0,5.334-2.1,12.287,12.287,0,0,0,4.438-5.488,6.036,6.036,0,0,1-1.484-1.372,11.69,11.69,0,0,1-1.428,2.8,9.354,9.354,0,0,1-4.158,3.43,13.34,13.34,0,0,1-4.144,1.036ZM263.11.63a15.393,15.393,0,0,1-.056-1.554v-3.7A7.234,7.234,0,0,0,263-5.572a4.525,4.525,0,0,0,.476.238A33.123,33.123,0,0,1,268.43-2.66l.98-1.652a41.132,41.132,0,0,0-6.356-2.954v-2.6a9.385,9.385,0,0,1,.056-1.47h-1.918a9,9,0,0,1,.084,1.428V-.938A9.43,9.43,0,0,1,261.192.63Z" transform="translate(15 28)" fill="#211613"/>
  <path id="パス_6586" data-name="パス 6586" d="M11.106-9.288v-3.078A21.913,21.913,0,0,0,16.29-13.7a6.005,6.005,0,0,1,.648-.252l-.918-1.008a5.7,5.7,0,0,1-1.656.774,17.368,17.368,0,0,1-4.266.828H9.882c.054.522.09,1.3.09,3.33C9.972-4.014,9.432-1.494,7.7.63a3.783,3.783,0,0,1,1.026.756A9.351,9.351,0,0,0,10.062-1.08a19.765,19.765,0,0,0,1.026-6.462v-.7h2.826V-.4a10.908,10.908,0,0,1-.108,1.8h1.386a8.988,8.988,0,0,1-.108-1.8V-8.244h.666a9.357,9.357,0,0,1,1.584.09V-9.4a9.131,9.131,0,0,1-1.656.108ZM5.8-13.3v-.486a6.021,6.021,0,0,1,.09-1.26H4.572a6.233,6.233,0,0,1,.09,1.26v.486h-1.8a8.729,8.729,0,0,1-1.584-.09v1.206a9.124,9.124,0,0,1,1.566-.09H7.452a9.177,9.177,0,0,1,1.53.09v-1.206a8.321,8.321,0,0,1-1.512.09ZM2.412-9.162a7.983,7.983,0,0,1-1.494-.09v1.206a8.221,8.221,0,0,1,1.494-.09H7.758a8.394,8.394,0,0,1,1.458.09V-9.252a7.906,7.906,0,0,1-1.458.09H6.7a19.078,19.078,0,0,0,1.224-2.61l-1.08-.342A9.56,9.56,0,0,1,5.634-9.162ZM4.284-5.148A8.52,8.52,0,0,1,2.97-3.222,12.04,12.04,0,0,1,.63-1.242,3.684,3.684,0,0,1,1.314-.234a10.664,10.664,0,0,0,3.4-4c-.036.594-.054,1.062-.054,1.494V-.18a9.94,9.94,0,0,1-.108,1.548H5.8A9.958,9.958,0,0,1,5.706-.18V-2.79c-.018-.666-.036-1.188-.072-1.584A9.242,9.242,0,0,0,7.884-1.89a4.509,4.509,0,0,1,.63-.972A7.616,7.616,0,0,1,5.976-5.148h1.71a7.906,7.906,0,0,1,1.458.09v-1.17a6.979,6.979,0,0,1-1.458.108H5.706v-.954a3.313,3.313,0,0,1,.072-.738H4.572a3.313,3.313,0,0,1,.09.738v.954h-2.2A6.642,6.642,0,0,1,.954-6.228V-5.04A6.573,6.573,0,0,1,2.43-5.148ZM4.3-9.666A10.708,10.708,0,0,0,3.276-12.1l-.954.36A10.036,10.036,0,0,1,3.348-9.324Zm21.78,3.258a7.966,7.966,0,0,1,1.35.09V-7.542a8.724,8.724,0,0,1-1.422.09H24.786c.09-1.224.126-1.854.144-2.97h1.134a7.838,7.838,0,0,1,1.35.09v-1.206a11.347,11.347,0,0,1-1.422.09H24.948c.018-.63.018-.72.018-1.188a12.764,12.764,0,0,1,.09-1.962H23.778a9.133,9.133,0,0,1,.108,1.6v1.548h-1.26a8.995,8.995,0,0,1-1.476-.108v1.242a9.646,9.646,0,0,1,1.476-.108H23.85q-.054,2.106-.108,2.97h-1.4a8.995,8.995,0,0,1-1.476-.108V-6.3a10.031,10.031,0,0,1,1.53-.108h1.26a10.757,10.757,0,0,1-.72,3.06A7.178,7.178,0,0,1,20.538,0a2.469,2.469,0,0,1,.9.81,10.181,10.181,0,0,0,3.078-5.832,11.669,11.669,0,0,0,2.466,3.438,4.6,4.6,0,0,1,.7-.99A12.022,12.022,0,0,1,24.75-6.408Zm3.708,2.34a5.1,5.1,0,0,1-.684,2.394A5.677,5.677,0,0,1,25.578.5a3.8,3.8,0,0,1,.846.918,12.7,12.7,0,0,0,1.35-.594A5.933,5.933,0,0,0,29.862-.864a6.066,6.066,0,0,0,1.026-3.2h1.44V-.126c0,.972.36,1.206,1.854,1.206,2.43,0,2.628-.18,2.97-2.934a2.841,2.841,0,0,1-1.008-.522,5.671,5.671,0,0,1-.378,2.07c-.144.27-.45.36-1.3.36-.954,0-1.08-.054-1.08-.414V-4.068H34A12.558,12.558,0,0,1,35.622-4a12.873,12.873,0,0,1-.072-1.638v-6.7a17.458,17.458,0,0,1,.072-1.836,10.477,10.477,0,0,1-1.746.09h-4.1a11.187,11.187,0,0,1-1.728-.09,11.536,11.536,0,0,1,.09,1.782v6.642c0,.9-.018,1.386-.054,1.728q.567-.054,1.35-.054Zm-.576-9H34.47v1.98H29.214Zm0,2.952H34.47v2.034H29.214Zm0,3.006H34.47V-5H29.214ZM46.44-4.842A27.137,27.137,0,0,1,44.154-.5c-1.62.108-1.62.108-1.908.108a8.332,8.332,0,0,1-.918-.054L41.544.918A21.6,21.6,0,0,1,44.586.594c2.808-.216,5.526-.5,8.73-.936.378.468.612.774,1.314,1.764l.99-.738a38.932,38.932,0,0,0-4.356-4.752l-.936.576c.792.738,1.116,1.062,2.2,2.232-2.664.324-4.536.5-7.02.666a27.075,27.075,0,0,0,2.25-4.248h6.462a15.628,15.628,0,0,1,2.052.108v-1.3a15.253,15.253,0,0,1-2.052.108H43.128a15.439,15.439,0,0,1-2.052-.108v1.3a15.439,15.439,0,0,1,2.052-.108Zm1.494-10.044a13.238,13.238,0,0,1-2.862,3.2A18.884,18.884,0,0,1,40.3-8.748a3.613,3.613,0,0,1,.756,1.026,19.773,19.773,0,0,0,4.86-3.168,15.578,15.578,0,0,0,2.7-2.952,14.946,14.946,0,0,0,2.88,3.078,24.729,24.729,0,0,0,5,3.132,3.812,3.812,0,0,1,.7-1.152,19.443,19.443,0,0,1-4.968-2.88,12.1,12.1,0,0,1-3.024-3.222ZM44.28-8.118a10.352,10.352,0,0,1,1.4-.072h5.832a11.08,11.08,0,0,1,1.512.072V-9.324a10.913,10.913,0,0,1-1.512.072H45.7a9.5,9.5,0,0,1-1.422-.072Zm29.934-4.968a9.351,9.351,0,0,1,.072-1.3,14.955,14.955,0,0,1-2.052.09H64.6a14.794,14.794,0,0,1-2.052-.09,10.427,10.427,0,0,1,.072,1.3v1.134a9.147,9.147,0,0,1-.072,1.26c.54-.036,1.188-.054,2.016-.054h7.686c.828,0,1.494.018,2.034.054a8.655,8.655,0,0,1-.072-1.26Zm-1.152-.252v1.674H63.756v-1.674ZM61.938-3.51a12.458,12.458,0,0,1-.072,1.89A20.125,20.125,0,0,1,63.9-1.692h9a19.9,19.9,0,0,1,2.034.072c-.036-.342-.054-.486-.054-.612v-.306l-.018-.972V-7.7a17.1,17.1,0,0,1,.072-1.962c-.54.054-1.134.072-2.034.072h-9a20.125,20.125,0,0,1-2.034-.072A17.714,17.714,0,0,1,61.938-7.7Zm1.116-5.13H73.746v1.368H63.054Zm0,2.268H73.746v1.4H63.054Zm0,2.3H73.746v1.44H63.054Zm2.3,2.448a11.1,11.1,0,0,1-5.2,2.07,3.542,3.542,0,0,1,.81,1.044A20.956,20.956,0,0,0,63.72.576,11.6,11.6,0,0,0,66.312-.9Zm5.04.684a14.653,14.653,0,0,0,5.454,2.448A3.685,3.685,0,0,1,76.626.5a13.47,13.47,0,0,1-5.364-2.142Zm24.156-11.5a11.514,11.514,0,0,1-2.142,2.5,16.184,16.184,0,0,1-1.53-1.368,23.686,23.686,0,0,0,2.2-2.34l-.936-.666a11.056,11.056,0,0,1-1.872,2.34,5.551,5.551,0,0,1-1.458-2.5,11.232,11.232,0,0,1-1.6.072h-3.4a6.191,6.191,0,0,1-1.3-.09v1.134a11.315,11.315,0,0,1,1.17-.09h3.276a12.277,12.277,0,0,1-2.232,2.682A24.518,24.518,0,0,0,82.1-13l-.792.72a19.529,19.529,0,0,1,2.628,2.2A15.8,15.8,0,0,1,79.812-7.6a3,3,0,0,1,.684.954A17.342,17.342,0,0,0,85.32-9.9a14.408,14.408,0,0,0,2.826-3.438,12.172,12.172,0,0,0,2.538,3.258A16.248,16.248,0,0,0,95.85-6.714a3.611,3.611,0,0,1,.666-1.026A12.783,12.783,0,0,1,93.186-9.4a19.453,19.453,0,0,0,1.494-1.458c.558-.63.558-.63.81-.9ZM82.026-.252A9.362,9.362,0,0,1,80.28-.36V.882A12.081,12.081,0,0,1,82.062.774h12.33a12.178,12.178,0,0,1,1.8.108V-.36a11.487,11.487,0,0,1-1.764.108H90.9a17.132,17.132,0,0,0,1.134-1.962L90.972-2.7A12.4,12.4,0,0,1,89.766-.252H86.652A17.87,17.87,0,0,0,85.5-2.61l-1.062.378A11.806,11.806,0,0,1,85.5-.252Zm3.042-8.064a7.788,7.788,0,0,1,1.458-.09H89.91a7.6,7.6,0,0,1,1.422.09V-9.45a7.049,7.049,0,0,1-1.4.09H86.49a7.366,7.366,0,0,1-1.422-.09ZM91.98-2.88c.612,0,.99.018,1.422.054a6.2,6.2,0,0,1-.072-1.206V-5.958A8.042,8.042,0,0,1,93.4-7.164a10.931,10.931,0,0,1-1.44.072H84.438A11.287,11.287,0,0,1,83-7.164a8.859,8.859,0,0,1,.072,1.206v1.926A9.036,9.036,0,0,1,83-2.826c.414-.036.792-.054,1.386-.054ZM84.186-6.1h8.028v2.25H84.186ZM110.61-.18c0,.36-.144.45-.756.45a10.6,10.6,0,0,1-1.692-.162,4.214,4.214,0,0,1,.234,1.134c.756.054,1.3.072,1.674.072,1.206,0,1.584-.324,1.584-1.35V-2.754c0-1.008-.036-1.692-.108-3.33A11.062,11.062,0,0,0,112.9-2.9a10.774,10.774,0,0,0,2.988,3.2,3.641,3.641,0,0,1,.774-.99A10.028,10.028,0,0,1,113.4-3.87,20.086,20.086,0,0,0,115.866-6.7l-.936-.63a11.26,11.26,0,0,1-2.016,2.61,11.893,11.893,0,0,1-1.242-3.4v-.054h2.916a10.568,10.568,0,0,1,1.674.09V-9.234a10.947,10.947,0,0,1-1.692.108h-.4c.126-1.548.18-2.376.234-3.312a12.779,12.779,0,0,1,.162-1.872,15.447,15.447,0,0,1-1.746.072h-3.888a10.932,10.932,0,0,1-1.71-.09v1.134a10.932,10.932,0,0,1,1.71-.09H113.4c-.036.864-.054,1.044-.072,1.584h-4.05a8.645,8.645,0,0,1-1.548-.09v1.1a9.279,9.279,0,0,1,1.548-.09h3.978c-.054.756-.054.792-.144,1.656h-5.058a10.358,10.358,0,0,1-1.638-.108v1.152a9.808,9.808,0,0,1,1.638-.09h2.556V-4.05a21.547,21.547,0,0,1-4.284,2.718l-.036-.828c-.99.4-1.35.522-2.142.774V-6.642h.756a9.619,9.619,0,0,1,1.584.09V-7.686a9.753,9.753,0,0,1-1.584.09h-.756V-9.468h.612a7.888,7.888,0,0,1,1.206.072v-1.062a7.593,7.593,0,0,1-1.206.072h-2.214a7.21,7.21,0,0,1-1.188-.072,11.557,11.557,0,0,0,2.376-3.42,10.588,10.588,0,0,0,2.538,3.366,4.82,4.82,0,0,1,.648-.936,8.1,8.1,0,0,1-2.61-3.312h-1.278a9.256,9.256,0,0,1-3.24,4.284,2.347,2.347,0,0,1,.648.882c.432-.378.594-.522.9-.828V-9.4a8.337,8.337,0,0,1,1.17-.072h.612V-7.6H101.9a10.819,10.819,0,0,1-1.692-.09v1.134a11.135,11.135,0,0,1,1.674-.09h1.242V-1.1A14.63,14.63,0,0,1,100.1-.5L100.332.7A10.437,10.437,0,0,1,101.412.4a37.058,37.058,0,0,0,4.932-1.566l.468.9c.234-.144.234-.144.54-.342,1.458-.936,1.458-.936,1.782-1.17.5-.36.864-.63,1.476-1.116Zm-8.334-1.854a22.828,22.828,0,0,0-.846-3.654l-.882.288a18.373,18.373,0,0,1,.792,3.69Zm3.312-.432a20.327,20.327,0,0,0,.864-3.078l-.9-.342a11.576,11.576,0,0,1-.774,3.132Zm1.584-4.428a12.718,12.718,0,0,1,1.512,2.952l.882-.558a17.891,17.891,0,0,0-1.53-2.808Zm18.234-2.394h.072a.827.827,0,0,1,.18.018,2.68,2.68,0,0,1,.306.018,4.72,4.72,0,0,1,.576.036c.63.036,1.3.054,2.034.054.684,0,1.242-.018,2.052-.054.054,2.628.126,4.32.18,4.7a5.085,5.085,0,0,0-2-.36c-2,0-3.42,1.062-3.42,2.556,0,1.566,1.314,2.556,3.4,2.556A3.074,3.074,0,0,0,131.8-1.278a3.1,3.1,0,0,0,.216-1.224,2.582,2.582,0,0,0-.036-.468,1.262,1.262,0,0,1,.162.108,1.155,1.155,0,0,0,.18.108,9.726,9.726,0,0,1,2.556,1.872l.558-1.26c-.2-.126-.234-.162-.45-.306a13.029,13.029,0,0,0-3.006-1.764c-.144-2.394-.18-3.312-.2-5.094a17.208,17.208,0,0,0,1.908-.288c1.224-.252,1.224-.252,1.26-.252l-.054-1.224a12.268,12.268,0,0,1-3.114.666c-.018-.4-.018-.684-.018-.882a18.417,18.417,0,0,1,.126-2.826h-1.35a3.993,3.993,0,0,1,.054.738c0,1.368,0,1.368.018,3.06-.738.036-1.224.054-1.926.054a12.46,12.46,0,0,1-3.24-.288Zm5.418,5.868s.018.414.018.54a2.1,2.1,0,0,1-.342,1.4,2.481,2.481,0,0,1-1.836.63c-1.26,0-2.088-.576-2.088-1.458,0-.9.918-1.494,2.322-1.494A4.649,4.649,0,0,1,130.824-3.42Zm-8.6-10.71a8.29,8.29,0,0,1-.2,1.134,30.5,30.5,0,0,0-.936,7.4,28.654,28.654,0,0,0,.5,5.346c.072.414.09.5.108.666l1.278-.126a1.961,1.961,0,0,1-.036-.36,15.544,15.544,0,0,1,1.548-5.112l-.882-.414a2.483,2.483,0,0,1-.144.36A15.978,15.978,0,0,0,122.4-2.07l-.072-.018V-2.43c-.018-.324-.018-.36-.018-.5-.036-.828-.072-1.89-.072-2.52a25.648,25.648,0,0,1,1.386-8.442Zm20.61,2.466a4.227,4.227,0,0,1,.594.054,35.21,35.21,0,0,0,3.96.234,14.227,14.227,0,0,0,2.718-.234c-.18.108-.216.108-.342.18-.216.108-.252.126-.45.234A27.888,27.888,0,0,0,146.916-9.7l.918.738A25.637,25.637,0,0,1,152.37-11.7l-.09-1.188a19.685,19.685,0,0,1-4.554.378,20.579,20.579,0,0,1-4.788-.432Zm1.08,4.608c-1.386,1.17-2.07,2.3-2.07,3.474a2.867,2.867,0,0,0,2.052,2.718,12.7,12.7,0,0,0,4.14.558,29.362,29.362,0,0,0,4.86-.414,5.034,5.034,0,0,1,.612-.09l-.162-1.476a17.076,17.076,0,0,1-5.4.684,11.462,11.462,0,0,1-3.294-.36c-1.008-.342-1.53-.936-1.53-1.764,0-.846.54-1.674,1.71-2.646ZM160.542-10.4h.144c.108,0,.27,0,.5.018,1.044.072,1.836.108,2.988.126a27.138,27.138,0,0,1-2.412,5.868l1.3.522a3.851,3.851,0,0,1,1.512-1.152,9.8,9.8,0,0,1,4.176-.972c2.16,0,3.456.828,3.456,2.2,0,1.728-1.872,2.862-4.716,2.862a10.985,10.985,0,0,1-4.5-.9c.054.576.09.9.09.99v.108a1.99,1.99,0,0,1-.018.288,13.456,13.456,0,0,0,4.446.7c3.636,0,6.03-1.6,6.03-4.05,0-2.016-1.818-3.312-4.662-3.312A9.233,9.233,0,0,0,163.638-5.6l-.018-.036a24.325,24.325,0,0,0,1.8-4.626,60.155,60.155,0,0,0,6.678-.522c.378-.054.486-.054.792-.09l-.09-1.3a30.556,30.556,0,0,1-7.092.774c.18-.648.234-.864.486-1.908a9.128,9.128,0,0,1,.288-1.152l-1.44-.144a14.026,14.026,0,0,1-.576,3.222,16.456,16.456,0,0,1-3.888-.306Zm23.382-2.646a20.048,20.048,0,0,0,2.754,1.134,27.764,27.764,0,0,0,3.51,1.026l.5-1.26a21.7,21.7,0,0,1-6.1-2Zm-1.494,1.944a6.053,6.053,0,0,1-.126.954c-.252,1.512-.576,3.6-.756,4.968-.072.576-.09.738-.144,1.062l1.4.036a3.129,3.129,0,0,1,.72-.738,8.72,8.72,0,0,1,5.04-1.566c2.2,0,3.492.864,3.492,2.34,0,1.836-1.89,3.024-4.86,3.024a12.784,12.784,0,0,1-4.59-.9,4.163,4.163,0,0,1,.126,1.116,2.839,2.839,0,0,1-.018.342c1.1.27,1.1.27,1.44.36a14.955,14.955,0,0,0,3.15.324A7.471,7.471,0,0,0,191.79-.972a3.848,3.848,0,0,0,1.62-3.1c0-2.106-1.89-3.474-4.824-3.474a8.91,8.91,0,0,0-5.2,1.548,5.041,5.041,0,0,0-.558.54l-.036-.018a2.168,2.168,0,0,0,.072-.414c.054-.414.09-.54.522-3.15a15.062,15.062,0,0,1,.414-1.98Z" transform="translate(93 56)" fill="#fff"/>
  <path id="長方形_1458" data-name="長方形 1458" d="M0,0H16a5,5,0,0,1,5,5V73a5,5,0,0,1-5,5H0a0,0,0,0,1,0,0V0A0,0,0,0,1,0,0Z" transform="translate(304)" fill="#211613"/>
  <g id="Icon_-_ArrowRight_-_Small" data-name="Icon - ArrowRight - Small" transform="translate(311.522 33.666)">
    <path id="パス_36" data-name="パス 36" d="M4.073,5.287,0,1.213,1.213,0l2.86,2.86L6.933,0,8.147,1.213Z" transform="translate(0 8.147) rotate(-90)" fill="#f19917"/>
  </g>
  <g id="グループ_4227" data-name="グループ 4227" transform="translate(-1504.523 -757.5)">
    <rect id="長方形_32" data-name="長方形 32" width="69" height="26" rx="13" transform="translate(1519.523 794.5)" fill="#fff"/>
    <path id="パス_6587" data-name="パス 6587" d="M-14.256-7.9h-.832A9.981,9.981,0,0,1-16.64-8v1.1a10.88,10.88,0,0,1,1.552-.1h.832v2.9h-.432a9.981,9.981,0,0,1-1.552-.1V-3.1a10.329,10.329,0,0,1,1.5-.1H-4.3a10.336,10.336,0,0,1,1.536.1V-4.192a9.7,9.7,0,0,1-1.552.1h-.544v-2.9H-4a10.653,10.653,0,0,1,1.568.1V-8A10.067,10.067,0,0,1-4-7.9h-.864v-2.864c.688,0,1.184.032,1.776.08V-11.76a14.371,14.371,0,0,1-2.016.1H-13.28c.336-.512.48-.736.848-1.392.112-.176.144-.24.24-.384l-1.12-.272a4.062,4.062,0,0,1-.32.848,9.974,9.974,0,0,1-3.1,3.568,2.4,2.4,0,0,1,.768.672A11.879,11.879,0,0,0-14.256-10.4Zm.928-2.864h1.9V-7.9h-1.9Zm0,3.776h1.9v2.9h-1.9Zm2.784,2.9v-2.9h1.888v2.9Zm0-3.808v-2.864h1.888V-7.9ZM-7.776-4.1v-2.9h1.984v2.9Zm0-3.808v-2.864h1.984V-7.9Zm5.1,8.24A15.073,15.073,0,0,0-4.7-2.672l-.816.432A12.349,12.349,0,0,1-3.568.912ZM-7.12.656a14.794,14.794,0,0,0-.96-3.2l-.864.256A13.162,13.162,0,0,1-8.112.928Zm-3.648.16a17.052,17.052,0,0,0-.48-3.3l-.9.144A17.068,17.068,0,0,1-11.776.976Zm-4.912.192a9.9,9.9,0,0,0,2.048-3.232L-14.5-2.7A6.862,6.862,0,0,1-16.512.3Zm29.84-4.96L9.792-2.912a8.693,8.693,0,0,1-1.536.256L8.464-1.52a11.067,11.067,0,0,1,1.488-.432L14.16-2.976V-.56a9.39,9.39,0,0,1-.1,1.76H15.28a12.421,12.421,0,0,1-.1-1.744V-3.216l.368-.1a11.25,11.25,0,0,1,1.536-.272L16.9-4.7a10.007,10.007,0,0,1-1.472.448l-.24.048v-7.36a11.486,11.486,0,0,1,.1-1.664H14.064a10.157,10.157,0,0,1,.1,1.68ZM5.28-6.88a12.914,12.914,0,0,1-.9,2.144,10.149,10.149,0,0,1-1.9,2.688,3.361,3.361,0,0,1,.608.9A12.153,12.153,0,0,0,5.552-5.728c-.048.848-.08,1.744-.08,2.48v2.72a14.122,14.122,0,0,1-.1,1.776H6.544a13.165,13.165,0,0,1-.1-1.76V-3.5c0-.3-.048-1.728-.08-2.368A9.467,9.467,0,0,0,8.24-3.056,5.589,5.589,0,0,1,8.8-3.92,9.564,9.564,0,0,1,6.512-6.88h.88a8.456,8.456,0,0,1,1.2.064V-7.824a7.667,7.667,0,0,1-1.184.064h-.96v-3.792a10.658,10.658,0,0,1,.1-1.7H5.376a11.321,11.321,0,0,1,.1,1.712V-7.76H4.208a7.244,7.244,0,0,1-1.392-.08V-6.8a7.886,7.886,0,0,1,1.392-.08ZM2.9-11.872A14.158,14.158,0,0,1,3.952-8.448L4.8-8.816A18.774,18.774,0,0,0,3.728-12.24Zm5.168-.416A11.941,11.941,0,0,1,6.9-8.816l.784.368a18.066,18.066,0,0,0,1.3-3.488Zm1.616.96a13.543,13.543,0,0,1,2.912,2.592l.656-.832a16.4,16.4,0,0,0-2.88-2.5Zm-.5,4a11.772,11.772,0,0,1,2.9,2.5l.672-.8A14.176,14.176,0,0,0,9.888-8.064Z" transform="translate(1554.523 813.5)" fill="#f19917"/>
  </g>
</svg>
