<svg xmlns="http://www.w3.org/2000/svg" width="212" height="688.696" viewBox="0 0 212 688.696">
  <g id="グループ_4303" data-name="グループ 4303" transform="translate(-81.5 -5206)">
    <g id="グループ_4247" data-name="グループ 4247" transform="translate(94.035 5209.697)">
      <path id="パス_12" data-name="パス 12" d="M73.224,120.506H66.71a.846.846,0,0,1-.8-.737l-.9-5.064a1.012,1.012,0,0,1,.167-.767.782.782,0,0,1,.631-.338H74.12a.782.782,0,0,1,.631.338,1.012,1.012,0,0,1,.167.767l-.9,5.064A.846.846,0,0,1,73.224,120.506Zm-5.847-1.842h5.179l.57-3.223H66.808Z" transform="translate(-12.068 -9.002)" fill="#333"/>
      <path id="線_7" data-name="線 7" d="M-.186,20.73a.727.727,0,0,1-.128-.011.913.913,0,0,1-.678-1.052L1.777-.222a.945.945,0,0,1,.325-.6.743.743,0,0,1,.606-.165A.913.913,0,0,1,3.387.063L.619,19.952a.852.852,0,0,1-.8.778Z" transform="translate(52.873 114.99)" fill="#333"/>
      <path id="線_8" data-name="線 8" d="M2.583,20.73a.852.852,0,0,1-.8-.778L-.99.063A.913.913,0,0,1-.312-.989a.833.833,0,0,1,.931.767L3.388,19.666a1.007,1.007,0,0,1-.186.741.779.779,0,0,1-.619.322Z" transform="translate(60.527 114.99)" fill="#333"/>
      <path id="パス_13" data-name="パス 13" d="M66.959,63.5a19.529,19.529,0,0,1,7.026,1.249A16.367,16.367,0,0,1,79.777,68.5c3.5,3.515,5.342,8.6,5.342,14.706a28.668,28.668,0,0,1-1.41,8.969,24.39,24.39,0,0,1-3.862,7.372,18.628,18.628,0,0,1-5.77,5.012,14.611,14.611,0,0,1-14.235,0,18.628,18.628,0,0,1-5.77-5.012,24.389,24.389,0,0,1-3.862-7.372A28.667,28.667,0,0,1,48.8,83.2c0-6.071,1.847-11.141,5.341-14.67a16.442,16.442,0,0,1,5.791-3.775A19.375,19.375,0,0,1,66.959,63.5Zm0,41.066c9.115,0,16.531-9.582,16.531-21.362A22.183,22.183,0,0,0,82.2,75.423a15.492,15.492,0,0,0-3.5-5.549,14.78,14.78,0,0,0-5.233-3.381,18.842,18.842,0,0,0-13,.012,14.853,14.853,0,0,0-5.234,3.407c-3.138,3.165-4.8,7.762-4.8,13.293C50.429,94.983,57.845,104.566,66.959,104.566Z" transform="translate(-9.061 -5.031)" fill="#333"/>
      <path id="パス_14" data-name="パス 14" d="M51.129,84.625h-.147a.884.884,0,0,1-.781-.958.863.863,0,0,1,.847-.883,10.5,10.5,0,0,0,4.283-1.013,12.559,12.559,0,0,0,3.731-2.635A16.811,16.811,0,0,0,62.5,73.825a.807.807,0,0,1,.779-.524.835.835,0,0,1,.725.616,8.745,8.745,0,0,0,.763,1.6,13.136,13.136,0,0,0,2.863,3.364A15.459,15.459,0,0,0,73.506,81.9a25.742,25.742,0,0,0,9.914.525.846.846,0,0,1,.9.819.9.9,0,0,1-.724,1.013,27.083,27.083,0,0,1-10.563-.592,16.932,16.932,0,0,1-6.474-3.387,14.709,14.709,0,0,1-3.339-4.063,17.677,17.677,0,0,1-3.108,4.337,14.142,14.142,0,0,1-4.245,2.967,12.081,12.081,0,0,1-4.734,1.112Z" transform="translate(-9.321 -5.809)" fill="#333"/>
      <path id="パス_15" data-name="パス 15" d="M33.314,143.973h-.06a.891.891,0,0,1-.752-.986c.008-.13.214-3.223.835-7.172.84-5.34,1.993-9.476,3.425-12.28a14.107,14.107,0,0,1,3.549-4.36,20.737,20.737,0,0,1,4.234-2.712,24.508,24.508,0,0,1,5.067-1.842.826.826,0,0,1,.953.732.921.921,0,0,1-.647,1.077,23.481,23.481,0,0,0-4.757,1.74c-2.3,1.13-5.375,3.138-6.986,6.287-3.208,6.282-4.038,18.544-4.046,18.667A.862.862,0,0,1,33.314,143.973Z" transform="translate(-6.034 -9.082)" fill="#333"/>
      <path id="パス_16" data-name="パス 16" d="M104.764,143.972a.863.863,0,0,1-.814-.854c0-.031-.209-3.144-.814-7a41.413,41.413,0,0,0-3.229-11.663c-3.116-6.1-11.658-8.011-11.744-8.027a.921.921,0,0,1-.647-1.077.826.826,0,0,1,.953-.732,24.506,24.506,0,0,1,5.067,1.842,20.737,20.737,0,0,1,4.234,2.712,14.108,14.108,0,0,1,3.549,4.36c1.432,2.8,2.585,6.936,3.425,12.28.621,3.949.827,7.042.835,7.172a.892.892,0,0,1-.752.986Z" transform="translate(-16.247 -9.08)" fill="#333"/>
      <path id="パス_17" data-name="パス 17" d="M95.338,146.6a.872.872,0,0,1-.814-.921v-5.34H85.729v5.34a.82.82,0,1,1-1.629,0v-6.261a.872.872,0,0,1,.814-.921H95.338a.872.872,0,0,1,.814.921v6.261A.872.872,0,0,1,95.338,146.6Z" transform="translate(-15.615 -10.975)" fill="#333"/>
      <path id="パス_18" data-name="パス 18" d="M124.614,144.04h-.053a.889.889,0,0,1-.761-.978c.006-.1.151-2.594.631-5.77a33.724,33.724,0,0,1,2.735-9.918,11.645,11.645,0,0,1,2.876-3.554,16.767,16.767,0,0,1,3.394-2.2,19.53,19.53,0,0,1,4.05-1.5.825.825,0,0,1,.956.727.922.922,0,0,1-.643,1.081h0c-.068.015-6.759,1.554-9.224,6.372-2.562,5-3.144,14.784-3.149,14.882a.864.864,0,0,1-.813.861Z" transform="translate(-22.986 -9.518)" fill="#333"/>
      <path id="パス_19" data-name="パス 19" d="M194.343,144.04a.864.864,0,0,1-.814-.862c-.006-.1-.59-9.884-3.149-14.882-2.467-4.817-9.156-6.353-9.224-6.372a.922.922,0,0,1-.643-1.081.825.825,0,0,1,.956-.727,19.533,19.533,0,0,1,4.05,1.5,16.766,16.766,0,0,1,3.394,2.2,11.644,11.644,0,0,1,2.876,3.554,33.724,33.724,0,0,1,2.735,9.917c.48,3.177.625,5.665.631,5.77a.889.889,0,0,1-.761.978Z" transform="translate(-33.515 -9.518)" fill="#333"/>
      <path id="パス_20" data-name="パス 20" d="M152.445,114a.844.844,0,0,1,.8.722l5.375,27.531a.965.965,0,0,1-.416,1.005.747.747,0,0,1-.969-.177L146.4,130.1a1.014,1.014,0,0,1-.081-1.145l2.808-4.722-4.59-5.357a1,1,0,0,1-.211-.833.9.9,0,0,1,.494-.662l7.329-3.315A.732.732,0,0,1,152.445,114Zm3.944,25.395-4.533-23.216-5.311,2.4,4.2,4.907a1.013,1.013,0,0,1,.091,1.155l-2.813,4.73Z" transform="translate(-26.795 -9.033)" fill="#333"/>
      <path id="パス_21" data-name="パス 21" d="M166.59,114a.733.733,0,0,1,.3.066l7.329,3.315a.9.9,0,0,1,.494.662,1,1,0,0,1-.211.833l-4.59,5.357,2.808,4.722a1.014,1.014,0,0,1-.081,1.145L161.81,143.083a.747.747,0,0,1-.969.177.965.965,0,0,1-.415-1.005l5.375-27.531a.845.845,0,0,1,.79-.724Zm5.9,4.581-5.311-2.4-4.533,23.216,8.361-10.018-2.813-4.73a1.013,1.013,0,0,1,.091-1.155Z" transform="translate(-29.784 -9.033)" fill="#333"/>
      <path id="パス_22" data-name="パス 22" d="M176.569,113.669a.843.843,0,0,1-.793-.716,52.754,52.754,0,0,1-.741-6.4,83.535,83.535,0,0,1,.57-16.133,22.115,22.115,0,0,0-.682-8.195,24.822,24.822,0,0,0-4.16-8.726,18.252,18.252,0,0,0-5.925-5.121,18.9,18.9,0,0,0-17.08,0,18.252,18.252,0,0,0-5.925,5.121,24.823,24.823,0,0,0-4.16,8.726,22.115,22.115,0,0,0-.682,8.195,83.531,83.531,0,0,1,.57,16.132,52.764,52.764,0,0,1-.741,6.4.818.818,0,0,1-.975.693.93.93,0,0,1-.613-1.1,52.062,52.062,0,0,0,.708-6.169,81.451,81.451,0,0,0-.556-15.679,24.214,24.214,0,0,1,.733-8.987A26.76,26.76,0,0,1,140.6,72.3a19.688,19.688,0,0,1,31.387,0,26.761,26.761,0,0,1,4.489,9.407,24.213,24.213,0,0,1,.733,8.986,81.425,81.425,0,0,0-.553,15.727,51.588,51.588,0,0,0,.7,6.124,1.014,1.014,0,0,1-.158.779A.783.783,0,0,1,176.569,113.669Z" transform="translate(-25.105 -5.111)" fill="#333"/>
      <path id="パス_23" data-name="パス 23" d="M163.649,78.2h.055a.844.844,0,0,1,.726.661h0a13.909,13.909,0,0,0,1.634,3.446,22.478,22.478,0,0,0,6.945,6.877.949.949,0,0,1,.407.8,22.154,22.154,0,0,1-4.642,13.914,16.147,16.147,0,0,1-5.073,4.235,13.312,13.312,0,0,1-12.494,0,16.147,16.147,0,0,1-5.073-4.235A22.156,22.156,0,0,1,141.5,89.986a.872.872,0,0,1,.814-.921h.244a34.972,34.972,0,0,0,9.534-1.5,21.155,21.155,0,0,0,6.37-3.131,12.966,12.966,0,0,0,4.443-5.691A.816.816,0,0,1,163.649,78.2Zm8.138,12.311a24.476,24.476,0,0,1-7.1-7.224,19.1,19.1,0,0,1-1.109-2.052,15.08,15.08,0,0,1-4.213,4.742,22.683,22.683,0,0,1-6.833,3.366,36.247,36.247,0,0,1-9.381,1.555,19.978,19.978,0,0,0,4.2,11.762,12.456,12.456,0,0,0,20.233,0A20.062,20.062,0,0,0,171.787,90.511Z" transform="translate(-26.273 -6.197)" fill="#333"/>
    </g>
    <g id="グループ_4241" data-name="グループ 4241" transform="translate(81.5 5206)">
      <rect id="長方形_3346" data-name="長方形 3346" width="212" height="36" rx="16" fill="#847c79"/>
      <text id="投資家_お客様_" data-name="投資家（お客様）" transform="translate(50 24)" fill="#fff" font-size="14" font-family="HiraginoSans-W6, Hiragino Sans"><tspan x="0" y="0">投資家（お客様）</tspan></text>
    </g>
    <g id="グループ_4242" data-name="グループ 4242" transform="translate(81.5 5462.505)">
      <rect id="長方形_3346-2" data-name="長方形 3346" width="212" height="36" rx="16" fill="#847c79"/>
      <path id="パス_6591" data-name="パス 6591" d="M6.132-4.116H2.086a9.6,9.6,0,0,1-1.512-.07v1.33a10.027,10.027,0,0,1,1.54-.07H6.132v.6H2.786a10.168,10.168,0,0,1-1.33-.056v1.3a9.543,9.543,0,0,1,1.386-.07h3.29v.672c0,.252-.112.322-.546.322A15.877,15.877,0,0,1,3.808-.28a3.985,3.985,0,0,1,.434,1.386c.448.028,1.008.056,1.344.056C7.294,1.162,7.644.9,7.644-.364v-.784h3.094V-.6h1.568a10.526,10.526,0,0,1-.07-1.512v-.812a8.318,8.318,0,0,1,1.218.07v-1.33a7.91,7.91,0,0,1-1.218.07v-.49a9.474,9.474,0,0,1,.042-1.274c-.392.028-.672.042-1.5.042H7.644V-6.37h3.22c.448,0,.812.014,1.12.042a8.846,8.846,0,0,1-.042-.938V-8.19a9.53,9.53,0,0,1,.042-.98c-.336.028-.644.042-1.176.042H7.644V-9.66h4.018a13.5,13.5,0,0,1,1.638.084v-1.386a13.132,13.132,0,0,1-1.722.084H7.644a3.955,3.955,0,0,1,.1-.952H6.048a5.173,5.173,0,0,1,.084.952H2.38a12.986,12.986,0,0,1-1.722-.084v1.386A13.5,13.5,0,0,1,2.3-9.66H6.132v.532H3.178c-.532,0-.826-.014-1.19-.042.028.336.042.588.042.98v.924c0,.35-.014.644-.042.938.322-.028.672-.042,1.176-.042H6.132v.532H2.842a10.478,10.478,0,0,1-1.316-.056v1.218a11.628,11.628,0,0,1,1.288-.056H6.132Zm1.512,0v-.616h3.094v.616Zm0,1.19h3.094v.6H7.644ZM6.132-8.036v.574H3.514v-.574Zm1.512,0h2.814v.574H7.644ZM20.16-6.16v.672H17.388a9.941,9.941,0,0,1-1.428-.07V-4.3a10.061,10.061,0,0,1,1.428-.07H20.16v.7H16.45a13,13,0,0,1-1.68-.084v1.4a15.389,15.389,0,0,1,1.694-.084h2.6A10.064,10.064,0,0,1,14.49-.448,5.73,5.73,0,0,1,15.344.9,13.545,13.545,0,0,0,18.2-.28a7.786,7.786,0,0,0,2.016-1.54,9.426,9.426,0,0,0-.042.952V-.2a10.449,10.449,0,0,1-.084,1.428h1.652a7.965,7.965,0,0,1-.1-1.414V-.868a9.583,9.583,0,0,0-.042-.994A10.924,10.924,0,0,0,26.8.91a5.544,5.544,0,0,1,.8-1.428,12.016,12.016,0,0,1-2.912-.8,7.268,7.268,0,0,1-1.9-1.12h2.814a15.124,15.124,0,0,1,1.68.084v-1.4a12.366,12.366,0,0,1-1.694.084H21.672v-.7H24.6a10.277,10.277,0,0,1,1.442.07v-1.26a10.156,10.156,0,0,1-1.442.07H21.672V-6.16h3.654a10.277,10.277,0,0,1,1.442.07V-7.42a12.875,12.875,0,0,1-1.442.056H23.7c.2-.35.252-.476.518-1.036h1.4c.686,0,1.232.028,1.666.07v-1.4a11.352,11.352,0,0,1-1.582.084h-.392c.308-.434.532-.784.868-1.344l-1.442-.532A7.47,7.47,0,0,1,23.73-9.646h-.882v-.994a7.351,7.351,0,0,1,.07-1.092H21.392a9.971,9.971,0,0,1,.042,1.036v1.05H20.44V-10.7a9.428,9.428,0,0,1,.042-1.036H18.956a7.786,7.786,0,0,1,.07,1.092v.994h-.8A9.9,9.9,0,0,0,17.15-11.48l-1.4.532a5.918,5.918,0,0,1,.952,1.3h-.448a11.864,11.864,0,0,1-1.6-.084v1.4c.448-.042.98-.07,1.666-.07h1.512c.154.266.308.588.518,1.036H16.66a12.716,12.716,0,0,1-1.442-.056v1.33a10.4,10.4,0,0,1,1.442-.07Zm-.322-1.2a8.936,8.936,0,0,0-.42-1.036H22.61a8.165,8.165,0,0,1-.462,1.036Zm14.35.952A23.266,23.266,0,0,1,28.42-3.836a5.118,5.118,0,0,1,.826,1.4c1.078-.434,1.372-.56,2.226-.98-.014.252-.014.56-.014.784v2.17a13,13,0,0,1-.084,1.582h1.638v-.6h5.082v.6h1.624a10.944,10.944,0,0,1-.084-1.582V-3.92a13.458,13.458,0,0,1,.056-1.526c-.406.028-.8.042-1.47.042H36.162c-.364,0-.826,0-1.134.014.63-.406.98-.644,1.512-1.022h3.01a14.625,14.625,0,0,1,1.736.084v-1.54a11.864,11.864,0,0,1-1.6.084H38.248a20.465,20.465,0,0,0,1.9-1.932q.483-.567.63-.714L39.4-11.34a9.97,9.97,0,0,1-1.624,2.128v-1.2a11.127,11.127,0,0,1-1.568.084H35.2v-.238A5.965,5.965,0,0,1,35.28-11.8H33.572a7.491,7.491,0,0,1,.084,1.232v.238H31.612a11.805,11.805,0,0,1-1.652-.084v1.47A15.435,15.435,0,0,1,31.556-9h2.1v1.218H30.464a12.322,12.322,0,0,1-1.708-.084v1.54a14.092,14.092,0,0,1,1.68-.084ZM35.2-7.784V-9h1.148c.56,0,.8.014,1.176.042a13.7,13.7,0,0,1-1.344,1.176ZM33.012-4.13H38.08v1.036H33.012Zm0,2.254H38.08V-.8H33.012ZM55.594,1.246A10.76,10.76,0,0,1,53.816-1.54a9.47,9.47,0,0,1-.742-3.836,9.186,9.186,0,0,1,.728-3.71,10.91,10.91,0,0,1,1.778-2.786H53.62a11.3,11.3,0,0,0-1.54,2.758,9.908,9.908,0,0,0-.714,3.738,10.3,10.3,0,0,0,.742,3.864,11.213,11.213,0,0,0,1.526,2.758Zm.727-11.322H58.57l2.188,7.649,2.208-7.649h2.188L61.715,0H59.726ZM73.418-4.4H68.523v2.591H74.1V0H66.466V-10.076h7.39v1.784H68.523v2.14h4.895Zm6.6.451H77.848V0H75.79V-10.076h4.942a4.6,4.6,0,0,1,1.63.26,2.547,2.547,0,0,1,.967.7,3.12,3.12,0,0,1,.52.848,2.763,2.763,0,0,1,.191,1.06,3.019,3.019,0,0,1-.362,1.412,2.025,2.025,0,0,1-1.2.981,1.881,1.881,0,0,1,.988.8,3.315,3.315,0,0,1,.291,1.576v.677a5.176,5.176,0,0,0,.055.937.841.841,0,0,0,.383.574V0H81.881q-.1-.335-.137-.54a4.961,4.961,0,0,1-.089-.868l-.014-.937A1.83,1.83,0,0,0,81.29-3.63,1.868,1.868,0,0,0,80.021-3.951ZM81.3-5.783a1.123,1.123,0,0,0,.629-1.135,1.252,1.252,0,0,0-.608-1.23,2.3,2.3,0,0,0-1.025-.178H77.848v2.707h2.386A2.659,2.659,0,0,0,81.3-5.783ZM93-8.292H87.944v2.317h4.423v1.75H87.944V0H85.853V-10.062H93Zm7.369,4.409v-6.193h2.14v6.193a5.188,5.188,0,0,1-.5,2.5Q101.076.26,98.458.26T94.9-1.381a5.188,5.188,0,0,1-.5-2.5v-6.193h2.14v6.193a3.5,3.5,0,0,0,.246,1.518,1.633,1.633,0,0,0,1.668.848,1.627,1.627,0,0,0,1.661-.848A3.5,3.5,0,0,0,100.365-3.883ZM112.663,0h-2.105l-4.115-7.157V0H104.48V-10.076h2.208L110.7-3.042v-7.034h1.962Zm6.3,0h-4.341V-10.076h4.341a5.3,5.3,0,0,1,1.559.219,3.326,3.326,0,0,1,1.716,1.278,4.484,4.484,0,0,1,.718,1.627,7.81,7.81,0,0,1,.191,1.668,6.7,6.7,0,0,1-.807,3.4A3.64,3.64,0,0,1,118.966,0Zm1.565-7.506a2.046,2.046,0,0,0-1.921-.82h-1.941V-1.75h1.941a2.1,2.1,0,0,0,2.078-1.47,5.184,5.184,0,0,0,.321-1.921A4.778,4.778,0,0,0,120.531-7.506Zm5.518,8.752a11.7,11.7,0,0,0,1.526-2.758,10.514,10.514,0,0,0,.728-3.864,9.907,9.907,0,0,0-.714-3.738,11.174,11.174,0,0,0-1.526-2.758h-1.974a11.439,11.439,0,0,1,1.792,2.786,9.088,9.088,0,0,1,.714,3.71,9.424,9.424,0,0,1-.742,3.836,10.76,10.76,0,0,1-1.778,2.786Z" transform="translate(38 24)" fill="#fff"/>
    </g>
    <text id="クラウドファンディングシステム" transform="translate(187.5 5632.505)" fill="#211613" font-size="12" font-family="HiraginoSans-W3, Hiragino Sans"><tspan x="-88.68" y="0">クラウドファンディングシステム</tspan></text>
    <g id="グループ_4249" data-name="グループ 4249" transform="translate(-177.5 5462.505)">
      <g id="グループ_4248" data-name="グループ 4248" transform="translate(0.121 4.697)">
        <path id="長方形_40" data-name="長方形 40" d="M-.186-1H82.061a.872.872,0,0,1,.814.921V62.459a.872.872,0,0,1-.814.921H-.186A.872.872,0,0,1-1,62.459V-.079A.872.872,0,0,1-.186-1ZM81.247.842H.629v60.7H81.247Z" transform="translate(323.879 55.785)" fill="#333"/>
        <path id="長方形_41" data-name="長方形 41" d="M-.186-1H68.38a.872.872,0,0,1,.814.921V49.163a.872.872,0,0,1-.814.921H-.186A.872.872,0,0,1-1,49.163V-.079A.872.872,0,0,1-.186-1ZM67.566.842H.629v47.4H67.566Z" transform="translate(330.72 62.414)" fill="#333"/>
        <path id="パス_27" data-name="パス 27" d="M462.587,149.446H424.314a.854.854,0,0,1-.807-.792.929.929,0,0,1,.581-1.014c3.716-1.213,6.5-2.734,8.264-4.521a7.591,7.591,0,0,0,2.385-5.551v-8.747a.82.82,0,1,1,1.629,0v8.747a9.564,9.564,0,0,1-2.932,6.925,16.994,16.994,0,0,1-4.45,3.111h28.952a17.029,17.029,0,0,1-4.507-3.146,9.507,9.507,0,0,1-2.894-6.89v-8.747a.82.82,0,1,1,1.629,0v8.747a7.531,7.531,0,0,0,2.354,5.517c1.749,1.766,4.541,3.3,8.3,4.557a.93.93,0,0,1,.575,1.015A.854.854,0,0,1,462.587,149.446Z" transform="translate(-78.634 -10.135)" fill="#333"/>
        <path id="パス_28" data-name="パス 28" d="M436.786,93.122a2.568,2.568,0,0,1-2.036-.712,2.111,2.111,0,0,1-.33-2.089c.359-1.217,1.506-2.7,3.507-4.533,1.41-1.289,2.708-2.259,2.763-2.3l.007-.006a10.435,10.435,0,0,1,7.191-1.983l.05.006c.9.157,1.827.415,2.72.664,2.344.654,4.56,1.272,6.619.315l.029-.013a18.743,18.743,0,0,0,3.674-2.033.761.761,0,0,1,1.123.291A.994.994,0,0,1,461.846,82a20.307,20.307,0,0,1-3.966,2.2c-2.549,1.175-5.123.46-7.612-.238-.888-.248-1.728-.482-2.552-.627a8.945,8.945,0,0,0-6.135,1.7c-1.924,1.429-5.147,4.285-5.619,5.872a.909.909,0,0,0-.042.221,2.615,2.615,0,0,0,1.664.1,12.592,12.592,0,0,0,2.543-.645,37.216,37.216,0,0,0,4.371-2.248.769.769,0,0,1,1.1.381.984.984,0,0,1-.337,1.245,38.767,38.767,0,0,1-4.57,2.349l-.033.014a14.148,14.148,0,0,1-2.9.737A7.492,7.492,0,0,1,436.786,93.122Z" transform="translate(-80.636 -6.363)" fill="#333"/>
        <path id="パス_29" data-name="パス 29" d="M460.61,103.83a2.7,2.7,0,0,1-1.1-.235A17.508,17.508,0,0,1,454.929,101a1,1,0,0,1-.206-1.281.757.757,0,0,1,1.133-.233,15.94,15.94,0,0,0,4.192,2.37l.046.019a1.25,1.25,0,0,0,1.3-.165,2.251,2.251,0,0,0,.229-1.71,3.985,3.985,0,0,0-1.448-1.918l-.009-.006-2.85-2.026-.011-.008a42.608,42.608,0,0,0-4.3-2.592c-.9-.5-1.759-.975-2.487-1.422a.985.985,0,0,1-.328-1.249.769.769,0,0,1,1.1-.371c.7.428,1.539.894,2.428,1.387a43.691,43.691,0,0,1,4.462,2.7l2.84,2.018a5.8,5.8,0,0,1,2.117,2.834c.008.021.014.042.02.064a4.288,4.288,0,0,1-.529,3.5.882.882,0,0,1-.139.161,2.8,2.8,0,0,1-1.891.755Z" transform="translate(-83.572 -7.154)" fill="#333"/>
        <path id="パス_30" data-name="パス 30" d="M458.679,108.5a8.512,8.512,0,0,1-3.576-1.054,19.177,19.177,0,0,1-2.111-1.218.992.992,0,0,1-.275-1.264.763.763,0,0,1,1.118-.311c.91.621,3.6,2.188,5.1,1.991a1.915,1.915,0,0,0,1.71-1.179c.02-.092.055-.251-.19-.449a27.365,27.365,0,0,0-3.3-1.955.971.971,0,0,1-.416-1.214.78.78,0,0,1,1.074-.47,28.946,28.946,0,0,1,3.516,2.083l.037.027a2.358,2.358,0,0,1,.862,2.423,3.512,3.512,0,0,1-3.1,2.564,3.463,3.463,0,0,1-.448.028Z" transform="translate(-84.037 -8.027)" fill="#333"/>
        <path id="パス_31" data-name="パス 31" d="M456.649,113.393c-2.313,0-5.316-1.983-5.449-2.072a.99.99,0,0,1-.288-1.261.764.764,0,0,1,1.115-.326c.824.552,3.295,1.941,4.817,1.808a1.805,1.805,0,0,0,1.674-1.133.431.431,0,0,0-.185-.494,27.368,27.368,0,0,0-3.3-1.954.971.971,0,0,1-.416-1.214.78.78,0,0,1,1.074-.47,28.953,28.953,0,0,1,3.516,2.083l.037.027a2.385,2.385,0,0,1,.85,2.5,3.138,3.138,0,0,1-1.106,1.7,3.715,3.715,0,0,1-2.016.791C456.865,113.388,456.758,113.393,456.649,113.393Z" transform="translate(-83.703 -8.416)" fill="#333"/>
        <path id="パス_32" data-name="パス 32" d="M452.313,116.576a16.013,16.013,0,0,1-3.559-.4.925.925,0,0,1-.636-1.087.823.823,0,0,1,.961-.719,14.546,14.546,0,0,0,3.86.352c.84-.084,1.312-.507,1.379-.783.009-.037.033-.133-.144-.286a24.685,24.685,0,0,0-2.879-1.58.966.966,0,0,1-.444-1.2.785.785,0,0,1,1.063-.5,26.253,26.253,0,0,1,3.106,1.708.81.81,0,0,1,.072.052,2.221,2.221,0,0,1,.8,2.3,3.024,3.024,0,0,1-2.831,2.131h-.036Q452.665,116.576,452.313,116.576Z" transform="translate(-83.202 -8.74)" fill="#333"/>
        <path id="パス_33" data-name="パス 33" d="M429.334,109.485a2.809,2.809,0,0,1-2.556-1.647,3.591,3.591,0,0,1,.089-3.325l1.371-2.371a2.643,2.643,0,0,1,3.891-1.027,3.447,3.447,0,0,1,.908,4.4l-1.287,2.364A2.735,2.735,0,0,1,429.334,109.485Zm1.288-7.039a1.123,1.123,0,0,0-.987.645l-.023.042-1.384,2.394a1.43,1.43,0,0,0-.161,1.007,1.287,1.287,0,0,0,.539.822q.033.022.065.048a1.036,1.036,0,0,0,.917.208,1.167,1.167,0,0,0,.746-.638l.02-.041,1.3-2.394.014-.025a1.43,1.43,0,0,0,.158-1.006,1.287,1.287,0,0,0-.539-.82l-.041-.029a1.049,1.049,0,0,0-.632-.216Z" transform="translate(-79.175 -7.975)" fill="#333"/>
        <path id="パス_34" data-name="パス 34" d="M433.008,112.69a2.756,2.756,0,0,1-2.464-1.642,3.508,3.508,0,0,1,.11-3.231l2.031-3.674v-.006a2.607,2.607,0,0,1,3.851-.978,3.408,3.408,0,0,1,.865,4.354l-2.036,3.678a2.7,2.7,0,0,1-2.357,1.5Zm1.059-7.568-2.036,3.683-.011.019a1.431,1.431,0,0,0-.158,1.006,1.287,1.287,0,0,0,.539.82l.016.011a1.068,1.068,0,0,0,1.568-.43l0-.009,2.036-3.683v-.006a1.419,1.419,0,0,0-.358-1.814,1.086,1.086,0,0,0-1.6.4Z" transform="translate(-79.879 -8.135)" fill="#333"/>
        <path id="パス_35" data-name="パス 35" d="M437.208,115.353a2.756,2.756,0,0,1-2.464-1.642,3.508,3.508,0,0,1,.11-3.231l1.624-2.937v-.006a2.608,2.608,0,0,1,3.851-.978,3.408,3.408,0,0,1,.865,4.355l-1.629,2.941A2.7,2.7,0,0,1,437.208,115.353Zm.651-6.831-1.629,2.946-.011.019a1.431,1.431,0,0,0-.158,1.006,1.287,1.287,0,0,0,.539.82l.016.011a1.068,1.068,0,0,0,1.568-.43l0-.009,1.629-2.946v-.006a1.42,1.42,0,0,0-.357-1.814,1.086,1.086,0,0,0-1.6.4Z" transform="translate(-80.658 -8.404)" fill="#333"/>
        <path id="パス_36" data-name="パス 36" d="M441.849,117.561a2.524,2.524,0,0,1-1.357-.4l-.009-.006a3.124,3.124,0,0,1-1.305-1.984,3.476,3.476,0,0,1,.375-2.436l1.3-2.383.006-.01a2.607,2.607,0,0,1,3.852-.975,3.408,3.408,0,0,1,.862,4.355l-.006.011-1.384,2.394A2.7,2.7,0,0,1,441.849,117.561Zm-.553-2a1.066,1.066,0,0,0,1.515-.433l0-.008,1.384-2.388a1.42,1.42,0,0,0-.359-1.814,1.086,1.086,0,0,0-1.6.406l-1.3,2.388-.014.025a1.43,1.43,0,0,0-.159,1,1.288,1.288,0,0,0,.535.82Z" transform="translate(-81.531 -8.627)" fill="#333"/>
        <path id="パス_37" data-name="パス 37" d="M424.544,102.514a.745.745,0,0,1-.419-.133,8.907,8.907,0,0,1-3.257-4.195,1.022,1.022,0,0,1,.076-.933.778.778,0,0,1,.759-.375.837.837,0,0,1,.657.572,7.124,7.124,0,0,0,2.606,3.355.977.977,0,0,1,.363,1.035A.836.836,0,0,1,424.544,102.514Z" transform="translate(-78.131 -7.676)" fill="#333"/>
        <path id="パス_38" data-name="パス 38" d="M428.216,84.412a12.856,12.856,0,0,1-2.116-.176.91.91,0,0,1-.687-1.045.836.836,0,0,1,.924-.777,11.4,11.4,0,0,0,3.134.087c2.792-.361,6.823-1.179,6.863-1.188a.828.828,0,0,1,.946.743.918.918,0,0,1-.657,1.069c-.041.008-4.13.838-6.974,1.205h-.013A12.185,12.185,0,0,1,428.216,84.412Z" transform="translate(-78.987 -6.441)" fill="#333"/>
        <path id="パス_39" data-name="パス 39" d="M415.114,100.315a.791.791,0,0,1-.667-.392,1.023,1.023,0,0,1-.1-.842l6.906-21.651-6.3-3.063a.969.969,0,0,1-.426-1.209.782.782,0,0,1,1.07-.482l7,3.407a.965.965,0,0,1,.444,1.158l-7.166,22.467A.827.827,0,0,1,415.114,100.315Z" transform="translate(-76.926 -5.752)" fill="#333"/>
        <path id="パス_40" data-name="パス 40" d="M478.532,98.045a.816.816,0,0,1-.743-.541l-7.818-19.52a.974.974,0,0,1,.4-1.216l7.085-3.683a.778.778,0,0,1,1.08.452.974.974,0,0,1-.4,1.221l-6.352,3.3,7.484,18.686a1.026,1.026,0,0,1-.057.879.8.8,0,0,1-.684.422Z" transform="translate(-87.249 -5.785)" fill="#333"/>
        <path id="パス_41" data-name="パス 41" d="M468.914,102.964a.842.842,0,0,1-.8-.714.962.962,0,0,1,.439-1.036h0a12.05,12.05,0,0,0,3.605-2.934.755.755,0,0,1,1.137-.207,1,1,0,0,1,.183,1.286,13.836,13.836,0,0,1-4.213,3.512A.738.738,0,0,1,468.914,102.964Z" transform="translate(-86.915 -7.758)" fill="#333"/>
      </g>
      <path id="パス_6592" data-name="パス 6592" d="M-83.58-9.78a5.442,5.442,0,0,1-.756,1.752A8.89,8.89,0,0,1-87.348-4.74a1.784,1.784,0,0,1,.672.624,11.568,11.568,0,0,0,2.868-3.12l4.044-.072a11.026,11.026,0,0,1-2.064,4.02A10.207,10.207,0,0,1-86.064-.252a1.809,1.809,0,0,1,.6.708,11.751,11.751,0,0,0,4.176-3,12.7,12.7,0,0,0,2.4-4.512c.132-.432.132-.444.24-.588l-.516-.5a1.179,1.179,0,0,1-.624.084c-3.468.06-3.468.06-3.624.1a11.476,11.476,0,0,0,.552-1.068,2.292,2.292,0,0,1,.264-.492Zm9.588,1.62a8,8,0,0,1,1.248-.06h4.032a8,8,0,0,1,1.248.06v-.924A5.507,5.507,0,0,1-68.724-9h-4.008a5.507,5.507,0,0,1-1.26-.084ZM-75.024-5.4a11.046,11.046,0,0,1,1.392-.06h6.264a7.393,7.393,0,0,1-1.944,3.144A8.237,8.237,0,0,1-72.876-.492a2.61,2.61,0,0,1,.516.828c3.108-1.044,4.764-2.58,5.784-5.376A3.481,3.481,0,0,1-66.24-5.8l-.444-.516a2.026,2.026,0,0,1-.78.084H-73.62a8.634,8.634,0,0,1-1.4-.072ZM-58.3-7.656V-8.88a4.711,4.711,0,0,1,.06-.756h-1.008a3.764,3.764,0,0,1,.06.768v1.212h-2.544a10.25,10.25,0,0,1-1.1-.048,7.849,7.849,0,0,1,.048.972v1.62c0,.312-.024.7-.048.9h.984a8.546,8.546,0,0,1-.036-.888V-6.9h6.552a6.588,6.588,0,0,1-2.784,5.244A7.924,7.924,0,0,1-60.768-.492a2.457,2.457,0,0,1,.552.816A9.408,9.408,0,0,0-56.7-1.668a7.477,7.477,0,0,0,2.172-4.38c.156-1.02.156-1.02.264-1.212l-.492-.468a2.672,2.672,0,0,1-1.008.072ZM-48.1.372A7.423,7.423,0,0,1-48.156-.9V-4.512A4.013,4.013,0,0,0-48.2-5.22l.024-.012a1.521,1.521,0,0,0,.372.2,24.992,24.992,0,0,1,4.476,2.376l.516-.888a31.505,31.505,0,0,0-5.34-2.532V-8.316a6.829,6.829,0,0,1,.06-1.248h-1.032a7.053,7.053,0,0,1,.072,1.224V-.888a7.962,7.962,0,0,1-.072,1.26Zm2.976-9.144a8.887,8.887,0,0,1,1.236,1.908l.6-.36a9.11,9.11,0,0,0-1.236-1.86Zm1.368-.648a8.756,8.756,0,0,1,1.224,1.9l.6-.348a10.108,10.108,0,0,0-1.236-1.872Zm12.852.9a1.613,1.613,0,0,1-.768.1h-5.9a7.212,7.212,0,0,1-1.356-.084v.972a8.344,8.344,0,0,1,1.344-.072h6.108A8.86,8.86,0,0,1-35.256-1.9,8.916,8.916,0,0,1-37.968-.624a2.271,2.271,0,0,1,.588.84A11.02,11.02,0,0,0-33.612-2.04,10.224,10.224,0,0,0-30.6-7.248c.168-.612.168-.612.252-.744Zm4.656,2.376a9.425,9.425,0,0,1,1.284-.048l5-.036a1.245,1.245,0,0,0,.276-.036l.012.024a.385.385,0,0,1-.036.06.189.189,0,0,0-.06.1,4.652,4.652,0,0,1-2.52,2.112,2.515,2.515,0,0,1,.528.612,5.881,5.881,0,0,0,1.2-.732A5.872,5.872,0,0,0-19.02-5.9a2.457,2.457,0,0,1,.348-.612l-.408-.516a1.551,1.551,0,0,1-.624.072l-5.244.024a6.985,6.985,0,0,1-1.3-.084Zm2.892.852a2,2,0,0,1,.024.372c0,2.772-.72,3.84-3.144,4.7a2.459,2.459,0,0,1,.492.7,5.359,5.359,0,0,0,2.472-1.668,5.23,5.23,0,0,0,.984-3.336,4.648,4.648,0,0,1,.06-.768Zm8.184-2.544a13.251,13.251,0,0,1,2.856,2.352l.624-.744A15.632,15.632,0,0,0-14.58-8.484Zm.084,7.8a6.3,6.3,0,0,1,.72-.192A12.1,12.1,0,0,0-9.888-2.016,10.525,10.525,0,0,0-6.228-6.6a2.4,2.4,0,0,1-.732-.708,9.067,9.067,0,0,1-4.9,5.34,10.445,10.445,0,0,1-3.492.924ZM4.44-5.232a9.431,9.431,0,0,1,1.38.06V-6.06a7.878,7.878,0,0,1-1.392.072h-7.02A7.961,7.961,0,0,1-3.984-6.06v.888a9.431,9.431,0,0,1,1.38-.06H.648C.552-2.5-.384-1.212-2.868-.384A2.1,2.1,0,0,1-2.3.4C.408-.66,1.416-2.124,1.56-5.232ZM-2.772-8.124A8.36,8.36,0,0,1-1.4-8.184H2.244q1.134.018,1.368.036v-.864a10.838,10.838,0,0,1-1.38.06H-1.392a6.231,6.231,0,0,1-1.38-.084ZM3.66-9.756A9.144,9.144,0,0,1,4.824-7.812l.612-.336a9.338,9.338,0,0,0-1.176-1.9ZM5.136-10.2A9.4,9.4,0,0,1,6.3-8.268L6.912-8.6a9.988,9.988,0,0,0-1.176-1.9Zm9.588,2.808a3.909,3.909,0,0,1-.672.78,13.2,13.2,0,0,1-3.432,2.5A11.842,11.842,0,0,1,7.836-3.06a2.216,2.216,0,0,1,.42.72A13.982,13.982,0,0,0,11.94-4V-.432A6.892,6.892,0,0,1,11.892.612h.936a6.413,6.413,0,0,1-.06-1.056V-4.5A20.056,20.056,0,0,0,15.18-6.612a1.531,1.531,0,0,1,.288-.276Zm5.148-.444a13.251,13.251,0,0,1,2.856,2.352l.624-.744A15.632,15.632,0,0,0,20.46-8.484Zm.084,7.8a6.3,6.3,0,0,1,.72-.192,12.1,12.1,0,0,0,4.476-1.788A10.525,10.525,0,0,0,28.812-6.6a2.4,2.4,0,0,1-.732-.708,9.067,9.067,0,0,1-4.9,5.34,10.445,10.445,0,0,1-3.492.924ZM34.7-9.708a5.31,5.31,0,0,1-.756,1.74,9.205,9.205,0,0,1-3.012,3.3,1.758,1.758,0,0,1,.672.612,11.618,11.618,0,0,0,2.868-3.12l4.044-.06a10.323,10.323,0,0,1-6.3,7.044,1.9,1.9,0,0,1,.6.708,11.25,11.25,0,0,0,6.528-7.368,1.152,1.152,0,0,1,.2-.468l-.72-.756a1.322,1.322,0,0,1-.624.084l-2.9.048a1.713,1.713,0,0,0-.432.036,9.339,9.339,0,0,0,.552-1.056,2.081,2.081,0,0,1,.264-.492Zm4.092.192A8.376,8.376,0,0,1,40.02-7.668l.6-.36A8.309,8.309,0,0,0,39.4-9.84Zm1.356-.66A8.434,8.434,0,0,1,41.376-8.34l.6-.348a9.776,9.776,0,0,0-1.236-1.824ZM44.676-8.5a12.619,12.619,0,0,1,2.952,1.584l.492-.8a17.744,17.744,0,0,0-2.976-1.512Zm-.948,2.868a13.324,13.324,0,0,1,3.06,1.644l.468-.8A18.305,18.305,0,0,0,44.208-6.36ZM44.136.12A2.817,2.817,0,0,1,44.6-.012c.24-.048.456-.1.648-.132a13.707,13.707,0,0,0,3.036-1.032,9.406,9.406,0,0,0,4.62-5.172,3.618,3.618,0,0,1-.744-.636A8.936,8.936,0,0,1,50.724-4.3a7.9,7.9,0,0,1-3.6,2.676A10.378,10.378,0,0,1,43.9-.876ZM64.212-.648a29.843,29.843,0,0,0-4-3.6,14.511,14.511,0,0,0,1.98-3.36,2.24,2.24,0,0,1,.336-.588l-.5-.516a2.238,2.238,0,0,1-.768.1l-4.284.048h-.312a5.639,5.639,0,0,1-.948-.06l.024.972a8.074,8.074,0,0,1,1.236-.1l4.008-.06a2.038,2.038,0,0,0,.288-.012.254.254,0,0,1-.036.084c-.024.06-.036.072-.06.144a13.006,13.006,0,0,1-4.284,5.412A9.66,9.66,0,0,1,54.456-.8a2.671,2.671,0,0,1,.588.792A15.453,15.453,0,0,0,57.4-1.452,13.026,13.026,0,0,0,59.688-3.6,22.319,22.319,0,0,1,63.528.108Zm10.7-4.56a10.954,10.954,0,0,1,1.38.06v-.888a8.646,8.646,0,0,1-1.392.072h-7.02a8.646,8.646,0,0,1-1.392-.072v.888a10.954,10.954,0,0,1,1.38-.06h3.252a6.868,6.868,0,0,1-.48,2.484A4.552,4.552,0,0,1,67.608-.36a2.1,2.1,0,0,1,.564.78A7.057,7.057,0,0,0,70.284-.768,4.722,4.722,0,0,0,71.9-3.936a11.193,11.193,0,0,0,.132-1.272ZM67.7-8.1a9.652,9.652,0,0,1,1.368-.06h4.692a9.652,9.652,0,0,1,1.368.06v-.912a6.632,6.632,0,0,1-1.38.084H69.084a6.632,6.632,0,0,1-1.38-.084ZM81.72-9.54a22.77,22.77,0,0,1-.948,3.456A45.766,45.766,0,0,1,78.96-1.332c-.276.024-.936.06-1.02.06-.06,0-.06,0-.336-.012l.12,1a8.345,8.345,0,0,1,1.02-.132,74.127,74.127,0,0,0,7.38-1A16.288,16.288,0,0,1,86.832.2l.84-.456a31.083,31.083,0,0,0-2.988-5.424l-.744.408A23.344,23.344,0,0,1,85.788-2.16c-1.416.276-4.236.648-5.832.756a65.014,65.014,0,0,0,2.5-7.02,4.744,4.744,0,0,1,.324-.864Z" transform="translate(365 170)" fill="#211613"/>
    </g>
    <g id="グループ_4243" data-name="グループ 4243" transform="translate(81.5 5751)">
      <rect id="長方形_3346-3" data-name="長方形 3346" width="212" height="36" rx="16" fill="#847c79"/>
      <path id="パス_6595" data-name="パス 6595" d="M11.718-5.936a3.394,3.394,0,0,1-.854.07h-4.4a6.242,6.242,0,0,1-1.134-.07v1.47c.238-.028.336-.042.658-.056a8.652,8.652,0,0,0,1.75,2.73A10.067,10.067,0,0,1,4.088-.308a6.31,6.31,0,0,1,.868,1.4A11.627,11.627,0,0,0,8.89-.742a11.175,11.175,0,0,0,3.822,1.806,5.484,5.484,0,0,1,.882-1.512,9.2,9.2,0,0,1-3.458-1.33A12.257,12.257,0,0,0,12.18-4.452a5.668,5.668,0,0,1,.364-.574Zm-1.2,1.414A7.223,7.223,0,0,1,8.96-2.66,6.5,6.5,0,0,1,7.546-4.522ZM2.352-9.2h-.7a5.417,5.417,0,0,1-1.008-.07v1.484a8.19,8.19,0,0,1,.994-.056h.714v2.59A9.652,9.652,0,0,1,.5-4.858L.8-3.29a13.885,13.885,0,0,1,1.554-.532V-.77c0,.336-.084.42-.406.42a9.8,9.8,0,0,1-1.26-.1,4.333,4.333,0,0,1,.336,1.47c.42.014.616.028.854.028A5.542,5.542,0,0,0,3.22.9c.42-.14.63-.546.63-1.162v-4.06c.5-.182.658-.238,1.246-.462L5.082-6.174c-.616.252-.84.336-1.232.462V-7.84h.756a6.167,6.167,0,0,1,.728.042V-9.254a3.638,3.638,0,0,1-.7.056H3.85v-1.148a8.043,8.043,0,0,1,.084-1.414H2.268a8.216,8.216,0,0,1,.084,1.428Zm8.624-1.358a6.5,6.5,0,0,1,.042-.882,8.194,8.194,0,0,1-.868.042h-2.9a8.844,8.844,0,0,1-.91-.042,5.446,5.446,0,0,1,.042.616c0,2.282-.378,3.164-1.68,3.892A4.791,4.791,0,0,1,5.838-5.894c1.4-.91,1.932-2,1.988-4.06H9.52v2.128c0,.658.126.91.56,1.064a4.319,4.319,0,0,0,1.218.1c1.834,0,2-.182,2.156-2.282,0-.07.014-.168.028-.308A6.029,6.029,0,0,1,12.11-9.9v.63c0,.756-.042,1.05-.168,1.134a.922.922,0,0,1-.476.084c-.434,0-.49-.042-.49-.35ZM21.6-9.632a2.249,2.249,0,0,1-1.47,1.6,7.055,7.055,0,0,1-2.128.5l.5-.238L18.088-9a14.314,14.314,0,0,1-3.43,1.26L15.2-6.3c.266-.126.406-.2.616-.28,1.036-.42,1.2-.49,2.016-.868a3.811,3.811,0,0,1,.588.9H17.7c-.644,0-1.134-.014-1.428-.042a13.319,13.319,0,0,1,.056,1.456V-2.38c0,.588-.028,1.148-.056,1.4.35-.028.84-.042,1.484-.042h.56a9.77,9.77,0,0,1-3.724.98A5.608,5.608,0,0,1,15.442,1.2,11.32,11.32,0,0,0,19.88-.406l-.854-.616h3.822l-.812.616A10.694,10.694,0,0,0,26.6,1.19,6.779,6.779,0,0,1,27.468-.1a10.357,10.357,0,0,1-3.878-.924h.658c.588,0,1.162.014,1.484.042a12.462,12.462,0,0,1-.056-1.484v-2.59c0-.434,0-.84.014-1.218a10.7,10.7,0,0,0,1.274.28,5.015,5.015,0,0,1,.588-1.372C25-7.5,23.562-8.246,23.128-9.632h2.156a4.174,4.174,0,0,1-.938.826,6.7,6.7,0,0,1,1.288.532,8,8,0,0,0,1.232-1.442c.182-.266.21-.322.322-.476l-.826-.644a7.531,7.531,0,0,1-1.162.056H21.1a4.577,4.577,0,0,0,.294-.462,4.185,4.185,0,0,0,.238-.392L20.16-11.9a5.768,5.768,0,0,1-2.226,2.52,3.444,3.444,0,0,1,.938.924A9.435,9.435,0,0,0,20.2-9.632ZM19.53-6.552A5.193,5.193,0,0,0,21.1-7.126,3.258,3.258,0,0,0,22.4-8.4a4.2,4.2,0,0,0,2.38,1.848H19.53ZM17.78-5.53h6.44V-5H17.78Zm0,1.428h6.44v.574H17.78Zm0,1.47h6.44v.518H17.78Zm.406-7.7a13.365,13.365,0,0,0-2.268-1.288l-.91,1.064a9.458,9.458,0,0,1,2.226,1.372ZM31.262-9.6H29.988A10.086,10.086,0,0,1,28.6-9.688v1.526a9.007,9.007,0,0,1,1.3-.07h2.59a13.575,13.575,0,0,1-.546,2.968c-.532-.616-.77-.882-.882-.994-.826-.854-.826-.854-1.106-1.134L28.938-6.356a25.47,25.47,0,0,1,2.38,2.576,9.717,9.717,0,0,1-2.87,3.43,5.011,5.011,0,0,1,1.064,1.3A13.759,13.759,0,0,0,32.3-2.506a20.108,20.108,0,0,1,1.61,2.422l1.106-1.232c-.994-1.4-1.106-1.554-1.988-2.674a14.341,14.341,0,0,0,.952-4.242,10.446,10.446,0,0,1,1.092.042v-1.5a7.477,7.477,0,0,1-1.344.084h-.994v-.784A11.11,11.11,0,0,1,32.8-11.7H31.178a6.631,6.631,0,0,1,.084,1.316Zm7.224,2.128V-.8c0,.294-.084.336-.84.336A14.065,14.065,0,0,1,35.952-.63,4.639,4.639,0,0,1,36.386.924c.56.042,1.078.056,1.652.056.924,0,1.428-.14,1.694-.476.21-.252.252-.49.252-1.218V-7.476h.182a8.136,8.136,0,0,1,.98.042l.322.042V-8.96a8.028,8.028,0,0,1-1.316.084h-.168V-9.982a12.607,12.607,0,0,1,.084-1.666h-1.68a9.392,9.392,0,0,1,.1,1.666v1.106H36.708a8.5,8.5,0,0,1-1.33-.07v1.54a8.723,8.723,0,0,1,1.33-.07ZM34.664-5.922a12.481,12.481,0,0,1,1.96,3.388l1.274-.84a17.581,17.581,0,0,0-1.974-3.234Zm18.424.168c.588,0,.952.014,1.316.042a10.429,10.429,0,0,1-.056-1.232v-1.05A11.058,11.058,0,0,1,54.4-9.226a12.8,12.8,0,0,1-1.47.056H50.82c.42-.378.63-.588,1.008-.966.154-.182.21-.224.336-.364l-.784-.714c-.154.028-.868.056-1.344.056H47.768l.532-.616-1.722-.28a7.458,7.458,0,0,1-1.526,1.694,10.164,10.164,0,0,1-2.618,1.638,4,4,0,0,1,.686,1.3,9.532,9.532,0,0,0,.952-.56v1.036a8.633,8.633,0,0,1-.056,1.232c.462-.028.812-.042,1.372-.042h1.806a16.524,16.524,0,0,1-4.4,1.218A3.664,3.664,0,0,1,43.47-3.36,17.314,17.314,0,0,0,47.614-4.7a4.2,4.2,0,0,1,.322.42,19.4,19.4,0,0,1-5.152,1.722,3.869,3.869,0,0,1,.686,1.148,20.7,20.7,0,0,0,5-1.918c.084.2.112.266.2.5a20.1,20.1,0,0,1-6.076,2.38A3.975,3.975,0,0,1,43.4.812a21.4,21.4,0,0,0,5.53-2.45,1.006,1.006,0,0,1,.028.266c0,.952-.154,1.12-1.05,1.12a9.139,9.139,0,0,1-1.19-.112A3.615,3.615,0,0,1,47.25,1.12c.322.014.56.028.728.028,1.862,0,2.45-.546,2.45-2.3a5.418,5.418,0,0,0-.378-2.17A5.164,5.164,0,0,0,48.8-5.362c.266-.168.35-.238.574-.392h.378a14,14,0,0,0,1.554,3.4A8.51,8.51,0,0,0,54.754.686a6.023,6.023,0,0,1,.938-1.5A6.786,6.786,0,0,1,52.6-3.08a13.137,13.137,0,0,0,1.778-1.344,3.25,3.25,0,0,1,.35-.294l-1.3-.924a6.2,6.2,0,0,1-1.54,1.414,8.259,8.259,0,0,1-.63-1.526ZM45.752-9.17a9.265,9.265,0,0,0,.952-.84h3.178a6.337,6.337,0,0,1-.812.84Zm-.21,2.128v-.9h2.842v.9Zm4.284,0v-.9h3.038v.9ZM69.594,1.246A10.76,10.76,0,0,1,67.816-1.54a9.47,9.47,0,0,1-.742-3.836,9.186,9.186,0,0,1,.728-3.71,10.91,10.91,0,0,1,1.778-2.786H67.62a11.3,11.3,0,0,0-1.54,2.758,9.907,9.907,0,0,0-.714,3.738,10.3,10.3,0,0,0,.742,3.864,11.213,11.213,0,0,0,1.526,2.758Zm7.182-10.78a11.1,11.1,0,0,1-1.988,2.6,16.418,16.418,0,0,1-4.41,3.262,5.018,5.018,0,0,1,.98,1.428,25.346,25.346,0,0,0,2.66-1.848,12.733,12.733,0,0,0,2.044-2.044c-.014.616-.014.8-.014,1.3v4.2a17.631,17.631,0,0,1-.1,1.764h1.806a13.511,13.511,0,0,1-.1-1.764V-7.98a9.447,9.447,0,0,0,.994-1.554H81.48c.6,0,1.26.028,1.82.084V-11.1a15.521,15.521,0,0,1-1.862.084h-8.9a18.557,18.557,0,0,1-1.862-.084V-9.45c.56-.056,1.316-.084,1.918-.084Zm.994,3.108a16.788,16.788,0,0,0,4.97,4.172,8.536,8.536,0,0,1,.966-1.526,12.041,12.041,0,0,1-2.87-1.792A14.413,14.413,0,0,1,78.792-7.56Zm9.9-3.01H85.96a8.437,8.437,0,0,1-1.3-.07v1.288a8.437,8.437,0,0,1,1.3-.07h1.708v.6h-1.2c-.616,0-.98-.014-1.372-.042.028.35.042.616.042,1.274v1.806c0,.686-.014.98-.042,1.33.392-.028.728-.042,1.358-.042h1.218v.616H86.24a8.306,8.306,0,0,1-1.316-.07V-1.5a12.578,12.578,0,0,1,1.3-.056h1.442v.77c-1.484.084-1.75.1-2.38.1a6.208,6.208,0,0,1-.728-.028l.252,1.5c.336-.056.546-.084.812-.112,2.562-.2,3.584-.308,5.5-.588A4.153,4.153,0,0,1,92.232,1.19a9.1,9.1,0,0,0,1.12-1.834A4.129,4.129,0,0,1,93.674.868c.21.014.9.042,1.12.042,1.05,0,1.5-.21,1.75-.826.35-.812.532-2.786.6-6.4.042-2.016.042-2.128.1-2.632a11.063,11.063,0,0,1-1.316.056H94.71a16.781,16.781,0,0,1,.112-2.8h-1.61A8.929,8.929,0,0,1,93.3-9.912c0,.434,0,.672-.014,1.022h-.21a6.117,6.117,0,0,1-.994-.056v1.512A8.52,8.52,0,0,1,93.24-7.49a20.8,20.8,0,0,1-.364,3.7,9.639,9.639,0,0,1-1.33,3.22v-.6c-1.316.182-1.792.238-2.52.308v-.686h1.568a4.073,4.073,0,0,1,.98.07V-2.8a9.521,9.521,0,0,1-1.316.056H89.026V-3.36h1.3c.658,0,.938,0,1.26.028-.014-.182-.028-.6-.042-1.274V-6.5a11.208,11.208,0,0,1,.042-1.232,11.029,11.029,0,0,1-1.176.042H89.026v-.6h1.75a4.813,4.813,0,0,1,1.008.056V-9.506a7.4,7.4,0,0,1-1.3.07H89.026v-.784c.7-.1,1.4-.21,1.918-.308.182-.042.644-.112.77-.126l-.84-1.148a18.647,18.647,0,0,1-6.1.756,4.624,4.624,0,0,1,.49,1.12c1.05-.056,1.442-.084,2.408-.168Zm0,2.8v.588H86.45v-.588Zm1.358,0h1.218v.588H89.026Zm-1.358,1.61v.616H86.45v-.616Zm1.358,0h1.218v.616H89.026Zm6.72-2.464c-.014.462-.014.546-.028.98C95.7-5.376,95.7-5.376,95.69-4.886a27.839,27.839,0,0,1-.2,2.9c-.168,1.3-.266,1.47-.9,1.47a7.349,7.349,0,0,1-1.232-.14c.854-1.876,1.176-3.5,1.316-6.832Zm6.608,5.572a11.792,11.792,0,0,1,1.288-.056h1.624V-.616H102.06a8.2,8.2,0,0,1-1.316-.07V.8a10.947,10.947,0,0,1,1.344-.07h7.77a10.015,10.015,0,0,1,1.372.084v-1.5a11.018,11.018,0,0,1-1.33.07h-3.164V-1.974h2.1a10.191,10.191,0,0,1,1.26.056V-3.29a9.227,9.227,0,0,1-1.26.056h-2.1V-4.34h2.506a11.7,11.7,0,0,1,1.358.056V-5.768a7.957,7.957,0,0,1-1.344.07h-2.52a5.457,5.457,0,0,1,.056-.9h-1.6a4.843,4.843,0,0,1,.056.9h-1.568c.168-.406.168-.406.308-.756l-1.414-.322a8,8,0,0,1-.728,1.792,5.374,5.374,0,0,1-.98,1.316A29.254,29.254,0,0,0,101-6.93h8.652a11.8,11.8,0,0,1,1.568.07V-8.288a11.053,11.053,0,0,1-1.568.07H107.8a11.809,11.809,0,0,0,.588-1.19h1.078a13.365,13.365,0,0,1,1.5.056v-1.512a11.215,11.215,0,0,1-1.582.084h-3.43v-.14a4.388,4.388,0,0,1,.084-.882h-1.722a6.583,6.583,0,0,1,.07.882v.14h-3.43a10.2,10.2,0,0,1-1.526-.084v1.512a11.829,11.829,0,0,1,1.428-.056h1.19a4.5,4.5,0,0,1,.476,1.19H101.08a14.257,14.257,0,0,1-1.6-.07c.042.462.07.98.07,1.54a19.794,19.794,0,0,1-.434,4.662,6.373,6.373,0,0,1-.8,1.848,6.2,6.2,0,0,1,1.12,1.372,9.571,9.571,0,0,0,1.372-4.382,5.589,5.589,0,0,1,.812.966,9.291,9.291,0,0,0,.728-.854Zm2.912-2.422v1.106h-1.638a11.72,11.72,0,0,1-1.19-.042,7.648,7.648,0,0,0,.644-1.064Zm-1.134-3.878a9.585,9.585,0,0,0-.476-1.19h3.136a7,7,0,0,1-.532,1.19ZM114.38,1.246a11.7,11.7,0,0,0,1.526-2.758,10.514,10.514,0,0,0,.728-3.864,9.907,9.907,0,0,0-.714-3.738,11.174,11.174,0,0,0-1.526-2.758H112.42a11.439,11.439,0,0,1,1.792,2.786,9.088,9.088,0,0,1,.714,3.71,9.424,9.424,0,0,1-.742,3.836,10.76,10.76,0,0,1-1.778,2.786Z" transform="translate(43 24)" fill="#fff"/>
    </g>
    <g id="グループ_4256" data-name="グループ 4256" transform="translate(-478 2929)">
      <g id="グループ_4254" data-name="グループ 4254" transform="translate(3000.374 1969.786) rotate(90)">
        <path id="線_5" data-name="線 5" d="M67.231,2.139H0V-2.5H67.231Z" transform="translate(758.214 2319.441)" fill="#847c79"/>
        <path id="パス_4" data-name="パス 4" d="M651.8,87.311l11.97-6.906L651.8,73.5Z" transform="translate(167.949 2238.873)" fill="#847c79"/>
      </g>
      <g id="グループ_4283" data-name="グループ 4283" transform="translate(-1668.684 3559.719) rotate(-90)">
        <path id="線_5-2" data-name="線 5" d="M67.231,2.139H0V-2.5H67.231Z" transform="translate(758.214 2319.441)" fill="#847c79"/>
        <path id="パス_4-2" data-name="パス 4" d="M651.8,87.311l11.97-6.906L651.8,73.5Z" transform="translate(167.949 2238.873)" fill="#847c79"/>
      </g>
      <path id="パス_6594" data-name="パス 6594" d="M4.718-5.936a3.394,3.394,0,0,1-.854.07h-4.4a6.242,6.242,0,0,1-1.134-.07v1.47c.238-.028.336-.042.658-.056a8.652,8.652,0,0,0,1.75,2.73A10.067,10.067,0,0,1-2.912-.308a6.31,6.31,0,0,1,.868,1.4A11.627,11.627,0,0,0,1.89-.742,11.175,11.175,0,0,0,5.712,1.064,5.484,5.484,0,0,1,6.594-.448a9.2,9.2,0,0,1-3.458-1.33A12.257,12.257,0,0,0,5.18-4.452a5.668,5.668,0,0,1,.364-.574Zm-1.2,1.414A7.223,7.223,0,0,1,1.96-2.66,6.5,6.5,0,0,1,.546-4.522ZM-4.648-9.2h-.7a5.417,5.417,0,0,1-1.008-.07v1.484a8.19,8.19,0,0,1,.994-.056h.714v2.59A9.652,9.652,0,0,1-6.5-4.858L-6.2-3.29a13.885,13.885,0,0,1,1.554-.532V-.77c0,.336-.084.42-.406.42a9.8,9.8,0,0,1-1.26-.1,4.333,4.333,0,0,1,.336,1.47c.42.014.616.028.854.028A5.542,5.542,0,0,0-3.78.9c.42-.14.63-.546.63-1.162v-4.06c.5-.182.658-.238,1.246-.462l-.014-1.386c-.616.252-.84.336-1.232.462V-7.84h.756a6.167,6.167,0,0,1,.728.042V-9.254a3.638,3.638,0,0,1-.7.056H-3.15v-1.148a8.043,8.043,0,0,1,.084-1.414H-4.732a8.216,8.216,0,0,1,.084,1.428Zm8.624-1.358a6.5,6.5,0,0,1,.042-.882,8.194,8.194,0,0,1-.868.042H.252a8.844,8.844,0,0,1-.91-.042,5.446,5.446,0,0,1,.042.616c0,2.282-.378,3.164-1.68,3.892A4.791,4.791,0,0,1-1.162-5.894C.238-6.8.77-7.9.826-9.954H2.52v2.128c0,.658.126.91.56,1.064a4.319,4.319,0,0,0,1.218.1c1.834,0,2-.182,2.156-2.282,0-.07.014-.168.028-.308A6.029,6.029,0,0,1,5.11-9.9v.63c0,.756-.042,1.05-.168,1.134a.922.922,0,0,1-.476.084c-.434,0-.49-.042-.49-.35ZM.6,6.368a2.249,2.249,0,0,1-1.47,1.6A7.055,7.055,0,0,1-3,8.468l.5-.238L-2.912,7a14.314,14.314,0,0,1-3.43,1.26L-5.8,9.7c.266-.126.406-.2.616-.28,1.036-.42,1.2-.49,2.016-.868a3.811,3.811,0,0,1,.588.9H-3.3c-.644,0-1.134-.014-1.428-.042a13.319,13.319,0,0,1,.056,1.456V13.62c0,.588-.028,1.148-.056,1.4.35-.028.84-.042,1.484-.042h.56a9.77,9.77,0,0,1-3.724.98A5.608,5.608,0,0,1-5.558,17.2a11.32,11.32,0,0,0,4.438-1.61l-.854-.616H1.848l-.812.616A10.694,10.694,0,0,0,5.6,17.19,6.779,6.779,0,0,1,6.468,15.9a10.357,10.357,0,0,1-3.878-.924h.658c.588,0,1.162.014,1.484.042a12.462,12.462,0,0,1-.056-1.484v-2.59c0-.434,0-.84.014-1.218a10.7,10.7,0,0,0,1.274.28,5.015,5.015,0,0,1,.588-1.372C4,8.5,2.562,7.754,2.128,6.368H4.284a4.174,4.174,0,0,1-.938.826,6.7,6.7,0,0,1,1.288.532A8,8,0,0,0,5.866,6.284c.182-.266.21-.322.322-.476l-.826-.644A7.531,7.531,0,0,1,4.2,5.22H.1a4.578,4.578,0,0,0,.294-.462A4.185,4.185,0,0,0,.63,4.366L-.84,4.1A5.768,5.768,0,0,1-3.066,6.62a3.444,3.444,0,0,1,.938.924A9.435,9.435,0,0,0-.8,6.368ZM-1.47,9.448A5.193,5.193,0,0,0,.1,8.874,3.258,3.258,0,0,0,1.4,7.6,4.2,4.2,0,0,0,3.78,9.448H-1.47ZM-3.22,10.47H3.22V11H-3.22Zm0,1.428H3.22v.574H-3.22Zm0,1.47H3.22v.518H-3.22Zm.406-7.7A13.365,13.365,0,0,0-5.082,4.38l-.91,1.064A9.458,9.458,0,0,1-3.766,6.816Z" transform="translate(700 2766)" fill="#211613"/>
      <path id="パス_6593" data-name="パス 6593" d="M-4.172-8.792a10.417,10.417,0,0,1,.084-1.61H-5.726a10.743,10.743,0,0,1,.084,1.61V-2.94a6.85,6.85,0,0,1-.91.2l.28,1.61c.294-.112.364-.14.658-.238,1.106-.378,2.086-.756,2.87-1.078V-.49a10.853,10.853,0,0,1-.084,1.61h1.68A9.981,9.981,0,0,1-1.232-.1a3.6,3.6,0,0,1,.826,1.33A12.6,12.6,0,0,0,2.716-1.694,15.138,15.138,0,0,0,5.908,1.148a7.162,7.162,0,0,1,.8-1.568,11.374,11.374,0,0,1-3.08-2.618,18.439,18.439,0,0,0,2.31-7.5c.042-.336.042-.336.07-.5a9.837,9.837,0,0,1-1.12.056H.574A11.117,11.117,0,0,1-.9-11.074v1.582a4.4,4.4,0,0,1,.728-.07A15.122,15.122,0,0,0,1.806-3,10.678,10.678,0,0,1,.266-1.3,8.138,8.138,0,0,1-1.232-.2v-9.9a10.417,10.417,0,0,1,.084-1.61h-1.68a10.743,10.743,0,0,1,.084,1.61v6.2c-.672.266-.854.322-1.428.532Zm8.4-.77A14.624,14.624,0,0,1,2.688-4.41,10.377,10.377,0,0,1,1.68-7.14a18.55,18.55,0,0,1-.406-2.422ZM-4.606,4.382A11.258,11.258,0,0,1-6.216,4.3V5.866a12.243,12.243,0,0,1,1.61-.084h1.918a8.691,8.691,0,0,1-4.046,3.7,4.346,4.346,0,0,1,.756,1.386A11.572,11.572,0,0,0-4.648,10v3.276h-.644A8.2,8.2,0,0,1-6.37,13.2v1.582A13.272,13.272,0,0,1-4.83,14.7H4.858c.546,0,1.022.028,1.5.07V13.2a5.877,5.877,0,0,1-1.134.07H4.634v-3.22a13.456,13.456,0,0,0,1.358.9,4.953,4.953,0,0,1,.742-1.526A11.679,11.679,0,0,1,3.906,7.476,7.509,7.509,0,0,1,2.52,5.782H4.634a12.218,12.218,0,0,1,1.582.084V4.3a10.992,10.992,0,0,1-1.61.084H2.59A11.5,11.5,0,0,0,3.71,2.618L2.156,2.072A9.067,9.067,0,0,1,.9,4.382H-2.338l1.176-.476A12.864,12.864,0,0,0-2.324,2.044l-1.442.56A9.412,9.412,0,0,1-2.632,4.382Zm1.386,4.4a10.78,10.78,0,0,0,2.184-3H.952a11.485,11.485,0,0,0,2.212,3Zm.028,1.358h1.246V13.3H-3.192Zm2.562,0H.588V13.3H-.63Zm2.562,0H3.178V13.3H1.932ZM0,21.014A1.661,1.661,0,0,0-1.666,22.68,1.661,1.661,0,0,0,0,24.346a1.666,1.666,0,0,0,0-3.332Zm-.882,10.43H-4.438a12.088,12.088,0,0,1-1.694-.084v1.484a13.379,13.379,0,0,1,1.652-.07h3.6V33.7H-3.864a8.938,8.938,0,0,1-1.414-.07V35.07a12.636,12.636,0,0,1,1.414-.056H3.794a12.284,12.284,0,0,1,1.428.056V33.628a9.031,9.031,0,0,1-1.428.07H.672v-.924H4.494a16.153,16.153,0,0,1,1.638.07V31.36a11.993,11.993,0,0,1-1.68.084H.672v-.168A4.318,4.318,0,0,1,.756,30.2H-.952a5.763,5.763,0,0,1,.07,1.078Zm-3.682,7.364V37.184H4.48v1.624H6.118a5.484,5.484,0,0,1-.07-1.022V36.764A6.34,6.34,0,0,1,6.1,35.77c-.49.042-.84.056-1.512.056H-4.662a14.359,14.359,0,0,1-1.5-.056A7.44,7.44,0,0,1-6.1,36.806V37.8a5.7,5.7,0,0,1-.07,1.008Zm2.03-1.19a2.669,2.669,0,0,1,.042.448,4.717,4.717,0,0,1-.224,1.316,3.069,3.069,0,0,1-1.806,1.736,6.036,6.036,0,0,1-1.918.518A5.5,5.5,0,0,1-5.432,43.19a8.71,8.71,0,0,0,1.512-.532A6.435,6.435,0,0,0-2.268,41.51,5.194,5.194,0,0,0-.91,38.3a3.192,3.192,0,0,1,.084-.6ZM2.03,38.752A5.745,5.745,0,0,1,2.1,37.66H.42a7.889,7.889,0,0,1,.056,1.162v2.87c0,1.022.378,1.2,2.506,1.2,1.61,0,2.268-.1,2.59-.406.378-.35.588-1.106.7-2.52a4.825,4.825,0,0,1-1.5-.476,4.327,4.327,0,0,1-.252,1.736c-.126.182-.434.238-1.414.238-.952,0-1.078-.056-1.078-.42ZM-3.444,47.6v1.89h-1.47A10.072,10.072,0,0,1-6.3,49.434v1.5a9.451,9.451,0,0,1,1.372-.07h1.05A20.139,20.139,0,0,1-5.32,54.586c-.364.028-.672.042-.854.042h-.21l.252,1.61a6.876,6.876,0,0,1,.7-.14c2.842-.49,3.108-.532,4.7-.91.112.322.2.532.392,1.134l1.33-.77A25.483,25.483,0,0,0-.882,51.66l-1.232.658a12.576,12.576,0,0,1,.868,1.624c-.77.182-1.316.28-2.464.448a23.713,23.713,0,0,0,1.2-2.94c.14-.392.14-.392.2-.588H-.686a8.954,8.954,0,0,1,1.4.07v-1.5a10.319,10.319,0,0,1-1.4.056H-1.974V47.6h1.12a10.756,10.756,0,0,1,1.386.056v-1.5a8.433,8.433,0,0,1-1.386.07h-1.12V45.7a7.118,7.118,0,0,1,.07-1.288H-3.528a7.955,7.955,0,0,1,.084,1.3v.518H-4.536a8.06,8.06,0,0,1-1.344-.07v1.5A10.168,10.168,0,0,1-4.55,47.6ZM6.09,46.172a10.846,10.846,0,0,1,.056-1.288,9.738,9.738,0,0,1-1.218.056h-2.6a11.259,11.259,0,0,1-1.26-.056c.028.336.042.616.042,1.148V55.58a12.134,12.134,0,0,1-.084,1.638H2.646a12.442,12.442,0,0,1-.07-1.652V46.3H4.62v7.28c0,.322-.1.392-.518.392a7.71,7.71,0,0,1-1.12-.1A4.6,4.6,0,0,1,3.3,55.426c.308.014.448.014.672.014,1.708,0,2.114-.294,2.114-1.526Zm-10.7,14.21a11.258,11.258,0,0,1-1.61-.084v1.568a12.243,12.243,0,0,1,1.61-.084h1.918a8.691,8.691,0,0,1-4.046,3.7,4.346,4.346,0,0,1,.756,1.386A11.571,11.571,0,0,0-4.648,66v3.276h-.644A8.2,8.2,0,0,1-6.37,69.2v1.582A13.272,13.272,0,0,1-4.83,70.7H4.858c.546,0,1.022.028,1.5.07V69.2a5.877,5.877,0,0,1-1.134.07H4.634v-3.22a13.456,13.456,0,0,0,1.358.9,4.953,4.953,0,0,1,.742-1.526,11.679,11.679,0,0,1-2.828-1.946A7.509,7.509,0,0,1,2.52,61.782H4.634a12.218,12.218,0,0,1,1.582.084V60.3a10.992,10.992,0,0,1-1.61.084H2.59a11.5,11.5,0,0,0,1.12-1.764l-1.554-.546A9.067,9.067,0,0,1,.9,60.382H-2.338l1.176-.476a12.864,12.864,0,0,0-1.162-1.862l-1.442.56a9.412,9.412,0,0,1,1.134,1.778Zm1.386,4.4a10.78,10.78,0,0,0,2.184-3H.952a11.485,11.485,0,0,0,2.212,3Zm.028,1.358h1.246V69.3H-3.192Zm2.562,0H.588V69.3H-.63Zm2.562,0H3.178V69.3H1.932Z" transform="translate(631.689 2735)" fill="#211613"/>
    </g>
    <g id="グループ_4284" data-name="グループ 4284" transform="translate(-478 2640.504)">
      <g id="グループ_4254-2" data-name="グループ 4254" transform="translate(3000.374 1969.786) rotate(90)">
        <path id="線_5-3" data-name="線 5" d="M67.231,2.139H0V-2.5H67.231Z" transform="translate(758.214 2319.441)" fill="#847c79"/>
        <path id="パス_4-3" data-name="パス 4" d="M651.8,87.311l11.97-6.906L651.8,73.5Z" transform="translate(167.949 2238.873)" fill="#847c79"/>
      </g>
      <g id="グループ_4283-2" data-name="グループ 4283" transform="translate(-1668.684 3559.719) rotate(-90)">
        <path id="線_5-4" data-name="線 5" d="M67.231,2.139H0V-2.5H67.231Z" transform="translate(758.214 2319.441)" fill="#847c79"/>
        <path id="パス_4-4" data-name="パス 4" d="M651.8,87.311l11.97-6.906L651.8,73.5Z" transform="translate(167.949 2238.873)" fill="#847c79"/>
      </g>
      <text id="出_資" data-name="出
資" transform="translate(700 2766)" fill="#211613" font-size="14" font-family="HiraginoSans-W6, Hiragino Sans"><tspan x="-7" y="0">出</tspan><tspan y="0" font-family="Helvetica-Bold, Helvetica" font-weight="700"></tspan><tspan x="-7" y="16">資</tspan></text>
      <text id="配_当" data-name="配
当" transform="translate(631.689 2766)" fill="#211613" font-size="14" font-family="HiraginoSans-W6, Hiragino Sans"><tspan x="-7" y="0">配</tspan><tspan y="0" font-family="Helvetica-Bold, Helvetica" font-weight="700"></tspan><tspan x="-7" y="16">当</tspan></text>
    </g>
    <g id="グループ_4250" data-name="グループ 4250" transform="translate(-447.363 5755.697)">
      <path id="長方形_39" data-name="長方形 39" d="M-.186-1H33.446a.872.872,0,0,1,.814.921V81.831a.872.872,0,0,1-.814.921H-.186A.872.872,0,0,1-1,81.831V-.079A.872.872,0,0,1-.186-1ZM32.632.842h-32V80.911h32Z" transform="translate(618.908 56.246)" fill="#333"/>
      <path id="線_9" data-name="線 9" d="M-.186,3.88A.872.872,0,0,1-1,2.959V-.079A.872.872,0,0,1-.186-1a.872.872,0,0,1,.814.921V2.959a.872.872,0,0,1-.814.921Z" transform="translate(627.947 66.006)" fill="#333"/>
      <path id="線_10" data-name="線 10" d="M-.186,3.88A.872.872,0,0,1-1,2.959V-.079A.872.872,0,0,1-.186-1a.872.872,0,0,1,.814.921V2.959a.872.872,0,0,1-.814.921Z" transform="translate(635.766 66.006)" fill="#333"/>
      <path id="線_11" data-name="線 11" d="M-.186,3.88A.872.872,0,0,1-1,2.959V-.079A.872.872,0,0,1-.186-1a.872.872,0,0,1,.814.921V2.959a.872.872,0,0,1-.814.921Z" transform="translate(643.583 66.006)" fill="#333"/>
      <path id="パス_24" data-name="パス 24" d="M821.9,144.973a.872.872,0,0,1-.814-.921V77.942H809.114a.928.928,0,0,1,0-1.842H821.9a.872.872,0,0,1,.814.921v67.031A.872.872,0,0,1,821.9,144.973Z" transform="translate(-150.082 -6.029)" fill="#333"/>
      <path id="線_12" data-name="線 12" d="M-.186,4.064A.872.872,0,0,1-1,3.143V-.079A.872.872,0,0,1-.186-1a.872.872,0,0,1,.814.921V3.143a.872.872,0,0,1-.814.921Z" transform="translate(662.801 81.291)" fill="#333"/>
      <path id="線_13" data-name="線 13" d="M-.186,4.064A.872.872,0,0,1-1,3.143V-.079A.872.872,0,0,1-.186-1a.872.872,0,0,1,.814.921V3.143a.872.872,0,0,1-.814.921Z" transform="translate(662.801 92.432)" fill="#333"/>
      <path id="線_14" data-name="線 14" d="M-.186,4.064A.872.872,0,0,1-1,3.143V-.079A.872.872,0,0,1-.186-1a.872.872,0,0,1,.814.921V3.143a.872.872,0,0,1-.814.921Z" transform="translate(662.801 103.664)" fill="#333"/>
      <path id="線_15" data-name="線 15" d="M-.186,4.064A.872.872,0,0,1-1,3.143V-.079A.872.872,0,0,1-.186-1a.872.872,0,0,1,.814.921V3.143a.872.872,0,0,1-.814.921Z" transform="translate(662.801 114.807)" fill="#333"/>
      <path id="線_16" data-name="線 16" d="M-.186,4.064A.872.872,0,0,1-1,3.143V-.079A.872.872,0,0,1-.186-1a.872.872,0,0,1,.814.921V3.143a.872.872,0,0,1-.814.921Z" transform="translate(662.801 126.039)" fill="#333"/>
      <path id="パス_25" data-name="パス 25" d="M735.814,144.973a.872.872,0,0,1-.814-.921V77.021a.872.872,0,0,1,.814-.921H748.6a.928.928,0,0,1,0,1.842H736.629v66.11A.872.872,0,0,1,735.814,144.973Z" transform="translate(-136.473 -6.029)" fill="#333"/>
      <path id="線_17" data-name="線 17" d="M-.186,4.064A.872.872,0,0,1-1,3.143V-.079A.872.872,0,0,1-.186-1a.872.872,0,0,1,.814.921V3.143a.872.872,0,0,1-.814.921Z" transform="translate(608.729 81.291)" fill="#333"/>
      <path id="線_18" data-name="線 18" d="M-.186,4.064A.872.872,0,0,1-1,3.143V-.079A.872.872,0,0,1-.186-1a.872.872,0,0,1,.814.921V3.143a.872.872,0,0,1-.814.921Z" transform="translate(608.729 92.432)" fill="#333"/>
      <path id="線_19" data-name="線 19" d="M-.186,4.064A.872.872,0,0,1-1,3.143V-.079A.872.872,0,0,1-.186-1a.872.872,0,0,1,.814.921V3.143a.872.872,0,0,1-.814.921Z" transform="translate(608.729 103.664)" fill="#333"/>
      <path id="線_20" data-name="線 20" d="M-.186,4.064A.872.872,0,0,1-1,3.143V-.079A.872.872,0,0,1-.186-1a.872.872,0,0,1,.814.921V3.143a.872.872,0,0,1-.814.921Z" transform="translate(608.729 114.807)" fill="#333"/>
      <path id="線_21" data-name="線 21" d="M-.186,4.064A.872.872,0,0,1-1,3.143V-.079A.872.872,0,0,1-.186-1a.872.872,0,0,1,.814.921V3.143a.872.872,0,0,1-.814.921Z" transform="translate(608.729 126.039)" fill="#333"/>
      <path id="線_22" data-name="線 22" d="M-.186,3.88A.872.872,0,0,1-1,2.959V-.079A.872.872,0,0,1-.186-1a.872.872,0,0,1,.814.921V2.959a.872.872,0,0,1-.814.921Z" transform="translate(627.947 78.252)" fill="#333"/>
      <path id="線_23" data-name="線 23" d="M-.186,3.88A.872.872,0,0,1-1,2.959V-.079A.872.872,0,0,1-.186-1a.872.872,0,0,1,.814.921V2.959a.872.872,0,0,1-.814.921Z" transform="translate(635.766 78.252)" fill="#333"/>
      <path id="線_24" data-name="線 24" d="M-.186,3.88A.872.872,0,0,1-1,2.959V-.079A.872.872,0,0,1-.186-1a.872.872,0,0,1,.814.921V2.959a.872.872,0,0,1-.814.921Z" transform="translate(643.583 78.252)" fill="#333"/>
      <path id="線_25" data-name="線 25" d="M-.186,3.88A.872.872,0,0,1-1,2.959V-.079A.872.872,0,0,1-.186-1a.872.872,0,0,1,.814.921V2.959a.872.872,0,0,1-.814.921Z" transform="translate(627.947 90.59)" fill="#333"/>
      <path id="線_26" data-name="線 26" d="M-.186,3.88A.872.872,0,0,1-1,2.959V-.079A.872.872,0,0,1-.186-1a.872.872,0,0,1,.814.921V2.959a.872.872,0,0,1-.814.921Z" transform="translate(635.766 90.59)" fill="#333"/>
      <path id="線_27" data-name="線 27" d="M-.186,3.88A.872.872,0,0,1-1,2.959V-.079A.872.872,0,0,1-.186-1a.872.872,0,0,1,.814.921V2.959a.872.872,0,0,1-.814.921Z" transform="translate(643.583 90.59)" fill="#333"/>
      <path id="線_28" data-name="線 28" d="M-.186,3.88A.872.872,0,0,1-1,2.959V-.079A.872.872,0,0,1-.186-1a.872.872,0,0,1,.814.921V2.959a.872.872,0,0,1-.814.921Z" transform="translate(627.947 102.836)" fill="#333"/>
      <path id="線_29" data-name="線 29" d="M-.186,3.88A.872.872,0,0,1-1,2.959V-.079A.872.872,0,0,1-.186-1a.872.872,0,0,1,.814.921V2.959a.872.872,0,0,1-.814.921Z" transform="translate(635.766 102.836)" fill="#333"/>
      <path id="線_30" data-name="線 30" d="M-.186,3.88A.872.872,0,0,1-1,2.959V-.079A.872.872,0,0,1-.186-1a.872.872,0,0,1,.814.921V2.959a.872.872,0,0,1-.814.921Z" transform="translate(643.583 102.836)" fill="#333"/>
      <path id="パス_26" data-name="パス 26" d="M784.212,147.868a.872.872,0,0,1-.814-.921V124.942h-8.469v22.006a.82.82,0,1,1-1.629,0V124.021a.872.872,0,0,1,.814-.921h10.1a.872.872,0,0,1,.814.921v22.927A.872.872,0,0,1,784.212,147.868Z" transform="translate(-143.584 -9.754)" fill="#333"/>
      <path id="線_31" data-name="線 31" d="M79.618.842H-.186A.872.872,0,0,1-1-.079.872.872,0,0,1-.186-1h79.8a.872.872,0,0,1,.814.921A.872.872,0,0,1,79.618.842Z" transform="translate(595.863 138.102)" fill="#333"/>
    </g>
  </g>
</svg>
