<svg id="グループ_4168" data-name="グループ 4168" xmlns="http://www.w3.org/2000/svg" xmlns:xlink="http://www.w3.org/1999/xlink" width="78.26" height="68.752" viewBox="0 0 78.26 68.752">
  <defs>
    <clipPath id="clip-path">
      <rect id="長方形_3301" data-name="長方形 3301" width="78.26" height="68.752" fill="none" stroke="#707070" stroke-width="2"/>
    </clipPath>
  </defs>
  <g id="グループ_4167" data-name="グループ 4167" transform="translate(0 0)" clip-path="url(#clip-path)">
    <path id="パス_3250" data-name="パス 3250" d="M40.152,8.823a2.519,2.519,0,1,0-2.519,2.519,2.519,2.519,0,0,0,2.519-2.519" transform="translate(-10.806 -1.94)" fill="#f19917"/>
    <line id="線_1090" data-name="線 1090" x2="75.076" transform="translate(0.426 67.714)" fill="none" stroke="#211613" stroke-miterlimit="10" stroke-width="2"/>
    <rect id="長方形_3297" data-name="長方形 3297" width="8.25" height="26.348" transform="translate(0.426 34.36)" fill="#211613"/>
    <rect id="長方形_3298" data-name="長方形 3298" width="8.25" height="40.024" transform="translate(67.252 20.684)" fill="#f19917"/>
    <rect id="長方形_3299" data-name="長方形 3299" width="8.25" height="40.526" transform="translate(22.702 20.182)" fill="#f19917"/>
    <circle id="楕円形_502" data-name="楕円形 502" cx="5.845" cy="5.845" r="5.845" transform="translate(20.982 1.038)" fill="none" stroke="#211613" stroke-miterlimit="10" stroke-width="2"/>
    <path id="パス_3251" data-name="パス 3251" d="M104.508,9.548a2.519,2.519,0,1,0-2.519,2.519,2.519,2.519,0,0,0,2.519-2.519" transform="translate(-30.612 -2.163)" fill="#f19917"/>
    <circle id="楕円形_503" data-name="楕円形 503" cx="5.845" cy="5.845" r="5.845" transform="translate(65.532 1.54)" fill="none" stroke="#211613" stroke-miterlimit="10" stroke-width="2"/>
    <path id="パス_3252" data-name="パス 3252" d="M0,0H8.25V27.853H0Z" transform="translate(44.977 32.855)" fill="#211613"/>
    <circle id="楕円形_504" data-name="楕円形 504" cx="3.513" cy="3.513" r="3.513" transform="translate(45.589 16.042)" fill="none" stroke="#211613" stroke-miterlimit="10" stroke-width="2"/>
    <circle id="楕円形_505" data-name="楕円形 505" cx="3.513" cy="3.513" r="3.513" transform="translate(1.038 17.548)" fill="none" stroke="#211613" stroke-miterlimit="10" stroke-width="2"/>
    <line id="線_1091" data-name="線 1091" y1="8.878" x2="14.62" transform="translate(7.183 9.861)" fill="none" stroke="#211613" stroke-miterlimit="10" stroke-width="2"/>
    <line id="線_1092" data-name="線 1092" x2="13.376" y2="8.394" transform="translate(32.213 9.154)" fill="none" stroke="#211613" stroke-miterlimit="10" stroke-width="2"/>
    <line id="線_1093" data-name="線 1093" y1="7.982" x2="13.916" transform="translate(52.194 9.904)" fill="none" stroke="#211613" stroke-miterlimit="10" stroke-width="2"/>
  </g>
</svg>
