<svg xmlns="http://www.w3.org/2000/svg" xmlns:xlink="http://www.w3.org/1999/xlink" width="86.977" height="68.998" viewBox="0 0 86.977 68.998">
  <defs>
    <clipPath id="clip-path">
      <rect id="長方形_3306" data-name="長方形 3306" width="86.977" height="68.998" fill="none" stroke="#707070" stroke-width="2"/>
    </clipPath>
  </defs>
  <g id="グループ_4216" data-name="グループ 4216" transform="translate(-1029.957 -3782.475)">
    <g id="マスクグループ_4173" data-name="マスクグループ 4173" transform="translate(1029.957 3782.475)" clip-path="url(#clip-path)">
      <path id="パス_3263" data-name="パス 3263" d="M50.323,54.771H1.5V16.429h66.92v14.29" transform="translate(-0.519 -5.687)" fill="none" stroke="#211613" stroke-miterlimit="10" stroke-width="2"/>
      <circle id="楕円形_509" data-name="楕円形 509" cx="0.714" cy="0.714" r="0.714" transform="translate(10.956 30.151)" fill="none" stroke="#fff" stroke-miterlimit="10" stroke-width="2"/>
      <path id="パス_3264" data-name="パス 3264" d="M10.62,13.575V8.183H65.614v5.392" transform="translate(-3.677 -2.833)" fill="none" stroke="#211613" stroke-miterlimit="10" stroke-width="2"/>
      <path id="パス_3265" data-name="パス 3265" d="M17.661,5.869V1.5H63.447V5.869" transform="translate(-6.114 -0.519)" fill="none" stroke="#211613" stroke-miterlimit="10" stroke-width="2"/>
      <rect id="長方形_3305" data-name="長方形 3305" width="36.192" height="25.579" transform="translate(49.804 42.438)" fill="#f19917" stroke="#211613" stroke-miterlimit="10" stroke-width="2"/>
      <path id="パス_3266" data-name="パス 3266" d="M96.4,38.286h0A14.082,14.082,0,0,0,82.313,52.369v3.323h28.165V52.369A14.083,14.083,0,0,0,96.4,38.286Z" transform="translate(-28.495 -13.254)" fill="none" stroke="#211613" stroke-miterlimit="10" stroke-width="2"/>
      <path id="パス_3267" data-name="パス 3267" d="M105.83,78.058a4.2,4.2,0,1,0-5.964,3.814v5.863h3.52V81.872A4.2,4.2,0,0,0,105.83,78.058Z" transform="translate(-33.726 -25.567)" fill="#fff" stroke="#211613" stroke-miterlimit="10" stroke-width="2"/>
    </g>
    <path id="パス_6570" data-name="パス 6570" d="M78.623,44.348v2.6H73.866l-.793,1.394v1.661h5.55v2.606h-5.55v4.538H70.364V52.614h-5.55V50.008h5.55V48.347l-.794-1.394H64.814v-2.6h3.27l-3.891-6.83h2.774l4.752,8.34,4.753-8.34h2.771l-3.89,6.83Z" transform="translate(992.531 3765.057)" fill="#211613"/>
  </g>
</svg>
