<svg xmlns="http://www.w3.org/2000/svg" xmlns:xlink="http://www.w3.org/1999/xlink" width="176.348" height="42.89" viewBox="0 0 176.348 42.89">
  <defs>
    <linearGradient id="linear-gradient" x1="0.896" y1="0.334" x2="0.074" y2="0.728" gradientUnits="objectBoundingBox">
      <stop offset="0" stop-color="#d7000f"/>
      <stop offset="1" stop-color="#f18d02"/>
    </linearGradient>
    <linearGradient id="linear-gradient-2" x1="0.801" y1="1.012" x2="-0.067" y2="0.256" gradientUnits="objectBoundingBox">
      <stop offset="0.01" stop-color="#d45315"/>
      <stop offset="1" stop-color="#ffd900"/>
    </linearGradient>
  </defs>
  <g id="アートボード_1" data-name="アートボード 1" transform="translate(-44.305 -37.216)">
    <g id="グループ_2108" data-name="グループ 2108" transform="translate(44.305 37.215)">
      <path id="パス_1042" data-name="パス 1042" d="M171.056,132.651a2.123,2.123,0,1,1-2.271-1.96A2.123,2.123,0,0,1,171.056,132.651Z" transform="translate(-121.5 -96.111)" fill="#231815"/>
      <path id="パス_1043" data-name="パス 1043" d="M101.216,39.185a2.123,2.123,0,1,1-2.271-1.964A2.123,2.123,0,0,1,101.216,39.185Z" transform="translate(-77.493 -37.215)" fill="#231815"/>
      <path id="パス_1044" data-name="パス 1044" d="M48.546,143.651a2.123,2.123,0,1,1-2.271-1.96,2.123,2.123,0,0,1,2.271,1.96Z" transform="translate(-44.305 -103.042)" fill="#231815"/>
      <path id="パス_1045" data-name="パス 1045" d="M72.51,52.31c.1,0-16.6,32.972-16.56,32.939S74.138,72.4,74.138,72.4Z" transform="translate(-51.643 -46.727)" fill="url(#linear-gradient)"/>
      <path id="パス_1046" data-name="パス 1046" d="M105.51,51.25l1.642,20.237,20.818,8.981Z" transform="translate(-82.871 -46.059)" fill="url(#linear-gradient-2)"/>
      <path id="パス_1047" data-name="パス 1047" d="M76.87,110.14,58.69,122.657l38.569-3.891Z" transform="translate(-53.369 -83.166)" fill="#231815"/>
    </g>
    <g id="グループ_2109" data-name="グループ 2109" transform="translate(98.571 47.774)">
      <path id="パス_1048" data-name="パス 1048" d="M260.391,78.329a6.529,6.529,0,0,0-3.159.777,4.749,4.749,0,0,0-1.927,1.935,7.12,7.12,0,0,0-.869,3.6,5.962,5.962,0,0,0,1.535,4.317,5.363,5.363,0,0,0,4.047,1.587,8.441,8.441,0,0,0,2.242-.3c.74-.2,2.3-2.127,2.3-2.127a6.751,6.751,0,0,1-1.69.858,5.268,5.268,0,0,1-1.709.292,4.043,4.043,0,0,1-3.1-1.272,5.422,5.422,0,0,1-1.247-3.7H259.9c1.554,0,2.778-.03,3.658-.1a9.225,9.225,0,0,0,1.55-.27l.041-.74a4.814,4.814,0,0,0-1.284-3.573A4.722,4.722,0,0,0,260.391,78.329Zm2.893,5c-1.014.052-5.179.059-6.432,0,0-1.42.57-4.158,3.4-4.158s2.9,2.667,3.029,3.47Z" transform="translate(-230.974 -73.68)" fill="#231815"/>
      <path id="パス_1049" data-name="パス 1049" d="M379.878,71.027l.466-5.267a9.743,9.743,0,0,1-2.53,1.746c.518.74.847,3.521.9,3.521Z" transform="translate(-308.714 -65.76)" fill="#231815"/>
      <path id="パス_1050" data-name="パス 1050" d="M320.412,89.021a.692.692,0,0,1-.248-.544,26.175,26.175,0,0,1-.133-2.885s.178-7.575-.07-7.712a28.01,28.01,0,0,1-4.465,1.572,9.7,9.7,0,0,1,2.219.584,13.244,13.244,0,0,1,.24,3.492c0,1.631-.03,3.033-.085,4.22a2.476,2.476,0,0,1-.222,1.2,1.291,1.291,0,0,1-.8.229l-1.48.1s.226.647,3.551.647,3.828-.692,3.828-.692l-.958.048A3.022,3.022,0,0,1,320.412,89.021Z" transform="translate(-269.37 -73.397)" fill="#231815"/>
      <path id="パス_1051" data-name="パス 1051" d="M199.736,79s1.413.891,1.52.965a.392.392,0,0,1,.159.344c0,.092-3.262,7.49-3.329,7.276-1.679-4.139-2.589-6.081-2.726-6.488a3.437,3.437,0,0,1-.222-.847.4.4,0,0,1,.211-.37c.185-.092,1.576-.88,1.576-.88-1.036.055-1.994.074-2.867.074-.814,0-1.827,0-3.048-.074,0,0,1.054.814,1.284,1.006a3.329,3.329,0,0,1,.954,1.243c.092.263.37.673.78,1.616a74.469,74.469,0,0,0,3.943,7.942c1.35-1.406,5.179-10.664,5.256-10.757a.94.94,0,0,1,.322-.222A8.391,8.391,0,0,0,204.5,79c-.884.055-1.713.074-2.493.074A21.727,21.727,0,0,1,199.736,79Z" transform="translate(-191.01 -74.103)" fill="#231815"/>
      <path id="パス_1052" data-name="パス 1052" d="M497.568,88.976c-.74-.988-2.356-3.307-3.47-4.949a40.231,40.231,0,0,1,3.629-4.11c.27-.237,1.383-1.324,1.383-1.324h-2.123c-1.11,1.635-2.356,3.329-3.425,4.742-1.217-2.023-3.355-4.768-3.891-5H487.1s1.195.9,1.672,1.372,2.752,3.769,3.614,5.075c-.973,1.243-1.942,2.39-2.9,3.459-.662.74-1.746,1.705-2.068,2.042,0,.044,2.127-.033,2.153,0,.644-1.036,1.176-1.849,1.591-2.434s1.014-1.354,1.787-2.3q2.463,3.717,2.733,4.069a5.219,5.219,0,0,0,1.062,1.006c0-.022,2.915-.022,2.915-.022A4.94,4.94,0,0,1,497.568,88.976Z" transform="translate(-377.578 -73.68)" fill="#231815"/>
      <path id="パス_1053" data-name="パス 1053" d="M329.79,81.35c.03,0,0,.932,0,.932.71-1.176,2.837-2.06,4.261-.847a9.617,9.617,0,0,1,.17-3.015C333.015,79.056,329.942,80.828,329.79,81.35Z" transform="translate(-278.456 -73.737)" fill="#231815"/>
      <path id="パス_1054" data-name="パス 1054" d="M431.768,78.329a6.547,6.547,0,0,0-3.159.777,4.735,4.735,0,0,0-1.923,1.935,7.12,7.12,0,0,0-.869,3.6,5.949,5.949,0,0,0,1.539,4.317A5.349,5.349,0,0,0,431.4,90.54a8.415,8.415,0,0,0,2.219-.3c.74-.2,2.3-2.127,2.3-2.127a6.686,6.686,0,0,1-1.69.858,5.267,5.267,0,0,1-1.709.292,4.028,4.028,0,0,1-3.1-1.272,5.439,5.439,0,0,1-1.247-3.7h3.081c1.561,0,2.782-.03,3.662-.1a9.163,9.163,0,0,0,1.55-.27l.037-.74a4.822,4.822,0,0,0-1.28-3.573A4.671,4.671,0,0,0,431.768,78.329Zm2.893,5c-1.017.052-5.179.059-6.436,0,.018-1.42.577-4.158,3.41-4.158s2.9,2.66,3.026,3.462Z" transform="translate(-338.961 -73.68)" fill="#231815"/>
      <path id="パス_1055" data-name="パス 1055" d="M370.29,80.08c.274.444,1.11,1.761,1.11,1.761.673-.048,1.328-.074,1.96-.074v4.712l-.041,2.393a3.459,3.459,0,0,0,.285,1.591,2.068,2.068,0,0,0,.91.854,3.237,3.237,0,0,0,1.535.326,8.069,8.069,0,0,0,.88-.07c1.084-.337,1.539-1.794,1.539-1.794a1.387,1.387,0,0,1-.788.252,4.475,4.475,0,0,1-.681.07,1.369,1.369,0,0,1-1.446-1.136,14.362,14.362,0,0,1-.122-2.434V81.656h3.277l.207-1.48s-2.826.263-4.394.263A19.249,19.249,0,0,1,370.29,80.08Z" transform="translate(-303.975 -74.783)" fill="#231815"/>
    </g>
  </g>
</svg>
