<svg xmlns="http://www.w3.org/2000/svg" xmlns:xlink="http://www.w3.org/1999/xlink" width="325" height="213" viewBox="0 0 325 213">
  <defs>
    <clipPath id="clip-path">
      <rect id="長方形_3259" data-name="長方形 3259" width="59.888" height="8.962" fill="none"/>
    </clipPath>
    <clipPath id="clip-path-2">
      <rect id="長方形_3260" data-name="長方形 3260" width="8.479" height="42.705" fill="none"/>
    </clipPath>
  </defs>
  <g id="グループ_4304" data-name="グループ 4304" transform="translate(-890 -2647)">
    <rect id="長方形_3261" data-name="長方形 3261" width="325" height="213" rx="10" transform="translate(890 2647)" fill="#f7f7f7"/>
    <g id="グループ_4114" data-name="グループ 4114" transform="translate(1071.854 2668.416)">
      <path id="長方形_3210" data-name="長方形 3210" d="M5,0H37a5,5,0,0,1,5,5V111a0,0,0,0,1,0,0H0a0,0,0,0,1,0,0V5A5,5,0,0,1,5,0Z" transform="translate(19.146 34.584)" fill="#f19917"/>
      <path id="パス_6602" data-name="パス 6602" d="M11.676-17.976H.28v3.78H6.44L1.148,0H6.216l5.46-15.316ZM24.808-14.5c0-2.1-1.12-3.472-4.116-3.472H16.968c-3,0-4.116,1.372-4.116,3.472V-3.472c0,2.1,1.12,3.472,4.116,3.472h3.724c3,0,4.116-1.372,4.116-3.472Zm-4.9,10.388c0,.42-.224.616-.7.616h-.756c-.476,0-.7-.2-.7-.616V-13.86c0-.42.224-.616.7-.616h.756c.476,0,.7.2.7.616Zm7.056-.476V4.172H28.42l3.36-6.244v-2.52ZM45.892-14.5c0-2.1-1.12-3.472-4.116-3.472H38.052c-3,0-4.116,1.372-4.116,3.472V-3.472c0,2.1,1.12,3.472,4.116,3.472h3.724c3,0,4.116-1.372,4.116-3.472Zm-4.9,10.388c0,.42-.224.616-.7.616h-.756c-.476,0-.7-.2-.7-.616V-13.86c0-.42.224-.616.7-.616h.756c.476,0,.7.2.7.616ZM59.92-14.5c0-2.1-1.12-3.472-4.116-3.472H52.08c-3,0-4.116,1.372-4.116,3.472V-3.472c0,2.1,1.12,3.472,4.116,3.472H55.8c3,0,4.116-1.372,4.116-3.472ZM55.02-4.116c0,.42-.224.616-.7.616h-.756c-.476,0-.7-.2-.7-.616V-13.86c0-.42.224-.616.7-.616h.756c.476,0,.7.2.7.616ZM73.948-14.5c0-2.1-1.12-3.472-4.116-3.472H66.108c-3,0-4.116,1.372-4.116,3.472V-3.472c0,2.1,1.12,3.472,4.116,3.472h3.724c3,0,4.116-1.372,4.116-3.472Zm-4.9,10.388c0,.42-.224.616-.7.616h-.756c-.476,0-.7-.2-.7-.616V-13.86c0-.42.224-.616.7-.616h.756c.476,0,.7.2.7.616Zm8.981-.534h8.925V-.99c0,.36-.09.4-.675.4-.54,0-1.29-.06-2.28-.165A5.772,5.772,0,0,1,84.464.87c.585.03,1.41.06,1.995.06A3.689,3.689,0,0,0,88.034.72c.435-.225.615-.645.615-1.41V-10.3a14.763,14.763,0,0,1,.06-1.635,13.751,13.751,0,0,1-1.635.06h-9.12a16.115,16.115,0,0,1-1.665-.06,12.924,12.924,0,0,1,.06,1.44V-.69a14.249,14.249,0,0,1-.09,1.8H78.1a11.025,11.025,0,0,1-.075-1.74Zm3.555-1.575H78.029V-10.29h3.555Zm1.62,0V-10.29h3.75v4.065Z" transform="translate(0.146 26.584)" fill="#f19917"/>
      <g id="グループ_4109" data-name="グループ 4109" transform="translate(10.225 111.642)">
        <g id="グループ_4108" data-name="グループ 4108" clip-path="url(#clip-path)">
          <path id="パス_3216" data-name="パス 3216" d="M59.888,8.732c-2.724,0-2.724-2.071-5.448-2.071s-2.724,2.071-5.448,2.071-2.722-2.071-5.444-2.071S40.824,8.732,38.1,8.732s-2.722-2.071-5.444-2.071-2.721,2.071-5.443,2.071-2.721-2.071-5.442-2.071-2.721,2.071-5.443,2.071-2.72-2.071-5.44-2.071S8.165,8.732,5.443,8.732,2.722,6.661,0,6.661V.5C2.722.5,2.722,2.571,5.443,2.571S8.165.5,10.887.5s2.721,2.071,5.44,2.071S19.049.5,21.771.5s2.721,2.071,5.442,2.071S29.935.5,32.656.5,35.378,2.571,38.1,2.571,40.824.5,43.547.5s2.722,2.071,5.444,2.071S51.715.5,54.439.5s2.724,2.071,5.448,2.071Z" transform="translate(0 -0.135)" fill="#fff"/>
          <path id="パス_3217" data-name="パス 3217" d="M0,.5C2.722.5,2.722,2.571,5.443,2.571S8.165.5,10.887.5s2.721,2.071,5.44,2.071S19.049.5,21.771.5s2.721,2.071,5.442,2.071S29.935.5,32.656.5,35.378,2.571,38.1,2.571,40.824.5,43.547.5s2.722,2.071,5.444,2.071S51.715.5,54.439.5s2.724,2.071,5.448,2.071" transform="translate(0 -0.135)" fill="none" stroke="#5d5d5d" stroke-width="1"/>
          <path id="パス_3218" data-name="パス 3218" d="M0,8.936c2.722,0,2.722,2.071,5.443,2.071s2.722-2.071,5.444-2.071,2.721,2.071,5.44,2.071,2.722-2.071,5.443-2.071,2.721,2.071,5.442,2.071,2.722-2.071,5.443-2.071,2.722,2.071,5.444,2.071,2.723-2.071,5.447-2.071,2.722,2.071,5.444,2.071,2.724-2.071,5.448-2.071,2.724,2.071,5.448,2.071" transform="translate(0 -2.41)" fill="none" stroke="#5d5d5d" stroke-width="1"/>
        </g>
      </g>
      <path id="パス_6601" data-name="パス 6601" d="M-20.5-8.834l-1.162,7.14-1.134-7.14h-1.666L-22.708,0h2.114l1.75-8.834Zm5.432,7.6V-3.906h2.17V-5.152h-2.17V-7.6h2.576V-8.834h-4.2V0h4.312V-1.232ZM-8.442-7.6H-7.28c.308,0,.392.084.392.378v2.212c0,.294-.084.378-.392.378H-8.442ZM-6.566,0H-4.83L-6.3-3.486A1.2,1.2,0,0,0-5.278-4.83V-7.448c0-.882-.448-1.386-1.526-1.386h-3.248V0h1.61V-3.444h.532ZM1.652-7.6V-8.834H-2.632V0h1.624V-3.738h2.17V-4.914h-2.17V-7.6ZM6.986-8.834V-1.61c0,.294-.1.378-.406.378H5.838c-.308,0-.392-.084-.392-.378V-8.834H3.836v7.448C3.836-.5,4.284,0,5.362,0H7.07C8.148,0,8.6-.5,8.6-1.386V-8.834Zm7.756,0v5.768L12.88-8.834H11.326V0H12.81V-5.852L14.7,0h1.512V-8.834Zm7.56,7.28c0,.294-.084.378-.392.378H20.65V-7.658h1.26c.308,0,.392.084.392.378ZM19.04-8.834V0H22.4c1.078,0,1.526-.5,1.526-1.386V-7.448c0-.882-.448-1.386-1.526-1.386ZM-23.952,10.712A6.148,6.148,0,0,1-24.968,9.12a5.412,5.412,0,0,1-.424-2.192,5.249,5.249,0,0,1,.416-2.12A6.234,6.234,0,0,1-23.96,3.216h-1.12a6.458,6.458,0,0,0-.88,1.576,5.661,5.661,0,0,0-.408,2.136,5.887,5.887,0,0,0,.424,2.208,6.407,6.407,0,0,0,.872,1.576Zm1.216-2.264c.112-.136.144-.176.272-.328.432-.512,1.1-1.344,1.432-1.784s.36-.464.488-.464.136,0,.648.56a40.765,40.765,0,0,0,3.384,3.376l.5-1.1a4.808,4.808,0,0,1-.76-.6A27.489,27.489,0,0,1-19.36,5.56c-.608-.688-.792-.816-1.192-.816A1.017,1.017,0,0,0-21.1,4.9a2.708,2.708,0,0,0-.6.632,9.936,9.936,0,0,1-1.72,1.936Zm4.192-3.776a5.4,5.4,0,0,1,.84,1.192l.56-.3a5.185,5.185,0,0,0-.84-1.176Zm2.352.376a4.429,4.429,0,0,0-.832-1.128l-.536.28a5.894,5.894,0,0,1,.816,1.16Zm2.336-1.3a4.021,4.021,0,0,1,.032.728c0,2.24-.184,3.272-.76,4.192a3.287,3.287,0,0,1-.824.92,2.847,2.847,0,0,1,.808.776,5.094,5.094,0,0,0,1.1-1.48,7.491,7.491,0,0,0,.648-3.288,16.719,16.719,0,0,1,.08-1.792Zm2.12-.056a3.463,3.463,0,0,1,.032.528v.24l-.04,4.512a3.585,3.585,0,0,1-.072.848l.512.544a3.481,3.481,0,0,1,.344-.144,5.284,5.284,0,0,0,1.7-.96A4.965,4.965,0,0,0-7.984,7.392a3.353,3.353,0,0,1-.752-.752A3.909,3.909,0,0,1-9.52,8.1a3.216,3.216,0,0,1-1.224.912l.04-4.552a4.335,4.335,0,0,1,.056-.76Zm10,.4a2.924,2.924,0,0,1-.856.08H-6.264a5.635,5.635,0,0,1-1.024-.056v1.04A6.351,6.351,0,0,1-6.28,5.1h3.808A5.543,5.543,0,0,1-4.9,8.592a6.509,6.509,0,0,1-1.752.816,2.944,2.944,0,0,1,.7.952A7.789,7.789,0,0,0-2.968,8.32a7.52,7.52,0,0,0,1.64-3.352,1.2,1.2,0,0,1,.136-.36ZM2.984,6.44a1.836,1.836,0,0,1,.016.3,3.776,3.776,0,0,1-.3,1.728A2.589,2.589,0,0,1,.984,9.656a2.409,2.409,0,0,1,.576.816A3.242,3.242,0,0,0,3.544,8.864,3.66,3.66,0,0,0,3.9,7.32a2.687,2.687,0,0,1,.616.624,3.924,3.924,0,0,0,.84-.592,4.265,4.265,0,0,0,.968-1.3,1.745,1.745,0,0,1,.24-.432L6.12,5.08a1.953,1.953,0,0,1-.688.064l-3.4.008A5.092,5.092,0,0,1,1.176,5.1l.008.912a5.9,5.9,0,0,1,.848-.04L5.2,5.952a1.02,1.02,0,0,0,.224-.016l.008.008a.447.447,0,0,1-.04.064.124.124,0,0,0-.024.048A2.944,2.944,0,0,1,3.9,7.28c.008-.08.008-.144.016-.288a3.518,3.518,0,0,1,.048-.552ZM8.7,4.864a8.4,8.4,0,0,1,2.04,1.624l.688-.872A11.33,11.33,0,0,0,9.36,4.072Zm.28,5.28a2.832,2.832,0,0,1,.528-.136,8.641,8.641,0,0,0,3.048-1.2,7.021,7.021,0,0,0,2.536-3.136,3.45,3.45,0,0,1-.848-.784,6.68,6.68,0,0,1-.816,1.6,5.345,5.345,0,0,1-2.376,1.96A7.623,7.623,0,0,1,8.68,9.04Zm9.824.216a8.207,8.207,0,0,1-.032-.888V7.36a4.57,4.57,0,0,0-.032-.544,2.585,2.585,0,0,0,.272.136A19.428,19.428,0,0,1,21.84,8.48l.56-.944a23.269,23.269,0,0,0-3.632-1.688V4.36a6.629,6.629,0,0,1,.032-.84H17.7a5.243,5.243,0,0,1,.048.816V9.464a5.834,5.834,0,0,1-.048.9Zm1.64-6.144a5.4,5.4,0,0,1,.84,1.192l.56-.3A5.185,5.185,0,0,0,21,3.936Zm2.352.376a4.626,4.626,0,0,0-.832-1.128l-.536.28A5.894,5.894,0,0,1,22.24,4.9Zm2.288,6.12a6.683,6.683,0,0,0,.872-1.576,6.008,6.008,0,0,0,.416-2.208,5.661,5.661,0,0,0-.408-2.136,6.385,6.385,0,0,0-.872-1.576H23.96a6.536,6.536,0,0,1,1.024,1.592,5.193,5.193,0,0,1,.408,2.12,5.385,5.385,0,0,1-.424,2.192,6.148,6.148,0,0,1-1.016,1.592Z" transform="translate(40.146 158.584)" fill="#211613"/>
      <path id="パス_6600" data-name="パス 6600" d="M-15.829-4.536h-.72a3.741,3.741,0,0,1-.752-.048V-3.7a4.786,4.786,0,0,1,.736-.048h.576a9.7,9.7,0,0,1-.624,1.2,4.859,4.859,0,0,1-.872,1.072,4.229,4.229,0,0,1,.448.84,5.417,5.417,0,0,0,.7-.88A5.967,5.967,0,0,0-15.8-2.64c-.024.272-.04.64-.04.96V-.344A6.994,6.994,0,0,1-15.893.672h.952a6.653,6.653,0,0,1-.048-1.016V-1.736c0-.408-.016-.736-.04-1.008a4.421,4.421,0,0,0,.936,1.28,3.686,3.686,0,0,1,.424-.784,4.74,4.74,0,0,1-1.28-1.5h.584a4.183,4.183,0,0,1,.688.04v-.872a3.919,3.919,0,0,1-.672.04h-.64V-5.568c.352-.1.72-.208,1.3-.408l-.52-.736a8.681,8.681,0,0,1-3.08.768,3.2,3.2,0,0,1,.3.768c.48-.072.648-.1,1.168-.2Zm2.56-1.592a6.265,6.265,0,0,1,.048.968v3.04a6.137,6.137,0,0,1-.04.936h.944a6.668,6.668,0,0,1-.04-.952V-5.16a6.083,6.083,0,0,1,.048-.968Zm1.888-.48c.032.352.048.688.048,1.088v5c0,.208-.056.24-.408.24A9.964,9.964,0,0,1-12.8-.352a3.557,3.557,0,0,1,.272.888c.272.016.392.016.592.016A2.444,2.444,0,0,0-10.821.416c.256-.136.36-.368.36-.792V-5.52a8.366,8.366,0,0,1,.056-1.088Zm4.752,1.96a6.513,6.513,0,0,1-.776-.032,5.439,5.439,0,0,1,.032.64v1.912a5.439,5.439,0,0,1-.032.64,6.428,6.428,0,0,1,.776-.032h1.7a7.049,7.049,0,0,1,.776.032,5.181,5.181,0,0,1-.032-.64V-4.04a5.1,5.1,0,0,1,.032-.64,6.6,6.6,0,0,1-.776.032Zm.1.752h1.5v1.624h-1.5ZM-2.341.664A8.1,8.1,0,0,1-2.389-.368V-5.44a8.243,8.243,0,0,1,.048-.96,8.366,8.366,0,0,1-.952.04h-4.96a8.071,8.071,0,0,1-.936-.04,8.54,8.54,0,0,1,.048.96V-.376A8.786,8.786,0,0,1-9.189.664h.928V.224h4.984v.44ZM-8.261-5.56h4.984V-.568H-8.261Zm8.3-1.032a1.88,1.88,0,0,1-.024.272l-.12.992c-.064.552-.112,1.44-.112,2.088,0,.16.016.752.024.984V-2.1A.622.622,0,0,1-.2-2l.96-.016v-.168A3.836,3.836,0,0,1,1.771-4.768a1.191,1.191,0,0,1,.864-.424c.688,0,1.072.64,1.072,1.792A2.439,2.439,0,0,1,2.355-.952,4.67,4.67,0,0,1,.6-.5a3.06,3.06,0,0,1,.472.944A6.823,6.823,0,0,0,2.643,0,3.362,3.362,0,0,0,4.707-3.288a3.35,3.35,0,0,0-.576-2.128,1.675,1.675,0,0,0-1.368-.72,1.91,1.91,0,0,0-1.52.816,3.234,3.234,0,0,0-.5.952,1.756,1.756,0,0,1-.048.176H.667c.016-.192.048-.464.1-.8a7.847,7.847,0,0,1,.288-1.544Zm9.7,2.748A7.814,7.814,0,0,0,9-2.539a7.754,7.754,0,0,0-.43,1.289A5.353,5.353,0,0,0,8.375,0H7.219a6.807,6.807,0,0,1,1-3.168A7.482,7.482,0,0,1,9.246-4.59H6.422l.016-1h4v.871A7.077,7.077,0,0,0,9.742-3.844Zm4.906,2.5a1.4,1.4,0,0,1,.426-1.031A1.407,1.407,0,0,1,16.1-2.793a1.4,1.4,0,0,1,1.027.426,1.4,1.4,0,0,1,.426,1.027,1.4,1.4,0,0,1-.426,1.027A1.4,1.4,0,0,1,16.1.113a1.4,1.4,0,0,1-1.027-.426A1.4,1.4,0,0,1,14.648-1.34ZM11.277-3.156a1.4,1.4,0,0,1-.426-1.027,1.4,1.4,0,0,1,.426-1.027A1.4,1.4,0,0,1,12.3-5.637a1.4,1.4,0,0,1,1.027.426,1.4,1.4,0,0,1,.426,1.027,1.4,1.4,0,0,1-.424,1.027A1.4,1.4,0,0,1,12.3-2.73,1.4,1.4,0,0,1,11.277-3.156Zm1.641,3.3h-.605L15.48-5.664h.594ZM15.664-.9a.589.589,0,0,0,.438.184A.6.6,0,0,0,16.541-.9a.6.6,0,0,0,.182-.439.6.6,0,0,0-.182-.439.6.6,0,0,0-.439-.182.6.6,0,0,0-.439.182.6.6,0,0,0-.182.439A.589.589,0,0,0,15.664-.9Zm-3.8-2.844a.589.589,0,0,0,.438.184.6.6,0,0,0,.439-.182.6.6,0,0,0,.182-.439.6.6,0,0,0-.182-.439A.6.6,0,0,0,12.3-4.8a.6.6,0,0,0-.439.182.6.6,0,0,0-.182.439A.589.589,0,0,0,11.867-3.746Z" transform="translate(40.146 179.584)" fill="#211613"/>
    </g>
    <g id="グループ_4113" data-name="グループ 4113" transform="translate(955.73 2668.416)">
      <path id="長方形_3211" data-name="長方形 3211" d="M5,0H38a5,5,0,0,1,5,5V29a0,0,0,0,1,0,0H0a0,0,0,0,1,0,0V5A5,5,0,0,1,5,0Z" transform="translate(17.27 116.585)" fill="#847c79"/>
      <g id="グループ_4107" data-name="グループ 4107">
        <rect id="長方形_3209" data-name="長方形 3209" width="77" height="35" rx="5" transform="translate(0.27 -0.416)" fill="#f19917"/>
        <path id="パス_6596" data-name="パス 6596" d="M.59-3.14a5.958,5.958,0,0,1,.65-.06c.2-.02.51-.04.94-.07V-.21A7.354,7.354,0,0,1,2.12.86h1.1A7.354,7.354,0,0,1,3.16-.21V-3.36c.18-.01.41-.04.71-.07.04.16.06.24.11.47l.84-.35a15.021,15.021,0,0,0-.79-1.95l-.75.3a5.467,5.467,0,0,1,.29.68c-.51.06-.55.06-1.14.09A26.12,26.12,0,0,0,4.12-6.44a4.144,4.144,0,0,1,.33-.46l-.92-.53A11.407,11.407,0,0,1,2.45-5.68c-.14-.18-.25-.3-.42-.5a13.45,13.45,0,0,0,.93-1.53c.11-.2.15-.27.21-.36l-.95-.39a7.315,7.315,0,0,1-.83,1.62c-.1-.12-.16-.18-.3-.35l-.57.83A9.28,9.28,0,0,1,1.89-4.88c-.2.26-.24.31-.58.73-.23.01-.33.01-.4.01a2.629,2.629,0,0,1-.43-.03ZM8.33-5.9a27.714,27.714,0,0,1-.32,4.82c-.12.62-.23.74-.68.74A7.774,7.774,0,0,1,6.02-.47,4.091,4.091,0,0,1,6.3.65c.36.03.67.04.93.04A2.139,2.139,0,0,0,8.51.43c.33-.26.51-.81.67-1.96.11-.82.22-2.56.23-3.7a12.744,12.744,0,0,1,.05-1.74,5.48,5.48,0,0,1-.82.04H6.46c.12-.31.16-.43.29-.84a3.429,3.429,0,0,1,.13-.41l-1.12-.2A6.441,6.441,0,0,1,5.4-7.12,6.474,6.474,0,0,1,4.22-5.13a2.916,2.916,0,0,1,.8.81,6.972,6.972,0,0,0,1-1.58ZM.9-2.8A9.393,9.393,0,0,1,.43-.11L1.32.3a11.115,11.115,0,0,0,.49-2.96Zm2.64.14A23.451,23.451,0,0,1,3.92-.09l.91-.22a24.707,24.707,0,0,0-.48-2.55Zm3.9.43A11.456,11.456,0,0,0,6.21-4.74l-.87.48A11,11,0,0,1,6.48-1.72ZM13.8-9.4c0-.285.152-.418.475-.418h.38c.323,0,.475.133.475.418V-7.7c0,.285-.152.418-.475.418H13.116v2.185h1.539c.323,0,.475.133.475.418v1.881c0,.285-.152.418-.475.418h-.38c-.323,0-.475-.133-.475-.418v-1.2H10.475v1.634c0,1.425.76,2.356,2.793,2.356H15.6C17.638,0,18.4-.931,18.4-2.356v-1.9c0-.969-.171-1.634-.912-1.957.741-.4.912-1.159.912-2.147V-9.842c0-1.425-.76-2.356-2.793-2.356H13.268c-2.033,0-2.793.931-2.793,2.356v1.634H13.8Zm6.023,6.289V2.831h.988l2.28-4.237v-1.71Zm8.208-4.921V-9.823h4.522V-12.2h-7.79v6.536H29c.323,0,.475.133.475.418v2.451c0,.285-.152.418-.475.418h-.589c-.323,0-.475-.133-.475-.418V-4.275H24.611v1.919C24.611-.931,25.371,0,27.4,0H29.95c2.033,0,2.793-.931,2.793-2.356V-5.681c0-1.425-.76-2.356-2.793-2.356Zm14.1-1.805c0-1.425-.76-2.356-2.793-2.356H36.809c-2.033,0-2.793.931-2.793,2.356v7.486c0,1.425.76,2.356,2.793,2.356h2.527c2.033,0,2.793-.931,2.793-2.356ZM38.8-2.793c0,.285-.152.418-.475.418h-.513c-.323,0-.475-.133-.475-.418V-9.4c0-.285.152-.418.475-.418h.513c.323,0,.475.133.475.418ZM51.648-9.842c0-1.425-.76-2.356-2.793-2.356H46.328c-2.033,0-2.793.931-2.793,2.356v7.486C43.535-.931,44.3,0,46.328,0h2.527c2.033,0,2.793-.931,2.793-2.356ZM48.323-2.793c0,.285-.152.418-.475.418h-.513c-.323,0-.475-.133-.475-.418V-9.4c0-.285.152-.418.475-.418h.513c.323,0,.475.133.475.418ZM59.061-7.38v-.31a4.122,4.122,0,0,1,.05-.7h-1.22a5.044,5.044,0,0,1,.05.71v.3h-1.31a7.266,7.266,0,0,1-1.08-.05v1.09a5.72,5.72,0,0,1,1-.05h.57l-.8.28a8.519,8.519,0,0,1,.56,1.4h-.87a5.379,5.379,0,0,1-.83-.04v1.08a5.011,5.011,0,0,1,.86-.05h4.9a6.3,6.3,0,0,1,1.02.05V-4.76a9.08,9.08,0,0,1-1.02.05h-.9a10.21,10.21,0,0,0,.73-1.45l-.85-.23h.75a6,6,0,0,1,1.01.05V-7.43a7.923,7.923,0,0,1-1.1.05Zm-1.91,2.67.76-.28a9.078,9.078,0,0,0-.55-1.4h2.3a7.4,7.4,0,0,1-.73,1.68ZM53.711-.37a9.433,9.433,0,0,1-.06,1.19h1.18a10.012,10.012,0,0,1-.05-1.16V-5.87a13.852,13.852,0,0,0,.74-1.84c.07-.24.1-.33.16-.49l-1.1-.32a6.666,6.666,0,0,1-.35,1.27,7.839,7.839,0,0,1-1.69,2.8A4.346,4.346,0,0,1,53-3.26a4.976,4.976,0,0,0,.73-.99c-.02.41-.02.63-.02,1.11Zm3.26.6h2.99V.75h1.16a6.026,6.026,0,0,1-.05-.93v-2a6.392,6.392,0,0,1,.04-.86,4.4,4.4,0,0,1-.74.04h-3.71a6.271,6.271,0,0,1-.8-.04,7.1,7.1,0,0,1,.04.83V-.23a8.306,8.306,0,0,1-.05.98h1.12Zm0-2.26h3V-.75h-3Z" transform="translate(7.27 23.584)" fill="#fff"/>
      </g>
      <path id="パス_6598" data-name="パス 6598" d="M-16.973-.913a3.187,3.187,0,0,1-1.672-1.529c.165-.517.231-.77.286-.99.1-.451.1-.462.154-.649l-1.221-.231a6.818,6.818,0,0,1-.22,1.188A6.513,6.513,0,0,1-21.538-.011a2.994,2.994,0,0,1,.946.9,7.792,7.792,0,0,0,1.507-2.156c.9,1.331,2.343,1.892,4.917,1.892.869,0,1.441-.011,2.343-.033A4.278,4.278,0,0,1-11.517-.66c-1.122.1-1.87.132-2.508.132a12.859,12.859,0,0,1-1.793-.11V-2.53h2.079a7.426,7.426,0,0,1,1.078.055V-3.652a5.642,5.642,0,0,1-1.078.066h-2.079V-4.994h1.441a7.886,7.886,0,0,1,1.133.055V-6.105a7.7,7.7,0,0,1-1.133.055H-18.59A7.372,7.372,0,0,1-19.7-6.105v1.166a7.831,7.831,0,0,1,1.111-.055h1.617Zm-.187-7.205h-2.871c-.44,0-.814-.011-1.21-.044.022.253.044.528.044.814V-6.5a4.861,4.861,0,0,1-.055.869h1.221V-7.007h7.106v1.375h1.188a7.1,7.1,0,0,1-.044-.858v-.858a6.052,6.052,0,0,1,.044-.814c-.407.033-.781.044-1.221.044h-2.97v-.418a3.34,3.34,0,0,1,.055-.693h-1.353a3.56,3.56,0,0,1,.066.7ZM-2-2.552V-.5c0,.2-.077.242-.418.242a5.08,5.08,0,0,1-.968-.11A4.723,4.723,0,0,1-3.1.847c.539.033.561.033.693.033A2.929,2.929,0,0,0-1.32.726c.308-.132.462-.473.462-1.012V-7.579a10.426,10.426,0,0,1,.044-1.21A10.6,10.6,0,0,1-2-8.745H-3.6a11.954,11.954,0,0,1-1.221-.044,11.268,11.268,0,0,1,.055,1.43,39.462,39.462,0,0,1-.22,5.4A3.728,3.728,0,0,1-5.929.088a7.131,7.131,0,0,1,.935.891,5.8,5.8,0,0,0,1.21-3.531Zm0-2.6V-3.6H-3.707c.033-.5.044-.9.055-1.551ZM-2-6.2H-3.641V-7.656H-2Zm-7.623-1.8a3.566,3.566,0,0,1-.836-.055v1.111A4.724,4.724,0,0,1-9.625-7V-2.75h-.143a4.92,4.92,0,0,1-.814-.044v1.111a5.041,5.041,0,0,1,.847-.044h3.608a8.956,8.956,0,0,1,.924.033v-1.1a4.284,4.284,0,0,1-.66.044V-7a3.971,3.971,0,0,1,.748.044V-8.063a4.953,4.953,0,0,1-.748.055v-.187a5.45,5.45,0,0,1,.055-.935h-1.2a5.221,5.221,0,0,1,.055.935v.187H-8.536v-.187a5.608,5.608,0,0,1,.055-.935h-1.2a5.608,5.608,0,0,1,.055.935ZM-8.536-2.75v-.836h1.584v.836Zm0-1.8V-5.3h1.584v.748Zm0-1.716V-7h1.584v.726Zm-.44,4.642A5.05,5.05,0,0,1-10.582.077a4.115,4.115,0,0,1,.847.869,6.993,6.993,0,0,0,1.694-2Zm1.419.594A6.23,6.23,0,0,0-6.49.385a4.14,4.14,0,0,1,.825-.814A4.158,4.158,0,0,1-6.688-1.606Zm12.7-1.122c0,.374-.011.737-.033,1.012.242-.022.484-.033.869-.033h.3A5.73,5.73,0,0,1,3.96.044a5.351,5.351,0,0,1,.737.968A7.757,7.757,0,0,0,7.216-.561l-.792-.616H8.481L7.7-.572A7.62,7.62,0,0,0,10.1.968a9.622,9.622,0,0,1,.7-1.023A5.747,5.747,0,0,1,8.6-1.177H9.2a9.43,9.43,0,0,1,.957.044,10.988,10.988,0,0,1-.044-1.111V-6.028A8.194,8.194,0,0,1,10.153-7c-.3.022-.506.033-1.089.033H7.942c.11-.242.22-.506.33-.825H9.306a9.421,9.421,0,0,1,1.265.055v-1.2a7.3,7.3,0,0,1-1.265.066H6.138A7.812,7.812,0,0,1,4.95-8.921v1.188a8.365,8.365,0,0,1,1.188-.055h.968a5.162,5.162,0,0,1-.33.825H6.039A8.666,8.666,0,0,1,5.115-7c.022.22.033.627.033,1.034v1.089l-.583-.561a4.636,4.636,0,0,1-.781.044H3.058l.506-.319c-.2-.209-.2-.209-.363-.374A7.5,7.5,0,0,0,4.686-7.964a2.161,2.161,0,0,1,.187-.253l-.6-.671a5.72,5.72,0,0,1-.924.044H1.771A8.619,8.619,0,0,1,.616-8.91v1.166A9.178,9.178,0,0,1,1.65-7.788h1.7a3.464,3.464,0,0,1-.836,1c-.253-.242-.374-.341-.726-.638l-.814.583A11.416,11.416,0,0,1,2.508-5.39H1.485A6.612,6.612,0,0,1,.451-5.445v1.177a7.59,7.59,0,0,1,1.067-.066h.5v3.8c0,.22-.033.253-.3.253A5.918,5.918,0,0,1,.572-.4,4.984,4.984,0,0,1,.792.748c.506.033.715.044.968.044,1.122,0,1.375-.2,1.375-1.045V-4.334h.8A3.411,3.411,0,0,1,3.19-2.97,4.2,4.2,0,0,1,4-2.3,6.454,6.454,0,0,0,5.027-4.4c.011-.066.033-.11.033-.132a1.08,1.08,0,0,0,.088-.22Zm1.089-3.85H9v.638H6.237Zm0,1.551H9v.638H6.237Zm0,1.551H9v.715H6.237Zm9.581-2.288v1.067h-2.6a8.119,8.119,0,0,1-1.2-.066V-2.97a9.037,9.037,0,0,1,1.188-.066h2.607V-.572H13.057a11.886,11.886,0,0,1-1.364-.066V.627A10.845,10.845,0,0,1,13.057.55h6.952a10.146,10.146,0,0,1,1.32.077V-.638a10.3,10.3,0,0,1-1.3.066H17.039V-3.036h2.772a8.715,8.715,0,0,1,1.21.066V-4.191a7.817,7.817,0,0,1-1.2.066H17.039V-5.192h1.122a7.519,7.519,0,0,1,1.078.055V-5.7a11.215,11.215,0,0,0,1.925.968,5.615,5.615,0,0,1,.594-1.21,9.111,9.111,0,0,1-2.915-1.485,6.506,6.506,0,0,1-1.694-1.694H15.785A8.487,8.487,0,0,1,11.3-5.9a4.887,4.887,0,0,1,.638,1.133,11.871,11.871,0,0,0,1.793-.9v.528a7.708,7.708,0,0,1,1.078-.055ZM14.542-6.226a7.76,7.76,0,0,0,1.925-1.848,8.678,8.678,0,0,0,1.98,1.848c-.165.011-.165.011-.264.011l-3.41-.011ZM12.936-2.5a8.011,8.011,0,0,1,.869,1.826l1.1-.44a12.748,12.748,0,0,0-.88-1.826Zm5.929-.429A9.191,9.191,0,0,1,18-1.034l1.034.385c.374-.638.418-.715.451-.781.407-.8.407-.8.55-1.056Z" transform="translate(37.27 162.584)" fill="#211613"/>
      <path id="パス_6599" data-name="パス 6599" d="M-23.614-4.536h-.72a3.741,3.741,0,0,1-.752-.048V-3.7a4.786,4.786,0,0,1,.736-.048h.576a9.7,9.7,0,0,1-.624,1.2,4.859,4.859,0,0,1-.872,1.072,4.229,4.229,0,0,1,.448.84,5.417,5.417,0,0,0,.7-.88,5.967,5.967,0,0,0,.544-1.128c-.024.272-.04.64-.04.96V-.344A6.994,6.994,0,0,1-23.678.672h.952a6.652,6.652,0,0,1-.048-1.016V-1.736c0-.408-.016-.736-.04-1.008a4.421,4.421,0,0,0,.936,1.28,3.686,3.686,0,0,1,.424-.784,4.74,4.74,0,0,1-1.28-1.5h.584a4.183,4.183,0,0,1,.688.04v-.872a3.919,3.919,0,0,1-.672.04h-.64V-5.568c.352-.1.72-.208,1.3-.408L-22-6.712a8.681,8.681,0,0,1-3.08.768,3.2,3.2,0,0,1,.3.768c.48-.072.648-.1,1.168-.2Zm2.56-1.592a6.265,6.265,0,0,1,.048.968v3.04a6.137,6.137,0,0,1-.04.936h.944a6.667,6.667,0,0,1-.04-.952V-5.16a6.083,6.083,0,0,1,.048-.968Zm1.888-.48c.032.352.048.688.048,1.088v5c0,.208-.056.24-.408.24a9.964,9.964,0,0,1-1.056-.072,3.557,3.557,0,0,1,.272.888c.272.016.392.016.592.016A2.444,2.444,0,0,0-18.606.416c.256-.136.36-.368.36-.792V-5.52a8.366,8.366,0,0,1,.056-1.088Zm4.752,1.96a6.513,6.513,0,0,1-.776-.032,5.439,5.439,0,0,1,.032.64v1.912a5.439,5.439,0,0,1-.032.64,6.428,6.428,0,0,1,.776-.032h1.7a7.049,7.049,0,0,1,.776.032,5.181,5.181,0,0,1-.032-.64V-4.04a5.1,5.1,0,0,1,.032-.64,6.6,6.6,0,0,1-.776.032Zm.1.752h1.5v1.624h-1.5Zm4.192,4.56a8.1,8.1,0,0,1-.048-1.032V-5.44a8.243,8.243,0,0,1,.048-.96,8.366,8.366,0,0,1-.952.04h-4.96a8.072,8.072,0,0,1-.936-.04,8.54,8.54,0,0,1,.048.96V-.376a8.786,8.786,0,0,1-.048,1.04h.928V.224h4.984v.44Zm-5.92-6.224h4.984V-.568h-4.984Zm8.3-1.032a1.88,1.88,0,0,1-.024.272l-.12.992C-7.95-4.776-8-3.888-8-3.24c0,.16.016.752.024.984V-2.1a.622.622,0,0,1-.008.1l.96-.016v-.168A3.836,3.836,0,0,1-6.014-4.768a1.191,1.191,0,0,1,.864-.424c.688,0,1.072.64,1.072,1.792A2.439,2.439,0,0,1-5.43-.952,4.67,4.67,0,0,1-7.182-.5,3.06,3.06,0,0,1-6.71.448,6.823,6.823,0,0,0-5.142,0,3.362,3.362,0,0,0-3.078-3.288a3.35,3.35,0,0,0-.576-2.128,1.675,1.675,0,0,0-1.368-.72,1.91,1.91,0,0,0-1.52.816,3.234,3.234,0,0,0-.5.952,1.756,1.756,0,0,1-.048.176h-.024c.016-.192.048-.464.1-.8a7.847,7.847,0,0,1,.288-1.544ZM.637.141A1.6,1.6,0,0,1-.881-.617a4.384,4.384,0,0,1-.436-2.16A4.408,4.408,0,0,1-.881-4.941,1.6,1.6,0,0,1,.637-5.7a1.6,1.6,0,0,1,1.52.762A4.424,4.424,0,0,1,2.59-2.777a4.384,4.384,0,0,1-.436,2.16A1.6,1.6,0,0,1,.637.141Zm.652-1.426a5.573,5.573,0,0,0,.152-1.492,5.467,5.467,0,0,0-.154-1.516.63.63,0,0,0-.65-.492.639.639,0,0,0-.656.492A5.276,5.276,0,0,0-.18-2.777,5.335,5.335,0,0,0-.02-1.283a.645.645,0,0,0,.656.518A.639.639,0,0,0,1.289-1.285Zm2.094.121H4.566V0H3.383ZM7.309.141A1.6,1.6,0,0,1,5.791-.617a4.384,4.384,0,0,1-.436-2.16,4.408,4.408,0,0,1,.436-2.164A1.6,1.6,0,0,1,7.309-5.7a1.6,1.6,0,0,1,1.52.762,4.424,4.424,0,0,1,.434,2.164,4.384,4.384,0,0,1-.436,2.16A1.6,1.6,0,0,1,7.309.141Zm.652-1.426a5.573,5.573,0,0,0,.152-1.492,5.467,5.467,0,0,0-.154-1.516.63.63,0,0,0-.65-.492.639.639,0,0,0-.656.492,5.276,5.276,0,0,0-.16,1.516,5.335,5.335,0,0,0,.16,1.494.645.645,0,0,0,.656.518A.639.639,0,0,0,7.961-1.285Zm3.8,1.426A1.6,1.6,0,0,1,10.24-.617,4.384,4.384,0,0,1,9.8-2.777a4.408,4.408,0,0,1,.436-2.164A1.6,1.6,0,0,1,11.758-5.7a1.6,1.6,0,0,1,1.52.762,4.424,4.424,0,0,1,.434,2.164,4.384,4.384,0,0,1-.436,2.16A1.6,1.6,0,0,1,11.758.141Zm.652-1.426a5.573,5.573,0,0,0,.152-1.492,5.467,5.467,0,0,0-.154-1.516.63.63,0,0,0-.65-.492.639.639,0,0,0-.656.492,5.276,5.276,0,0,0-.16,1.516,5.335,5.335,0,0,0,.16,1.494.645.645,0,0,0,.656.518A.639.639,0,0,0,12.41-1.285Zm4.375-3.227a.7.7,0,0,0-.57-.238.7.7,0,0,0-.691.379,1.879,1.879,0,0,0-.125.7H14.316a2.736,2.736,0,0,1,.262-1.168,1.63,1.63,0,0,1,1.582-.848,2.006,2.006,0,0,1,1.43.5,1.722,1.722,0,0,1,.531,1.318,1.785,1.785,0,0,1-.375,1.117,3.736,3.736,0,0,1-.809.723l-.445.316q-.418.3-.572.43a1.259,1.259,0,0,0-.26.309h2.473V0H14.254a2.662,2.662,0,0,1,.262-1.113,3.147,3.147,0,0,1,1.125-1.2,8.25,8.25,0,0,0,1-.789,1.166,1.166,0,0,0,.348-.812A.9.9,0,0,0,16.785-4.512ZM22.434-1.34a1.4,1.4,0,0,1,.426-1.031,1.407,1.407,0,0,1,1.027-.422,1.4,1.4,0,0,1,1.027.426A1.4,1.4,0,0,1,25.34-1.34a1.4,1.4,0,0,1-.426,1.027,1.4,1.4,0,0,1-1.027.426,1.4,1.4,0,0,1-1.027-.426A1.4,1.4,0,0,1,22.434-1.34ZM19.063-3.156a1.4,1.4,0,0,1-.426-1.027,1.4,1.4,0,0,1,.426-1.027,1.4,1.4,0,0,1,1.027-.426,1.4,1.4,0,0,1,1.027.426,1.4,1.4,0,0,1,.426,1.027,1.4,1.4,0,0,1-.424,1.027,1.4,1.4,0,0,1-1.029.426A1.4,1.4,0,0,1,19.063-3.156ZM20.7.148H20.1l3.168-5.812h.594ZM23.449-.9a.589.589,0,0,0,.438.184A.6.6,0,0,0,24.326-.9a.6.6,0,0,0,.182-.439.6.6,0,0,0-.182-.439.6.6,0,0,0-.439-.182.6.6,0,0,0-.439.182.6.6,0,0,0-.182.439A.589.589,0,0,0,23.449-.9Zm-3.8-2.844a.589.589,0,0,0,.438.184.6.6,0,0,0,.439-.182.6.6,0,0,0,.182-.439.6.6,0,0,0-.182-.439A.6.6,0,0,0,20.09-4.8a.6.6,0,0,0-.439.182.6.6,0,0,0-.182.439A.589.589,0,0,0,19.652-3.746Z" transform="translate(36.27 178.584)" fill="#211613"/>
      <path id="パス_6597" data-name="パス 6597" d="M-9.88-10.48c0-.48.12-.58.6-.58h.64c.5,0,.6.1.6.58v.92a4.571,4.571,0,0,1-.56,2.4L-11.66-1.4V0h5.52V-1.46H-9.62l2.7-5.3a5.331,5.331,0,0,0,.7-2.74v-1.26c0-1.14-.6-1.76-1.88-1.76H-9.82c-1.28,0-1.86.62-1.86,1.76v2.32h1.8Zm11.12-.28c0-1.14-.58-1.76-1.86-1.76H-2.8c-1.3,0-1.88.62-1.88,1.76v9C-4.68-.62-4.1,0-2.8,0H-.62C.66,0,1.24-.62,1.24-1.76ZM-.58-2.04c0,.48-.12.58-.6.58H-2.26c-.48,0-.58-.1-.58-.58v-8.44c0-.48.1-.58.58-.58h1.08c.48,0,.6.1.6.58ZM4.21-3.1h5.95V-.66c0,.24-.06.27-.45.27-.36,0-.86-.04-1.52-.11A3.848,3.848,0,0,1,8.5.58c.39.02.94.04,1.33.04A2.46,2.46,0,0,0,10.88.48c.29-.15.41-.43.41-.94V-6.87a9.841,9.841,0,0,1,.04-1.09,9.167,9.167,0,0,1-1.09.04H4.16a10.743,10.743,0,0,1-1.11-.04A8.616,8.616,0,0,1,3.09-7V-.46A9.5,9.5,0,0,1,3.03.74H4.26A7.351,7.351,0,0,1,4.21-.42ZM6.58-4.15H4.21V-6.86H6.58Zm1.08,0V-6.86h2.5v2.71Z" transform="translate(38.27 106.584)" fill="#211613"/>
      <g id="グループ_4112" data-name="グループ 4112" transform="translate(33.738 42.379)">
        <g id="グループ_4111" data-name="グループ 4111">
          <g id="グループ_4110" data-name="グループ 4110" clip-path="url(#clip-path-2)">
            <path id="パス_3220" data-name="パス 3220" d="M0,0V37.978" transform="translate(4.24 4.727)" fill="none" stroke="#211613" stroke-width="2.835"/>
          </g>
        </g>
        <path id="パス_3219" data-name="パス 3219" d="M4.24,0,0,6.31H8.479Z" transform="translate(0 0)" fill="#211613"/>
      </g>
    </g>
    <line id="線_1078" data-name="線 1078" x2="230.421" transform="translate(937.472 2814.013)" fill="none" stroke="#847c79" stroke-width="2"/>
  </g>
</svg>
