<svg xmlns="http://www.w3.org/2000/svg" width="325" height="48" viewBox="0 0 325 48">
  <g id="グループ_4218" data-name="グループ 4218" transform="translate(-355 -7375)">
    <rect id="長方形_1" data-name="長方形 1" width="325" height="48" rx="24" transform="translate(355 7375)" fill="#f19917"/>
    <g id="グループ_4078" data-name="グループ 4078" transform="translate(389.5 7391.952)">
      <path id="パス_6589" data-name="パス 6589" d="M-93.654-7.848a14.4,14.4,0,0,1,1.548-.072h6.012a13.673,13.673,0,0,1,1.62.072v-1.4A19.193,19.193,0,0,0-81.4-7.614a8.016,8.016,0,0,1,.99-2.016,19.026,19.026,0,0,1-4.626-2.43,10.931,10.931,0,0,1-3.042-2.988h-2.142a11.853,11.853,0,0,1-2.844,3.024,16.8,16.8,0,0,1-4.518,2.5,8.36,8.36,0,0,1,1.044,1.836,16.937,16.937,0,0,0,2.88-1.548Zm1.566-1.944c-.324,0-.432,0-.738-.018A15.367,15.367,0,0,0-89.082-13.3,14.663,14.663,0,0,0-85.32-9.81c-.342.018-.5.018-.792.018Zm.18,5.2a18.638,18.638,0,0,1-1.926,3.6c-.918.054-1.458.072-1.584.072-.252,0-.558-.018-1.044-.054l.288,2.2A21.4,21.4,0,0,1-93.852.972c.72-.054,4.284-.378,6.066-.54.666-.072,1.746-.2,3.24-.4.306.432.486.684,1.08,1.566L-81.738.468A36.837,36.837,0,0,0-85.9-4.338l-1.782.792c1.008,1.044,1.314,1.368,1.89,2-2.52.27-2.52.27-5.706.45A19.567,19.567,0,0,0-89.622-4.59h6.192a16.747,16.747,0,0,1,2.106.108V-6.57a16.948,16.948,0,0,1-2.106.108H-94.644a17.679,17.679,0,0,1-2.124-.108v2.088a16.863,16.863,0,0,1,2.124-.108Zm19.17,2.97A13.553,13.553,0,0,1-77.85-.126a5.806,5.806,0,0,1,1.1,1.782A21.377,21.377,0,0,0-74,.936a15.663,15.663,0,0,0,3.276-1.6l-1.134-.954h4.9l-.972.882A13.542,13.542,0,0,0-61.92,1.674,6.034,6.034,0,0,1-60.8-.09a14.277,14.277,0,0,1-5.184-1.53h1.44c.9,0,1.458.018,2.016.072a3.158,3.158,0,0,1-.054-.72c0-.072-.018-.468-.018-1.17V-7.992a16.182,16.182,0,0,1,.072-1.926c-.63.054-1.134.072-2.016.072h-9.576c-.846,0-1.458-.018-2-.072a17.811,17.811,0,0,1,.072,1.926v4.554c0,.9-.036,1.44-.072,1.89.576-.054,1.1-.072,2-.072Zm-1.386-6.732h9.576v.828h-9.576Zm0,2.178h9.576v.828h-9.576Zm0,2.178h9.576v.882h-9.576ZM-63.27-13.32a10.945,10.945,0,0,1,.072-1.386,15.644,15.644,0,0,1-2.034.09H-73.4a15.949,15.949,0,0,1-2.052-.09,8.963,8.963,0,0,1,.09,1.386v1.386c0,.486-.036.9-.072,1.35.54-.036,1.17-.054,1.98-.054h8.3c.792,0,1.4.018,1.944.054-.036-.414-.054-.81-.054-1.35Zm-2,.234v.99h-8.118v-.99Zm21.978.234a10.042,10.042,0,0,1-1.782,2.124,12.228,12.228,0,0,1-1.116-.9,19.625,19.625,0,0,0,1.854-2.07l-1.494-.99a9.886,9.886,0,0,1-1.512,1.944,4.494,4.494,0,0,1-1.206-2.034,10.057,10.057,0,0,1-1.548.072h-3.384a8.1,8.1,0,0,1-1.494-.09v1.818a8.013,8.013,0,0,1,1.1-.072H-51.5a9.4,9.4,0,0,1-1.71,1.818,22.262,22.262,0,0,0-2.52-2.2L-57.06-12.24a15.076,15.076,0,0,1,2.412,2.106,15.281,15.281,0,0,1-3.384,1.782,5.624,5.624,0,0,1,.972,1.71,19.561,19.561,0,0,0,4.482-2.79v1.17a6.783,6.783,0,0,1,1.134-.072h3.978a6.905,6.905,0,0,1,1.206.072V-9.324A17.382,17.382,0,0,0-41.9-6.714a5.873,5.873,0,0,1,.936-1.8A18.8,18.8,0,0,1-43.7-9.792a19.5,19.5,0,0,0,1.584-1.674,2.471,2.471,0,0,1,.324-.378Zm-8.046,2.916h-.63a14.421,14.421,0,0,0,2.484-2.826A15.564,15.564,0,0,0-47-9.936h-4.338ZM-55.818-.72a11.3,11.3,0,0,1-1.746-.09V1.134a13.337,13.337,0,0,1,1.872-.09h12.456a13.182,13.182,0,0,1,1.872.09V-.81a11.562,11.562,0,0,1-1.764.09h-3.078c.126-.18.54-.954.828-1.494l-1.494-.54h1.746a11.828,11.828,0,0,1,1.3.054A8.817,8.817,0,0,1-43.9-4.014V-6.3a7.888,7.888,0,0,1,.072-1.206,10.184,10.184,0,0,1-1.4.072h-8.5a11.17,11.17,0,0,1-1.422-.072,8.782,8.782,0,0,1,.072,1.224v2.268A10.335,10.335,0,0,1-55.152-2.7a11.6,11.6,0,0,1,1.3-.054h1.926l-1.584.576A6.931,6.931,0,0,1-52.776-.72Zm4.986,0a14.572,14.572,0,0,0-.9-2.034h4.5A10.742,10.742,0,0,1-48.15-.72Zm-2.394-5.112h7.416v1.458h-7.416Zm21.384,3.474a16.358,16.358,0,0,0,.864-2.88l-1.368-.45a13.706,13.706,0,0,1-.72,2.934Zm1.026-4.176a12.125,12.125,0,0,1,1.584,2.862l1.386-.918a11.721,11.721,0,0,0-1.566-2.682ZM-35.01-9.108V-7.9h-.918a15.292,15.292,0,0,1-1.782-.09v1.836a14.724,14.724,0,0,1,1.764-.09h.936v5.04a13.325,13.325,0,0,1-2.808.378l.27,1.98A10.863,10.863,0,0,1-36.126.828,40.329,40.329,0,0,0-31.3-.45v-.72l.576,1.278c.306-.216.306-.216.594-.414,1.224-.846,1.224-.846,1.53-1.062a15.332,15.332,0,0,0,1.278-1.008v1.71c0,.4-.126.468-.792.468a7.062,7.062,0,0,1-1.4-.18,5.2,5.2,0,0,1,.414,1.818c.7.054,1.188.072,1.584.072,1.458,0,1.98-.432,1.98-1.638v-2.3q-.054-1.458-.108-2a10.058,10.058,0,0,0,1.368,2.79,10.982,10.982,0,0,0,2.2,2.322,7.6,7.6,0,0,1,1.08-1.764,8.74,8.74,0,0,1-2.772-2.592,20.118,20.118,0,0,0,2.394-2.556L-22.86-7.272a8.693,8.693,0,0,1-1.746,2.16,8.488,8.488,0,0,1-.864-2.664h2.412a15.339,15.339,0,0,1,1.71.09V-9.468a11.133,11.133,0,0,1-1.728.108h-.108c.072-.936.162-2.52.216-3.456a15.235,15.235,0,0,1,.108-1.746,13.377,13.377,0,0,1-1.656.072h-4.23a12.238,12.238,0,0,1-1.8-.09v1.728a14.174,14.174,0,0,1,1.71-.072H-24.8c-.018.486-.018.54-.054.99h-3.636a9.294,9.294,0,0,1-1.638-.09v1.71a12.516,12.516,0,0,1,1.638-.072h3.564c-.018.306-.036.486-.072,1.026h-4.554a11.628,11.628,0,0,1-1.728-.108v1.494a8.3,8.3,0,0,1-1.278.072h-.72V-9.108h.522a6.32,6.32,0,0,1,1.062.054V-10.4l.144.126a6.5,6.5,0,0,1,1.1-1.6A7.188,7.188,0,0,1-33.084-14.9h-1.98a8.314,8.314,0,0,1-3.114,3.888,5.393,5.393,0,0,1,.828,1.71c.378-.306.486-.4.828-.7v.954a10.49,10.49,0,0,1,1.062-.054Zm7.686,1.332v3.42a19.247,19.247,0,0,1-4,2.61v-.378c-.954.288-1.278.4-1.962.558v-4.68h.72a7.387,7.387,0,0,1,1.4.09V-7.7a12.784,12.784,0,0,1,1.6-.072Zm-8.46-2.952a10.727,10.727,0,0,0,1.8-2.556,10.654,10.654,0,0,0,1.908,2.538c-.234.018-.342.018-.666.018h-3.042Zm.36,8.622A19.376,19.376,0,0,0-36.216-5.6l-1.4.432a18.119,18.119,0,0,1,.756,3.51Zm22.968-6.948a.317.317,0,0,1,.108-.018.827.827,0,0,1,.18.018,2.68,2.68,0,0,1,.306.018c.09,0,.288.018.54.018.846.072,1.566.09,2.232.09.468,0,.9-.018,1.62-.036.072,2.5.09,3.384.144,3.834a4.278,4.278,0,0,0-1.6-.252c-2.178,0-3.708,1.224-3.708,2.97,0,1.836,1.44,2.952,3.8,2.952,1.746,0,3.006-.63,3.42-1.692A3.149,3.149,0,0,0-5.274-2.16v-.252c.108.072.522.342,1.134.738A6.744,6.744,0,0,1-2.79-.522L-1.926-2.7a3.424,3.424,0,0,1-.5-.306A14.351,14.351,0,0,0-5.256-4.644c-.18-3.024-.18-3.06-.18-4.068v-.4c.954-.108,1.89-.27,2.5-.4a3.11,3.11,0,0,1,.522-.09l-.072-2.034-.144.036c-.288.108-.288.108-.4.144a18.1,18.1,0,0,1-2.43.432v-.828a17.611,17.611,0,0,1,.126-2.646l-2.25.054a5.035,5.035,0,0,1,.054.864c0,.738.018,1.638.018,2.7-.63.036-1.026.036-1.656.036a12.972,12.972,0,0,1-3.258-.288Zm5.166,5.76v.486a1.511,1.511,0,0,1-.234.972,1.769,1.769,0,0,1-1.458.558c-1.008,0-1.656-.45-1.656-1.116,0-.738.72-1.188,1.872-1.188A3.768,3.768,0,0,1-7.29-3.294ZM-14.328.54a3.527,3.527,0,0,1-.036-.486,15.018,15.018,0,0,1,1.782-5.508l-1.494-.666a3.43,3.43,0,0,1-.216.558c-.18.432-.18.432-.342.81-.09.288-.18.486-.216.612-.126.324-.126.324-.216.522h-.018A3.064,3.064,0,0,0-15.066-4v-.288c0-.288,0-.288.018-.936.018-3.132.7-7.47,1.44-9.036l-2.43-.252v.072a9.662,9.662,0,0,1-.2,1.332c-.4,2.034-.4,2.034-.486,2.574a32.174,32.174,0,0,0-.342,4.77,34.135,34.135,0,0,0,.486,5.724,6.569,6.569,0,0,1,.09.7ZM4.734-11.43a5.4,5.4,0,0,1,.666.054,28.382,28.382,0,0,0,3.294.216,19.187,19.187,0,0,0,2.7-.144c-.828.468-1.71,1.008-2.646,1.6L10.314-8.46a33.093,33.093,0,0,1,4.806-2.988l-.072-2.016a22.323,22.323,0,0,1-4.752.342,23.608,23.608,0,0,1-5.4-.45ZM6.066-7.362c-1.62,1.35-2.322,2.538-2.322,3.906A3.093,3.093,0,0,0,6.048-.45a12.876,12.876,0,0,0,4.5.594,30.8,30.8,0,0,0,4.86-.4A7.157,7.157,0,0,1,16.2-.324L16-2.79a19.2,19.2,0,0,1-5.652.756c-3.042,0-4.356-.5-4.356-1.674,0-.774.5-1.53,1.638-2.466Zm16.47-2.754h.144c.144,0,.324,0,.576.018.954.072,1.764.108,2.718.126a40.756,40.756,0,0,1-1.512,4,12.1,12.1,0,0,1-.846,1.62l2.178.756a3.053,3.053,0,0,1,1.314-1.044,9.1,9.1,0,0,1,3.87-.882C32.922-5.526,34-4.914,34-3.8c0,1.44-1.692,2.358-4.3,2.358A13.7,13.7,0,0,1,25.056-2.3a10.245,10.245,0,0,1,.18,2.286,16.444,16.444,0,0,0,4.59.63c3.942,0,6.516-1.728,6.516-4.392,0-2.286-1.89-3.654-5.058-3.654a8.372,8.372,0,0,0-4.536,1.17V-6.3A23.935,23.935,0,0,0,28.17-9.954c2.25-.054,3.834-.18,6.444-.468.468-.054.63-.072,1.044-.09L35.55-12.69a12.279,12.279,0,0,1-2.3.414c-1.188.144-3.222.288-4.59.324.108-.342.108-.342.432-1.692a10.06,10.06,0,0,1,.288-1.044l-2.412-.2a15.443,15.443,0,0,1-.5,2.97,16.557,16.557,0,0,1-3.888-.306Zm23.13-2.754a32.58,32.58,0,0,0,7.02,2.25l.738-2.07a27,27,0,0,1-6.714-2Zm-1.44,1.584a7.346,7.346,0,0,1-.108,1.044C43.794-8.118,43.506-6.12,43.362-5c-.09.684-.09.756-.144,1.08l2.268.072a3.918,3.918,0,0,1,.81-.774A8.192,8.192,0,0,1,50.778-5.94c1.908,0,3.042.72,3.042,1.926,0,1.53-1.764,2.592-4.3,2.592a14.531,14.531,0,0,1-4.842-.9A7.988,7.988,0,0,1,44.946,0a16.551,16.551,0,0,0,4.59.63A7.776,7.776,0,0,0,54.288-.594a4.383,4.383,0,0,0,1.854-3.474c0-2.3-2.016-3.816-5.076-3.816a8.531,8.531,0,0,0-5.454,1.71l-.036-.036c.054-.27.054-.27.09-.522a38.089,38.089,0,0,1,.81-4.428Zm21.528-3.492v.342a27.7,27.7,0,0,1-.468,3.636c-.99.144-3.168.36-3.834.36l.216,2.124a32.27,32.27,0,0,1,3.222-.576A30.536,30.536,0,0,1,63.144-3.8,19.665,19.665,0,0,1,61.272-.414L63.36.738c.09-.18.09-.2.144-.306l.27-.54a38.606,38.606,0,0,0,2.16-5.058,38.079,38.079,0,0,0,1.1-3.906c.414-.036.684-.054,1.044-.054,1.422,0,1.836.486,1.836,2.142a15.994,15.994,0,0,1-.468,4.1c-.27.882-.558,1.224-1.08,1.224a7.447,7.447,0,0,1-2.628-.7,6.76,6.76,0,0,1,.18,1.53c0,.18-.018.432-.036.792a8.733,8.733,0,0,0,2.772.522,2.28,2.28,0,0,0,2-.81c.864-.99,1.386-3.456,1.386-6.552,0-1.638-.234-2.5-.846-3.186a3.487,3.487,0,0,0-2.664-.954c-.342,0-.594.018-1.116.054.054-.234.054-.27.126-.666.252-1.35.252-1.35.306-1.728.054-.288.072-.378.108-.612a4.187,4.187,0,0,1,.144-.558ZM72.2-11.322a11.65,11.65,0,0,1,2.07,3.078,16.179,16.179,0,0,1,1.44,4.086L77.76-5.2a17.472,17.472,0,0,0-3.708-7.02ZM85.266-12.87a32.58,32.58,0,0,0,7.02,2.25l.738-2.07a27,27,0,0,1-6.714-2Zm-1.44,1.584a7.345,7.345,0,0,1-.108,1.044C83.394-8.118,83.106-6.12,82.962-5c-.09.684-.09.756-.144,1.08l2.268.072a3.918,3.918,0,0,1,.81-.774A8.192,8.192,0,0,1,90.378-5.94c1.908,0,3.042.72,3.042,1.926,0,1.53-1.764,2.592-4.3,2.592a14.531,14.531,0,0,1-4.842-.9A7.988,7.988,0,0,1,84.546,0a16.551,16.551,0,0,0,4.59.63A7.776,7.776,0,0,0,93.888-.594a4.383,4.383,0,0,0,1.854-3.474c0-2.3-2.016-3.816-5.076-3.816a8.531,8.531,0,0,0-5.454,1.71l-.036-.036c.054-.27.054-.27.09-.522a38.089,38.089,0,0,1,.81-4.428Z" transform="translate(139.516 15.048)" fill="#fff"/>
      <g id="グループ_4077" data-name="グループ 4077" transform="translate(18.945 3.879)">
        <path id="パス_3213" data-name="パス 3213" d="M0,5.171,5.013,0l4.62,5.171" transform="translate(5.171) rotate(90)" fill="none" stroke="#fff" stroke-linecap="round" stroke-linejoin="round" stroke-width="3"/>
        <path id="パス_3214" data-name="パス 3214" d="M0,5.171,5.013,0l4.62,5.171" transform="translate(12.57) rotate(90)" fill="none" stroke="#fff" stroke-linecap="round" stroke-linejoin="round" stroke-width="3"/>
      </g>
      <path id="パス_6575" data-name="パス 6575" d="M0,85" transform="translate(0 -54.024)" fill="none" stroke="#707070" stroke-width="1"/>
    </g>
  </g>
</svg>
