<svg xmlns="http://www.w3.org/2000/svg" width="325" height="48" viewBox="0 0 325 48">
  <g id="グループ_4220" data-name="グループ 4220" transform="translate(-355 -7374.6)">
    <g id="長方形_1" data-name="長方形 1" transform="translate(355 7374.6)" fill="#fff" stroke="#f19917" stroke-width="1">
      <rect width="325" height="48" rx="5" stroke="none"/>
      <rect x="0.5" y="0.5" width="324" height="47" rx="4.5" fill="none"/>
    </g>
    <path id="パス_6592" data-name="パス 6592" d="M-80.066-10.486v.2a10.273,10.273,0,0,1-.126,1.358,17.026,17.026,0,0,1-1.316,4.8,9.434,9.434,0,0,1-2,2.982,6.137,6.137,0,0,1,1.6,1.2A13.367,13.367,0,0,0-79.436-4.27,25.047,25.047,0,0,0-78.33-9.058a5.926,5.926,0,0,1,.182-1.078Zm4.158.336a6.977,6.977,0,0,1,.2,1.008,21.928,21.928,0,0,0,1.33,5.1A14.707,14.707,0,0,0-72,.07a6.034,6.034,0,0,1,1.54-1.288,13.541,13.541,0,0,1-3.122-6.048,18.124,18.124,0,0,1-.588-3.22Zm17.332,1.274.714-.28a9.362,9.362,0,0,0-1.246-2.212l-1.022.378a9.119,9.119,0,0,1,1.092,1.932l.07.14.042.112a4.711,4.711,0,0,1-.77.028l-3.108.014c.042-.49.042-.5.056-.882l.042-.756.014-.266c0-.1.014-.168.014-.252a3.909,3.909,0,0,1,.056-.448L-64.5-11.41a2.86,2.86,0,0,1,.042.546v.35c0,.406-.028,1.232-.07,1.75l-2.45.014a8.37,8.37,0,0,1-1.554-.1l.014,1.708A9.494,9.494,0,0,1-67-7.21h2.324A7.667,7.667,0,0,1-69.1-.812a5.707,5.707,0,0,1,1.26,1.47,9.675,9.675,0,0,0,4.9-7.882h3.262a31.586,31.586,0,0,1-.308,4.48c-.224,1.218-.434,1.526-1.036,1.526a6.812,6.812,0,0,1-1.848-.336A4.274,4.274,0,0,1-62.552.238a9.463,9.463,0,0,0,1.736.168c1.68,0,2.17-.574,2.534-3,.14-.924.294-3.094.336-4.676a2.115,2.115,0,0,1,.154-.924Zm2.464-1.008a8.17,8.17,0,0,0-1.232-2.128l-.994.392a10.028,10.028,0,0,1,1.2,2.17Zm5.558,1.2-2.6.406a13.013,13.013,0,0,1-1.54.154l.28,1.722a14.933,14.933,0,0,1,1.54-.322l2.6-.406.42,2.3-3.4.546a8.615,8.615,0,0,1-1.484.14l.28,1.722a11.266,11.266,0,0,1,1.428-.308l3.458-.546.5,2.758a10.6,10.6,0,0,1,.182,1.47l1.876-.336a7.908,7.908,0,0,1-.336-1.442l-.5-2.716,3.332-.532.56-.084a1.088,1.088,0,0,1,.224-.028,3.358,3.358,0,0,1,.644-.07l-.308-1.68a12.441,12.441,0,0,1-1.456.322l-3.29.518-.42-2.3,2.954-.462a11.886,11.886,0,0,1,1.344-.182l-.294-1.68a7.211,7.211,0,0,1-1.344.308l-2.954.462-.224-1.218a9.631,9.631,0,0,1-.168-1.316l-1.848.294a6.032,6.032,0,0,1,.336,1.316ZM-38.206-9h-1.666a7.655,7.655,0,0,1-1.344-.07v1.4c.294-.028.476-.042.9-.056V-6.37a5.52,5.52,0,0,1-1.2-.084v1.442a6.82,6.82,0,0,1,1.2-.07v1.456c-.434-.014-.6-.028-.868-.056v1.4a8.836,8.836,0,0,1,1.33-.07h1.652V-.9c-1.456.14-2.31.21-2.884.21a1.144,1.144,0,0,1-.2-.014l.21,1.568A3.4,3.4,0,0,1-40.5.77C-40.1.728-38.486.518-37.464.378c1.414-.2,2.016-.308,3.36-.6L-34.118-1.5c-1.3.238-1.68.308-2.73.448v-1.3h1.554a9.813,9.813,0,0,1,1.3.056V-3.682c-.224.028-.364.042-.686.056V-5.082a6.831,6.831,0,0,1,.854.056v-1.4a7.27,7.27,0,0,1-.854.056V-7.728c.336.014.462.028.7.056v-1.4a7.4,7.4,0,0,1-1.3.07h-1.568V-10.08c.854-.126,1.834-.308,2.674-.518l-.8-1.232a19.909,19.909,0,0,1-6.258.8A3.426,3.426,0,0,1-40.7-9.758c1.176-.056,1.582-.084,2.492-.168Zm-.812,1.274h.812V-6.37h-.812Zm2.17,0h.868V-6.37h-.868Zm-2.17,2.646h.812v1.456h-.812Zm2.17,0h.868v1.456h-.868Zm7.686-6.286a7.04,7.04,0,0,1-1.106.056h-2.17c-.49,0-.77-.014-1.148-.042a10.261,10.261,0,0,1,.056,1.162V-.406a9.618,9.618,0,0,1-.084,1.582h1.582a10.444,10.444,0,0,1-.1-1.736V-9.926h1.848A23.912,23.912,0,0,1-31.738-6.4,6.581,6.581,0,0,1-30.52-4.8,4.405,4.405,0,0,1-30-2.94v.084l.014.07a.589.589,0,0,1-.21.476,1.006,1.006,0,0,1-.644.126,4.591,4.591,0,0,1-1.008-.084,3.326,3.326,0,0,1,.28,1.526c.294.014.434.014.56.014A3.983,3.983,0,0,0-29.54-.9a1.8,1.8,0,0,0,.98-1.778,4.416,4.416,0,0,0-.168-1.344,5.94,5.94,0,0,0-1.484-2.52A33.1,33.1,0,0,0-28.7-9.926c.056-.168.2-.476.238-.56Zm9.086,3.234a13.052,13.052,0,0,1-.07,1.6h-2.2a12.182,12.182,0,0,1-1.3-.07V-5.1a12.182,12.182,0,0,1,1.3-.07h1.9a3.91,3.91,0,0,1-1.106,1.638A6.281,6.281,0,0,1-23.59-2.422a3.785,3.785,0,0,1,.98,1.33A7.327,7.327,0,0,0-20.58-2.38a4.7,4.7,0,0,0,1.288-1.694,5.82,5.82,0,0,0,1.316,1.568A6.93,6.93,0,0,0-15.33-1.05a4.354,4.354,0,0,1,.7-1.484A6.789,6.789,0,0,1-17.206-3.78a4.633,4.633,0,0,1-1.176-1.386h2.268c.49,0,.924.028,1.386.07V-6.608a8.293,8.293,0,0,1-1.26.07h-2.66a12.538,12.538,0,0,0,.07-1.6h2c.462,0,.882.028,1.344.07V-9.548a8.128,8.128,0,0,1-1.232.07h-.812c.21-.35.364-.63.56-.994.322-.63.322-.63.49-.924l-1.512-.5a11.451,11.451,0,0,1-1.134,2.422h-2.254l1.218-.6a9.718,9.718,0,0,0-1.036-1.834l-1.344.63a6.971,6.971,0,0,1,.994,1.806h-.546a11.845,11.845,0,0,1-1.274-.07v1.484a11.575,11.575,0,0,1,1.26-.07Zm-7.154-2.408a15.174,15.174,0,0,1,2.38,2.618l1.162-1.134a19.3,19.3,0,0,0-2.422-2.52Zm-.1,5.572a5.2,5.2,0,0,1,.938-.07h.77v3.01A7.664,7.664,0,0,1-27.636-.644l.672,1.6c.126-.112.364-.294.462-.364A12.7,12.7,0,0,0-24.878-.756,3.345,3.345,0,0,0-22.918.588a15.853,15.853,0,0,0,3.5.252C-18.7.84-16.646.812-16.226.8c1.008-.042,1.008-.042,1.554-.056a6.515,6.515,0,0,1,.42-1.652A39.663,39.663,0,0,1-19.866-.6c-2.1,0-2.842-.112-3.486-.532a2.2,2.2,0,0,1-.8-.9V-4.956a13.814,13.814,0,0,1,.056-1.512,8.573,8.573,0,0,1-1.064.056h-1.05a6.261,6.261,0,0,1-1.12-.07ZM-10.3.336c-.014-.182-.014-.294-.014-.378A11.493,11.493,0,0,1-9.072-4.284l-1.12-.5A14.278,14.278,0,0,0-10.92-2.94c.014-.35.028-.462.028-.77a23.375,23.375,0,0,1,.21-3.094A19.3,19.3,0,0,1-9.8-10.99l-1.848-.2a9.161,9.161,0,0,1-.21,1.3,26.877,26.877,0,0,0-.574,5.474,24.42,24.42,0,0,0,.364,4.186c.042.322.056.406.07.658ZM-8.372-8.05a16.619,16.619,0,0,0,2.52.154,25.077,25.077,0,0,0,3-.168c.672-.084.882-.112.994-.126l-.084-1.694a15.438,15.438,0,0,1-3.808.378,10.094,10.094,0,0,1-2.59-.224Zm.966,2.31A4.573,4.573,0,0,0-8.694-2.856a2.345,2.345,0,0,0,.42,1.372C-7.658-.658-6.538-.266-4.8-.266A17.264,17.264,0,0,0-1.9-.532,4.679,4.679,0,0,1-1.33-.616l-.14-1.778A9.839,9.839,0,0,1-4.8-1.862c-1.456,0-2.226-.42-2.226-1.218A3.167,3.167,0,0,1-6.034-5.1ZM5.978-11.522a8.263,8.263,0,0,1,.07,1.232c.014,1.75.14,5.572.2,6.076a.314.314,0,0,0,.014.14,5.178,5.178,0,0,0-1.3-.14C2.94-4.214,1.5-3.164,1.5-1.708a2.524,2.524,0,0,0,.35,1.246,3.265,3.265,0,0,0,2.94,1.2C6.874.742,7.98-.084,7.98-1.652A3.26,3.26,0,0,0,7.952-2.1c.154.1.266.154.448.252A8.815,8.815,0,0,1,10.248-.7a5.52,5.52,0,0,1,.994.924l1.092-1.582c-.168-.1-.238-.154-.42-.28a18.836,18.836,0,0,0-1.806-1.19A10.337,10.337,0,0,0,7.924-3.78c-.1-1.372-.126-2-.154-3.094a30.184,30.184,0,0,0,3.29-.252c.63-.07.63-.07.91-.084L11.83-8.9a15.137,15.137,0,0,1-4.1.476c-.014-.672-.014-.714-.014-.91a15.932,15.932,0,0,1,.1-2.17Zm.308,8.96c0,.014.014.406.014.658a.984.984,0,0,1-.294.784,2,2,0,0,1-1.274.378A2.5,2.5,0,0,1,3.71-.952a.765.765,0,0,1-.476-.728c0-.616.7-1.036,1.75-1.036A4.543,4.543,0,0,1,6.286-2.562ZM19.516-5.81a5.5,5.5,0,0,0,.574-.364c.28-.182,1.288-.938,1.54-1.148.476-.406,1.5-1.316,2.2-1.96a3,3,0,0,1,.728-.574l-.868-1.232a2.063,2.063,0,0,1-.868.182c-1.358.1-3.066.168-4.256.168a12.661,12.661,0,0,1-1.652-.084l.07,1.68a4.723,4.723,0,0,1,.672-.07c2.534-.112,3.43-.168,3.962-.238l.014.014-.252.252a46.747,46.747,0,0,1-4.186,3.64,12.591,12.591,0,0,1-1.974,1.316l.952,1.512a8.626,8.626,0,0,1,5.768-2.352c1.694,0,2.772.714,2.772,1.806,0,.994-.5,1.6-1.666,2.03a3.765,3.765,0,0,0-.644-1.26A3.013,3.013,0,0,0,19.978-3.64a2.155,2.155,0,0,0-2.408,2,2,2,0,0,0,.84,1.61,4.736,4.736,0,0,0,2.716.644,6.927,6.927,0,0,0,3.388-.8,3.421,3.421,0,0,0,1.9-3.094c0-1.918-1.54-3.15-3.934-3.15a6.834,6.834,0,0,0-2.94.644ZM21.532-.826A3.789,3.789,0,0,1,20.8-.77c-1.036,0-1.666-.322-1.666-.882,0-.392.322-.644.826-.644C20.748-2.3,21.28-1.792,21.532-.826ZM33.25-7.938a13.166,13.166,0,0,1-4.872,5.376,4.826,4.826,0,0,1,.952,1.47A13.383,13.383,0,0,0,31.6-3.052V-1.47A10.016,10.016,0,0,1,33-1.554H34.1V-.6a12.927,12.927,0,0,1-.1,1.736H35.77a12.651,12.651,0,0,1-.1-1.736v-.952h1.246a10.158,10.158,0,0,1,1.4.084v-1.6A15.607,15.607,0,0,0,40.67-1.12a5.713,5.713,0,0,1,.952-1.526A11.979,11.979,0,0,1,38.57-5a13.882,13.882,0,0,1-2.1-2.94h3a16.535,16.535,0,0,1,1.694.084V-9.562a11.5,11.5,0,0,1-1.694.1H35.672v-1.008a6.989,6.989,0,0,1,.1-1.288H34.02a8.7,8.7,0,0,1,.084,1.3v.994h-3.6a12.129,12.129,0,0,1-1.666-.1v1.708a15.986,15.986,0,0,1,1.666-.084Zm2.422,4.872V-5.278a11.313,11.313,0,0,0-.126-1.554,15.154,15.154,0,0,0,2.716,3.71,8.761,8.761,0,0,1-1.232.056Zm-1.568,0h-1.19a8.863,8.863,0,0,1-1.246-.056,13.883,13.883,0,0,0,2.548-3.71A13.71,13.71,0,0,0,34.1-5.264Zm13.958-8.512a9.158,9.158,0,0,1,.056,1.176c0,3.36-.756,5.656-2.562,7.728A9.332,9.332,0,0,1,42.5-.336,4.188,4.188,0,0,1,43.6,1.106,11.808,11.808,0,0,0,45.766-.5a9.747,9.747,0,0,0,2.156-2.688A10.018,10.018,0,0,0,49.014-6.02,11.068,11.068,0,0,0,50.876-2.2a13.628,13.628,0,0,0,3.556,3.3A5.209,5.209,0,0,1,55.524-.448a9.323,9.323,0,0,1-2.17-1.512,9.384,9.384,0,0,1-2.212-2.66,10.049,10.049,0,0,1-1.372-5.516,9.262,9.262,0,0,1,.1-1.442ZM61.04-4.97a5.8,5.8,0,0,1,.518.91,4.923,4.923,0,0,0,.63-.77c0,.1-.014.42-.028.966v3.5A11.546,11.546,0,0,1,62.076,1.2H63.56V.574h4.368a10.659,10.659,0,0,1,1.344.084V-.756a7.989,7.989,0,0,1-1.316.07H66.584V-1.708h1.05a9.49,9.49,0,0,1,1.162.056v-1.26a7.986,7.986,0,0,1-1.176.056H66.584V-3.878h1.05a9.789,9.789,0,0,1,1.162.056v-1.26a7.865,7.865,0,0,1-1.176.056H66.584V-6.034h1.3a9.676,9.676,0,0,1,1.12.056V-7.322a8.012,8.012,0,0,1-1.162.056H66.836A8.09,8.09,0,0,0,67.368-8.5L66-8.792a7.216,7.216,0,0,1-.574,1.526H64.078a12.783,12.783,0,0,0,.98-1.96H67.83v1.358H69.3a8.467,8.467,0,0,1-.042-.91V-9.59a9.255,9.255,0,0,1,.042-1.036,7.8,7.8,0,0,1-1.232.07H65.52c.21-.686.336-1.078.364-1.176l-1.582-.2c-.084.476-.14.784-.294,1.372H62.356a6.169,6.169,0,0,1-1.022-.042,4.592,4.592,0,0,1,.042.7v1.19a6.355,6.355,0,0,1-.056.91h1.386V-9.226h.84A9.58,9.58,0,0,1,61.04-5.544v-.308c0-.42.014-.742.042-1.036a7.56,7.56,0,0,1-.854.042H58.856a15.839,15.839,0,0,0,.84-3.08h.546a5.46,5.46,0,0,1,.826.056v-1.5a9.177,9.177,0,0,1-1.344.084H58.086a9.312,9.312,0,0,1-1.344-.084v1.512a7.558,7.558,0,0,1,1.19-.07h.308a10.04,10.04,0,0,1-.448,2,8.365,8.365,0,0,1-1.554,2.94,5.908,5.908,0,0,1,.532,1.736,4.262,4.262,0,0,0,.756-1.274c-.028.378-.042.8-.042,1.078V-.56A10.669,10.669,0,0,1,57.4.882h1.4V-.434h.994V.182h1.288A9.441,9.441,0,0,1,61.04-.9Zm2.506-.056V-6.034H65.24v1.008Zm0,1.148H65.24v1.022H63.546Zm0,2.17H65.24V-.686H63.546ZM58.8-5.5h.994v3.71H58.8Zm17-2.772c.8.28,1.064.392,1.652.644A5.005,5.005,0,0,1,75.1-5.7a4.663,4.663,0,0,1,.98,1.12,6.878,6.878,0,0,0,2.576-2.436,7.354,7.354,0,0,1,.784.476l-.084-.028a5.267,5.267,0,0,1,.35,1.4,9.591,9.591,0,0,0,1.106.056c1.148,0,1.54-.294,1.792-1.4a22.8,22.8,0,0,0,.378-3.5c.056-.98.056-.994.084-1.218a10.914,10.914,0,0,1-1.316.056H77.294a11.885,11.885,0,0,1-1.526-.084v1.484a10.308,10.308,0,0,1,1.5-.07h.924a5.082,5.082,0,0,1-.224,1.134c-.532-.21-.812-.322-1.6-.574Zm5.712-1.568a14.234,14.234,0,0,1-.28,2.814c-.126.49-.266.6-.7.6a4.988,4.988,0,0,1-.77-.056l.616-1.036c-.588-.322-.77-.42-1.176-.63a7.375,7.375,0,0,0,.392-1.694ZM75.124-.42l1.134.672A12.846,12.846,0,0,0,77.2-3.584l-1.2-.266a7.576,7.576,0,0,1-.868,3.234v-1.75a7.893,7.893,0,0,1,.042-1.008,7.012,7.012,0,0,1-.952.042H72.17a7.666,7.666,0,0,1-1.092-.056,9.433,9.433,0,0,1,.056,1.106V-.21c0,.448-.028.91-.07,1.372h1.4V.476H73.85v.49h1.33a6.634,6.634,0,0,1-.056-1.078Zm-2.7-1.736H73.85v1.4H72.422ZM71.064-9.968a8.732,8.732,0,0,1,1.134-.056H74.06a9.013,9.013,0,0,1,1.134.056v-1.4a6.336,6.336,0,0,1-1.134.07H72.2a6.242,6.242,0,0,1-1.134-.07ZM70.6-7.938a8.779,8.779,0,0,1,1.12-.056h2.744a10.2,10.2,0,0,1,1.064.042V-9.38a7.132,7.132,0,0,1-1.12.056H71.722a5.983,5.983,0,0,1-1.12-.07Zm.5,1.932a6.937,6.937,0,0,1,.882-.042H74.3a7.56,7.56,0,0,1,.854.042v-1.3a5.889,5.889,0,0,1-.854.042h-2.31a7.09,7.09,0,0,1-.882-.042Zm0,1.96a7.479,7.479,0,0,1,.868-.042h2.3a7.09,7.09,0,0,1,.882.042v-1.3a5.986,5.986,0,0,1-.868.042h-2.3a7.09,7.09,0,0,1-.882-.042Zm7.7.91a4,4,0,0,1,.07-.9h-1.5A8.781,8.781,0,0,1,77.448-3V-.112c0,.868.35,1.036,2.072,1.036,2.016,0,2.268-.266,2.422-2.674a4.914,4.914,0,0,1-1.3-.434,5.551,5.551,0,0,1-.154,1.526c-.1.21-.28.252-1.078.252-.532,0-.6-.042-.6-.364ZM81.2-3.374A10.712,10.712,0,0,1,82.684.014l1.19-.728a16.82,16.82,0,0,0-1.54-3.262ZM77.938-4.956a8.509,8.509,0,0,1,2.114,2.072l1.05-.91a11.9,11.9,0,0,0-2.17-1.946Z" transform="translate(517.5 7405.423)" fill="#211613"/>
  </g>
</svg>
