<svg xmlns="http://www.w3.org/2000/svg" width="325" height="48" viewBox="0 0 325 48">
  <g id="グループ_4219" data-name="グループ 4219" transform="translate(-355 -7374.6)">
    <rect id="長方形_1" data-name="長方形 1" width="325" height="48" rx="5" transform="translate(355 7374.6)" fill="#f19917"/>
    <path id="パス_6591" data-name="パス 6591" d="M-118.958-.994c-1.694-1.638-1.694-1.638-2.044-1.946a21.7,21.7,0,0,0-2.59-2.03,18.541,18.541,0,0,0,2.184-3.864,2.693,2.693,0,0,1,.448-.756l-.924-.952a3.033,3.033,0,0,1-1.246.154l-4.928.07h-.336a6.127,6.127,0,0,1-1.232-.084l.056,1.792a11.033,11.033,0,0,1,1.526-.112c4.41-.07,4.41-.07,4.634-.084l-.154.364a13.494,13.494,0,0,1-4.7,5.7,11.558,11.558,0,0,1-2.8,1.54A5.616,5.616,0,0,1-129.934.35,16.637,16.637,0,0,0-124.6-3.7,26.913,26.913,0,0,1-120.3.462Zm3.724-4.732a22.6,22.6,0,0,1,2.8,2.7A23.047,23.047,0,0,1-109.732.5l1.47-1.176c-.728-.994-1.26-1.666-1.848-2.338a21.654,21.654,0,0,0,4.522-5.306,4.371,4.371,0,0,1,.616-.826l-.98-1.106a3.666,3.666,0,0,1-1.162.112l-7.784.014a10.211,10.211,0,0,1-1.82-.1v1.778a15.184,15.184,0,0,1,1.792-.07h6.678c.294,0,.5-.014.644-.028a.359.359,0,0,0-.028.07.982.982,0,0,0-.084.126,18.517,18.517,0,0,1-1.708,2.282A17.193,17.193,0,0,1-111.258-4.3c-.1-.084-.1-.084-.868-.868-.574-.56-.994-.938-1.736-1.554Zm11.788,1.33a15.369,15.369,0,0,1,2.282-.07h7.434a15.369,15.369,0,0,1,2.282.07V-6.342a13.749,13.749,0,0,1-2.268.1h-7.462a13.749,13.749,0,0,1-2.268-.1ZM-84.812.63a15.391,15.391,0,0,1-.056-1.554v-3.7a7.238,7.238,0,0,0-.056-.952,4.523,4.523,0,0,0,.476.238A33.122,33.122,0,0,1-79.492-2.66l.98-1.652a41.131,41.131,0,0,0-6.356-2.954v-2.6a9.385,9.385,0,0,1,.056-1.47H-86.73a9,9,0,0,1,.084,1.428V-.938A9.431,9.431,0,0,1-86.73.63Zm18.844-10.976a5.117,5.117,0,0,1-1.5.14h-6.426a9.861,9.861,0,0,1-1.792-.1v1.82a11.114,11.114,0,0,1,1.764-.084h6.664a9.7,9.7,0,0,1-4.242,6.1,11.391,11.391,0,0,1-3.066,1.428A5.152,5.152,0,0,1-73.332.63a13.631,13.631,0,0,0,5.208-3.57,13.16,13.16,0,0,0,2.87-5.866,2.105,2.105,0,0,1,.238-.63Zm9.324,4.662a10.354,10.354,0,0,1-2.044,2.3A12.29,12.29,0,0,1-61.7-1.5,4.4,4.4,0,0,1-60.662-.182a13.361,13.361,0,0,0,4.536-3.7,5.5,5.5,0,0,0,.476-.784c0,.168-.014.714-.014.868l.014,3.5A8.69,8.69,0,0,1-55.706.854H-54a6.406,6.406,0,0,1-.084-1.19l-.07-5.334h1.2a10.154,10.154,0,0,1,1.274.056V-7.126a6.023,6.023,0,0,1-1.26.084h-1.218l-.014-.924a6.469,6.469,0,0,1,.042-1.05h-1.638a7.284,7.284,0,0,1,.07,1.106v.854h-4.074a6.023,6.023,0,0,1-1.26-.084v1.512a10.485,10.485,0,0,1,1.26-.056Zm8.372-3.3A14.7,14.7,0,0,1-44.7-6.146l1.2-1.526a19.828,19.828,0,0,0-3.612-2.7Zm.49,9.24a4.956,4.956,0,0,1,.924-.238,15.122,15.122,0,0,0,5.334-2.1,12.287,12.287,0,0,0,4.438-5.488A6.037,6.037,0,0,1-38.57-8.946,11.69,11.69,0,0,1-40-6.146a9.354,9.354,0,0,1-4.158,3.43A13.34,13.34,0,0,1-48.3-1.68Zm15.5.084C-32.3.154-32.3.042-32.3-.042a11.493,11.493,0,0,1,1.246-4.242l-1.12-.5A14.278,14.278,0,0,0-32.9-2.94c.014-.35.028-.462.028-.77a23.375,23.375,0,0,1,.21-3.094,19.3,19.3,0,0,1,.882-4.186l-1.848-.2a9.16,9.16,0,0,1-.21,1.3,26.877,26.877,0,0,0-.574,5.474,24.42,24.42,0,0,0,.364,4.186c.042.322.056.406.07.658Zm1.932-8.386a16.619,16.619,0,0,0,2.52.154,25.077,25.077,0,0,0,3-.168c.672-.084.882-.112.994-.126l-.084-1.694a15.438,15.438,0,0,1-3.808.378,10.094,10.094,0,0,1-2.59-.224Zm.966,2.31a4.573,4.573,0,0,0-1.288,2.884,2.345,2.345,0,0,0,.42,1.372c.616.826,1.736,1.218,3.472,1.218a17.264,17.264,0,0,0,2.9-.266,4.679,4.679,0,0,1,.574-.084l-.14-1.778a9.839,9.839,0,0,1-3.332.532c-1.456,0-2.226-.42-2.226-1.218A3.167,3.167,0,0,1-28.014-5.1ZM-16-11.522a8.263,8.263,0,0,1,.07,1.232c.014,1.75.14,5.572.2,6.076a.314.314,0,0,0,.014.14,5.178,5.178,0,0,0-1.3-.14c-2.016,0-3.458,1.05-3.458,2.506a2.524,2.524,0,0,0,.35,1.246,3.265,3.265,0,0,0,2.94,1.2C-15.106.742-14-.084-14-1.652a3.26,3.26,0,0,0-.028-.448c.154.1.266.154.448.252A8.815,8.815,0,0,1-11.732-.7a5.52,5.52,0,0,1,.994.924l1.092-1.582c-.168-.1-.238-.154-.42-.28a18.836,18.836,0,0,0-1.806-1.19,10.337,10.337,0,0,0-2.184-.952c-.1-1.372-.126-2-.154-3.094a30.184,30.184,0,0,0,3.29-.252c.63-.07.63-.07.91-.084L-10.15-8.9a15.137,15.137,0,0,1-4.1.476c-.014-.672-.014-.714-.014-.91a15.932,15.932,0,0,1,.1-2.17Zm.308,8.96c0,.014.014.406.014.658a.984.984,0,0,1-.294.784,2,2,0,0,1-1.274.378,2.5,2.5,0,0,1-1.022-.21.765.765,0,0,1-.476-.728c0-.616.7-1.036,1.75-1.036A4.543,4.543,0,0,1-15.694-2.562ZM-2.464-5.81a5.5,5.5,0,0,0,.574-.364C-1.61-6.356-.6-7.112-.35-7.322c.476-.406,1.5-1.316,2.2-1.96a3,3,0,0,1,.728-.574l-.868-1.232a2.063,2.063,0,0,1-.868.182c-1.358.1-3.066.168-4.256.168a12.662,12.662,0,0,1-1.652-.084L-5-9.142a4.723,4.723,0,0,1,.672-.07C-1.792-9.324-.9-9.38-.364-9.45l.014.014L-.6-9.184a46.746,46.746,0,0,1-4.186,3.64A12.591,12.591,0,0,1-6.762-4.228l.952,1.512A8.626,8.626,0,0,1-.042-5.068c1.694,0,2.772.714,2.772,1.806,0,.994-.5,1.6-1.666,2.03A3.765,3.765,0,0,0,.42-2.492,3.013,3.013,0,0,0-2-3.64a2.155,2.155,0,0,0-2.408,2,2,2,0,0,0,.84,1.61A4.736,4.736,0,0,0-.854.616a6.927,6.927,0,0,0,3.388-.8,3.421,3.421,0,0,0,1.9-3.094c0-1.918-1.54-3.15-3.934-3.15a6.834,6.834,0,0,0-2.94.644ZM-.448-.826a3.789,3.789,0,0,1-.728.056c-1.036,0-1.666-.322-1.666-.882,0-.392.322-.644.826-.644C-1.232-2.3-.7-1.792-.448-.826ZM14.07-5.04l.042,4.186V-.6A8.914,8.914,0,0,1,14.028.742h1.9c-.042-.392-.07-.924-.084-1.61l-.07-6.5H17.22a14.4,14.4,0,0,1,1.61.056V-9a7.961,7.961,0,0,1-1.652.1H15.764l-.028-1.134v-.084a8.982,8.982,0,0,1,.056-1.19H13.944a10.093,10.093,0,0,1,.07,1.288l.014,1.12H9.184A8.136,8.136,0,0,1,7.42-9v1.708a14.585,14.585,0,0,1,1.722-.07h3.836A13.319,13.319,0,0,1,11.1-5.054a14.9,14.9,0,0,1-4.41,3.038A4.056,4.056,0,0,1,7.854-.56,20.279,20.279,0,0,0,9.926-1.848a19.274,19.274,0,0,0,2.758-2.436,8.481,8.481,0,0,0,1.428-1.96c-.014.224-.042.938-.042,1.008Zm7.658-3.948A14.7,14.7,0,0,1,25.3-6.146l1.2-1.526a19.828,19.828,0,0,0-3.612-2.7Zm.49,9.24a4.956,4.956,0,0,1,.924-.238,15.122,15.122,0,0,0,5.334-2.1,12.287,12.287,0,0,0,4.438-5.488A6.037,6.037,0,0,1,31.43-8.946,11.69,11.69,0,0,1,30-6.146a9.354,9.354,0,0,1-4.158,3.43A13.34,13.34,0,0,1,21.7-1.68Zm14.63-9.534a10.766,10.766,0,0,1,1.61-.07H43.4a10.766,10.766,0,0,1,1.61.07V-11a7.966,7.966,0,0,1-1.638.1H38.486a7.966,7.966,0,0,1-1.638-.1Zm8.876,1.624a6.124,6.124,0,0,1-1.582.126H37.478a9.937,9.937,0,0,1-1.82-.1v1.708a14.242,14.242,0,0,1,1.792-.07h6.818a7.284,7.284,0,0,1-2.254,3.276A9.092,9.092,0,0,1,38.122-.868,4.878,4.878,0,0,1,39.214.756a12.458,12.458,0,0,0,3.668-1.9A9.9,9.9,0,0,0,46.13-5.88a6.312,6.312,0,0,1,.392-.882Zm12.992-3.71a11.2,11.2,0,0,1-2.6,2.618,20.446,20.446,0,0,1-7.35,3.64,5.266,5.266,0,0,1,.938,1.6,22.683,22.683,0,0,0,5-2.268V-.854A7.874,7.874,0,0,1,54.614.658h1.96A10.591,10.591,0,0,1,56.5-.9V-6.874a24.757,24.757,0,0,0,3.3-2.884,5.767,5.767,0,0,1,.518-.49Zm5.012,2.38A14.7,14.7,0,0,1,67.3-6.146l1.2-1.526a19.828,19.828,0,0,0-3.612-2.7Zm.49,9.24a4.956,4.956,0,0,1,.924-.238,15.122,15.122,0,0,0,5.334-2.1,12.287,12.287,0,0,0,4.438-5.488A6.037,6.037,0,0,1,73.43-8.946,11.691,11.691,0,0,1,72-6.146a9.354,9.354,0,0,1-4.158,3.43A13.34,13.34,0,0,1,63.7-1.68ZM81.27-7.938A13.166,13.166,0,0,1,76.4-2.562a4.826,4.826,0,0,1,.952,1.47,13.383,13.383,0,0,0,2.268-1.96V-1.47a10.016,10.016,0,0,1,1.4-.084h1.106V-.6a12.927,12.927,0,0,1-.1,1.736H83.79a12.651,12.651,0,0,1-.1-1.736v-.952h1.246a10.158,10.158,0,0,1,1.4.084v-1.6A15.607,15.607,0,0,0,88.69-1.12a5.713,5.713,0,0,1,.952-1.526A11.979,11.979,0,0,1,86.59-5a13.882,13.882,0,0,1-2.1-2.94h3a16.536,16.536,0,0,1,1.694.084V-9.562a11.5,11.5,0,0,1-1.694.1H83.692v-1.008a6.989,6.989,0,0,1,.1-1.288H82.04a8.7,8.7,0,0,1,.084,1.3v.994h-3.6a12.129,12.129,0,0,1-1.666-.1v1.708a15.986,15.986,0,0,1,1.666-.084Zm2.422,4.872V-5.278a11.313,11.313,0,0,0-.126-1.554,15.154,15.154,0,0,0,2.716,3.71,8.761,8.761,0,0,1-1.232.056Zm-1.568,0h-1.19a8.863,8.863,0,0,1-1.246-.056,13.884,13.884,0,0,0,2.548-3.71,13.708,13.708,0,0,0-.112,1.568Zm13.958-8.512a9.156,9.156,0,0,1,.056,1.176c0,3.36-.756,5.656-2.562,7.728A9.332,9.332,0,0,1,90.524-.336a4.188,4.188,0,0,1,1.092,1.442A11.808,11.808,0,0,0,93.786-.5a9.747,9.747,0,0,0,2.156-2.688A10.018,10.018,0,0,0,97.034-6.02,11.068,11.068,0,0,0,98.9-2.2a13.628,13.628,0,0,0,3.556,3.3,5.208,5.208,0,0,1,1.092-1.554,9.323,9.323,0,0,1-2.17-1.512,9.384,9.384,0,0,1-2.212-2.66,10.05,10.05,0,0,1-1.372-5.516,9.262,9.262,0,0,1,.1-1.442ZM109.06-4.97a5.8,5.8,0,0,1,.518.91,4.924,4.924,0,0,0,.63-.77c0,.1-.014.42-.028.966v3.5A11.544,11.544,0,0,1,110.1,1.2h1.484V.574h4.368a10.659,10.659,0,0,1,1.344.084V-.756a7.989,7.989,0,0,1-1.316.07H114.6V-1.708h1.05a9.49,9.49,0,0,1,1.162.056v-1.26a7.986,7.986,0,0,1-1.176.056H114.6V-3.878h1.05a9.789,9.789,0,0,1,1.162.056v-1.26a7.865,7.865,0,0,1-1.176.056H114.6V-6.034h1.3a9.676,9.676,0,0,1,1.12.056V-7.322a8.012,8.012,0,0,1-1.162.056h-1.008a8.09,8.09,0,0,0,.532-1.232l-1.372-.294a7.216,7.216,0,0,1-.574,1.526H112.1a12.783,12.783,0,0,0,.98-1.96h2.772v1.358h1.47a8.467,8.467,0,0,1-.042-.91V-9.59a9.255,9.255,0,0,1,.042-1.036,7.8,7.8,0,0,1-1.232.07H113.54c.21-.686.336-1.078.364-1.176l-1.582-.2c-.084.476-.14.784-.294,1.372h-1.652a6.169,6.169,0,0,1-1.022-.042,4.592,4.592,0,0,1,.042.7v1.19a6.355,6.355,0,0,1-.056.91h1.386V-9.226h.84a9.58,9.58,0,0,1-2.506,3.682v-.308c0-.42.014-.742.042-1.036a7.56,7.56,0,0,1-.854.042h-1.372a15.839,15.839,0,0,0,.84-3.08h.546a5.46,5.46,0,0,1,.826.056v-1.5a9.177,9.177,0,0,1-1.344.084h-1.638a9.312,9.312,0,0,1-1.344-.084v1.512a7.558,7.558,0,0,1,1.19-.07h.308a10.04,10.04,0,0,1-.448,2,8.365,8.365,0,0,1-1.554,2.94,5.908,5.908,0,0,1,.532,1.736,4.262,4.262,0,0,0,.756-1.274c-.028.378-.042.8-.042,1.078V-.56A10.669,10.669,0,0,1,105.42.882h1.4V-.434h.994V.182H109.1A9.441,9.441,0,0,1,109.06-.9Zm2.506-.056V-6.034h1.694v1.008Zm0,1.148h1.694v1.022h-1.694Zm0,2.17h1.694V-.686h-1.694ZM106.82-5.5h.994v3.71h-.994Zm17-2.772c.8.28,1.064.392,1.652.644A5.005,5.005,0,0,1,123.116-5.7a4.663,4.663,0,0,1,.98,1.12,6.878,6.878,0,0,0,2.576-2.436,7.354,7.354,0,0,1,.784.476l-.084-.028a5.267,5.267,0,0,1,.35,1.4,9.591,9.591,0,0,0,1.106.056c1.148,0,1.54-.294,1.792-1.4a22.8,22.8,0,0,0,.378-3.5c.056-.98.056-.994.084-1.218a10.914,10.914,0,0,1-1.316.056h-4.452a11.885,11.885,0,0,1-1.526-.084v1.484a10.308,10.308,0,0,1,1.5-.07h.924a5.082,5.082,0,0,1-.224,1.134c-.532-.21-.812-.322-1.6-.574Zm5.712-1.568a14.234,14.234,0,0,1-.28,2.814c-.126.49-.266.6-.7.6a4.988,4.988,0,0,1-.77-.056l.616-1.036c-.588-.322-.77-.42-1.176-.63a7.375,7.375,0,0,0,.392-1.694ZM123.144-.42l1.134.672a12.846,12.846,0,0,0,.938-3.836l-1.2-.266a7.576,7.576,0,0,1-.868,3.234v-1.75a7.893,7.893,0,0,1,.042-1.008,7.012,7.012,0,0,1-.952.042H120.19a7.666,7.666,0,0,1-1.092-.056,9.433,9.433,0,0,1,.056,1.106V-.21c0,.448-.028.91-.07,1.372h1.4V.476h1.386v.49h1.33a6.634,6.634,0,0,1-.056-1.078Zm-2.7-1.736h1.428v1.4h-1.428Zm-1.358-7.812a8.732,8.732,0,0,1,1.134-.056h1.862a9.013,9.013,0,0,1,1.134.056v-1.4a6.336,6.336,0,0,1-1.134.07h-1.862a6.242,6.242,0,0,1-1.134-.07Zm-.462,2.03a8.779,8.779,0,0,1,1.12-.056h2.744a10.2,10.2,0,0,1,1.064.042V-9.38a7.132,7.132,0,0,1-1.12.056h-2.688a5.983,5.983,0,0,1-1.12-.07Zm.5,1.932a6.937,6.937,0,0,1,.882-.042h2.31a7.56,7.56,0,0,1,.854.042v-1.3a5.889,5.889,0,0,1-.854.042h-2.31a7.09,7.09,0,0,1-.882-.042Zm0,1.96a7.479,7.479,0,0,1,.868-.042h2.3a7.09,7.09,0,0,1,.882.042v-1.3a5.986,5.986,0,0,1-.868.042h-2.3a7.09,7.09,0,0,1-.882-.042Zm7.7.91a4,4,0,0,1,.07-.9h-1.5A8.781,8.781,0,0,1,125.468-3V-.112c0,.868.35,1.036,2.072,1.036,2.016,0,2.268-.266,2.422-2.674a4.914,4.914,0,0,1-1.3-.434,5.552,5.552,0,0,1-.154,1.526c-.1.21-.28.252-1.078.252-.532,0-.6-.042-.6-.364Zm2.394-.238A10.712,10.712,0,0,1,130.7.014l1.19-.728a16.82,16.82,0,0,0-1.54-3.262Zm-3.262-1.582a8.509,8.509,0,0,1,2.114,2.072l1.05-.91a11.9,11.9,0,0,0-2.17-1.946Z" transform="translate(518 7404.599)" fill="#fff"/>
  </g>
</svg>
