<svg xmlns="http://www.w3.org/2000/svg" width="321.486" height="211.206" viewBox="0 0 321.486 211.206">
  <g id="グループ_4325" data-name="グループ 4325" transform="translate(-131.514 -8527.5)">
    <rect id="長方形_3374" data-name="長方形 3374" width="79.396" height="53.221" rx="6" transform="translate(183.403 8527.5)" fill="#211613"/>
    <path id="パス_6609" data-name="パス 6609" d="M-17.825-10.642-19.27-1.411l-1.411-9.231h-1.581L-20.34,0h2.176l1.921-10.642Zm5.8,9.4V-4.879H-9.58V-6.12h-2.448V-9.4h2.958v-1.241h-4.505V0h4.624V-1.241ZM-4.514-9.4h1.5c.408,0,.51.085.51.493v2.89c0,.408-.1.493-.51.493h-1.5ZM-2.083,0H-.434L-2.117-4.335A1.287,1.287,0,0,0-.978-5.814V-9.146c0-.969-.476-1.5-1.581-1.5H-6.044V0h1.53V-4.3h.833ZM6.689-10.642h-5.1V-9.4H3.374V0H4.9V-9.4H6.689Zm4.216,9.4V-4.879h2.448V-6.12H10.906V-9.4h2.958v-1.241H9.359V0h4.624V-1.241ZM20-5.44l2.057-5.2H20.392L19.151-6.817l-1.224-3.825h-1.7l2.091,5.2L16.074,0h1.649l1.428-4.046L20.579,0h1.7ZM-18.032,13.546a6.554,6.554,0,0,1,.715-.066c.22-.022.561-.044,1.034-.077v3.366a8.089,8.089,0,0,1-.066,1.177h1.21a8.089,8.089,0,0,1-.066-1.177V13.3c.2-.011.451-.044.781-.077.044.176.066.264.121.517l.924-.385a16.523,16.523,0,0,0-.869-2.145l-.825.33a6.014,6.014,0,0,1,.319.748c-.561.066-.605.066-1.254.1a28.732,28.732,0,0,0,1.859-2.475,4.558,4.558,0,0,1,.363-.506L-14.8,8.827a12.548,12.548,0,0,1-1.188,1.925c-.154-.2-.275-.33-.462-.55a14.8,14.8,0,0,0,1.023-1.683c.121-.22.165-.3.231-.4l-1.045-.429a8.047,8.047,0,0,1-.913,1.782c-.11-.132-.176-.2-.33-.385l-.627.913A10.208,10.208,0,0,1-16.6,11.632c-.22.286-.264.341-.638.8-.253.011-.363.011-.44.011a2.892,2.892,0,0,1-.473-.033Zm8.514-3.036a30.486,30.486,0,0,1-.352,5.3c-.132.682-.253.814-.748.814a8.551,8.551,0,0,1-1.441-.143,4.5,4.5,0,0,1,.308,1.232c.4.033.737.044,1.023.044a2.353,2.353,0,0,0,1.408-.286c.363-.286.561-.891.737-2.156.121-.9.242-2.816.253-4.07a14.018,14.018,0,0,1,.055-1.914,6.028,6.028,0,0,1-.9.044h-2.4c.132-.341.176-.473.319-.924A3.771,3.771,0,0,1-11.113,8l-1.232-.22a7.085,7.085,0,0,1-.4,1.386,7.121,7.121,0,0,1-1.3,2.189,3.208,3.208,0,0,1,.88.891,7.669,7.669,0,0,0,1.1-1.738Zm-8.173,3.41a10.332,10.332,0,0,1-.517,2.959l.979.451a12.226,12.226,0,0,0,.539-3.256Zm2.9.154a25.8,25.8,0,0,1,.418,2.827l1-.242a27.178,27.178,0,0,0-.528-2.805Zm4.29.473a12.6,12.6,0,0,0-1.353-2.761l-.957.528a12.1,12.1,0,0,1,1.254,2.794Zm5.939-6.455c0-.408.1-.493.51-.493h.663c.408,0,.51.085.51.493v2.414c0,.408-.1.493-.51.493H-4.66v1.224h1.275c.408,0,.51.085.51.493v2.55c0,.408-.1.493-.51.493h-.663c-.408,0-.51-.085-.51-.493V13.685h-1.53V15.5c0,.969.493,1.5,1.581,1.5h1.564c1.105,0,1.6-.527,1.6-1.5V12.58c0-.561-.221-.884-.68-.986.459-.1.68-.476.68-1.054V7.854c0-.969-.493-1.5-1.6-1.5H-4.507c-1.088,0-1.581.527-1.581,1.5V9.69h1.53ZM6.135,7.854c0-.969-.493-1.5-1.581-1.5H2.7c-1.105,0-1.6.527-1.6,1.5V15.5c0,.969.493,1.5,1.6,1.5H4.554c1.088,0,1.581-.527,1.581-1.5ZM4.588,15.266c0,.408-.1.493-.51.493H3.16c-.408,0-.493-.085-.493-.493V8.092c0-.408.085-.493.493-.493h.918c.408,0,.51.085.51.493Zm7.463-7.6c0-.884-.391-1.309-1.326-1.309H9.6c-.935,0-1.326.425-1.326,1.309V10.8c0,.867.391,1.309,1.326,1.309h1.122c.935,0,1.326-.442,1.326-1.309Zm6.137,4.9a1.142,1.142,0,0,0-1.309-1.309H15.74a1.153,1.153,0,0,0-1.326,1.309v3.128A1.153,1.153,0,0,0,15.74,17h1.139a1.142,1.142,0,0,0,1.309-1.309Zm-7.395-1.972c0,.391-.068.476-.442.476H9.977c-.391,0-.442-.085-.442-.476V7.854c0-.374.051-.459.442-.459h.374c.374,0,.442.085.442.459ZM16.93,15.5c0,.374-.051.459-.442.459h-.357c-.391,0-.459-.085-.459-.459V12.75c0-.374.068-.459.459-.459h.357c.391,0,.442.085.442.459ZM15.077,6.358,10.13,17h1.258L16.352,6.358Z" transform="translate(221.107 8550.044)" fill="#fff"/>
    <g id="グループ_4321" data-name="グループ 4321" transform="translate(183.403 8620.855)">
      <rect id="長方形_3236" data-name="長方形 3236" width="79.396" height="53.221" rx="6" transform="translate(0)" fill="#f19917"/>
      <path id="パス_6614" data-name="パス 6614" d="M-17.825-10.642-19.27-1.411l-1.411-9.231h-1.581L-20.34,0h2.176l1.921-10.642Zm5.8,9.4V-4.879H-9.58V-6.12h-2.448V-9.4h2.958v-1.241h-4.505V0h4.624V-1.241ZM-4.514-9.4h1.5c.408,0,.51.085.51.493v2.89c0,.408-.1.493-.51.493h-1.5ZM-2.083,0H-.434L-2.117-4.335A1.287,1.287,0,0,0-.978-5.814V-9.146c0-.969-.476-1.5-1.581-1.5H-6.044V0h1.53V-4.3h.833ZM6.689-10.642h-5.1V-9.4H3.374V0H4.9V-9.4H6.689Zm4.216,9.4V-4.879h2.448V-6.12H10.906V-9.4h2.958v-1.241H9.359V0h4.624V-1.241ZM20-5.44l2.057-5.2H20.392L19.151-6.817l-1.224-3.825h-1.7l2.091,5.2L16.074,0h1.649l1.428-4.046L20.579,0h1.7ZM-8.87,9.5A9.353,9.353,0,0,1-7.5,12.75l1.14-.57A9.3,9.3,0,0,0-7.86,9Zm-2.94-2.2a2.326,2.326,0,0,1,.08-.31l-1.3-.13v.18a14.067,14.067,0,0,1-.26,2.02,20.539,20.539,0,0,1-2.13.21l.12,1.18a4.106,4.106,0,0,1,.41-.1l.91-.15c.32-.06.32-.06.47-.08a14.709,14.709,0,0,1-2.01,4.71l1.16.64a21.47,21.47,0,0,0,2.04-5.44c.23-.02.39-.03.6-.03.77,0,1,.27,1,1.19a8.885,8.885,0,0,1-.26,2.28c-.15.49-.31.68-.6.68a4.186,4.186,0,0,1-1.46-.4,3.756,3.756,0,0,1,.1.85c0,.1-.01.25-.02.44a4.636,4.636,0,0,0,1.54.3,1.266,1.266,0,0,0,1.11-.45,6.341,6.341,0,0,0,.77-3.64,2.426,2.426,0,0,0-.47-1.77,1.937,1.937,0,0,0-1.48-.53c-.18,0-.32.01-.62.02.03-.13.03-.13.06-.3.1-.54.17-.95.22-1.24Zm2.32.07A6.749,6.749,0,0,1-8.44,8.86l.7-.37A6.481,6.481,0,0,0-8.79,7.02Zm2.94.47A5.783,5.783,0,0,0-7.59,6.43l-.67.35A7.368,7.368,0,0,1-7.24,8.23Zm8.01.94a6.79,6.79,0,0,0,.44-.53c.29-.36.29-.36.31-.39a.584.584,0,0,0,.08-.1c.1-.11.1-.11.16-.17l-.55-.5a7.21,7.21,0,0,1-.98.04H-.89c.19-.29.31-.46.34-.5l-1.26-.22a4.1,4.1,0,0,1-.96,1.32A7.18,7.18,0,0,1-4.61,9.1a3.2,3.2,0,0,1,.53.96c.4-.25.54-.34.76-.5V12.9a8.106,8.106,0,0,1-.05,1.16,9.286,9.286,0,0,1,1.09-.05h.51a6.538,6.538,0,0,1-2.76.89,3.723,3.723,0,0,1,.62.98,9.087,9.087,0,0,0,1.94-.58,7.1,7.1,0,0,0,1.31-.75l-.57-.54H1.28l-.59.55a7.561,7.561,0,0,0,1.4.73,9.3,9.3,0,0,0,2.01.57,5.661,5.661,0,0,1,.56-1.01,8.593,8.593,0,0,1-2.31-.56,3.432,3.432,0,0,1-.58-.28h.72a9.008,9.008,0,0,1,1.08.05,7.68,7.68,0,0,1-.05-1.16V9.79a6.824,6.824,0,0,1,.05-1.04c-.36.02-.54.03-1.12.03Zm-3.84,0c.34-.3.5-.46.76-.73H.75a8.861,8.861,0,0,1-.58.73Zm.11.91H2.47v.54H-2.27Zm0,1.41H2.47v.54H-2.27Zm0,1.42H2.47v.54H-2.27ZM7.79,9.46V11.3a6.548,6.548,0,0,1-1.33.3l.21,1.12a2.43,2.43,0,0,1,.42-.15c.29-.09.29-.09.7-.22v2.1c0,.24-.06.29-.32.29a9.082,9.082,0,0,1-.94-.06,3.487,3.487,0,0,1,.23,1.06c.32.02.6.03.82.03.93,0,1.28-.26,1.28-.95V11.98c.43-.15.51-.18.97-.36v-.98c-.45.16-.56.2-.97.33V9.46h.37a4.259,4.259,0,0,1,.61.04V8.45a3.777,3.777,0,0,1-.6.04H8.86V7.66a5.547,5.547,0,0,1,.06-1.01H7.73a5.669,5.669,0,0,1,.06,1.02v.82H7.33a3.69,3.69,0,0,1-.78-.06V9.51a5.631,5.631,0,0,1,.78-.05Zm6.16,4.02a9.11,9.11,0,0,1,1.02.04c-.03-.37-.04-.65-.04-1.16V8.26c0-.59.01-.88.04-1.21a8.989,8.989,0,0,1-1.07.04H11.19a8.642,8.642,0,0,1-1.03-.04c.02.27.03.58.03,1.08v4.44c0,.43-.01.72-.03.95.3-.03.64-.04,1.01-.04Zm-2.7-5.41h2.59V9.8H11.25Zm0,2.69h2.59v1.75H11.25ZM9.33,15.5c.32-.03.67-.05,1.17-.05h3.99a9.817,9.817,0,0,1,1.16.06V14.38a9.291,9.291,0,0,1-1.15.06h-4a9.76,9.76,0,0,1-1.17-.06Z" transform="translate(37.705 24.289)" fill="#fff"/>
    </g>
    <path id="パス_6612" data-name="パス 6612" d="M-10.917-4.653H-12.7V-6.111a5.294,5.294,0,0,1,.036-.72h-1.08a5.013,5.013,0,0,1,.045.792v1.782c0,.207-.009.378-.027.576.216-.018.4-.027.648-.027h2.16V-.756h-2.115V-2.214a4.447,4.447,0,0,1,.045-.774h-1.089a7.48,7.48,0,0,1,.045.864V-.216a6.53,6.53,0,0,1-.054.9h1.053V.216h5.355V.684h1.053a5.683,5.683,0,0,1-.054-.9V-2.16a7.2,7.2,0,0,1,.045-.855H-7.722a4.789,4.789,0,0,1,.045.765V-.756H-9.9V-3.708h2.322c.216,0,.432.009.63.027a4.931,4.931,0,0,1-.027-.576V-6.048a5.173,5.173,0,0,1,.045-.783H-8.01a5.407,5.407,0,0,1,.036.711v1.467H-9.9V-6.624a5.792,5.792,0,0,1,.054-.891h-1.125a5.4,5.4,0,0,1,.054.891ZM-.063-6.192a1.446,1.446,0,0,1-.945,1.026,4.536,4.536,0,0,1-1.368.324l.324-.153-.27-.792a9.2,9.2,0,0,1-2.205.81l.351.927c.171-.081.261-.126.4-.18.666-.27.774-.315,1.3-.558a2.45,2.45,0,0,1,.378.576h-.468c-.414,0-.729-.009-.918-.027a8.562,8.562,0,0,1,.036.936V-1.53c0,.378-.018.738-.036.9.225-.018.54-.027.954-.027h.36a6.281,6.281,0,0,1-2.394.63,3.6,3.6,0,0,1,.549.8A7.277,7.277,0,0,0-1.17-.261l-.549-.4H.738l-.522.4A6.874,6.874,0,0,0,3.15.765a4.358,4.358,0,0,1,.558-.828A6.658,6.658,0,0,1,1.215-.657h.423c.378,0,.747.009.954.027a8.011,8.011,0,0,1-.036-.954V-3.249c0-.279,0-.54.009-.783a6.875,6.875,0,0,0,.819.18,3.224,3.224,0,0,1,.378-.882C2.124-4.824,1.2-5.3.918-6.192H2.3a2.683,2.683,0,0,1-.6.531,4.309,4.309,0,0,1,.828.342,5.144,5.144,0,0,0,.792-.927c.117-.171.135-.207.207-.306L3-6.966a4.841,4.841,0,0,1-.747.036H-.387a2.943,2.943,0,0,0,.189-.3,2.69,2.69,0,0,0,.153-.252L-.99-7.65A3.708,3.708,0,0,1-2.421-6.03a2.214,2.214,0,0,1,.6.594,6.065,6.065,0,0,0,.855-.756ZM-1.4-4.212A3.338,3.338,0,0,0-.387-4.581,2.1,2.1,0,0,0,.45-5.4,2.7,2.7,0,0,0,1.98-4.212H-1.4Zm-1.125.657H1.62v.342H-2.52Zm0,.918H1.62v.369H-2.52Zm0,.945H1.62v.333H-2.52Zm.261-4.95A8.592,8.592,0,0,0-3.717-7.47l-.585.684A6.08,6.08,0,0,1-2.871-5.9Zm12.69.918v.855H9.5a6.923,6.923,0,0,1-1-.054v.954c.279-.027.612-.045.99-.045h2.133v.765H9.495a6.679,6.679,0,0,1-.981-.045v.981a8.06,8.06,0,0,1,.963-.054h2.151V-.45c0,.2-.054.243-.333.243a8.018,8.018,0,0,1-1.008-.072A2.32,2.32,0,0,1,10.5.666c.621.009.621.009.7.009a2.522,2.522,0,0,0,.99-.144c.27-.126.36-.342.36-.864V-2.367h.117a4.893,4.893,0,0,1,.891.054v-.981a5.489,5.489,0,0,1-.891.045h-.117v-.765h.153a5.853,5.853,0,0,1,.882.045v-.954a6.643,6.643,0,0,1-.981.054H11.367v-.855h.99a6.529,6.529,0,0,1,.927.045v-.954a6.635,6.635,0,0,1-.936.054h-.981v-.243a4.785,4.785,0,0,1,.045-.675H10.377a4.023,4.023,0,0,1,.054.675v.243H9.639A6.547,6.547,0,0,1,8.7-6.633v.954a7.622,7.622,0,0,1,.963-.045ZM5.67-.909A8.2,8.2,0,0,1,5.616.162h.945V-.594H7.38v.45H8.3c-.018-.225-.027-.423-.027-.9V-6.192A6.753,6.753,0,0,1,8.3-7.083c-.216.018-.378.027-.783.027H6.426a7.8,7.8,0,0,1-.792-.027,8.437,8.437,0,0,1,.036.909ZM6.57-6.2h.81V-4.32H6.57Zm0,2.709h.81v2.025H6.57Zm4.239,2.61A6.907,6.907,0,0,0,9.63-2.259l-.765.5A6.875,6.875,0,0,1,10.017-.279ZM-13.674,9.534a4.611,4.611,0,0,1-.762-1.194A4.059,4.059,0,0,1-14.754,6.7a3.937,3.937,0,0,1,.312-1.59,4.676,4.676,0,0,1,.762-1.194h-.84a4.844,4.844,0,0,0-.66,1.182,4.246,4.246,0,0,0-.306,1.6,4.415,4.415,0,0,0,.318,1.656,4.806,4.806,0,0,0,.654,1.182ZM-9.4,4.83c.036-.1.06-.168.078-.222.144-.42.144-.42.192-.546l-.7-.12a3.521,3.521,0,0,1-.264.924,3.537,3.537,0,0,1-.426.786V5.076a1.613,1.613,0,0,1-.39.03h-.144V4.428a3,3,0,0,1,.036-.492h-.708a2.591,2.591,0,0,1,.042.492v.678H-11.9c.018-.222.024-.252.048-.612l-.6-.066a1.9,1.9,0,0,1,.012.252,5.61,5.61,0,0,1-.078.846,3.362,3.362,0,0,1-.228.834,1.878,1.878,0,0,1,.546.324,6.93,6.93,0,0,0,.228-.972h.3V7.044a3.707,3.707,0,0,1-1,.234l.138.714a2.505,2.505,0,0,1,.318-.126c.114-.036.294-.1.54-.186V8.814a4.785,4.785,0,0,1-.042.69h.708a6.311,6.311,0,0,1-.036-.69V7.452c.2-.084.288-.12.57-.24l-.006-.6a4.891,4.891,0,0,1-.564.222V5.712h.144a2.98,2.98,0,0,1,.336.012,3.211,3.211,0,0,1-.288.288,1.831,1.831,0,0,1,.5.456,3.844,3.844,0,0,0,.714-1.056h.282a3.786,3.786,0,0,1-.768,1.5,2.519,2.519,0,0,1-.708.606,1.4,1.4,0,0,1,.444.522A4.547,4.547,0,0,0-8.784,5.412h.246A6.47,6.47,0,0,1-9.114,7.23a4.193,4.193,0,0,1-1.56,1.7,1.417,1.417,0,0,1,.5.492A5.033,5.033,0,0,0-8.61,7.584a7.409,7.409,0,0,0,.642-2.172H-7.9A22.3,22.3,0,0,1-8.07,8.25c-.066.426-.156.552-.4.552a3.594,3.594,0,0,1-.744-.1,1.479,1.479,0,0,1,.156.678c.294.024.444.036.576.036.528,0,.786-.138.924-.5a12.988,12.988,0,0,0,.282-3.36,5.41,5.41,0,0,1,.036-.756,3.177,3.177,0,0,1-.5.024ZM-2.79,5.2h-.594c.048-.15.072-.228.132-.414s.066-.222.108-.36l-.66-.168a3.254,3.254,0,0,1-.186.762,4.738,4.738,0,0,1-.648,1.236,2.244,2.244,0,0,1,.534.432,4.361,4.361,0,0,0,.486-.876h.828V6.93H-3.816a4.948,4.948,0,0,1-.672-.036v.69a5.135,5.135,0,0,1,.672-.036H-2.79V8.8a4.464,4.464,0,0,1-.042.69h.744A3.707,3.707,0,0,1-2.13,8.8V7.548h.948a5.541,5.541,0,0,1,.66.036v-.69a5.135,5.135,0,0,1-.672.036H-2.13V5.808h.756c.192,0,.372.012.642.036V5.16A4.336,4.336,0,0,1-1.38,5.2h-.75V4.644a3.175,3.175,0,0,1,.042-.636h-.744a3.76,3.76,0,0,1,.042.63ZM-5.43,8.8a5.126,5.126,0,0,1-.036.7h.72c-.018-.228-.03-.426-.03-.7V5.4a7.227,7.227,0,0,0,.42-1.05c.054-.15.066-.18.1-.27l-.678-.192a3.707,3.707,0,0,1-.216.78,5.167,5.167,0,0,1-1.032,1.7,2.5,2.5,0,0,1,.27.738,3.256,3.256,0,0,0,.5-.7c-.012.264-.018.456-.018.66ZM1.878,4.914a3.177,3.177,0,0,1,.246.606l.588-.18a2.814,2.814,0,0,0-.21-.426h.306c.1,0,.24.006.324.012-.048.048-.072.066-.132.12a1.58,1.58,0,0,1,.318.258H2.88a1.375,1.375,0,0,1,.036.348H1.758a4.851,4.851,0,0,1-.666-.03v.594a5.939,5.939,0,0,1,.66-.03H2.916v.39H1.308a5,5,0,0,1-.69-.036v.624a6.072,6.072,0,0,1,.7-.036H4.134v.39H1.35a5.712,5.712,0,0,1-.69-.036V8.1a5.544,5.544,0,0,1,.7-.036h.732l-.45.348a4.265,4.265,0,0,1,.828.846l.54-.414a6.232,6.232,0,0,0-.828-.78H4.134v.678c0,.12-.048.144-.264.144a6.356,6.356,0,0,1-.75-.042,2.256,2.256,0,0,1,.18.624c.222.006.324.012.45.012a2.526,2.526,0,0,0,.708-.06c.222-.078.312-.234.312-.522V8.064h.468a5.717,5.717,0,0,1,.7.036V7.482a5.819,5.819,0,0,1-.7.036H4.77v-.39H5.3a5.643,5.643,0,0,1,.69.036V6.54a5.1,5.1,0,0,1-.7.036H3.54v-.39H4.9a4.994,4.994,0,0,1,.648.036v-.6a4.554,4.554,0,0,1-.654.03H3.54a1.579,1.579,0,0,1,.024-.306,3.2,3.2,0,0,0,.36-.426h.33a3.567,3.567,0,0,1,.294.606l.594-.186a3,3,0,0,0-.234-.42h.468a4.7,4.7,0,0,1,.63.03V4.332a4.521,4.521,0,0,1-.66.036h-1.1c.078-.156.12-.246.132-.27l-.6-.162a2.251,2.251,0,0,1-.534.882V4.326a3.587,3.587,0,0,1-.582.036H1.9c.042-.072.042-.072.168-.318l-.648-.12A1.728,1.728,0,0,1,1.2,4.41a2.438,2.438,0,0,1-.714.744,2.366,2.366,0,0,1,.45.432,3.53,3.53,0,0,0,.612-.672Zm9.492.78v-.81h.624c.294,0,.534.012.708.03V4.248a5.524,5.524,0,0,1-.732.036H9.462a5.179,5.179,0,0,1-.708-.036v.666c.192-.018.414-.03.708-.03h.294v.81H9.192A4.713,4.713,0,0,1,8.64,5.67a4.233,4.233,0,0,1,.03.576V8.814a5.841,5.841,0,0,1-.036.66h.672v-.33H11.85v.33h.684a7.061,7.061,0,0,1-.036-.75V6.234a4.872,4.872,0,0,1,.024-.564,4.43,4.43,0,0,1-.54.024Zm-.576,0h-.462v-.81h.462ZM9.756,6.27V8.562h-.48V6.27Zm.576,0h.462V8.562h-.462Zm1.038,0h.5V8.562h-.5ZM7.626,8.808a6.3,6.3,0,0,1-.036.7h.69a5.184,5.184,0,0,1-.03-.7V5.466a8.545,8.545,0,0,0,.39-.99l.114-.33-.648-.264a3.508,3.508,0,0,1-.222.828,4.545,4.545,0,0,1-.9,1.56,3.722,3.722,0,0,1,.258.714,3.881,3.881,0,0,0,.4-.618c-.018.3-.018.408-.018.654Zm6.894.726a5.012,5.012,0,0,0,.654-1.182A4.506,4.506,0,0,0,15.486,6.7a4.246,4.246,0,0,0-.306-1.6,4.789,4.789,0,0,0-.654-1.182H13.68a4.9,4.9,0,0,1,.768,1.194,3.9,3.9,0,0,1,.306,1.59,4.039,4.039,0,0,1-.318,1.644,4.611,4.611,0,0,1-.762,1.194Z" transform="translate(147 8553.205)" fill="#211613"/>
    <path id="パス_6613" data-name="パス 6613" d="M-11.63-7.54h-2.54a8.634,8.634,0,0,1-1.21-.06v1.06a9.556,9.556,0,0,1,1.18-.05h2.57v.66h-2.13a6.384,6.384,0,0,1-1.01-.05v1.03a9.026,9.026,0,0,1,1.01-.04h5.47a8.774,8.774,0,0,1,1.02.04V-5.98a6.451,6.451,0,0,1-1.02.05h-2.23v-.66h2.73a11.538,11.538,0,0,1,1.17.05V-7.6a8.566,8.566,0,0,1-1.2.06h-2.7v-.12a3.084,3.084,0,0,1,.06-.77h-1.22a4.117,4.117,0,0,1,.05.77Zm-2.63,5.26V-3.44H-7.8v1.16h1.17a3.917,3.917,0,0,1-.05-.73v-.73a4.529,4.529,0,0,1,.04-.71c-.35.03-.6.04-1.08.04h-6.61a10.256,10.256,0,0,1-1.07-.04,5.314,5.314,0,0,1,.04.74V-3a4.071,4.071,0,0,1-.05.72Zm1.45-.85a1.907,1.907,0,0,1,.03.32,3.369,3.369,0,0,1-.16.94A2.192,2.192,0,0,1-14.23-.63a4.311,4.311,0,0,1-1.37.37A3.927,3.927,0,0,1-14.88.85,6.222,6.222,0,0,0-13.8.47a4.6,4.6,0,0,0,1.18-.82,3.71,3.71,0,0,0,.97-2.29,2.28,2.28,0,0,1,.06-.43Zm3.26.81A4.1,4.1,0,0,1-9.5-3.1h-1.2a5.635,5.635,0,0,1,.04.83V-.22c0,.73.27.86,1.79.86C-7.72.64-7.25.57-7.02.35c.27-.25.42-.79.5-1.8a3.447,3.447,0,0,1-1.07-.34A3.091,3.091,0,0,1-7.77-.55c-.09.13-.31.17-1.01.17-.68,0-.77-.04-.77-.3ZM-2.46-6v1.35H-3.51a7.194,7.194,0,0,1-.99-.04v1.07a6.751,6.751,0,0,1,.98-.05h.75A14.385,14.385,0,0,1-3.8-1.01c-.26.02-.48.03-.61.03h-.15L-4.38.17a4.911,4.911,0,0,1,.5-.1C-1.85-.28-1.66-.31-.52-.58c.08.23.14.38.28.81L.71-.32A18.2,18.2,0,0,0-.63-3.1l-.88.47A8.983,8.983,0,0,1-.89-1.47c-.55.13-.94.2-1.76.32a16.938,16.938,0,0,0,.86-2.1c.1-.28.1-.28.14-.42H-.49a6.4,6.4,0,0,1,1,.05V-4.69a7.371,7.371,0,0,1-1,.04h-.92V-6h.8a7.683,7.683,0,0,1,.99.04V-7.03a6.023,6.023,0,0,1-.99.05h-.8v-.38a5.085,5.085,0,0,1,.05-.92H-2.52a5.682,5.682,0,0,1,.06.93v.37h-.78a5.757,5.757,0,0,1-.96-.05v1.07A7.263,7.263,0,0,1-3.25-6ZM4.35-7.02a7.747,7.747,0,0,1,.04-.92,6.956,6.956,0,0,1-.87.04H1.66a8.042,8.042,0,0,1-.9-.04c.02.24.03.44.03.82V-.3A8.667,8.667,0,0,1,.73.87H1.89A8.887,8.887,0,0,1,1.84-.31V-6.93H3.3v5.2c0,.23-.07.28-.37.28a5.507,5.507,0,0,1-.8-.07A3.285,3.285,0,0,1,2.36-.41c.22.01.32.01.48.01,1.22,0,1.51-.21,1.51-1.09Zm7.74.66v.95H11.06a7.692,7.692,0,0,1-1.11-.06v1.06c.31-.03.68-.05,1.1-.05h2.37v.85H11.05a7.421,7.421,0,0,1-1.09-.05v1.09a8.956,8.956,0,0,1,1.07-.06h2.39V-.5c0,.22-.06.27-.37.27a8.909,8.909,0,0,1-1.12-.08A2.578,2.578,0,0,1,12.17.74c.69.01.69.01.78.01a2.8,2.8,0,0,0,1.1-.16c.3-.14.4-.38.4-.96V-2.63h.13a5.437,5.437,0,0,1,.99.06V-3.66a6.1,6.1,0,0,1-.99.05h-.13v-.85h.17a6.5,6.5,0,0,1,.98.05V-5.47a7.381,7.381,0,0,1-1.09.06H13.13v-.95h1.1a7.254,7.254,0,0,1,1.03.05V-7.37a7.373,7.373,0,0,1-1.04.06H13.13v-.27a5.316,5.316,0,0,1,.05-.75H12.03a4.469,4.469,0,0,1,.06.75v.27h-.88a7.275,7.275,0,0,1-1.04-.06v1.06a8.468,8.468,0,0,1,1.07-.05ZM6.8-1.01A9.11,9.11,0,0,1,6.74.18H7.79V-.66H8.7v.5H9.72c-.02-.25-.03-.47-.03-1V-6.88a7.5,7.5,0,0,1,.03-.99c-.24.02-.42.03-.87.03H7.64a8.663,8.663,0,0,1-.88-.03A9.375,9.375,0,0,1,6.8-6.86Zm1-5.88h.9V-4.8H7.8Zm0,3.01h.9v2.25H7.8Zm4.71,2.9A7.674,7.674,0,0,0,11.2-2.51l-.85.56A7.639,7.639,0,0,1,11.63-.31Z" transform="translate(150.107 8653.359)" fill="#211613"/>
    <line id="線_1140" data-name="線 1140" x2="78.96" y2="39.916" transform="translate(183.621 8580.939)" fill="none" stroke="#707070" stroke-width="1" stroke-dasharray="3"/>
    <g id="グループ_4324" data-name="グループ 4324" transform="translate(183.404 8682.867)">
      <g id="合体_5" data-name="合体 5" fill="#fff">
        <path d="M 259.5968933105469 55.33871841430664 L 9.998991966247559 55.33871841430664 C 4.760725021362305 55.33871841430664 0.4990917146205902 51.07708358764648 0.4990917146205902 45.83881759643555 L 0.4990917146205902 18.28888511657715 C 0.4990917146205902 13.05061817169189 4.760725021362305 8.788985252380371 9.998991966247559 8.788985252380371 L 36.12512588500977 8.788985252380371 L 36.41752624511719 8.788985252380371 L 36.56089019775391 8.53411865234375 L 40.7879524230957 1.019835114479065 L 45.01435852050781 8.534085273742676 L 45.1577262878418 8.788985252380371 L 45.45015716552734 8.788985252380371 L 259.5968933105469 8.788985252380371 C 264.8351440429688 8.788985252380371 269.0968017578125 13.05061817169189 269.0968017578125 18.28888511657715 L 269.0968017578125 45.83881759643555 C 269.0968017578125 51.07708358764648 264.8351440429688 55.33871841430664 259.5968933105469 55.33871841430664 Z" stroke="none"/>
        <path d="M 259.5968933105469 54.83870697021484 C 264.5594482421875 54.83870697021484 268.5968017578125 50.80138778686523 268.5968017578125 45.83881759643555 L 268.5968017578125 18.28888702392578 C 268.5968017578125 13.32631587982178 264.5594482421875 9.288994789123535 259.5968933105469 9.288994789123535 L 44.86531448364258 9.288994789123535 L 40.78793334960938 2.039751291275024 L 36.70995712280273 9.288994789123535 L 9.998993873596191 9.288994789123535 C 5.036422729492188 9.288994789123535 0.9991012215614319 13.32631587982178 0.9991012215614319 18.28888702392578 L 0.9991012215614319 45.83881759643555 C 0.9991012215614319 50.80138778686523 5.036422729492188 54.83870697021484 9.998993873596191 54.83870697021484 L 259.5968933105469 54.83870697021484 M 259.5968933105469 55.83870697021484 L 9.998993873596191 55.83870697021484 C 4.476601123809814 55.83870697021484 -0.0008987688343040645 51.36210250854492 -0.0008987688343040645 45.83881759643555 L -0.0008987688343040645 18.28888702392578 C -0.0008987688343040645 12.76560115814209 4.476601123809814 8.288994789123535 9.998993873596191 8.288994789123535 L 36.12513732910156 8.288994789123535 L 40.78799438476562 -5.565098490478704e-06 L 45.45017242431641 8.288994789123535 L 259.5968933105469 8.288994789123535 C 265.1193237304688 8.288994789123535 269.5968017578125 12.76560115814209 269.5968017578125 18.28888702392578 L 269.5968017578125 45.83881759643555 C 269.5968017578125 51.36210250854492 265.1193237304688 55.83870697021484 259.5968933105469 55.83870697021484 Z" stroke="none" fill="#e65035"/>
      </g>
      <path id="パス_6616" data-name="パス 6616" d="M-76.3-6.032h-2.032A6.907,6.907,0,0,1-79.3-6.08v.848a7.645,7.645,0,0,1,.944-.04H-76.3v.528h-1.7a5.107,5.107,0,0,1-.808-.04v.824a7.221,7.221,0,0,1,.808-.032h4.376a7.019,7.019,0,0,1,.816.032v-.824a5.16,5.16,0,0,1-.816.04h-1.784v-.528h2.184a9.23,9.23,0,0,1,.936.04V-6.08a6.853,6.853,0,0,1-.96.048h-2.16v-.1a2.467,2.467,0,0,1,.048-.616h-.976a3.294,3.294,0,0,1,.04.616Zm-2.1,4.208v-.928h5.168v.928h.936a3.133,3.133,0,0,1-.04-.584v-.584a3.623,3.623,0,0,1,.032-.568c-.28.024-.48.032-.864.032h-5.288a8.2,8.2,0,0,1-.856-.032,4.252,4.252,0,0,1,.032.592V-2.4a3.257,3.257,0,0,1-.04.576Zm1.16-.68a1.525,1.525,0,0,1,.024.256,2.7,2.7,0,0,1-.128.752A1.754,1.754,0,0,1-78.384-.5a3.449,3.449,0,0,1-1.1.3A3.142,3.142,0,0,1-78.9.68a4.978,4.978,0,0,0,.864-.3A3.677,3.677,0,0,0-77.1-.28a2.968,2.968,0,0,0,.776-1.832,1.824,1.824,0,0,1,.048-.344Zm2.608.648a3.283,3.283,0,0,1,.04-.624h-.96a4.508,4.508,0,0,1,.032.664v1.64c0,.584.216.688,1.432.688.92,0,1.3-.056,1.48-.232.216-.2.336-.632.4-1.44a2.757,2.757,0,0,1-.856-.272,2.473,2.473,0,0,1-.144.992c-.072.1-.248.136-.808.136-.544,0-.616-.032-.616-.24ZM-69.768-4.8v1.08h-.84a5.755,5.755,0,0,1-.792-.032V-2.9a5.4,5.4,0,0,1,.784-.04h.6A11.508,11.508,0,0,1-70.84-.808c-.208.016-.384.024-.488.024h-.12l.144.92a3.929,3.929,0,0,1,.4-.08c1.624-.28,1.776-.3,2.688-.52.064.184.112.3.224.648l.76-.44A14.563,14.563,0,0,0-68.3-2.48l-.7.376a7.186,7.186,0,0,1,.5.928c-.44.1-.752.16-1.408.256a13.551,13.551,0,0,0,.688-1.68c.08-.224.08-.224.112-.336h.928a5.117,5.117,0,0,1,.8.04v-.856a5.9,5.9,0,0,1-.8.032h-.736V-4.8h.64a6.147,6.147,0,0,1,.792.032v-.856a4.819,4.819,0,0,1-.792.04h-.64v-.3a4.067,4.067,0,0,1,.04-.736h-.928a4.546,4.546,0,0,1,.048.744v.3h-.624a4.606,4.606,0,0,1-.768-.04v.856A5.81,5.81,0,0,1-70.4-4.8Zm5.448-.816a6.2,6.2,0,0,1,.032-.736,5.565,5.565,0,0,1-.7.032h-1.488a6.434,6.434,0,0,1-.72-.032c.016.192.024.352.024.656V-.24A6.934,6.934,0,0,1-67.216.7h.928a7.11,7.11,0,0,1-.04-.944v-5.3h1.168v4.16c0,.184-.056.224-.3.224a4.405,4.405,0,0,1-.64-.056,2.628,2.628,0,0,1,.184.888c.176.008.256.008.384.008.976,0,1.208-.168,1.208-.872Zm1.872,1.168V-2.96a5.3,5.3,0,0,1-.984.248l.128.872c.056-.024.344-.12.856-.3V-.416c0,.208-.056.256-.256.256a3.7,3.7,0,0,1-.7-.08,2.911,2.911,0,0,1,.184.848c.232.016.4.024.632.024.752,0,.976-.176.976-.784v-2.32c.32-.12.328-.128.6-.248v-.8c-.336.144-.416.176-.6.248V-4.448h.24a3.329,3.329,0,0,1,.432.024v-.832a2.3,2.3,0,0,1-.44.032h-.232v-.664a5.362,5.362,0,0,1,.04-.808H-62.5a5.283,5.283,0,0,1,.048.816v.656h-.336a2.451,2.451,0,0,1-.584-.048v.864a4.646,4.646,0,0,1,.576-.04Zm2.7,3.7a3.311,3.311,0,0,1-1.8.7,3.134,3.134,0,0,1,.472.736,4.552,4.552,0,0,0,2.008-.936l-.656-.5h1.944l-.616.5A5.6,5.6,0,0,0-56.424.7a3.825,3.825,0,0,1,.456-.76,4.659,4.659,0,0,1-1.28-.392,3.566,3.566,0,0,1-.5-.3h.536c.328,0,.448,0,.776.024a5.819,5.819,0,0,1-.024-.728V-3.616a6.78,6.78,0,0,1,.024-.768,5.026,5.026,0,0,1-.736.032H-60.08c-.376,0-.536-.008-.736-.024.016.208.024.408.024.76v2.168c0,.344-.008.52-.024.728.328-.024.44-.024.768-.024Zm-.232-2.976h2.712v.368h-2.712Zm0,.968h2.712v.368h-2.712Zm0,.96h2.712v.384h-2.712Zm-.584-3.448a3.918,3.918,0,0,1-.032.56c.224-.016.44-.024.752-.024h2.424c.32,0,.552.008.768.024a3.951,3.951,0,0,1-.024-.552V-5.92a3.669,3.669,0,0,1,.024-.552,6.493,6.493,0,0,1-.784.032h-2.44a5.661,5.661,0,0,1-.72-.032,4.186,4.186,0,0,1,.032.568Zm.816-.528h2.24v.44h-2.24ZM-50.1-4.4A7.483,7.483,0,0,1-49-1.8l.912-.456a7.44,7.44,0,0,0-1.2-2.544Zm-2.352-1.76a1.861,1.861,0,0,1,.064-.248l-1.04-.1v.144a11.253,11.253,0,0,1-.208,1.616,16.431,16.431,0,0,1-1.7.168l.1.944a3.285,3.285,0,0,1,.328-.08l.728-.12c.256-.048.256-.048.376-.064A11.767,11.767,0,0,1-55.416-.136l.928.512a17.176,17.176,0,0,0,1.632-4.352c.184-.016.312-.024.48-.024.616,0,.8.216.8.952a7.108,7.108,0,0,1-.208,1.824c-.12.392-.248.544-.48.544A3.349,3.349,0,0,1-53.432-1a3,3,0,0,1,.08.68c0,.08-.008.2-.016.352a3.709,3.709,0,0,0,1.232.24,1.013,1.013,0,0,0,.888-.36A5.072,5.072,0,0,0-50.632-3a1.94,1.94,0,0,0-.376-1.416,1.55,1.55,0,0,0-1.184-.424c-.144,0-.256.008-.5.016.024-.1.024-.1.048-.24.08-.432.136-.76.176-.992Zm1.856.056a5.4,5.4,0,0,1,.84,1.192l.56-.3a5.185,5.185,0,0,0-.84-1.176Zm2.352.376a4.626,4.626,0,0,0-.832-1.128l-.536.28a5.894,5.894,0,0,1,.816,1.16ZM-45.176-2.7c0,.088,0,.144-.008.248h-1.144a4.832,4.832,0,0,1-.84-.048v.856a5.111,5.111,0,0,1,.84-.048H-45.3a1.818,1.818,0,0,1-.568.888,3.308,3.308,0,0,1-1.48.712,2.92,2.92,0,0,1,.568.784A3.779,3.779,0,0,0-44.92-.544a2.813,2.813,0,0,0,.5-1.152h1.032V-.144c0,.56.256.7,1.344.7,1.536,0,1.68-.12,1.856-1.472a2.73,2.73,0,0,1-.864-.28,1.871,1.871,0,0,1-.144.8c-.088.112-.28.152-.72.152a1.85,1.85,0,0,1-.512-.04c-.12-.032-.128-.048-.128-.216V-1.7h1.272a6.1,6.1,0,0,1,.84.048V-2.5a4.778,4.778,0,0,1-.84.048H-42.56V-3.32a6.449,6.449,0,0,1,.768.032v-.344a8.018,8.018,0,0,0,1.32.72,3.263,3.263,0,0,1,.448-.792,7.1,7.1,0,0,1-1.28-.608,6.2,6.2,0,0,0,.72-.736c.16-.176.176-.2.224-.248l-.736-.416a4.717,4.717,0,0,1-.832.968c-.168-.128-.256-.2-.472-.384a8.262,8.262,0,0,0,.592-.6c.184-.216.288-.336.312-.368l-.736-.408-.064.1a1.4,1.4,0,0,1-.168.232,4.206,4.206,0,0,1-.472.512,1.969,1.969,0,0,1-.5-.872,4.606,4.606,0,0,1-.688.032H-45.6a4.571,4.571,0,0,1-.664-.04V-5.7l-.256-.208-.656.488a5.48,5.48,0,0,1,1.12,1.048,6.862,6.862,0,0,1-1.528.776,3.027,3.027,0,0,1,.472.736A7.887,7.887,0,0,0-45.7-3.64v.352c.2-.016.288-.024.536-.032Zm.856-.616h.928v.864h-.936V-2.64Zm-.288-2.416a5.174,5.174,0,0,1-.784.856,6.883,6.883,0,0,0-.872-.824,3.561,3.561,0,0,1,.488-.032Zm-.3,1.664h-.216A6.68,6.68,0,0,0-43.776-5.52a6.7,6.7,0,0,0,1.36,1.448h-2.5Zm8.752-.28V-2.88H-37.4a7.341,7.341,0,0,1-.96-.048v.88a8.391,8.391,0,0,1,.968-.048h1.232V-.4h-2.056a9.38,9.38,0,0,1-1.112-.056V.456A10.288,10.288,0,0,1-38.192.4h4.9a9.326,9.326,0,0,1,1.088.056V-.456A8.769,8.769,0,0,1-33.32-.4h-1.92V-2.1h1.384a8.893,8.893,0,0,1,.984.048v-.88a8.3,8.3,0,0,1-.984.048H-35.24V-4.352h1.688c.384,0,.712.016,1.056.048v-.88c-.328.032-.672.048-1.08.048H-35.24v-.616a7.459,7.459,0,0,1,.048-.952h-1.024a6.523,6.523,0,0,1,.056.96v.608h-1.3q.156-.42.216-.6A1.917,1.917,0,0,1-37.168-6a1.264,1.264,0,0,0,.072-.208l-.912-.224a4.342,4.342,0,0,1-.176.744,5.8,5.8,0,0,1-1.352,2.336,2.427,2.427,0,0,1,.656.68,7.068,7.068,0,0,0,1.088-1.68Zm5.992-2.04a3.979,3.979,0,0,1,.032.544c0,.112,0,.28-.008.52-.048,2.008-.064,2.808-.064,3.224,0,1.072.232,1.688.784,2.056a2.608,2.608,0,0,0,1.4.352,3.028,3.028,0,0,0,2.4-1.016,4.928,4.928,0,0,0,.952-2.04,3.455,3.455,0,0,1-.968-.616,5.363,5.363,0,0,1-.368,1.344A2.058,2.058,0,0,1-27.944-.656a1.267,1.267,0,0,1-1.072-.416,2.223,2.223,0,0,1-.208-1.288c0-.568.048-2.192.08-2.936a7.313,7.313,0,0,1,.1-1.08Zm6.656,1.872a11.613,11.613,0,0,1,1.328-.16c1.736-.128,2.048-.152,2.7-.248a3.526,3.526,0,0,0-1.112.8,2.82,2.82,0,0,0-.76,1.888A2.14,2.14,0,0,0-20.216-.312a4.813,4.813,0,0,0,1.872.528,1.7,1.7,0,0,1,.272.048l.144-1.088c-.08.008-.152.008-.16.008a4.855,4.855,0,0,1-1.192-.208,1.343,1.343,0,0,1-1.064-1.3,2.6,2.6,0,0,1,1.616-2.136A3.578,3.578,0,0,1-17.144-4.9a1.239,1.239,0,0,1,.168.008l-.056-1.024a4.517,4.517,0,0,1-.92.08c-2.216.1-3.544.176-3.992.2-1.176.08-1.176.08-1.32.08-.04,0-.128,0-.3-.008Zm8.144,1.952a1.355,1.355,0,0,1,.3.048c.32.072.632.12,1.112.184a5.464,5.464,0,0,0-.04.68c0,1.288.792,1.984,2.248,1.984A2.874,2.874,0,0,0-9.936-.2a1.9,1.9,0,0,0,.768-1.5,2.488,2.488,0,0,0-.344-1.176,3.074,3.074,0,0,0-.376-.5,2.956,2.956,0,0,1-.992.2,1.863,1.863,0,0,1,.72,1.352c0,.784-.584,1.232-1.6,1.232a1.455,1.455,0,0,1-.992-.3,1,1,0,0,1-.3-.824,5.674,5.674,0,0,1,.04-.568c.312.016.384.016.512.016a11.651,11.651,0,0,0,1.2-.072,1.028,1.028,0,0,1,.24-.024l.024-.92a6.4,6.4,0,0,1-1.528.16c-.088,0-.152,0-.392-.008.048-.384.072-.544.152-1.128.344.008.416.008.5.008.288,0,.544-.016,1.12-.064.176-.016.216-.024.32-.032l.032-.936a7.947,7.947,0,0,1-1.824.168A6.5,6.5,0,0,1-12.4-6.464l-1.064-.1a.331.331,0,0,1,.008.08,9.416,9.416,0,0,1-.16,1.328,6.07,6.07,0,0,1-1.448-.288l-.08.88.272.056a10.493,10.493,0,0,0,1.144.2c-.04.3-.112.832-.144,1.12a5.246,5.246,0,0,1-1.408-.3ZM-4.632-3.8H-6.568A5.065,5.065,0,0,1-7.4-3.848v.912a7.925,7.925,0,0,1,.824-.032H-1.96V-2.2H-6.376a6.017,6.017,0,0,1-.776-.032v.9a6.279,6.279,0,0,1,.768-.032H-1.96v.856H-6.632a5.656,5.656,0,0,1-.832-.04V.36A4.454,4.454,0,0,1-6.592.312h4.616V.7h.928A7.031,7.031,0,0,1-1.1-.208v-2.96a5.478,5.478,0,0,1,.032-.672,3.86,3.86,0,0,1-.64.04H-3.736V-5.944a5.149,5.149,0,0,1,.048-.792H-4.68a5.445,5.445,0,0,1,.048.792ZM-7.376-5.92A9.1,9.1,0,0,1-6.144-3.928l.784-.464a9.773,9.773,0,0,0-1.248-1.96Zm5.52-.456A6.628,6.628,0,0,1-3-4.384l.744.464A9.56,9.56,0,0,0-1.008-5.984ZM2.2-2.472a4.391,4.391,0,0,0,1.032.9,3.412,3.412,0,0,1,.44-.784A4.717,4.717,0,0,1,2.4-3.368a6.573,6.573,0,0,0,.8-1.368,2.224,2.224,0,0,1,.176-.336l-.384-.416a2.914,2.914,0,0,1-.464.024H2.2V-6.12a3.41,3.41,0,0,1,.048-.624H1.28a3.673,3.673,0,0,1,.048.608v.672h-.4A4.885,4.885,0,0,1,.3-5.5v.888A5.478,5.478,0,0,1,.968-4.64h1.3A4.753,4.753,0,0,1,1.4-3.408,5.518,5.518,0,0,1,.024-2.328,3.1,3.1,0,0,1,.432-1.5a5.391,5.391,0,0,0,.888-.68V-.168a4.786,4.786,0,0,1-.048.832H2.24A5.681,5.681,0,0,1,2.2-.152ZM5.592-3.656H6.44c.28,0,.528.016.784.04v-.9a5.2,5.2,0,0,1-.784.04H5.592V-5.888a4.69,4.69,0,0,1,.056-.832h-1a5.662,5.662,0,0,1,.056.832V-4.48H4.1a5.4,5.4,0,0,1-.784-.04v.9c.256-.024.512-.04.784-.04h.6V-.528H3.832a7.254,7.254,0,0,1-.92-.048V.392a6.452,6.452,0,0,1,.9-.056H6.552a6.569,6.569,0,0,1,.912.056V-.576a6.862,6.862,0,0,1-.912.048h-.96Zm6.832-1.472a1.748,1.748,0,0,1,.808.24,1.982,1.982,0,0,1,.984,1.776,2.24,2.24,0,0,1-1.112,2,4.252,4.252,0,0,1-1.592.44A2.552,2.552,0,0,1,12,.264a5.23,5.23,0,0,0,1.256-.336A3.082,3.082,0,0,0,15.2-3.056a2.883,2.883,0,0,0-3.168-2.968A3.591,3.591,0,0,0,9.28-4.9,3.436,3.436,0,0,0,8.4-2.576C8.4-1.288,9.056-.36,9.968-.36c.656,0,1.168-.472,1.624-1.5A11.573,11.573,0,0,0,12.424-5.128Zm-.976.008a10.543,10.543,0,0,1-.664,2.7c-.288.688-.56,1.024-.824,1.024-.352,0-.632-.52-.632-1.176a2.678,2.678,0,0,1,1.088-2.16A2.036,2.036,0,0,1,11.448-5.12Zm7.848.984H17.712v-1.3a4.706,4.706,0,0,1,.032-.64h-.96a4.456,4.456,0,0,1,.04.7v1.584c0,.184-.008.336-.024.512.192-.016.36-.024.576-.024H19.3V-.672h-1.88v-1.3a3.953,3.953,0,0,1,.04-.688h-.968a6.649,6.649,0,0,1,.04.768v1.7a5.8,5.8,0,0,1-.048.8h.936V.192h4.76V.608h.936a5.052,5.052,0,0,1-.048-.8V-1.92a6.4,6.4,0,0,1,.04-.76h-.968a4.257,4.257,0,0,1,.04.68V-.672H20.2V-3.3h2.064c.192,0,.384.008.56.024a4.383,4.383,0,0,1-.024-.512V-5.376a4.6,4.6,0,0,1,.04-.7h-.96a4.806,4.806,0,0,1,.032.632v1.3H20.2V-5.888a5.149,5.149,0,0,1,.048-.792h-1a4.8,4.8,0,0,1,.048.792ZM28.144-5.5a1.285,1.285,0,0,1-.84.912,4.032,4.032,0,0,1-1.216.288l.288-.136-.24-.7a8.179,8.179,0,0,1-1.96.72l.312.824c.152-.072.232-.112.352-.16.592-.24.688-.28,1.152-.5a2.178,2.178,0,0,1,.336.512h-.416c-.368,0-.648-.008-.816-.024a7.611,7.611,0,0,1,.032.832V-1.36c0,.336-.016.656-.032.8.2-.016.48-.024.848-.024h.32a5.583,5.583,0,0,1-2.128.56,3.2,3.2,0,0,1,.488.712,6.468,6.468,0,0,0,2.536-.92l-.488-.352h2.184l-.464.352A6.111,6.111,0,0,0,31,.68a3.874,3.874,0,0,1,.5-.736A5.918,5.918,0,0,1,29.28-.584h.376c.336,0,.664.008.848.024a7.121,7.121,0,0,1-.032-.848v-1.48c0-.248,0-.48.008-.7a6.111,6.111,0,0,0,.728.16,2.866,2.866,0,0,1,.336-.784c-1.456-.08-2.28-.5-2.528-1.3h1.232a2.385,2.385,0,0,1-.536.472,3.83,3.83,0,0,1,.736.3,4.573,4.573,0,0,0,.7-.824c.1-.152.12-.184.184-.272l-.472-.368a4.3,4.3,0,0,1-.664.032H27.856a2.615,2.615,0,0,0,.168-.264,2.391,2.391,0,0,0,.136-.224L27.32-6.8a3.3,3.3,0,0,1-1.272,1.44,1.968,1.968,0,0,1,.536.528,5.392,5.392,0,0,0,.76-.672ZM26.96-3.744a2.967,2.967,0,0,0,.9-.328A1.862,1.862,0,0,0,28.6-4.8a2.4,2.4,0,0,0,1.36,1.056h-3Zm-1,.584h3.68v.3H25.96Zm0,.816h3.68v.328H25.96Zm0,.84h3.68v.3H25.96Zm.232-4.4a7.637,7.637,0,0,0-1.3-.736l-.52.608a5.4,5.4,0,0,1,1.272.784Zm8.5,2.736a3.975,3.975,0,0,1-.048.464A3.1,3.1,0,0,1,33.6-.88a3.775,3.775,0,0,1-1.24.736,2.839,2.839,0,0,1,.584.784,4.634,4.634,0,0,0,2.032-1.76A4.256,4.256,0,0,0,35.6-3.168h1.536V-2.7a7.859,7.859,0,0,1-.248,2.128c-.072.12-.16.152-.456.152a6.576,6.576,0,0,1-.968-.1,3.436,3.436,0,0,1,.24.936c.536.024.664.032.824.032.712,0,1-.112,1.176-.464a10.91,10.91,0,0,0,.336-3.344V-3.64a8.158,8.158,0,0,0,.992.84,3.725,3.725,0,0,1,.608-.864,6.2,6.2,0,0,1-2.216-2.32,2.99,2.99,0,0,1-.312-.7l-.888.344A3.281,3.281,0,0,1,36.392-6a8,8,0,0,0,1.32,2.008c-.192.008-.3.008-.5.008H34.272A4.135,4.135,0,0,1,33.856-4a8.9,8.9,0,0,0,1.288-1.944,2.262,2.262,0,0,1,.216-.408L34.4-6.7a2.487,2.487,0,0,1-.32.808,6.168,6.168,0,0,1-2.1,2.3,2.781,2.781,0,0,1,.616.784,7.953,7.953,0,0,0,1-.888v.568a5.559,5.559,0,0,1,.68-.04Zm8.52-3.416a4.722,4.722,0,0,1,.04.7c.008,1,.08,3.184.112,3.472a.18.18,0,0,0,.008.08,2.959,2.959,0,0,0-.744-.08c-1.152,0-1.976.6-1.976,1.432a1.443,1.443,0,0,0,.2.712,1.865,1.865,0,0,0,1.68.688c1.192,0,1.824-.472,1.824-1.368a1.862,1.862,0,0,0-.016-.256c.088.056.152.088.256.144A5.037,5.037,0,0,1,45.656-.4a3.154,3.154,0,0,1,.568.528l.624-.9c-.1-.056-.136-.088-.24-.16a10.763,10.763,0,0,0-1.032-.68,5.907,5.907,0,0,0-1.248-.544c-.056-.784-.072-1.144-.088-1.768a17.248,17.248,0,0,0,1.88-.144c.36-.04.36-.04.52-.048l-.08-.968a8.65,8.65,0,0,1-2.344.272c-.008-.384-.008-.408-.008-.52a9.1,9.1,0,0,1,.056-1.24Zm.176,5.12c0,.008.008.232.008.376a.562.562,0,0,1-.168.448,1.144,1.144,0,0,1-.728.216,1.431,1.431,0,0,1-.584-.12.437.437,0,0,1-.272-.416c0-.352.4-.592,1-.592A2.6,2.6,0,0,1,43.392-1.464Zm6.232-5.128a1.88,1.88,0,0,1-.024.272l-.12.992c-.064.552-.112,1.44-.112,2.088,0,.16.016.752.024.984V-2.1a.622.622,0,0,1-.008.1l.96-.016v-.168a3.836,3.836,0,0,1,1.008-2.584,1.191,1.191,0,0,1,.864-.424c.688,0,1.072.64,1.072,1.792A2.439,2.439,0,0,1,51.936-.952,4.67,4.67,0,0,1,50.184-.5a3.06,3.06,0,0,1,.472.944A6.823,6.823,0,0,0,52.224,0a3.362,3.362,0,0,0,2.064-3.288,3.35,3.35,0,0,0-.576-2.128,1.675,1.675,0,0,0-1.368-.72,1.91,1.91,0,0,0-1.52.816,3.234,3.234,0,0,0-.5.952,1.757,1.757,0,0,1-.048.176h-.024c.016-.192.048-.464.1-.8a7.847,7.847,0,0,1,.288-1.544ZM60.96-2.816a2.326,2.326,0,0,1,.024-.4c-.128.008-.3.016-.464.016h-.9c-.264,0-.448-.008-.552-.016a4.808,4.808,0,0,1,.024.544v1.608a3.469,3.469,0,0,1-.04.7h.68V-.8h.736a3.548,3.548,0,0,1,.416.016A5.975,5.975,0,0,1,59.68.128a2.784,2.784,0,0,1,.632.584,5.7,5.7,0,0,0,1.48-1.424c.36.832.728,1.256,1.1,1.256.248,0,.456-.208.576-.568a4.027,4.027,0,0,0,.176-1.088,3.2,3.2,0,0,1-.64-.408,2.8,2.8,0,0,1-.136,1.1c-.008,0-.008,0-.016-.008l-.024-.024a3.983,3.983,0,0,1-.536-1.1,9.267,9.267,0,0,0,.848-2.176c.056-.208.088-.3.136-.456l-.816-.288a5.96,5.96,0,0,1-.432,1.792,21.315,21.315,0,0,1-.176-2.344H62.5a7.566,7.566,0,0,1,.848.032V-5.84a2.164,2.164,0,0,1-.472.04l.432-.416a5.335,5.335,0,0,0-.832-.6l-.512.472a4.858,4.858,0,0,1,.744.552h-.864a.85.85,0,0,1-.008-.12,4.359,4.359,0,0,1,.056-.816h-.88a6.092,6.092,0,0,1,.048.936H58.928a7.529,7.529,0,0,1-.9-.04c.016.112.016.144.032.248a5.933,5.933,0,0,0-1.208-1.04l-.616.568a5.542,5.542,0,0,1,1.208,1.08l.616-.608c.016.208.024.5.024.824a20.386,20.386,0,0,1-.2,3.416A3.391,3.391,0,0,1,57.328.1a3.177,3.177,0,0,1,.712.568,4.121,4.121,0,0,0,.6-1.624,22.978,22.978,0,0,0,.208-4.064h2.224a15.638,15.638,0,0,0,.416,3.4,5.578,5.578,0,0,1-.52.736c-.008-.112-.008-.24-.008-.424Zm-1.224.28h.592v1.008h-.592Zm-3.72-1.472a6.435,6.435,0,0,1,1.272,1l.56-.648a6.4,6.4,0,0,0-1.256-.952ZM56.96-2.5a8.467,8.467,0,0,1-.352,1.2,8.425,8.425,0,0,1-.392.912,1.41,1.41,0,0,1-.192.28l.736.648c.032-.08.04-.112.072-.184a13.031,13.031,0,0,0,.776-2.32ZM58.992-3.7a3.13,3.13,0,0,1,.44-.024h1.1a3.027,3.027,0,0,1,.448.024v-.76a3,3,0,0,1-.456.024H59.432a3.052,3.052,0,0,1-.44-.024Zm7.992-1.04a2.539,2.539,0,0,1-.368.016h-.64c.072-.128.072-.128.12-.224l.064-.128-.744-.152A3.222,3.222,0,0,1,64.04-3.64a1.759,1.759,0,0,1,.424.624,3.814,3.814,0,0,0,.576-.48,4.3,4.3,0,0,0,.472.488,4.8,4.8,0,0,1-1.568.72,1.908,1.908,0,0,1,.4.736c.168-.072.216-.1.352-.16.008.12.008.184.008.3V-.168a6.406,6.406,0,0,1-.04.744h.824V.136h1.1V.512h.8c-.008-.1-.016-.224-.024-.384a2.528,2.528,0,0,1,.424.6A4.424,4.424,0,0,0,69.408-.424l-.584-.5h1.312l-.56.512A4.407,4.407,0,0,0,71.192.712a3.177,3.177,0,0,1,.48-.768A3.659,3.659,0,0,1,70.2-.928h.272c.192,0,.416.008.688.024-.016-.288-.024-.48-.024-.824v-2.76c0-.3.008-.488.024-.712a5.513,5.513,0,0,1-.784.024h-.528a5.921,5.921,0,0,0,.2-.56h.568a6.2,6.2,0,0,1,.84.04v-.848a5.939,5.939,0,0,1-.84.04H68.528a5.579,5.579,0,0,1-.84-.04v.512c-.12.008-.264.016-.592.016H66.44v-.16a2.117,2.117,0,0,1,.04-.512h-.92a2.338,2.338,0,0,1,.04.5v.168h-.752a5.139,5.139,0,0,1-.64-.024c.016.2.024.392.024.536v.384a3.823,3.823,0,0,1-.032.512h.792v-.7h1.992Zm.288.1h.464a3.632,3.632,0,0,1-.024-.536V-5.7a6.953,6.953,0,0,1,.816-.04h.7c-.056.176-.088.28-.2.56H68.56a6.358,6.358,0,0,1-.672-.016c.024.392.024.392.024.752v2.8c0,.184-.008.544-.024.736q.42-.024.624-.024h.24a2.95,2.95,0,0,1-.624.544,2.831,2.831,0,0,1-.776.392V-1.36c0-.3,0-.3.016-.552l.232.072a2.6,2.6,0,0,1,.28-.72,6.161,6.161,0,0,1-1.272-.48,6.782,6.782,0,0,0,.824-1.12c.04-.056.048-.064.1-.128l.032-.04Zm-.72.576a5.347,5.347,0,0,1-.536.64,3.21,3.21,0,0,1-.544-.552.349.349,0,0,0,.072-.088Zm-1.3,2.072a5.031,5.031,0,0,0,.832-.56A7.307,7.307,0,0,0,67.144-2c-.1.008-.144.008-.312.008Zm.232.664h1.1v.776h-1.1ZM68.7-4.456h1.648v.48H68.7Zm0,1.136h1.648v.5H68.7Zm0,1.16h1.648v.5H68.7Zm4.784.08A1.355,1.355,0,0,0,72.128-.728,1.357,1.357,0,0,0,73.48.632a1.357,1.357,0,0,0,1.352-1.36A1.35,1.35,0,0,0,73.48-2.08Zm0,.624a.731.731,0,0,1,.728.728.732.732,0,0,1-.728.736.732.732,0,0,1-.728-.736A.731.731,0,0,1,73.48-1.456ZM-105.955,8.465a1.053,1.053,0,0,0-.18.668h-1.039a2.794,2.794,0,0,1,.145-.8,1.8,1.8,0,0,1,.43-.613,1.5,1.5,0,0,1,.52-.3,2.248,2.248,0,0,1,.738-.105,1.965,1.965,0,0,1,1.311.42,1.4,1.4,0,0,1,.5,1.127,1.246,1.246,0,0,1-.3.844,1.014,1.014,0,0,1-.391.293.8.8,0,0,1,.438.262,1.4,1.4,0,0,1,.426,1.078,1.816,1.816,0,0,1-.5,1.264,1.9,1.9,0,0,1-1.475.545A1.784,1.784,0,0,1-107,12.355a2.33,2.33,0,0,1-.273-1.094h1.094a1.273,1.273,0,0,0,.109.563.749.749,0,0,0,.738.41.818.818,0,0,0,.572-.225.835.835,0,0,0,.244-.646.728.728,0,0,0-.453-.746,2.3,2.3,0,0,0-.812-.105v-.8a2.108,2.108,0,0,0,.758-.105.651.651,0,0,0,.371-.664.742.742,0,0,0-.189-.527.693.693,0,0,0-.533-.2A.669.669,0,0,0-105.955,8.465Zm5.121,4.676a1.6,1.6,0,0,1-1.518-.758,4.384,4.384,0,0,1-.436-2.16,4.408,4.408,0,0,1,.436-2.164,1.6,1.6,0,0,1,1.518-.762,1.6,1.6,0,0,1,1.52.762,4.424,4.424,0,0,1,.434,2.164,4.384,4.384,0,0,1-.436,2.16A1.6,1.6,0,0,1-100.834,13.141Zm.652-1.426a5.573,5.573,0,0,0,.152-1.492,5.466,5.466,0,0,0-.154-1.516.63.63,0,0,0-.65-.492.639.639,0,0,0-.656.492,5.276,5.276,0,0,0-.16,1.516,5.335,5.335,0,0,0,.16,1.494.645.645,0,0,0,.656.518A.639.639,0,0,0-100.181,11.715Zm5.574-.055a1.4,1.4,0,0,1,.426-1.031,1.407,1.407,0,0,1,1.027-.422,1.4,1.4,0,0,1,1.027.426A1.4,1.4,0,0,1-91.7,11.66a1.4,1.4,0,0,1-.426,1.027,1.4,1.4,0,0,1-1.027.426,1.4,1.4,0,0,1-1.027-.426A1.4,1.4,0,0,1-94.607,11.66Zm-3.371-1.816A1.4,1.4,0,0,1-98.4,8.816a1.4,1.4,0,0,1,.426-1.027,1.4,1.4,0,0,1,1.027-.426,1.4,1.4,0,0,1,1.027.426A1.4,1.4,0,0,1-95.5,8.816a1.4,1.4,0,0,1-.424,1.027,1.4,1.4,0,0,1-1.029.426A1.4,1.4,0,0,1-97.978,9.844Zm1.641,3.3h-.605l3.168-5.812h.594Zm2.746-1.051a.589.589,0,0,0,.438.184.6.6,0,0,0,.439-.182.6.6,0,0,0,.182-.439.6.6,0,0,0-.182-.439.6.6,0,0,0-.439-.182.6.6,0,0,0-.439.182.6.6,0,0,0-.182.439A.589.589,0,0,0-93.591,12.1Zm-3.8-2.844a.589.589,0,0,0,.438.184.6.6,0,0,0,.439-.182.6.6,0,0,0,.182-.439.6.6,0,0,0-.182-.439.6.6,0,0,0-.439-.182.6.6,0,0,0-.439.182.6.6,0,0,0-.182.439A.589.589,0,0,0-97.388,9.254Zm6.794-1.094a.884.884,0,0,1,.128-.008c.072,0,.072,0,.224.008.176,0,.88.016,1.008.016,0,0,.1-.008.136-.008a.392.392,0,0,0-.064.1,10.6,10.6,0,0,1-.96,1.368,4.9,4.9,0,0,1-.72.712l.728.72a3.6,3.6,0,0,1,.7-.728,2.7,2.7,0,0,1,1.64-.824.439.439,0,0,1,.488.432,3.913,3.913,0,0,0-1.72,1.128,1.275,1.275,0,0,0-.352.888A1.16,1.16,0,0,0-88.778,13a3.436,3.436,0,0,0,1.784.336,14.51,14.51,0,0,0,2.048-.144,2.357,2.357,0,0,1,.368-.032l-.08-1.032a6.951,6.951,0,0,1-2.352.336c-.968,0-1.352-.168-1.352-.584a.842.842,0,0,1,.416-.656,4.862,4.862,0,0,1,.768-.416V11a6.334,6.334,0,0,1-.048.928l.928-.024a3.283,3.283,0,0,1-.024-.424c0-.056,0-.128.008-.264V10.9c0-.112,0-.112-.008-.32v-.088q1.032-.36,1.2-.408a7.062,7.062,0,0,1,.888-.216l-.376-.92a2.5,2.5,0,0,1-.592.24q-.3.1-1.224.432a1.053,1.053,0,0,0-1.144-.848,1.934,1.934,0,0,0-1.128.36c-.1.08-.1.08-.16.12l-.008-.016a4.14,4.14,0,0,0,.736-1.064c.808-.024,1.824-.088,2.408-.16.408-.048.408-.048.632-.064l-.056-.912a10.808,10.808,0,0,1-2.1.272c-.44.024-.44.024-.5.032.016-.032.032-.056.072-.144a6.11,6.11,0,0,1,.32-.72L-88.4,6.36a3.168,3.168,0,0,1-.32.992,9.667,9.667,0,0,1-1.856-.1Zm9.08,3.776a2.407,2.407,0,0,1-.464-.608c.032-.272.04-.4.048-.6.024-.488.024-.488.032-.656l-.8-.1a2.946,2.946,0,0,1,.024.392,6.969,6.969,0,0,1-.168,1.52,3.971,3.971,0,0,1-.44,1.184,2.627,2.627,0,0,1,.664.552,5.57,5.57,0,0,0,.488-1.4,2.551,2.551,0,0,0,1.368,1.048,9.735,9.735,0,0,0,2.832.248c.272,0,.944-.008,2.016-.032a2.643,2.643,0,0,1,.24-.888,25.091,25.091,0,0,1-2.712.12,6.332,6.332,0,0,1-2.328-.248V11.208h.368a3.013,3.013,0,0,1,.648.048v-.824a3.731,3.731,0,0,1-.648.04h-.368v-.92h.312a3.607,3.607,0,0,1,.744.048V9.024a2.07,2.07,0,0,1,.416.6A2.485,2.485,0,0,0-78.106,8.48a3.794,3.794,0,0,0,.288-1.072h.9a4.259,4.259,0,0,1-.12,1.16c-.04.128-.136.176-.344.176a4.689,4.689,0,0,1-.64-.056,1.974,1.974,0,0,1,.192.816c.3.008.36.008.456.008.808,0,1.056-.184,1.176-.864.032-.192.088-.888.1-1.28.024-.536.024-.56.048-.752a4.167,4.167,0,0,1-.8.048h-1.9a6.069,6.069,0,0,1-.848-.048v.832a3.043,3.043,0,0,1,.616-.04h.328a1.844,1.844,0,0,1-.272.88,1.53,1.53,0,0,1-.744.616V8.752a3.934,3.934,0,0,1-.7.04h-.424V8.008h.272a4.442,4.442,0,0,1,.712.04v-.84a3.819,3.819,0,0,1-.712.04h-.272V7.032a4.2,4.2,0,0,1,.04-.72h-.912a4.037,4.037,0,0,1,.048.72v.216h-.48a4.179,4.179,0,0,1-.736-.04v.84a4.835,4.835,0,0,1,.736-.04h.48v.784h-.6a4.976,4.976,0,0,1-.816-.04V9.6a4.893,4.893,0,0,1,.808-.048h.712Zm2.1-.472a5.065,5.065,0,0,1-.04.792,8.349,8.349,0,0,1,.872-.032h1.632a8.364,8.364,0,0,1,.84.032,5.184,5.184,0,0,1-.032-.824v-.92a5.406,5.406,0,0,1,.032-.816,6.7,6.7,0,0,1-.88.04H-78.73a5.5,5.5,0,0,1-.72-.032,3.926,3.926,0,0,1,.032.656Zm.808-1.048h1.632v1.072H-78.61Zm5.168-3.088a14.834,14.834,0,0,0,3.32.472l.152-.9a11.477,11.477,0,0,1-3.184-.448Zm-.648,2.16c.264-.032.32-.04.616-.064.264-.024.264-.024.416-.04l.808-.064c.376-.032.584-.064,1.04-.136q-.612.576-.936.888c-.6.576-.744.712-.928.88a15.836,15.836,0,0,1-1.856,1.6l.736.832c.288-.336.72-.8,1.128-1.192.648-.624,1.008-.848,1.384-.848a.37.37,0,0,1,.336.168,1.3,1.3,0,0,1,.08.512c.04.632.1.824.328,1.032a1.528,1.528,0,0,0,1.12.3,7.027,7.027,0,0,0,1.12-.1c.52-.08.568-.088.7-.1l-.12-.992a4.254,4.254,0,0,1-1.576.3c-.528,0-.632-.112-.688-.744A1.3,1.3,0,0,0-70.554,11a.721.721,0,0,0-.664-.336,1.231,1.231,0,0,0-.488.1c.248-.192.936-.808,1.368-1.224a5.284,5.284,0,0,1,.68-.6l-.536-.688a1.991,1.991,0,0,1-.64.128,27.476,27.476,0,0,1-2.84.176,3.383,3.383,0,0,1-.472-.024Zm9.448.192a3.141,3.141,0,0,0,.328-.208c.16-.1.736-.536.88-.656.272-.232.856-.752,1.256-1.12a1.715,1.715,0,0,1,.416-.328l-.5-.7a1.179,1.179,0,0,1-.5.1c-.776.056-1.752.1-2.432.1a7.235,7.235,0,0,1-.944-.048l.04.96a2.7,2.7,0,0,1,.384-.04c1.448-.064,1.96-.1,2.264-.136l.008.008-.144.144a26.712,26.712,0,0,1-2.392,2.08,7.2,7.2,0,0,1-1.128.752l.544.864a4.929,4.929,0,0,1,3.3-1.344c.968,0,1.584.408,1.584,1.032,0,.568-.288.912-.952,1.16a2.151,2.151,0,0,0-.368-.72,1.722,1.722,0,0,0-1.384-.656,1.231,1.231,0,0,0-1.376,1.144,1.142,1.142,0,0,0,.48.92,2.707,2.707,0,0,0,1.552.368,3.958,3.958,0,0,0,1.936-.456A1.955,1.955,0,0,0-60.7,11.128c0-1.1-.88-1.8-2.248-1.8a3.905,3.905,0,0,0-1.68.368Zm1.152,2.848a2.165,2.165,0,0,1-.416.032c-.592,0-.952-.184-.952-.5,0-.224.184-.368.472-.368C-63.938,11.688-63.634,11.976-63.49,12.528Zm8.856-2.344a2.326,2.326,0,0,1,.024-.4c-.128.008-.3.016-.464.016h-.9c-.264,0-.448-.008-.552-.016a4.808,4.808,0,0,1,.024.544v1.608a3.469,3.469,0,0,1-.04.7h.68V12.2h.736a3.548,3.548,0,0,1,.416.016,5.975,5.975,0,0,1-1.208.912,2.784,2.784,0,0,1,.632.584,5.7,5.7,0,0,0,1.48-1.424c.36.832.728,1.256,1.1,1.256.248,0,.456-.208.576-.568a4.027,4.027,0,0,0,.176-1.088,3.2,3.2,0,0,1-.64-.408,2.8,2.8,0,0,1-.136,1.1c-.008,0-.008,0-.016-.008l-.024-.024a3.983,3.983,0,0,1-.536-1.1A9.267,9.267,0,0,0-52.45,9.28c.056-.208.088-.3.136-.456l-.816-.288a5.96,5.96,0,0,1-.432,1.792,21.315,21.315,0,0,1-.176-2.344h.648a7.566,7.566,0,0,1,.848.032V7.16a2.164,2.164,0,0,1-.472.04l.432-.416a5.335,5.335,0,0,0-.832-.6l-.512.472a4.858,4.858,0,0,1,.744.552h-.864a.85.85,0,0,1-.008-.12,4.359,4.359,0,0,1,.056-.816h-.88a6.092,6.092,0,0,1,.048.936h-2.136a7.529,7.529,0,0,1-.9-.04c.016.112.016.144.032.248a5.933,5.933,0,0,0-1.208-1.04l-.616.568a5.542,5.542,0,0,1,1.208,1.08l.616-.608c.016.208.024.5.024.824a20.386,20.386,0,0,1-.2,3.416,3.391,3.391,0,0,1-.56,1.448,3.177,3.177,0,0,1,.712.568,4.121,4.121,0,0,0,.6-1.624,22.978,22.978,0,0,0,.208-4.064h2.224a15.638,15.638,0,0,0,.416,3.4,5.578,5.578,0,0,1-.52.736c-.008-.112-.008-.24-.008-.424Zm-1.224.28h.592v1.008h-.592Zm-3.72-1.472a6.435,6.435,0,0,1,1.272,1l.56-.648A6.4,6.4,0,0,0-59,8.392Zm.944,1.512a8.467,8.467,0,0,1-.352,1.2,8.425,8.425,0,0,1-.392.912,1.41,1.41,0,0,1-.192.28l.736.648c.032-.08.04-.112.072-.184a13.031,13.031,0,0,0,.776-2.32ZM-56.6,9.3a3.13,3.13,0,0,1,.44-.024h1.1a3.027,3.027,0,0,1,.448.024v-.76a3,3,0,0,1-.456.024h-1.088a3.052,3.052,0,0,1-.44-.024Zm7.992-1.04a2.539,2.539,0,0,1-.368.016h-.64c.072-.128.072-.128.12-.224l.064-.128-.744-.152A3.222,3.222,0,0,1-51.554,9.36a1.759,1.759,0,0,1,.424.624,3.814,3.814,0,0,0,.576-.48,4.3,4.3,0,0,0,.472.488,4.8,4.8,0,0,1-1.568.72,1.908,1.908,0,0,1,.4.736c.168-.072.216-.1.352-.16.008.12.008.184.008.3v1.248a6.406,6.406,0,0,1-.04.744h.824v-.44h1.1v.376h.8c-.008-.1-.016-.224-.024-.384a2.528,2.528,0,0,1,.424.6,4.424,4.424,0,0,0,1.624-1.152l-.584-.5h1.312l-.56.512A4.407,4.407,0,0,0-44.4,13.712a3.177,3.177,0,0,1,.48-.768,3.66,3.66,0,0,1-1.472-.872h.272c.192,0,.416.008.688.024-.016-.288-.024-.48-.024-.824V8.512c0-.3.008-.488.024-.712a5.513,5.513,0,0,1-.784.024h-.528a5.922,5.922,0,0,0,.2-.56h.568a6.2,6.2,0,0,1,.84.04V6.456a5.939,5.939,0,0,1-.84.04h-2.088a5.579,5.579,0,0,1-.84-.04v.512c-.12.008-.264.016-.592.016h-.656v-.16a2.117,2.117,0,0,1,.04-.512h-.92a2.337,2.337,0,0,1,.04.5v.168h-.752a5.138,5.138,0,0,1-.64-.024c.016.2.024.392.024.536V7.88a3.824,3.824,0,0,1-.032.512h.792V7.7h1.992Zm.288.1h.464a3.631,3.631,0,0,1-.024-.536V7.3a6.953,6.953,0,0,1,.816-.04h.7c-.056.176-.088.28-.2.56h-.464a6.358,6.358,0,0,1-.672-.016c.024.392.024.392.024.752v2.8c0,.184-.008.544-.024.736q.42-.024.624-.024h.24a2.95,2.95,0,0,1-.624.544,2.831,2.831,0,0,1-.776.392V11.64c0-.3,0-.3.016-.552l.232.072a2.6,2.6,0,0,1,.28-.72,6.161,6.161,0,0,1-1.272-.48,6.782,6.782,0,0,0,.824-1.12c.04-.056.048-.064.1-.128l.032-.04Zm-.72.576a5.347,5.347,0,0,1-.536.64,3.21,3.21,0,0,1-.544-.552.349.349,0,0,0,.072-.088Zm-1.3,2.072a5.03,5.03,0,0,0,.832-.56A7.307,7.307,0,0,0-48.45,11c-.1.008-.144.008-.312.008Zm.232.664h1.1v.776h-1.1ZM-46.9,8.544h1.648v.48H-46.9Zm0,1.136h1.648v.5H-46.9Zm0,1.16h1.648v.5H-46.9ZM-38.09,8.6a7.483,7.483,0,0,1,1.1,2.6l.912-.456a7.44,7.44,0,0,0-1.2-2.544Zm-2.352-1.76a1.861,1.861,0,0,1,.064-.248l-1.04-.1v.144a11.253,11.253,0,0,1-.208,1.616,16.431,16.431,0,0,1-1.7.168l.1.944a3.285,3.285,0,0,1,.328-.08l.728-.12c.256-.048.256-.048.376-.064a11.767,11.767,0,0,1-1.608,3.768l.928.512A17.176,17.176,0,0,0-40.85,9.024c.184-.016.312-.024.48-.024.616,0,.8.216.8.952a7.108,7.108,0,0,1-.208,1.824c-.12.392-.248.544-.48.544A3.349,3.349,0,0,1-41.426,12a3,3,0,0,1,.08.68c0,.08-.008.2-.016.352a3.709,3.709,0,0,0,1.232.24,1.013,1.013,0,0,0,.888-.36A5.072,5.072,0,0,0-38.626,10,1.94,1.94,0,0,0-39,8.584a1.55,1.55,0,0,0-1.184-.424c-.144,0-.256.008-.5.016.024-.1.024-.1.048-.24.08-.432.136-.76.176-.992Zm1.856.056a5.4,5.4,0,0,1,.84,1.192l.56-.3a5.185,5.185,0,0,0-.84-1.176Zm2.352.376a4.626,4.626,0,0,0-.832-1.128l-.536.28a5.894,5.894,0,0,1,.816,1.16Zm2.88-.9a8.173,8.173,0,0,1-.24,1.392c-.176.008-.312.008-.408.008a5.555,5.555,0,0,1-1.08-.072v.912l.424.008c.168.008.216.008.32.008s.144,0,.5-.008a12.307,12.307,0,0,1-.752,1.888,7.282,7.282,0,0,1-.776,1.28l.92.512c.048-.1.048-.1.152-.288.3-.56.376-.7.56-1.1a15.356,15.356,0,0,0,.88-2.32c.5-.04.984-.1,1.272-.144a1.56,1.56,0,0,1,.256-.04l-.024-.92a6.862,6.862,0,0,1-1.28.224c.088-.352.128-.512.168-.7a4,4,0,0,1,.128-.536Zm5.12,2.08A12.629,12.629,0,0,0-30.49,7.376l-.48.776a9.791,9.791,0,0,1,2.3,1.12Zm-.032,3.608a1.432,1.432,0,0,1-.12-.112,2.95,2.95,0,0,0-.28-.216,5,5,0,0,0-1.264-.736A8.494,8.494,0,0,1-30,9.9a2.667,2.667,0,0,1,.1-.808l-.928-.048a4.243,4.243,0,0,0-.064.808c0,.24.016.552.04.92A3.974,3.974,0,0,0-31.6,10.7c-1.016,0-1.728.568-1.728,1.376s.688,1.344,1.744,1.344a1.847,1.847,0,0,0,1.328-.448,1.278,1.278,0,0,0,.344-.848c0-.032-.008-.088-.016-.16a4.838,4.838,0,0,1,1.224.992Zm-2.56-.44s.016.192.016.272c0,.448-.264.672-.808.672-.5,0-.784-.192-.784-.52s.336-.552.856-.552A2.017,2.017,0,0,1-30.826,11.616Zm3.888-4.5a3.823,3.823,0,0,1,.032.512,12.062,12.062,0,0,0,.5,4.176c.32.768.752,1.16,1.288,1.16.68,0,1.144-.648,1.56-2.208a3.949,3.949,0,0,1-.8-.728,5.9,5.9,0,0,1-.424,1.448c-.1.224-.208.344-.328.344-.256,0-.512-.512-.648-1.344a14.971,14.971,0,0,1-.152-2.144,9.3,9.3,0,0,1,.064-1.216Zm4.04.76a6.983,6.983,0,0,1,1.136,1.968,8.11,8.11,0,0,1,.512,2.312l.992-.376a7.976,7.976,0,0,0-1.8-4.3Zm7.288,3.312a4.154,4.154,0,0,1-1.856,1.144,1.978,1.978,0,0,1,.512.608,4.817,4.817,0,0,0,2.216-1.752h.48a3.571,3.571,0,0,1-.832,1.064,4.888,4.888,0,0,1-1.456.864,2.18,2.18,0,0,1,.576.608,5.754,5.754,0,0,0,1.32-.88,1.931,1.931,0,0,1,.216.736c.312.016.456.024.672.024.7,0,.96-.1,1.12-.472a6.954,6.954,0,0,0,.328-2.176,4.65,4.65,0,0,1,.032-.472c-.232.016-.384.024-.776.024H-15.6a2.861,2.861,0,0,0,.216-.328h2.448a7.828,7.828,0,0,1,.824.032v-.8a5.3,5.3,0,0,1-.832.048h-3.5a4.447,4.447,0,0,1-.752-.04v.8a5.724,5.724,0,0,1,.744-.04h.176a3.159,3.159,0,0,1-.952.808V10.44c-.256.144-.32.184-.536.3V9.016h.152a4.141,4.141,0,0,1,.56.032v-.84a3.433,3.433,0,0,1-.568.032h-.144V7.256a5.389,5.389,0,0,1,.048-.9h-.928a6.308,6.308,0,0,1,.048.888V8.24h-.224a3.59,3.59,0,0,1-.632-.04v.856a3.9,3.9,0,0,1,.624-.04h.232v2.12a5.772,5.772,0,0,1-.9.32l.2.936a.362.362,0,0,1,.08-.04.941.941,0,0,0,.1-.064,15.065,15.065,0,0,0,1.592-.84,1.842,1.842,0,0,1,.3.424,4.6,4.6,0,0,0,.984-.68Zm2.472,0a9.733,9.733,0,0,1-.136,1.208c-.072.344-.16.424-.456.424a5.6,5.6,0,0,1-.824-.064,4.47,4.47,0,0,0,1.12-1.568Zm-.328-2.064c.32,0,.56.008.728.024a6.2,6.2,0,0,1-.032-.768V7.28a6.474,6.474,0,0,1,.032-.792,6.027,6.027,0,0,1-.856.04h-2.328a5.627,5.627,0,0,1-.808-.04,6.224,6.224,0,0,1,.032.728V8.384a7.142,7.142,0,0,1-.032.776,5.782,5.782,0,0,1,.736-.032Zm-2.408-1.9h2.264v.336h-2.264Zm0,.92h2.264V8.48h-2.264ZM-9.85,9.48a6.024,6.024,0,0,1,.688-.032h2.736a5.824,5.824,0,0,1,.72.032V8.92a7.775,7.775,0,0,0,1.3.7,4.307,4.307,0,0,1,.44-.88A7.522,7.522,0,0,1-6,7.648,5.227,5.227,0,0,1-7.346,6.3H-8.3A5.587,5.587,0,0,1-9.554,7.632a7.993,7.993,0,0,1-2.04,1.152,3.1,3.1,0,0,1,.464.816,8.144,8.144,0,0,0,1.28-.672Zm.7-.864h-.224A5.6,5.6,0,0,0-7.81,7.056a7.308,7.308,0,0,0,1.648,1.56H-9.154Zm-.392,4.992V13.2h3.5v.408H-5.1a5,5,0,0,1-.048-.84V10.9a5.453,5.453,0,0,1,.04-.792,5.248,5.248,0,0,1-.7.032h-4a5.038,5.038,0,0,1-.688-.032,7.223,7.223,0,0,1,.04.792V12.76a6.4,6.4,0,0,1-.048.848Zm0-2.7h3.5v1.5h-3.5Zm6.032.888a8.61,8.61,0,0,1,1.736,1.824l.744-.7a9.351,9.351,0,0,0-1.8-1.76ZM7.7,8.864H6.118v-1.3a4.706,4.706,0,0,1,.032-.64H5.19a4.456,4.456,0,0,1,.04.7V9.216c0,.184-.008.336-.024.512.192-.016.36-.024.576-.024H7.7v2.624H5.822v-1.3a3.953,3.953,0,0,1,.04-.688H4.894a6.649,6.649,0,0,1,.04.768v1.7a5.8,5.8,0,0,1-.048.8h.936v-.416h4.76v.416h.936a5.052,5.052,0,0,1-.048-.8V11.08a6.4,6.4,0,0,1,.04-.76h-.968a4.257,4.257,0,0,1,.04.68v1.328H8.606V9.7H10.67c.192,0,.384.008.56.024a4.383,4.383,0,0,1-.024-.512V7.624a4.6,4.6,0,0,1,.04-.7h-.96a4.806,4.806,0,0,1,.032.632v1.3H8.606V7.112a5.149,5.149,0,0,1,.048-.792h-1a4.8,4.8,0,0,1,.048.792ZM16.55,7.5a1.285,1.285,0,0,1-.84.912,4.032,4.032,0,0,1-1.216.288l.288-.136-.24-.7a8.179,8.179,0,0,1-1.96.72l.312.824c.152-.072.232-.112.352-.16.592-.24.688-.28,1.152-.5a2.178,2.178,0,0,1,.336.512h-.416c-.368,0-.648-.008-.816-.024a7.611,7.611,0,0,1,.032.832V11.64c0,.336-.016.656-.032.8.2-.016.48-.024.848-.024h.32a5.583,5.583,0,0,1-2.128.56,3.2,3.2,0,0,1,.488.712,6.468,6.468,0,0,0,2.536-.92l-.488-.352h2.184l-.464.352a6.111,6.111,0,0,0,2.608.912,3.874,3.874,0,0,1,.5-.736,5.918,5.918,0,0,1-2.216-.528h.376c.336,0,.664.008.848.024a7.121,7.121,0,0,1-.032-.848v-1.48c0-.248,0-.48.008-.7a6.111,6.111,0,0,0,.728.16,2.866,2.866,0,0,1,.336-.784c-1.456-.08-2.28-.5-2.528-1.3h1.232a2.385,2.385,0,0,1-.536.472,3.83,3.83,0,0,1,.736.3,4.573,4.573,0,0,0,.7-.824c.1-.152.12-.184.184-.272l-.472-.368a4.3,4.3,0,0,1-.664.032H16.262a2.615,2.615,0,0,0,.168-.264,2.391,2.391,0,0,0,.136-.224l-.84-.152a3.3,3.3,0,0,1-1.272,1.44,1.968,1.968,0,0,1,.536.528,5.392,5.392,0,0,0,.76-.672Zm-1.184,1.76a2.967,2.967,0,0,0,.9-.328,1.862,1.862,0,0,0,.744-.728,2.4,2.4,0,0,0,1.36,1.056h-3Zm-1,.584h3.68v.3h-3.68Zm0,.816h3.68v.328h-3.68Zm0,.84h3.68v.3h-3.68ZM14.6,7.1a7.637,7.637,0,0,0-1.3-.736l-.52.608a5.4,5.4,0,0,1,1.272.784Zm9.144,2.24a13.3,13.3,0,0,1-3.3,1.472,2.924,2.924,0,0,1,.472.8c.616-.248.784-.32,1.272-.56-.008.144-.008.32-.008.448v1.24a7.428,7.428,0,0,1-.048.9h.936V13.3h2.9v.344H26.9a6.254,6.254,0,0,1-.048-.9V10.76a7.69,7.69,0,0,1,.032-.872c-.232.016-.456.024-.84.024H24.87c-.208,0-.472,0-.648.008.36-.232.56-.368.864-.584h1.72a8.357,8.357,0,0,1,.992.048V8.5a6.779,6.779,0,0,1-.912.048h-.824a11.694,11.694,0,0,0,1.088-1.1q.276-.324.36-.408l-.792-.52a5.7,5.7,0,0,1-.928,1.216V7.048a6.358,6.358,0,0,1-.9.048h-.576V6.96a3.409,3.409,0,0,1,.048-.7H23.39a4.281,4.281,0,0,1,.048.7V7.1H22.27a6.746,6.746,0,0,1-.944-.048v.84a8.82,8.82,0,0,1,.912-.032h1.2v.7H21.614a7.041,7.041,0,0,1-.976-.048v.88a8.053,8.053,0,0,1,.96-.048Zm.576-.784v-.7h.656c.32,0,.456.008.672.024a7.826,7.826,0,0,1-.768.672ZM23.07,10.64h2.9v.592h-2.9Zm0,1.288h2.9v.616h-2.9Zm9.76-4.056a1.749,1.749,0,0,1,.808.24,1.982,1.982,0,0,1,.984,1.776,2.24,2.24,0,0,1-1.112,2,4.252,4.252,0,0,1-1.592.44,2.552,2.552,0,0,1,.488.936,5.23,5.23,0,0,0,1.256-.336,3.082,3.082,0,0,0,1.944-2.984,2.883,2.883,0,0,0-3.168-2.968A3.591,3.591,0,0,0,29.686,8.1a3.436,3.436,0,0,0-.88,2.328c0,1.288.656,2.216,1.568,2.216.656,0,1.168-.472,1.624-1.5A11.573,11.573,0,0,0,32.83,7.872Zm-.976.008a10.543,10.543,0,0,1-.664,2.7c-.288.688-.56,1.024-.824,1.024-.352,0-.632-.52-.632-1.176a2.678,2.678,0,0,1,1.088-2.16A2.036,2.036,0,0,1,31.854,7.88ZM38.59,9.472a4.343,4.343,0,0,1-.376,2.048A3.076,3.076,0,0,1,36.526,12.9a3.012,3.012,0,0,1,.608.8,6.126,6.126,0,0,0,.848-.488,3.263,3.263,0,0,0,1.056-1.256,5.773,5.773,0,0,0,.464-2.48h1.152V12.76c0,.264.04.408.16.5.184.16.52.224,1.184.224,1.04,0,1.408-.088,1.592-.392.16-.256.2-.472.3-1.576a2.956,2.956,0,0,1-.848-.288,6.737,6.737,0,0,1-.12,1.12c-.064.232-.208.28-.76.28-.528,0-.616-.032-.616-.248V9.472h1.336a7.151,7.151,0,0,1,.888.048V8.568a6.714,6.714,0,0,1-.888.048H37.526a7.02,7.02,0,0,1-.9-.048V9.52a7.108,7.108,0,0,1,.9-.048Zm4.432-2.84a5.3,5.3,0,0,1-.832.048H38.246a5.493,5.493,0,0,1-.84-.048v.952a5.283,5.283,0,0,1,.816-.048h3.984a5.427,5.427,0,0,1,.816.048Zm4.184,1.832a7.523,7.523,0,0,1-2.784,3.072,2.757,2.757,0,0,1,.544.84,7.648,7.648,0,0,0,1.3-1.12v.9a5.723,5.723,0,0,1,.8-.048h.632v.544a7.387,7.387,0,0,1-.056.992h1.008a7.229,7.229,0,0,1-.056-.992v-.544H49.3a5.8,5.8,0,0,1,.8.048v-.912a8.918,8.918,0,0,0,1.344,1.112,3.264,3.264,0,0,1,.544-.872,6.845,6.845,0,0,1-1.744-1.344,7.933,7.933,0,0,1-1.2-1.68h1.712a9.449,9.449,0,0,1,.968.048V7.536a6.568,6.568,0,0,1-.968.056H48.59V7.016a3.994,3.994,0,0,1,.056-.736h-1a4.972,4.972,0,0,1,.048.744v.568H45.638a6.931,6.931,0,0,1-.952-.056v.976a9.135,9.135,0,0,1,.952-.048Zm1.384,2.784V9.984a6.465,6.465,0,0,0-.072-.888,8.659,8.659,0,0,0,1.552,2.12,5.006,5.006,0,0,1-.7.032Zm-.9,0h-.68a5.065,5.065,0,0,1-.712-.032A7.934,7.934,0,0,0,47.758,9.1a7.834,7.834,0,0,0-.064.9ZM55.07,8.976a.141.141,0,0,1,.048-.008.367.367,0,0,1,.08.008,1.191,1.191,0,0,1,.136.008c.04,0,.128.008.24.008.376.032.7.04.992.04.208,0,.4-.008.72-.016.032,1.112.04,1.5.064,1.7a1.9,1.9,0,0,0-.712-.112c-.968,0-1.648.544-1.648,1.32,0,.816.64,1.312,1.688,1.312a1.5,1.5,0,0,0,1.52-.752,1.4,1.4,0,0,0,.064-.448v-.112c.048.032.232.152.5.328a3,3,0,0,1,.6.512l.384-.968a1.522,1.522,0,0,1-.224-.136,6.378,6.378,0,0,0-1.256-.728c-.08-1.344-.08-1.36-.08-1.808V8.952c.424-.048.84-.12,1.112-.176a1.382,1.382,0,0,1,.232-.04l-.032-.9-.064.016c-.128.048-.128.048-.176.064a8.043,8.043,0,0,1-1.08.192V7.736a7.827,7.827,0,0,1,.056-1.176l-1,.024a2.238,2.238,0,0,1,.024.384c0,.328.008.728.008,1.2-.28.016-.456.016-.736.016a5.765,5.765,0,0,1-1.448-.128Zm2.3,2.56v.216a.671.671,0,0,1-.1.432.786.786,0,0,1-.648.248c-.448,0-.736-.2-.736-.5,0-.328.32-.528.832-.528A1.675,1.675,0,0,1,57.366,11.536Zm-3.128,1.7a1.567,1.567,0,0,1-.016-.216,6.675,6.675,0,0,1,.792-2.448l-.664-.3a1.525,1.525,0,0,1-.1.248c-.08.192-.08.192-.152.36-.04.128-.08.216-.1.272-.056.144-.056.144-.1.232H53.9a1.362,1.362,0,0,0,.008-.168V11.1c0-.128,0-.128.008-.416a12.857,12.857,0,0,1,.64-4.016l-1.08-.112v.032a4.294,4.294,0,0,1-.088.592c-.176.9-.176.9-.216,1.144a14.3,14.3,0,0,0-.152,2.12,15.171,15.171,0,0,0,.216,2.544,2.92,2.92,0,0,1,.04.312ZM66.046,9.328V9.064a5.59,5.59,0,0,1,.04-.832H65.1a5.519,5.519,0,0,1,.048.832v.264H61.542a6.751,6.751,0,0,1-.88-.048v.912a6.666,6.666,0,0,1,.88-.048H65.15v2.464c0,.152-.08.192-.392.192a7.458,7.458,0,0,1-1.088-.088,3.091,3.091,0,0,1,.288.888c.32.008.6.016.792.016a2.9,2.9,0,0,0,.9-.1c.264-.1.392-.36.392-.776v-2.6h.888a6.838,6.838,0,0,1,.88.048V9.28a6.582,6.582,0,0,1-.88.048ZM63.694,7.056H61.63c-.384,0-.632-.008-.88-.032a4.178,4.178,0,0,1,.032.592v.648a4.626,4.626,0,0,1-.032.616h.872V7.864h5.192V8.88h.864a4.864,4.864,0,0,1-.032-.616V7.616a3.968,3.968,0,0,1,.032-.592c-.248.024-.5.032-.88.032H64.59V6.792a1.962,1.962,0,0,1,.048-.5h-.992a2.507,2.507,0,0,1,.048.5Zm.224,4.912a8.566,8.566,0,0,0-1.4-1.616l-.736.52a6.857,6.857,0,0,1,1.368,1.7ZM70.5,7.28a14.48,14.48,0,0,0,3.12,1l.328-.92a12,12,0,0,1-2.984-.888Zm-.64.7a3.264,3.264,0,0,1-.048.464c-.144.944-.272,1.832-.336,2.328-.04.3-.04.336-.064.48l1.008.032a1.742,1.742,0,0,1,.36-.344,3.641,3.641,0,0,1,1.992-.584c.848,0,1.352.32,1.352.856,0,.68-.784,1.152-1.912,1.152a6.458,6.458,0,0,1-2.152-.4A3.55,3.55,0,0,1,70.182,13a7.356,7.356,0,0,0,2.04.28,3.456,3.456,0,0,0,2.112-.544,1.948,1.948,0,0,0,.824-1.544c0-1.024-.9-1.7-2.256-1.7a3.792,3.792,0,0,0-2.424.76l-.016-.016c.024-.12.024-.12.04-.232a16.93,16.93,0,0,1,.36-1.968Zm8.992,1.248c.008-.1.016-.144.016-.144l.016-.472c.048-.064.064-.08.1-.128a.728.728,0,0,1,.112-.144,1.338,1.338,0,0,1,.232-.24l-.3-.336c-.056.016-.088.032-.1.032.016-.488.024-.552.032-.712s.024-.264.024-.3a1.116,1.116,0,0,1,.032-.3l-1.016-.016a2.659,2.659,0,0,1,.024.448c0,.184-.008.432-.008.656-.008.184-.008.184-.016.3-.376.024-.816.048-.968.048a2.481,2.481,0,0,1-.328-.016l.048.9A10.308,10.308,0,0,1,77.982,8.7c0,.216-.008.232-.008.416-.016.312-.016.4-.024.784-.152.168-.152.168-.9.912a3.584,3.584,0,0,1-.52.456l.464.952a4.568,4.568,0,0,1,.368-.456,6.23,6.23,0,0,0,.568-.672l.016-.008c-.016.216-.016.216-.016,1.072a7.023,7.023,0,0,1-.056,1.272H78.9a10.8,10.8,0,0,1-.04-1.32c-.008-.888-.008-.888-.008-.952,0-.224,0-.448.016-.808a9.1,9.1,0,0,1,1.456-1.3,1.916,1.916,0,0,1,.992-.432c.216,0,.328.1.328.3a5.073,5.073,0,0,1-.168,1.008,8.069,8.069,0,0,0-.328,2.008,1.141,1.141,0,0,0,.416,1.008,1.189,1.189,0,0,0,.688.208,1.548,1.548,0,0,0,1.184-.576,3.65,3.65,0,0,0,.56-.792,3.889,3.889,0,0,1-.536-.96,3.927,3.927,0,0,1-.464.912.8.8,0,0,1-.56.408c-.208,0-.328-.144-.328-.4a10.116,10.116,0,0,1,.336-1.8,5.723,5.723,0,0,0,.2-1.224,1.032,1.032,0,0,0-1.12-1.064,2.864,2.864,0,0,0-1.688.752,5.866,5.866,0,0,0-.976.832ZM91.4,12.152c-.112-.064-.152-.1-.288-.184a7.156,7.156,0,0,0-2.192-1.128c-.008-.192-.008-.192-.032-.968.312-.016.432-.024.544-.032.6-.056.96-.1,1.08-.112.184-.024.384-.048.52-.056l-.024-.88a5.921,5.921,0,0,1-.992.176c-.736.08-.736.08-1.136.1-.008-.5-.008-.592-.016-.792.7-.04,1.016-.064,1.72-.16a5,5,0,0,1,.632-.072l-.04-.888a10.823,10.823,0,0,1-2.3.3,4.959,4.959,0,0,1,.056-.976H87.91A5.709,5.709,0,0,1,87.95,7.5c-.2.008-.472.016-.6.016A10.52,10.52,0,0,1,85.2,7.344l-.008.888h.128c.024,0,.088,0,.176.008.536.04,1.568.08,1.96.08.12,0,.248,0,.5-.008.008.456.008.728.008.8-.224.008-.5.016-.656.016a10.316,10.316,0,0,1-1.864-.136l-.016.864c.12,0,.2,0,.3.008.664.048.96.056,1.448.056.168,0,.416-.008.8-.016.008.32.008.32.016.432v.176a1.541,1.541,0,0,1,.008.192,4.18,4.18,0,0,0-.536-.032c-1.344,0-2.136.512-2.136,1.384,0,.792.672,1.248,1.84,1.248a2.13,2.13,0,0,0,1.32-.344,1.248,1.248,0,0,0,.448-1.08v-.088a3.56,3.56,0,0,1,.432.2,5.4,5.4,0,0,1,1.48,1.1Zm-3.376-.616v.192a1.014,1.014,0,0,1-.1.512.831.831,0,0,1-.7.256c-.568,0-.912-.184-.912-.48,0-.344.392-.552,1.04-.552A2.808,2.808,0,0,1,88.022,11.536Zm9.344-2.792v-.52c.632-.016.776-.016.968-.016.664,0,1.048.016,1.344.04l-.008-.92c-.3.032-.92.048-2.312.056a6.288,6.288,0,0,1,.04-.952L96.39,6.44a4.341,4.341,0,0,1,.048.968c-.416.016-.416.016-.68.024-.656.016-.736.016-1.256.032-1.032.04-1.16.04-1.36.04a3.484,3.484,0,0,1-.392-.016l.032.952c.216-.032.216-.032,1.424-.12.352-.024,1.1-.048,2.248-.08,0,.216,0,.664.008.68a.33.33,0,0,0,.008.1,1.337,1.337,0,0,0-.832-.24,1.473,1.473,0,0,0-1.592,1.456,1.25,1.25,0,0,0,.552,1.08,1.474,1.474,0,0,0,.928.288,1.318,1.318,0,0,0,1.176-.568,1.684,1.684,0,0,1-.928,1.168,3.775,3.775,0,0,1-1.36.464,2.625,2.625,0,0,1,.568.9,5.593,5.593,0,0,0,1.448-.656,2.567,2.567,0,0,0,1.192-2.16,2.435,2.435,0,0,0-.256-1.128c0-.1-.008-.16-.008-.192Zm-.92,1.32a.729.729,0,0,1-.784.72.631.631,0,0,1-.68-.632.7.7,0,0,1,.744-.64C96.166,9.512,96.446,9.728,96.446,10.064Zm4.72.856a1.356,1.356,0,1,0,1.352,1.352A1.355,1.355,0,0,0,101.166,10.92Zm0,.624a.732.732,0,1,1-.728.728A.731.731,0,0,1,101.166,11.544Z" transform="translate(124.14 29.067)" fill="#e65035"/>
    </g>
    <rect id="長方形_3375" data-name="長方形 3375" width="185.839" height="53.221" rx="6" transform="translate(267.161 8527.5)" fill="#847c79"/>
    <path id="パス_6610" data-name="パス 6610" d="M-14.556-6.2h-2.376V-8.148a7.058,7.058,0,0,1,.048-.96h-1.44a6.684,6.684,0,0,1,.06,1.056v2.376c0,.276-.012.5-.036.768.288-.024.54-.036.864-.036h2.88v3.936h-2.82V-2.952a5.929,5.929,0,0,1,.06-1.032h-1.452a9.974,9.974,0,0,1,.06,1.152V-.288a8.707,8.707,0,0,1-.072,1.2h1.4V.288h7.14V.912h1.4A7.578,7.578,0,0,1-8.9-.288V-2.88a9.594,9.594,0,0,1,.06-1.14H-10.3A6.386,6.386,0,0,1-10.236-3v1.992H-13.2V-4.944h3.1c.288,0,.576.012.84.036A6.575,6.575,0,0,1-9.3-5.676V-8.064a6.9,6.9,0,0,1,.06-1.044h-1.44a7.209,7.209,0,0,1,.048.948V-6.2H-13.2V-8.832a7.723,7.723,0,0,1,.072-1.188h-1.5a7.2,7.2,0,0,1,.072,1.188ZM-.084-8.256a1.928,1.928,0,0,1-1.26,1.368,6.047,6.047,0,0,1-1.824.432l.432-.2L-3.1-7.716a12.269,12.269,0,0,1-2.94,1.08L-5.568-5.4c.228-.108.348-.168.528-.24.888-.36,1.032-.42,1.728-.744a3.267,3.267,0,0,1,.5.768h-.624c-.552,0-.972-.012-1.224-.036A11.416,11.416,0,0,1-4.608-4.4V-2.04c0,.5-.024.984-.048,1.2.3-.024.72-.036,1.272-.036h.48A8.374,8.374,0,0,1-6.1-.036a4.806,4.806,0,0,1,.732,1.068,9.7,9.7,0,0,0,3.8-1.38l-.732-.528H.984l-.7.528A9.166,9.166,0,0,0,4.2,1.02a5.811,5.811,0,0,1,.744-1.1A8.877,8.877,0,0,1,1.62-.876h.564c.5,0,1,.012,1.272.036a10.682,10.682,0,0,1-.048-1.272v-2.22c0-.372,0-.72.012-1.044a9.167,9.167,0,0,0,1.092.24,4.3,4.3,0,0,1,.5-1.176c-2.184-.12-3.42-.756-3.792-1.944H3.072a3.578,3.578,0,0,1-.8.708,5.745,5.745,0,0,1,1.1.456A6.859,6.859,0,0,0,4.428-8.328c.156-.228.18-.276.276-.408L4-9.288A6.455,6.455,0,0,1,3-9.24H-.516a3.924,3.924,0,0,0,.252-.4,3.587,3.587,0,0,0,.2-.336L-1.32-10.2A4.944,4.944,0,0,1-3.228-8.04a2.952,2.952,0,0,1,.8.792,8.087,8.087,0,0,0,1.14-1.008ZM-1.86-5.616A4.451,4.451,0,0,0-.516-6.108,2.793,2.793,0,0,0,.6-7.2,3.6,3.6,0,0,0,2.64-5.616h-4.5Zm-1.5.876H2.16v.456H-3.36Zm0,1.224H2.16v.492H-3.36Zm0,1.26H2.16v.444H-3.36Zm.348-6.6a11.456,11.456,0,0,0-1.944-1.1l-.78.912A8.107,8.107,0,0,1-3.828-7.872ZM11.9-5.5A19.942,19.942,0,0,1,6.96-3.288a4.387,4.387,0,0,1,.708,1.2c.924-.372,1.176-.48,1.908-.84-.012.216-.012.48-.012.672V-.4A11.143,11.143,0,0,1,9.492.96h1.4V.444h4.356V.96h1.392A9.381,9.381,0,0,1,16.572-.4V-3.36a11.535,11.535,0,0,1,.048-1.308c-.348.024-.684.036-1.26.036H13.6c-.312,0-.708,0-.972.012.54-.348.84-.552,1.3-.876H16.5a12.536,12.536,0,0,1,1.488.072v-1.32a10.169,10.169,0,0,1-1.368.072H15.384a17.541,17.541,0,0,0,1.632-1.656q.414-.486.54-.612l-1.188-.78A8.546,8.546,0,0,1,14.976-7.9V-8.928a9.537,9.537,0,0,1-1.344.072h-.864v-.2a5.113,5.113,0,0,1,.072-1.056H11.376a6.421,6.421,0,0,1,.072,1.056v.2H9.7A10.119,10.119,0,0,1,8.28-8.928v1.26a13.23,13.23,0,0,1,1.368-.048h1.8v1.044H8.712a10.562,10.562,0,0,1-1.464-.072v1.32A12.079,12.079,0,0,1,8.688-5.5Zm.864-1.176V-7.716h.984c.48,0,.684.012,1.008.036a11.738,11.738,0,0,1-1.152,1.008ZM10.9-3.54H15.24v.888H10.9Zm0,1.932H15.24v.924H10.9ZM-18.69,14.232a7.149,7.149,0,0,1,.78-.072c.24-.024.612-.048,1.128-.084v3.672a8.825,8.825,0,0,1-.072,1.284h1.32a8.824,8.824,0,0,1-.072-1.284v-3.78c.216-.012.492-.048.852-.084.048.192.072.288.132.564l1.008-.42a18.026,18.026,0,0,0-.948-2.34l-.9.36a6.561,6.561,0,0,1,.348.816c-.612.072-.66.072-1.368.108a31.344,31.344,0,0,0,2.028-2.7,4.973,4.973,0,0,1,.4-.552l-1.1-.636a13.689,13.689,0,0,1-1.3,2.1c-.168-.216-.3-.36-.5-.6a16.14,16.14,0,0,0,1.116-1.836c.132-.24.18-.324.252-.432l-1.14-.468a8.778,8.778,0,0,1-1,1.944c-.12-.144-.192-.216-.36-.42l-.684,1a11.136,11.136,0,0,1,1.644,1.776c-.24.312-.288.372-.7.876-.276.012-.4.012-.48.012A3.155,3.155,0,0,1-18.822,13ZM-9.4,10.92A33.257,33.257,0,0,1-9.786,16.7c-.144.744-.276.888-.816.888a9.329,9.329,0,0,1-1.572-.156,4.909,4.909,0,0,1,.336,1.344c.432.036.8.048,1.116.048a2.566,2.566,0,0,0,1.536-.312c.4-.312.612-.972.8-2.352.132-.984.264-3.072.276-4.44a15.293,15.293,0,0,1,.06-2.088,6.576,6.576,0,0,1-.984.048h-2.616c.144-.372.192-.516.348-1.008a4.114,4.114,0,0,1,.156-.492l-1.344-.24a7.729,7.729,0,0,1-.432,1.512,7.768,7.768,0,0,1-1.416,2.388,3.5,3.5,0,0,1,.96.972,8.367,8.367,0,0,0,1.2-1.9Zm-8.916,3.72a11.272,11.272,0,0,1-.564,3.228l1.068.492a13.338,13.338,0,0,0,.588-3.552Zm3.168.168a28.141,28.141,0,0,1,.456,3.084l1.092-.264a29.648,29.648,0,0,0-.576-3.06Zm4.68.516a13.747,13.747,0,0,0-1.476-3.012l-1.044.576a13.2,13.2,0,0,1,1.368,3.048Zm9.42-8.592H-6.09v1.35H-2.8L-5.73,18h1.656L-1.05,7.74ZM6.114,8.316c0-1.026-.522-1.584-1.674-1.584H2.478c-1.17,0-1.692.558-1.692,1.584v8.1C.786,17.442,1.308,18,2.478,18H4.44c1.152,0,1.674-.558,1.674-1.584ZM4.476,16.164c0,.432-.108.522-.54.522H2.964c-.432,0-.522-.09-.522-.522v-7.6c0-.432.09-.522.522-.522h.972c.432,0,.54.09.54.522Zm7.9-8.046c0-.936-.414-1.386-1.4-1.386H9.786c-.99,0-1.4.45-1.4,1.386V11.43c0,.918.414,1.386,1.4,1.386h1.188c.99,0,1.4-.468,1.4-1.386Zm6.5,5.184a1.209,1.209,0,0,0-1.386-1.386H16.284a1.221,1.221,0,0,0-1.4,1.386v3.312A1.221,1.221,0,0,0,16.284,18H17.49a1.209,1.209,0,0,0,1.386-1.386Zm-7.83-2.088c0,.414-.072.5-.468.5h-.4c-.414,0-.468-.09-.468-.5v-2.9c0-.4.054-.486.468-.486h.4c.4,0,.468.09.468.486Zm6.5,5.2c0,.4-.054.486-.468.486H16.7c-.414,0-.486-.09-.486-.486V13.5c0-.4.072-.486.486-.486h.378c.414,0,.468.09.468.486ZM15.582,6.732,10.344,18h1.332L16.932,6.732Z" transform="translate(359.45 8550.661)" fill="#fff"/>
    <g id="グループ_4322" data-name="グループ 4322" transform="translate(267.161 8620.855)">
      <rect id="長方形_3237" data-name="長方形 3237" width="185.839" height="53.221" rx="6" fill="#847c79"/>
      <path id="パス_6615" data-name="パス 6615" d="M-13.956-6.2h-2.376V-8.148a7.058,7.058,0,0,1,.048-.96h-1.44a6.684,6.684,0,0,1,.06,1.056v2.376c0,.276-.012.5-.036.768.288-.024.54-.036.864-.036h2.88v3.936h-2.82V-2.952a5.929,5.929,0,0,1,.06-1.032h-1.452a9.974,9.974,0,0,1,.06,1.152V-.288a8.707,8.707,0,0,1-.072,1.2h1.4V.288h7.14V.912h1.4A7.578,7.578,0,0,1-8.3-.288V-2.88a9.594,9.594,0,0,1,.06-1.14H-9.7A6.386,6.386,0,0,1-9.636-3v1.992H-12.6V-4.944h3.1c.288,0,.576.012.84.036A6.575,6.575,0,0,1-8.7-5.676V-8.064a6.9,6.9,0,0,1,.06-1.044h-1.44a7.209,7.209,0,0,1,.048.948V-6.2H-12.6V-8.832a7.723,7.723,0,0,1,.072-1.188h-1.5a7.2,7.2,0,0,1,.072,1.188ZM.516-8.256A1.928,1.928,0,0,1-.744-6.888a6.047,6.047,0,0,1-1.824.432l.432-.2L-2.5-7.716a12.269,12.269,0,0,1-2.94,1.08L-4.968-5.4c.228-.108.348-.168.528-.24.888-.36,1.032-.42,1.728-.744a3.267,3.267,0,0,1,.5.768h-.624c-.552,0-.972-.012-1.224-.036A11.416,11.416,0,0,1-4.008-4.4V-2.04c0,.5-.024.984-.048,1.2.3-.024.72-.036,1.272-.036h.48A8.374,8.374,0,0,1-5.5-.036a4.806,4.806,0,0,1,.732,1.068A9.7,9.7,0,0,0-.96-.348l-.732-.528H1.584l-.7.528A9.166,9.166,0,0,0,4.8,1.02a5.811,5.811,0,0,1,.744-1.1A8.877,8.877,0,0,1,2.22-.876h.564c.5,0,1,.012,1.272.036a10.682,10.682,0,0,1-.048-1.272v-2.22c0-.372,0-.72.012-1.044a9.167,9.167,0,0,0,1.092.24,4.3,4.3,0,0,1,.5-1.176c-2.184-.12-3.42-.756-3.792-1.944H3.672a3.578,3.578,0,0,1-.8.708,5.745,5.745,0,0,1,1.1.456A6.859,6.859,0,0,0,5.028-8.328c.156-.228.18-.276.276-.408L4.6-9.288a6.455,6.455,0,0,1-1,.048H.084a3.924,3.924,0,0,0,.252-.4,3.587,3.587,0,0,0,.2-.336L-.72-10.2A4.944,4.944,0,0,1-2.628-8.04a2.952,2.952,0,0,1,.8.792A8.087,8.087,0,0,0-.684-8.256ZM-1.26-5.616A4.451,4.451,0,0,0,.084-6.108,2.793,2.793,0,0,0,1.2-7.2,3.6,3.6,0,0,0,3.24-5.616h-4.5Zm-1.5.876H2.76v.456H-2.76Zm0,1.224H2.76v.492H-2.76Zm0,1.26H2.76v.444H-2.76Zm.348-6.6a11.456,11.456,0,0,0-1.944-1.1l-.78.912A8.107,8.107,0,0,1-3.228-7.872ZM12.5-5.5A19.942,19.942,0,0,1,7.56-3.288a4.387,4.387,0,0,1,.708,1.2c.924-.372,1.176-.48,1.908-.84-.012.216-.012.48-.012.672V-.4A11.143,11.143,0,0,1,10.092.96h1.4V.444h4.356V.96h1.392A9.381,9.381,0,0,1,17.172-.4V-3.36a11.535,11.535,0,0,1,.048-1.308c-.348.024-.684.036-1.26.036H14.2c-.312,0-.708,0-.972.012.54-.348.84-.552,1.3-.876H17.1a12.536,12.536,0,0,1,1.488.072v-1.32a10.169,10.169,0,0,1-1.368.072H15.984a17.541,17.541,0,0,0,1.632-1.656q.414-.486.54-.612l-1.188-.78A8.546,8.546,0,0,1,15.576-7.9V-8.928a9.537,9.537,0,0,1-1.344.072h-.864v-.2a5.113,5.113,0,0,1,.072-1.056H11.976a6.421,6.421,0,0,1,.072,1.056v.2H10.3A10.119,10.119,0,0,1,8.88-8.928v1.26a13.23,13.23,0,0,1,1.368-.048h1.8v1.044H9.312a10.562,10.562,0,0,1-1.464-.072v1.32A12.079,12.079,0,0,1,9.288-5.5Zm.864-1.176V-7.716h.984c.48,0,.684.012,1.008.036a11.738,11.738,0,0,1-1.152,1.008ZM11.5-3.54H15.84v.888H11.5Zm0,1.932H15.84v.924H11.5Z" transform="translate(92.289 31.886)" fill="#fff"/>
    </g>
    <g id="グループ_4323" data-name="グループ 4323" transform="translate(267.161 8589.729)">
      <path id="パス_3211" data-name="パス 3211" d="M2357-15111.9v13.031l37.517,9.3,37.517-9.3v-13.031Z" transform="translate(-2357 15111.898)" fill="#e65035"/>
      <path id="パス_6611" data-name="パス 6611" d="M-4.9-6.032H-6.936A6.907,6.907,0,0,1-7.9-6.08v.848a7.645,7.645,0,0,1,.944-.04H-4.9v.528h-1.7a5.107,5.107,0,0,1-.808-.04v.824a7.221,7.221,0,0,1,.808-.032h4.376a7.019,7.019,0,0,1,.816.032v-.824a5.16,5.16,0,0,1-.816.04H-4.016v-.528h2.184a9.23,9.23,0,0,1,.936.04V-6.08a6.853,6.853,0,0,1-.96.048h-2.16v-.1a2.467,2.467,0,0,1,.048-.616h-.976a3.293,3.293,0,0,1,.04.616Zm-2.1,4.208v-.928H-1.84v.928H-.9a3.134,3.134,0,0,1-.04-.584v-.584A3.623,3.623,0,0,1-.912-3.56c-.28.024-.48.032-.864.032H-7.064A8.2,8.2,0,0,1-7.92-3.56a4.251,4.251,0,0,1,.032.592V-2.4a3.257,3.257,0,0,1-.04.576Zm1.16-.68a1.525,1.525,0,0,1,.024.256,2.7,2.7,0,0,1-.128.752A1.754,1.754,0,0,1-6.984-.5a3.449,3.449,0,0,1-1.1.3A3.142,3.142,0,0,1-7.5.68a4.977,4.977,0,0,0,.864-.3A3.677,3.677,0,0,0-5.7-.28,2.968,2.968,0,0,0-4.92-2.112a1.824,1.824,0,0,1,.048-.344Zm2.608.648A3.283,3.283,0,0,1-3.2-2.48h-.96a4.508,4.508,0,0,1,.032.664v1.64c0,.584.216.688,1.432.688.92,0,1.3-.056,1.48-.232.216-.2.336-.632.4-1.44a2.757,2.757,0,0,1-.856-.272,2.473,2.473,0,0,1-.144.992c-.072.1-.248.136-.808.136-.544,0-.616-.032-.616-.24ZM2.432-4.8v1.08h-.84A5.755,5.755,0,0,1,.8-3.752V-2.9a5.4,5.4,0,0,1,.784-.04h.6A11.508,11.508,0,0,1,1.36-.808c-.208.016-.384.024-.488.024H.752L.9.136a3.929,3.929,0,0,1,.4-.08c1.624-.28,1.776-.3,2.688-.52.064.184.112.3.224.648l.76-.44A14.562,14.562,0,0,0,3.9-2.48l-.7.376a7.186,7.186,0,0,1,.5.928c-.44.1-.752.16-1.408.256A13.551,13.551,0,0,0,2.968-2.6c.08-.224.08-.224.112-.336h.928a5.117,5.117,0,0,1,.8.04v-.856a5.9,5.9,0,0,1-.8.032H3.272V-4.8h.64a6.146,6.146,0,0,1,.792.032v-.856a4.819,4.819,0,0,1-.792.04h-.64v-.3a4.068,4.068,0,0,1,.04-.736H2.384a4.546,4.546,0,0,1,.048.744v.3H1.808a4.606,4.606,0,0,1-.768-.04v.856A5.81,5.81,0,0,1,1.8-4.8ZM7.88-5.616a6.2,6.2,0,0,1,.032-.736,5.565,5.565,0,0,1-.7.032H5.728a6.434,6.434,0,0,1-.72-.032c.016.192.024.352.024.656V-.24A6.933,6.933,0,0,1,4.984.7h.928a7.11,7.11,0,0,1-.04-.944v-5.3H7.04v4.16c0,.184-.056.224-.3.224a4.405,4.405,0,0,1-.64-.056,2.628,2.628,0,0,1,.184.888c.176.008.256.008.384.008.976,0,1.208-.168,1.208-.872Z" transform="translate(36.356 13.45)" fill="#fff"/>
    </g>
    <line id="線_1139" data-name="線 1139" y2="39.916" transform="translate(262.581 8580.939)" fill="none" stroke="#707070" stroke-width="1" stroke-dasharray="3"/>
  </g>
</svg>
