<svg xmlns="http://www.w3.org/2000/svg" width="445" height="68" viewBox="0 0 445 68">
  <g id="グループ_4104" data-name="グループ 4104" transform="translate(-629.06 -258)">
    <rect id="長方形_1" data-name="長方形 1" width="445" height="68" rx="34" transform="translate(629.06 258)" fill="#f19917"/>
    <g id="グループ_4236" data-name="グループ 4236" transform="translate(727.15 275)">
      <path id="パス_6582" data-name="パス 6582" d="M-63.192-12.384v-4.1a29.217,29.217,0,0,0,6.912-1.776,8.007,8.007,0,0,1,.864-.336l-1.224-1.344a7.6,7.6,0,0,1-2.208,1.032,23.157,23.157,0,0,1-5.688,1.1h-.288c.072.7.12,1.728.12,4.44,0,8.016-.72,11.376-3.024,14.208A5.043,5.043,0,0,1-66.36,1.848,12.468,12.468,0,0,0-64.584-1.44a26.353,26.353,0,0,0,1.368-8.616v-.936h3.768V-.528a14.543,14.543,0,0,1-.144,2.4h1.848a11.984,11.984,0,0,1-.144-2.4V-10.992H-57a12.476,12.476,0,0,1,2.112.12v-1.656a12.174,12.174,0,0,1-2.208.144Zm-7.08-5.352v-.648a8.028,8.028,0,0,1,.12-1.68H-71.9a8.311,8.311,0,0,1,.12,1.68v.648h-2.4a11.639,11.639,0,0,1-2.112-.12v1.608a12.165,12.165,0,0,1,2.088-.12h6.144a12.236,12.236,0,0,1,2.04.12v-1.608a11.094,11.094,0,0,1-2.016.12Zm-4.512,5.52a10.644,10.644,0,0,1-1.992-.12v1.608a10.962,10.962,0,0,1,1.992-.12h7.128a11.192,11.192,0,0,1,1.944.12v-1.608a10.541,10.541,0,0,1-1.944.12h-1.416A25.437,25.437,0,0,0-67.44-15.7l-1.44-.456a12.747,12.747,0,0,1-1.608,3.936Zm2.5,5.352A11.36,11.36,0,0,1-74.04-4.3a16.053,16.053,0,0,1-3.12,2.64,4.912,4.912,0,0,1,.912,1.344A14.219,14.219,0,0,0-71.712-5.64c-.048.792-.072,1.416-.072,1.992V-.24a13.254,13.254,0,0,1-.144,2.064h1.656a13.279,13.279,0,0,1-.12-2.064V-3.72c-.024-.888-.048-1.584-.1-2.112a12.322,12.322,0,0,0,3,3.312,6.012,6.012,0,0,1,.84-1.3,10.154,10.154,0,0,1-3.384-3.048h2.28a10.541,10.541,0,0,1,1.944.12V-8.3a9.306,9.306,0,0,1-1.944.144h-2.64V-9.432a4.417,4.417,0,0,1,.1-.984H-71.9a4.417,4.417,0,0,1,.12.984V-8.16h-2.928A8.856,8.856,0,0,1-76.728-8.3V-6.72a8.764,8.764,0,0,1,1.968-.144Zm.024-6.024a14.277,14.277,0,0,0-1.368-3.24l-1.272.48a13.382,13.382,0,0,1,1.368,3.216Zm29.04,4.344a10.622,10.622,0,0,1,1.8.12v-1.632a11.632,11.632,0,0,1-1.9.12h-1.632c.12-1.632.168-2.472.192-3.96h1.512a10.45,10.45,0,0,1,1.8.12v-1.608a15.129,15.129,0,0,1-1.9.12h-1.392c.024-.84.024-.96.024-1.584a17.018,17.018,0,0,1,.12-2.616h-1.7a12.178,12.178,0,0,1,.144,2.136v2.064h-1.68a11.993,11.993,0,0,1-1.968-.144v1.656a12.862,12.862,0,0,1,1.968-.144H-46.2q-.072,2.808-.144,3.96h-1.872a11.993,11.993,0,0,1-1.968-.144V-8.4a13.374,13.374,0,0,1,2.04-.144h1.68a14.343,14.343,0,0,1-.96,4.08A9.571,9.571,0,0,1-50.616,0a3.292,3.292,0,0,1,1.2,1.08,13.574,13.574,0,0,0,4.1-7.776,15.559,15.559,0,0,0,3.288,4.584,6.128,6.128,0,0,1,.936-1.32A16.029,16.029,0,0,1-45-8.544Zm4.944,3.12a6.8,6.8,0,0,1-.912,3.192c-.84,1.32-2.376,2.28-4.7,2.9A5.071,5.071,0,0,1-42.768,1.9a16.929,16.929,0,0,0,1.8-.792,7.911,7.911,0,0,0,2.784-2.256,8.088,8.088,0,0,0,1.368-4.272h1.92V-.168c0,1.3.48,1.608,2.472,1.608,3.24,0,3.5-.24,3.96-3.912a3.788,3.788,0,0,1-1.344-.7,7.561,7.561,0,0,1-.5,2.76c-.192.36-.6.48-1.728.48-1.272,0-1.44-.072-1.44-.552V-5.424h.816a16.744,16.744,0,0,1,2.16.1,17.164,17.164,0,0,1-.1-2.184V-16.44a23.278,23.278,0,0,1,.1-2.448,13.969,13.969,0,0,1-2.328.12H-38.3a14.916,14.916,0,0,1-2.3-.12,15.382,15.382,0,0,1,.12,2.376v8.856c0,1.2-.024,1.848-.072,2.3q.756-.072,1.8-.072Zm-.768-12h7.008v2.64h-7.008Zm0,3.936h7.008v2.712h-7.008Zm0,4.008h7.008v2.808h-7.008ZM-16.08-6.456A36.182,36.182,0,0,1-19.128-.672c-2.16.144-2.16.144-2.544.144A11.109,11.109,0,0,1-22.9-.6l.288,1.824A28.793,28.793,0,0,1-18.552.792C-14.808.5-11.184.12-6.912-.456-6.408.168-6.1.576-5.16,1.9L-3.84.912A51.909,51.909,0,0,0-9.648-5.424l-1.248.768C-9.84-3.672-9.408-3.24-7.968-1.68c-3.552.432-6.048.672-9.36.888a36.1,36.1,0,0,0,3-5.664h8.616a20.838,20.838,0,0,1,2.736.144V-8.04A20.338,20.338,0,0,1-5.712-7.9H-20.5a20.586,20.586,0,0,1-2.736-.144v1.728A20.586,20.586,0,0,1-20.5-6.456Zm1.992-13.392A17.651,17.651,0,0,1-17.9-15.576a25.179,25.179,0,0,1-6.36,3.912A4.817,4.817,0,0,1-23.256-10.3a26.364,26.364,0,0,0,6.48-4.224,20.771,20.771,0,0,0,3.6-3.936,19.928,19.928,0,0,0,3.84,4.1,32.972,32.972,0,0,0,6.672,4.176,5.083,5.083,0,0,1,.936-1.536,25.924,25.924,0,0,1-6.624-3.84,16.139,16.139,0,0,1-4.032-4.3Zm-4.872,9.024a13.8,13.8,0,0,1,1.872-.1h7.776a14.773,14.773,0,0,1,2.016.1v-1.608a14.551,14.551,0,0,1-2.016.1h-7.752a12.67,12.67,0,0,1-1.9-.1Zm39.912-6.624a12.469,12.469,0,0,1,.1-1.728,19.939,19.939,0,0,1-2.736.12H8.136a19.725,19.725,0,0,1-2.736-.12,13.9,13.9,0,0,1,.1,1.728v1.512a12.2,12.2,0,0,1-.1,1.68c.72-.048,1.584-.072,2.688-.072H18.336c1.1,0,1.992.024,2.712.072a11.54,11.54,0,0,1-.1-1.68Zm-1.536-.336v2.232H7.008v-2.232ZM4.584-4.68a16.611,16.611,0,0,1-.1,2.52,26.833,26.833,0,0,1,2.712-.1h12a26.531,26.531,0,0,1,2.712.1c-.048-.456-.072-.648-.072-.816v-.408l-.024-1.3v-5.592a22.8,22.8,0,0,1,.1-2.616c-.72.072-1.512.1-2.712.1H7.2a26.833,26.833,0,0,1-2.712-.1,23.619,23.619,0,0,1,.1,2.616Zm1.488-6.84H20.328V-9.7H6.072Zm0,3.024H20.328v1.872H6.072Zm0,3.072H20.328V-3.5H6.072ZM9.144-2.16A14.8,14.8,0,0,1,2.208.6a4.723,4.723,0,0,1,1.08,1.392A27.942,27.942,0,0,0,6.96.768,15.463,15.463,0,0,0,10.416-1.2Zm6.72.912c2.3,1.632,3.6,2.208,7.272,3.264A4.913,4.913,0,0,1,24.168.672a17.961,17.961,0,0,1-7.152-2.856ZM48.072-16.584a15.352,15.352,0,0,1-2.856,3.336,21.578,21.578,0,0,1-2.04-1.824,31.581,31.581,0,0,0,2.928-3.12l-1.248-.888a14.741,14.741,0,0,1-2.5,3.12A7.4,7.4,0,0,1,40.416-19.3a14.975,14.975,0,0,1-2.136.1H33.744a8.254,8.254,0,0,1-1.728-.12v1.512a15.086,15.086,0,0,1,1.56-.12h4.368a16.37,16.37,0,0,1-2.976,3.576,32.689,32.689,0,0,0-3.5-2.976l-1.056.96a26.039,26.039,0,0,1,3.5,2.928,21.062,21.062,0,0,1-5.5,3.312,3.994,3.994,0,0,1,.912,1.272A23.123,23.123,0,0,0,35.76-13.2a19.211,19.211,0,0,0,3.768-4.584,16.23,16.23,0,0,0,3.384,4.344A21.664,21.664,0,0,0,49.8-8.952a4.814,4.814,0,0,1,.888-1.368,17.045,17.045,0,0,1-4.44-2.208,25.936,25.936,0,0,0,1.992-1.944c.744-.84.744-.84,1.08-1.2ZM31.368-.336A12.482,12.482,0,0,1,29.04-.48V1.176a16.108,16.108,0,0,1,2.376-.144h16.44a16.238,16.238,0,0,1,2.4.144V-.48A15.315,15.315,0,0,1,47.9-.336H43.2a22.843,22.843,0,0,0,1.512-2.616L43.3-3.6A16.528,16.528,0,0,1,41.688-.336H37.536A23.826,23.826,0,0,0,36-3.48l-1.416.5A15.742,15.742,0,0,1,36-.336Zm4.056-10.752a10.384,10.384,0,0,1,1.944-.12H41.88a10.129,10.129,0,0,1,1.9.12V-12.6a9.4,9.4,0,0,1-1.872.12H37.32a9.822,9.822,0,0,1-1.9-.12ZM44.64-3.84c.816,0,1.32.024,1.9.072a8.27,8.27,0,0,1-.1-1.608V-7.944a10.721,10.721,0,0,1,.1-1.608,14.575,14.575,0,0,1-1.92.1H34.584a15.049,15.049,0,0,1-1.92-.1,11.812,11.812,0,0,1,.1,1.608v2.568a12.048,12.048,0,0,1-.1,1.608c.552-.048,1.056-.072,1.848-.072Zm-10.392-4.3h10.7v3h-10.7ZM69.48-.24c0,.48-.192.6-1.008.6A14.135,14.135,0,0,1,66.216.144a5.619,5.619,0,0,1,.312,1.512c1.008.072,1.728.1,2.232.1,1.608,0,2.112-.432,2.112-1.8V-3.672c0-1.344-.048-2.256-.144-4.44a14.749,14.749,0,0,0,1.8,4.248A14.365,14.365,0,0,0,76.512.408a4.855,4.855,0,0,1,1.032-1.32A13.371,13.371,0,0,1,73.2-5.16a26.781,26.781,0,0,0,3.288-3.768l-1.248-.84a15.014,15.014,0,0,1-2.688,3.48A15.857,15.857,0,0,1,70.9-10.824V-10.9h3.888a14.09,14.09,0,0,1,2.232.12v-1.536a14.6,14.6,0,0,1-2.256.144h-.528c.168-2.064.24-3.168.312-4.416a17.038,17.038,0,0,1,.216-2.5,20.6,20.6,0,0,1-2.328.1H67.248a14.576,14.576,0,0,1-2.28-.12v1.512a14.576,14.576,0,0,1,2.28-.12H73.2c-.048,1.152-.072,1.392-.1,2.112H67.7a11.527,11.527,0,0,1-2.064-.12v1.464a12.372,12.372,0,0,1,2.064-.12h5.3c-.072,1.008-.072,1.056-.192,2.208H66.072a13.81,13.81,0,0,1-2.184-.144v1.536a13.078,13.078,0,0,1,2.184-.12H69.48v5.5a28.729,28.729,0,0,1-5.712,3.624l-.048-1.1c-1.32.528-1.8.7-2.856,1.032V-8.856h1.008a12.826,12.826,0,0,1,2.112.12v-1.512a13,13,0,0,1-2.112.12H60.864v-2.5h.816a10.518,10.518,0,0,1,1.608.1v-1.416a10.124,10.124,0,0,1-1.608.1H58.728a9.614,9.614,0,0,1-1.584-.1,15.409,15.409,0,0,0,3.168-4.56A14.118,14.118,0,0,0,63.7-14.016a6.427,6.427,0,0,1,.864-1.248,10.8,10.8,0,0,1-3.48-4.416h-1.7a12.341,12.341,0,0,1-4.32,5.712,3.129,3.129,0,0,1,.864,1.176c.576-.5.792-.7,1.2-1.1v1.368a11.116,11.116,0,0,1,1.56-.1H59.5v2.5H57.864a14.425,14.425,0,0,1-2.256-.12v1.512a14.847,14.847,0,0,1,2.232-.12H59.5v7.392a19.506,19.506,0,0,1-4.032.792L55.776.936a13.916,13.916,0,0,1,1.44-.408A49.411,49.411,0,0,0,63.792-1.56l.624,1.2c.312-.192.312-.192.72-.456,1.944-1.248,1.944-1.248,2.376-1.56.672-.48,1.152-.84,1.968-1.488ZM58.368-2.712A30.438,30.438,0,0,0,57.24-7.584L56.064-7.2A24.5,24.5,0,0,1,57.12-2.28Zm4.416-.576a27.1,27.1,0,0,0,1.152-4.1l-1.2-.456A15.435,15.435,0,0,1,61.7-3.672Zm2.112-5.9a16.957,16.957,0,0,1,2.016,3.936L68.088-6a23.853,23.853,0,0,0-2.04-3.744Z" transform="translate(171.909 28)" fill="#fff"/>
      <g id="グループ_4235" data-name="グループ 4235" transform="translate(0 2)">
        <rect id="長方形_32" data-name="長方形 32" width="84" height="32" rx="16" transform="translate(-0.091)" fill="#fff"/>
        <path id="パス_6581" data-name="パス 6581" d="M-17.82-9.88h-1.04A12.477,12.477,0,0,1-20.8-10v1.38a13.6,13.6,0,0,1,1.94-.12h1.04v3.62h-.54a12.477,12.477,0,0,1-1.94-.12v1.36A12.911,12.911,0,0,1-18.42-4H-5.38a12.92,12.92,0,0,1,1.92.12V-5.24a12.127,12.127,0,0,1-1.94.12h-.68V-8.74H-5a13.317,13.317,0,0,1,1.96.12V-10A12.584,12.584,0,0,1-5-9.88H-6.08v-3.58c.86,0,1.48.04,2.22.1V-14.7a17.963,17.963,0,0,1-2.52.12H-16.6c.42-.64.6-.92,1.06-1.74.14-.22.18-.3.3-.48l-1.4-.34a5.077,5.077,0,0,1-.4,1.06,12.467,12.467,0,0,1-3.88,4.46,3.006,3.006,0,0,1,.96.84A14.848,14.848,0,0,0-17.82-13Zm1.16-3.58h2.38v3.58h-2.38Zm0,4.72h2.38v3.62h-2.38Zm3.48,3.62V-8.74h2.36v3.62Zm0-4.76v-3.58h2.36v3.58Zm3.46,4.76V-8.74h2.48v3.62Zm0-4.76v-3.58h2.48v3.58ZM-3.34.42A18.841,18.841,0,0,0-5.88-3.34L-6.9-2.8A15.436,15.436,0,0,1-4.46,1.14ZM-8.9.82a18.493,18.493,0,0,0-1.2-4l-1.08.32a16.453,16.453,0,0,1,1.04,4.02Zm-4.56.2a21.315,21.315,0,0,0-.6-4.12l-1.12.18a21.335,21.335,0,0,1,.46,4.14Zm-6.14.24a12.379,12.379,0,0,0,2.56-4.04l-1.08-.6A8.577,8.577,0,0,1-20.64.38Zm37.3-6.2-5.46,1.3a10.866,10.866,0,0,1-1.92.32l.26,1.42a13.834,13.834,0,0,1,1.86-.54L17.7-3.72V-.7a11.738,11.738,0,0,1-.12,2.2H19.1a15.527,15.527,0,0,1-.12-2.18V-4.02l.46-.12a14.062,14.062,0,0,1,1.92-.34l-.24-1.4a12.508,12.508,0,0,1-1.84.56l-.3.06v-9.2a14.357,14.357,0,0,1,.12-2.08H17.58a12.7,12.7,0,0,1,.12,2.1ZM6.6-8.6A16.142,16.142,0,0,1,5.48-5.92,12.686,12.686,0,0,1,3.1-2.56a4.2,4.2,0,0,1,.76,1.12A15.191,15.191,0,0,0,6.94-7.16c-.06,1.06-.1,2.18-.1,3.1v3.4a17.653,17.653,0,0,1-.12,2.22H8.18a16.456,16.456,0,0,1-.12-2.2V-4.38c0-.38-.06-2.16-.1-2.96A11.834,11.834,0,0,0,10.3-3.82,6.986,6.986,0,0,1,11-4.9,11.954,11.954,0,0,1,8.14-8.6h1.1a10.569,10.569,0,0,1,1.5.08V-9.78a9.584,9.584,0,0,1-1.48.08H8.06v-4.74a13.323,13.323,0,0,1,.12-2.12H6.72a14.151,14.151,0,0,1,.12,2.14V-9.7H5.26a9.056,9.056,0,0,1-1.74-.1v1.3a9.858,9.858,0,0,1,1.74-.1ZM3.62-14.84a17.7,17.7,0,0,1,1.32,4.28L6-11.02A23.467,23.467,0,0,0,4.66-15.3Zm6.46-.52a14.927,14.927,0,0,1-1.46,4.34l.98.46a22.583,22.583,0,0,0,1.62-4.36Zm2.02,1.2a16.929,16.929,0,0,1,3.64,3.24l.82-1.04a20.5,20.5,0,0,0-3.6-3.12Zm-.62,5A14.715,14.715,0,0,1,15.1-6.04l.84-1a17.72,17.72,0,0,0-3.58-3.04Z" transform="translate(42.909 24)" fill="#f19917"/>
      </g>
    </g>
  </g>
</svg>
