<svg id="コンポーネント_11_1" data-name="コンポーネント 11 – 1" xmlns="http://www.w3.org/2000/svg" width="323.448" height="68.83" viewBox="0 0 323.448 68.83">
  <rect id="長方形_1" data-name="長方形 1" width="323.448" height="68.83" rx="34.415" transform="translate(0 0)" fill="#f19917"/>
  <g id="グループ_4236" data-name="グループ 4236" transform="translate(49.919 14.426)">
    <path id="パス_6583" data-name="パス 6583" d="M-52.66-10.32v-3.42a24.347,24.347,0,0,0,5.76-1.48,6.672,6.672,0,0,1,.72-.28l-1.02-1.12a6.329,6.329,0,0,1-1.84.86,19.3,19.3,0,0,1-4.74.92h-.24c.06.58.1,1.44.1,3.7,0,6.68-.6,9.48-2.52,11.84a4.2,4.2,0,0,1,1.14.84A10.39,10.39,0,0,0-53.82-1.2a21.961,21.961,0,0,0,1.14-7.18v-.78h3.14V-.44a12.12,12.12,0,0,1-.12,2h1.54a9.987,9.987,0,0,1-.12-2V-9.16h.74a10.4,10.4,0,0,1,1.76.1v-1.38a10.145,10.145,0,0,1-1.84.12Zm-5.9-4.46v-.54a6.69,6.69,0,0,1,.1-1.4h-1.46a6.926,6.926,0,0,1,.1,1.4v.54h-2a9.7,9.7,0,0,1-1.76-.1v1.34a10.138,10.138,0,0,1,1.74-.1h5.12a10.2,10.2,0,0,1,1.7.1v-1.34a9.245,9.245,0,0,1-1.68.1Zm-3.76,4.6a8.87,8.87,0,0,1-1.66-.1v1.34a9.135,9.135,0,0,1,1.66-.1h5.94a9.327,9.327,0,0,1,1.62.1v-1.34a8.784,8.784,0,0,1-1.62.1h-1.18a21.2,21.2,0,0,0,1.36-2.9l-1.2-.38a10.623,10.623,0,0,1-1.34,3.28Zm2.08,4.46A9.467,9.467,0,0,1-61.7-3.58a13.378,13.378,0,0,1-2.6,2.2,4.093,4.093,0,0,1,.76,1.12A11.849,11.849,0,0,0-59.76-4.7c-.04.66-.06,1.18-.06,1.66V-.2a11.045,11.045,0,0,1-.12,1.72h1.38a11.065,11.065,0,0,1-.1-1.72V-3.1c-.02-.74-.04-1.32-.08-1.76a10.269,10.269,0,0,0,2.5,2.76,5.01,5.01,0,0,1,.7-1.08,8.462,8.462,0,0,1-2.82-2.54h1.9a8.784,8.784,0,0,1,1.62.1v-1.3a7.755,7.755,0,0,1-1.62.12h-2.2V-7.86a3.681,3.681,0,0,1,.08-.82h-1.34a3.681,3.681,0,0,1,.1.82V-6.8h-2.44a7.38,7.38,0,0,1-1.68-.12V-5.6a7.3,7.3,0,0,1,1.64-.12Zm.02-5.02a11.9,11.9,0,0,0-1.14-2.7l-1.06.4a11.152,11.152,0,0,1,1.14,2.68Zm24.2,3.62a8.852,8.852,0,0,1,1.5.1V-8.38a9.694,9.694,0,0,1-1.58.1h-1.36c.1-1.36.14-2.06.16-3.3h1.26a8.708,8.708,0,0,1,1.5.1v-1.34a12.607,12.607,0,0,1-1.58.1h-1.16c.02-.7.02-.8.02-1.32a14.182,14.182,0,0,1,.1-2.18h-1.42a10.148,10.148,0,0,1,.12,1.78v1.72h-1.4a9.994,9.994,0,0,1-1.64-.12v1.38a10.718,10.718,0,0,1,1.64-.12h1.36q-.06,2.34-.12,3.3h-1.56a9.994,9.994,0,0,1-1.64-.12V-7a11.145,11.145,0,0,1,1.7-.12h1.4a11.952,11.952,0,0,1-.8,3.4A7.976,7.976,0,0,1-42.18,0a2.744,2.744,0,0,1,1,.9,11.312,11.312,0,0,0,3.42-6.48,12.966,12.966,0,0,0,2.74,3.82,5.106,5.106,0,0,1,.78-1.1A13.358,13.358,0,0,1-37.5-7.12Zm4.12,2.6a5.664,5.664,0,0,1-.76,2.66A6.308,6.308,0,0,1-36.58.56a4.225,4.225,0,0,1,.94,1.02,14.107,14.107,0,0,0,1.5-.66A6.592,6.592,0,0,0-31.82-.96a6.74,6.74,0,0,0,1.14-3.56h1.6V-.14c0,1.08.4,1.34,2.06,1.34,2.7,0,2.92-.2,3.3-3.26a3.157,3.157,0,0,1-1.12-.58,6.3,6.3,0,0,1-.42,2.3c-.16.3-.5.4-1.44.4-1.06,0-1.2-.06-1.2-.46V-4.52h.68a13.953,13.953,0,0,1,1.8.08,14.3,14.3,0,0,1-.08-1.82V-13.7a19.4,19.4,0,0,1,.08-2.04,11.641,11.641,0,0,1-1.94.1h-4.56a12.43,12.43,0,0,1-1.92-.1,12.818,12.818,0,0,1,.1,1.98v7.38c0,1-.02,1.54-.06,1.92q.63-.06,1.5-.06Zm-.64-10h5.84v2.2h-5.84Zm0,3.28h5.84v2.26h-5.84Zm0,3.34h5.84v2.34h-5.84ZM-13.4-5.38A30.152,30.152,0,0,1-15.94-.56c-1.8.12-1.8.12-2.12.12A9.258,9.258,0,0,1-19.08-.5l.24,1.52A23.994,23.994,0,0,1-15.46.66C-12.34.42-9.32.1-5.76-.38c.42.52.68.86,1.46,1.96L-3.2.76A43.257,43.257,0,0,0-8.04-4.52l-1.04.64c.88.82,1.24,1.18,2.44,2.48-2.96.36-5.04.56-7.8.74a30.083,30.083,0,0,0,2.5-4.72h7.18a17.365,17.365,0,0,1,2.28.12V-6.7a16.948,16.948,0,0,1-2.28.12H-17.08a17.155,17.155,0,0,1-2.28-.12v1.44a17.155,17.155,0,0,1,2.28-.12Zm1.66-11.16a14.709,14.709,0,0,1-3.18,3.56,20.983,20.983,0,0,1-5.3,3.26,4.014,4.014,0,0,1,.84,1.14,21.97,21.97,0,0,0,5.4-3.52,17.309,17.309,0,0,0,3-3.28,16.606,16.606,0,0,0,3.2,3.42A27.477,27.477,0,0,0-2.22-8.48a4.236,4.236,0,0,1,.78-1.28,21.6,21.6,0,0,1-5.52-3.2,13.449,13.449,0,0,1-3.36-3.58ZM-15.8-9.02a11.5,11.5,0,0,1,1.56-.08h6.48a12.311,12.311,0,0,1,1.68.08v-1.34a12.125,12.125,0,0,1-1.68.08h-6.46a10.558,10.558,0,0,1-1.58-.08Zm33.26-5.52a10.39,10.39,0,0,1,.08-1.44,16.616,16.616,0,0,1-2.28.1H6.78a16.438,16.438,0,0,1-2.28-.1,11.585,11.585,0,0,1,.08,1.44v1.26a10.163,10.163,0,0,1-.08,1.4c.6-.04,1.32-.06,2.24-.06h8.54c.92,0,1.66.02,2.26.06a9.616,9.616,0,0,1-.08-1.4Zm-1.28-.28v1.86H5.84v-1.86ZM3.82-3.9a13.843,13.843,0,0,1-.08,2.1A22.361,22.361,0,0,1,6-1.88H16a22.109,22.109,0,0,1,2.26.08c-.04-.38-.06-.54-.06-.68v-.34L18.18-3.9V-8.56a19,19,0,0,1,.08-2.18c-.6.06-1.26.08-2.26.08H6a22.361,22.361,0,0,1-2.26-.08,19.683,19.683,0,0,1,.08,2.18ZM5.06-9.6H16.94v1.52H5.06Zm0,2.52H16.94v1.56H5.06Zm0,2.56H16.94v1.6H5.06ZM7.62-1.8A12.332,12.332,0,0,1,1.84.5a3.936,3.936,0,0,1,.9,1.16A23.285,23.285,0,0,0,5.8.64,12.886,12.886,0,0,0,8.68-1Zm5.6.76a16.281,16.281,0,0,0,6.06,2.72A4.094,4.094,0,0,1,20.14.56a14.967,14.967,0,0,1-5.96-2.38ZM40.06-13.82a12.793,12.793,0,0,1-2.38,2.78,17.982,17.982,0,0,1-1.7-1.52,26.318,26.318,0,0,0,2.44-2.6l-1.04-.74a12.284,12.284,0,0,1-2.08,2.6,6.168,6.168,0,0,1-1.62-2.78A12.48,12.48,0,0,1,31.9-16H28.12a6.879,6.879,0,0,1-1.44-.1v1.26a12.572,12.572,0,0,1,1.3-.1h3.64a13.641,13.641,0,0,1-2.48,2.98,27.24,27.24,0,0,0-2.92-2.48l-.88.8a21.7,21.7,0,0,1,2.92,2.44,17.552,17.552,0,0,1-4.58,2.76,3.328,3.328,0,0,1,.76,1.06A19.269,19.269,0,0,0,29.8-11a16.009,16.009,0,0,0,3.14-3.82,13.525,13.525,0,0,0,2.82,3.62A18.054,18.054,0,0,0,41.5-7.46a4.012,4.012,0,0,1,.74-1.14,14.2,14.2,0,0,1-3.7-1.84,21.614,21.614,0,0,0,1.66-1.62c.62-.7.62-.7.9-1ZM26.14-.28A10.4,10.4,0,0,1,24.2-.4V.98A13.423,13.423,0,0,1,26.18.86h13.7a13.531,13.531,0,0,1,2,.12V-.4a12.763,12.763,0,0,1-1.96.12H36a19.036,19.036,0,0,0,1.26-2.18L36.08-3A13.773,13.773,0,0,1,34.74-.28H31.28A19.855,19.855,0,0,0,30-2.9l-1.18.42A13.118,13.118,0,0,1,30-.28Zm3.38-8.96a8.653,8.653,0,0,1,1.62-.1H34.9a8.441,8.441,0,0,1,1.58.1V-10.5a7.832,7.832,0,0,1-1.56.1H31.1a8.185,8.185,0,0,1-1.58-.1ZM37.2-3.2c.68,0,1.1.02,1.58.06a6.892,6.892,0,0,1-.08-1.34V-6.62a8.934,8.934,0,0,1,.08-1.34,12.146,12.146,0,0,1-1.6.08H28.82a12.541,12.541,0,0,1-1.6-.08,9.844,9.844,0,0,1,.08,1.34v2.14a10.04,10.04,0,0,1-.08,1.34c.46-.04.88-.06,1.54-.06ZM28.54-6.78h8.92v2.5H28.54ZM57.9-.2c0,.4-.16.5-.84.5A11.779,11.779,0,0,1,55.18.12a4.683,4.683,0,0,1,.26,1.26c.84.06,1.44.08,1.86.08,1.34,0,1.76-.36,1.76-1.5V-3.06c0-1.12-.04-1.88-.12-3.7a12.291,12.291,0,0,0,1.5,3.54A11.971,11.971,0,0,0,63.76.34a4.046,4.046,0,0,1,.86-1.1A11.142,11.142,0,0,1,61-4.3a22.318,22.318,0,0,0,2.74-3.14l-1.04-.7a12.511,12.511,0,0,1-2.24,2.9,13.215,13.215,0,0,1-1.38-3.78v-.06h3.24a11.742,11.742,0,0,1,1.86.1v-1.28a12.164,12.164,0,0,1-1.88.12h-.44c.14-1.72.2-2.64.26-3.68a14.2,14.2,0,0,1,.18-2.08,17.164,17.164,0,0,1-1.94.08H56.04a12.147,12.147,0,0,1-1.9-.1v1.26a12.147,12.147,0,0,1,1.9-.1H61c-.04.96-.06,1.16-.08,1.76h-4.5a9.606,9.606,0,0,1-1.72-.1v1.22a10.31,10.31,0,0,1,1.72-.1h4.42c-.06.84-.06.88-.16,1.84H55.06a11.508,11.508,0,0,1-1.82-.12v1.28a10.9,10.9,0,0,1,1.82-.1H57.9V-4.5a23.941,23.941,0,0,1-4.76,3.02L53.1-2.4c-1.1.44-1.5.58-2.38.86V-7.38h.84a10.688,10.688,0,0,1,1.76.1V-8.54a10.837,10.837,0,0,1-1.76.1h-.84v-2.08h.68a8.765,8.765,0,0,1,1.34.08v-1.18a8.437,8.437,0,0,1-1.34.08H48.94a8.012,8.012,0,0,1-1.32-.08,12.841,12.841,0,0,0,2.64-3.8,11.765,11.765,0,0,0,2.82,3.74,5.356,5.356,0,0,1,.72-1.04,9,9,0,0,1-2.9-3.68H49.48a10.284,10.284,0,0,1-3.6,4.76,2.608,2.608,0,0,1,.72.98c.48-.42.66-.58,1-.92v1.14a9.263,9.263,0,0,1,1.3-.08h.68v2.08H48.22a12.021,12.021,0,0,1-1.88-.1v1.26a12.372,12.372,0,0,1,1.86-.1h1.38v6.16a16.255,16.255,0,0,1-3.36.66L46.48.78a11.6,11.6,0,0,1,1.2-.34A41.176,41.176,0,0,0,53.16-1.3l.52,1c.26-.16.26-.16.6-.38,1.62-1.04,1.62-1.04,1.98-1.3.56-.4.96-.7,1.64-1.24ZM48.64-2.26a25.365,25.365,0,0,0-.94-4.06L46.72-6a20.414,20.414,0,0,1,.88,4.1Zm3.68-.48a22.584,22.584,0,0,0,.96-3.42l-1-.38a12.862,12.862,0,0,1-.86,3.48Zm1.76-4.92a14.131,14.131,0,0,1,1.68,3.28L56.74-5a19.878,19.878,0,0,0-1.7-3.12Z" transform="translate(152.909 28)" fill="#fff"/>
    <g id="グループ_4235" data-name="グループ 4235" transform="translate(5.4 5)">
      <rect id="長方形_32" data-name="長方形 32" width="72.052" height="27.83" rx="13.915" transform="translate(0.682 0.574)" fill="#fff"/>
      <path id="パス_6584" data-name="パス 6584" d="M-16.038-8.892h-.936A11.229,11.229,0,0,1-18.72-9v1.242a12.24,12.24,0,0,1,1.746-.108h.936v3.258h-.486a11.229,11.229,0,0,1-1.746-.108v1.224A11.62,11.62,0,0,1-16.578-3.6H-4.842a11.628,11.628,0,0,1,1.728.108V-4.716a10.914,10.914,0,0,1-1.746.108h-.612V-7.866H-4.5a11.985,11.985,0,0,1,1.764.108V-9A11.326,11.326,0,0,1-4.5-8.892h-.972v-3.222c.774,0,1.332.036,2,.09V-13.23a16.167,16.167,0,0,1-2.268.108h-9.2c.378-.576.54-.828.954-1.566.126-.2.162-.27.27-.432l-1.26-.306a4.57,4.57,0,0,1-.36.954,11.22,11.22,0,0,1-3.492,4.014,2.705,2.705,0,0,1,.864.756,13.363,13.363,0,0,0,1.926-2Zm1.044-3.222h2.142v3.222h-2.142Zm0,4.248h2.142v3.258h-2.142Zm3.132,3.258V-7.866h2.124v3.258Zm0-4.284v-3.222h2.124v3.222Zm3.114,4.284V-7.866h2.232v3.258Zm0-4.284v-3.222h2.232v3.222ZM-3.006.378A16.957,16.957,0,0,0-5.292-3.006l-.918.486a13.892,13.892,0,0,1,2.2,3.546Zm-5,.36a16.644,16.644,0,0,0-1.08-3.6l-.972.288a14.807,14.807,0,0,1,.936,3.618Zm-4.1.18a19.184,19.184,0,0,0-.54-3.708l-1.008.162A19.2,19.2,0,0,1-13.248,1.1Zm-5.526.216a11.141,11.141,0,0,0,2.3-3.636l-.972-.54A7.72,7.72,0,0,1-18.576.342Zm33.57-5.58-4.914,1.17a9.78,9.78,0,0,1-1.728.288L9.522-1.71A12.45,12.45,0,0,1,11.2-2.2L15.93-3.348V-.63a10.564,10.564,0,0,1-.108,1.98H17.19a13.973,13.973,0,0,1-.108-1.962V-3.618l.414-.108a12.656,12.656,0,0,1,1.728-.306l-.216-1.26a11.258,11.258,0,0,1-1.656.5l-.27.054v-8.28a12.921,12.921,0,0,1,.108-1.872H15.822A11.427,11.427,0,0,1,15.93-13ZM5.94-7.74A14.528,14.528,0,0,1,4.932-5.328,11.417,11.417,0,0,1,2.79-2.3,3.781,3.781,0,0,1,3.474-1.3,13.672,13.672,0,0,0,6.246-6.444c-.054.954-.09,1.962-.09,2.79v3.06a15.888,15.888,0,0,1-.108,2H7.362a14.81,14.81,0,0,1-.108-1.98V-3.942c0-.342-.054-1.944-.09-2.664A10.651,10.651,0,0,0,9.27-3.438,6.287,6.287,0,0,1,9.9-4.41,10.759,10.759,0,0,1,7.326-7.74h.99a9.513,9.513,0,0,1,1.35.072V-8.8a8.626,8.626,0,0,1-1.332.072H7.254V-13A11.991,11.991,0,0,1,7.362-14.9H6.048a12.736,12.736,0,0,1,.108,1.926V-8.73H4.734a8.15,8.15,0,0,1-1.566-.09v1.17a8.872,8.872,0,0,1,1.566-.09ZM3.258-13.356A15.927,15.927,0,0,1,4.446-9.5L5.4-9.918A21.12,21.12,0,0,0,4.194-13.77Zm5.814-.468A13.434,13.434,0,0,1,7.758-9.918L8.64-9.5A20.325,20.325,0,0,0,10.1-13.428Zm1.818,1.08a15.236,15.236,0,0,1,3.276,2.916l.738-.936a18.453,18.453,0,0,0-3.24-2.808Zm-.558,4.5A13.244,13.244,0,0,1,13.59-5.436l.756-.9a15.948,15.948,0,0,0-3.222-2.736Z" transform="translate(36.51 21)" fill="#f19917"/>
    </g>
  </g>
</svg>
