<svg xmlns="http://www.w3.org/2000/svg" width="729" height="171" viewBox="0 0 729 171">
  <g id="グループ_4245" data-name="グループ 4245" transform="translate(-291 -2240)">
    <g id="グループ_4247" data-name="グループ 4247" transform="translate(302.535 2244.697)">
      <path id="パス_12" data-name="パス 12" d="M73.224,120.506H66.71a.846.846,0,0,1-.8-.737l-.9-5.064a1.012,1.012,0,0,1,.167-.767.782.782,0,0,1,.631-.338H74.12a.782.782,0,0,1,.631.338,1.012,1.012,0,0,1,.167.767l-.9,5.064A.846.846,0,0,1,73.224,120.506Zm-5.847-1.842h5.179l.57-3.223H66.808Z" transform="translate(-12.068 -9.002)" fill="#333"/>
      <path id="線_7" data-name="線 7" d="M-.186,20.73a.727.727,0,0,1-.128-.011.913.913,0,0,1-.678-1.052L1.777-.222a.945.945,0,0,1,.325-.6.743.743,0,0,1,.606-.165A.913.913,0,0,1,3.387.063L.619,19.952a.852.852,0,0,1-.8.778Z" transform="translate(52.873 114.99)" fill="#333"/>
      <path id="線_8" data-name="線 8" d="M2.583,20.73a.852.852,0,0,1-.8-.778L-.99.063A.913.913,0,0,1-.312-.989a.833.833,0,0,1,.931.767L3.388,19.666a1.007,1.007,0,0,1-.186.741.779.779,0,0,1-.619.322Z" transform="translate(60.527 114.99)" fill="#333"/>
      <path id="パス_13" data-name="パス 13" d="M66.959,63.5a19.529,19.529,0,0,1,7.026,1.249A16.367,16.367,0,0,1,79.777,68.5c3.5,3.515,5.342,8.6,5.342,14.706a28.668,28.668,0,0,1-1.41,8.969,24.39,24.39,0,0,1-3.862,7.372,18.628,18.628,0,0,1-5.77,5.012,14.611,14.611,0,0,1-14.235,0,18.628,18.628,0,0,1-5.77-5.012,24.389,24.389,0,0,1-3.862-7.372A28.667,28.667,0,0,1,48.8,83.2c0-6.071,1.847-11.141,5.341-14.67a16.442,16.442,0,0,1,5.791-3.775A19.375,19.375,0,0,1,66.959,63.5Zm0,41.066c9.115,0,16.531-9.582,16.531-21.362A22.183,22.183,0,0,0,82.2,75.423a15.492,15.492,0,0,0-3.5-5.549,14.78,14.78,0,0,0-5.233-3.381,18.842,18.842,0,0,0-13,.012,14.853,14.853,0,0,0-5.234,3.407c-3.138,3.165-4.8,7.762-4.8,13.293C50.429,94.983,57.845,104.566,66.959,104.566Z" transform="translate(-9.061 -5.031)" fill="#333"/>
      <path id="パス_14" data-name="パス 14" d="M51.129,84.625h-.147a.884.884,0,0,1-.781-.958.863.863,0,0,1,.847-.883,10.5,10.5,0,0,0,4.283-1.013,12.559,12.559,0,0,0,3.731-2.635A16.811,16.811,0,0,0,62.5,73.825a.807.807,0,0,1,.779-.524.835.835,0,0,1,.725.616,8.745,8.745,0,0,0,.763,1.6,13.136,13.136,0,0,0,2.863,3.364A15.459,15.459,0,0,0,73.506,81.9a25.742,25.742,0,0,0,9.914.525.846.846,0,0,1,.9.819.9.9,0,0,1-.724,1.013,27.083,27.083,0,0,1-10.563-.592,16.932,16.932,0,0,1-6.474-3.387,14.709,14.709,0,0,1-3.339-4.063,17.677,17.677,0,0,1-3.108,4.337,14.142,14.142,0,0,1-4.245,2.967,12.081,12.081,0,0,1-4.734,1.112Z" transform="translate(-9.321 -5.809)" fill="#333"/>
      <path id="パス_15" data-name="パス 15" d="M33.314,143.973h-.06a.891.891,0,0,1-.752-.986c.008-.13.214-3.223.835-7.172.84-5.34,1.993-9.476,3.425-12.28a14.107,14.107,0,0,1,3.549-4.36,20.737,20.737,0,0,1,4.234-2.712,24.508,24.508,0,0,1,5.067-1.842.826.826,0,0,1,.953.732.921.921,0,0,1-.647,1.077,23.481,23.481,0,0,0-4.757,1.74c-2.3,1.13-5.375,3.138-6.986,6.287-3.208,6.282-4.038,18.544-4.046,18.667A.862.862,0,0,1,33.314,143.973Z" transform="translate(-6.034 -9.082)" fill="#333"/>
      <path id="パス_16" data-name="パス 16" d="M104.764,143.972a.863.863,0,0,1-.814-.854c0-.031-.209-3.144-.814-7a41.413,41.413,0,0,0-3.229-11.663c-3.116-6.1-11.658-8.011-11.744-8.027a.921.921,0,0,1-.647-1.077.826.826,0,0,1,.953-.732,24.506,24.506,0,0,1,5.067,1.842,20.737,20.737,0,0,1,4.234,2.712,14.108,14.108,0,0,1,3.549,4.36c1.432,2.8,2.585,6.936,3.425,12.28.621,3.949.827,7.042.835,7.172a.892.892,0,0,1-.752.986Z" transform="translate(-16.247 -9.08)" fill="#333"/>
      <path id="パス_17" data-name="パス 17" d="M95.338,146.6a.872.872,0,0,1-.814-.921v-5.34H85.729v5.34a.82.82,0,1,1-1.629,0v-6.261a.872.872,0,0,1,.814-.921H95.338a.872.872,0,0,1,.814.921v6.261A.872.872,0,0,1,95.338,146.6Z" transform="translate(-15.615 -10.975)" fill="#333"/>
      <path id="パス_18" data-name="パス 18" d="M124.614,144.04h-.053a.889.889,0,0,1-.761-.978c.006-.1.151-2.594.631-5.77a33.724,33.724,0,0,1,2.735-9.918,11.645,11.645,0,0,1,2.876-3.554,16.767,16.767,0,0,1,3.394-2.2,19.53,19.53,0,0,1,4.05-1.5.825.825,0,0,1,.956.727.922.922,0,0,1-.643,1.081h0c-.068.015-6.759,1.554-9.224,6.372-2.562,5-3.144,14.784-3.149,14.882a.864.864,0,0,1-.813.861Z" transform="translate(-22.986 -9.518)" fill="#333"/>
      <path id="パス_19" data-name="パス 19" d="M194.343,144.04a.864.864,0,0,1-.814-.862c-.006-.1-.59-9.884-3.149-14.882-2.467-4.817-9.156-6.353-9.224-6.372a.922.922,0,0,1-.643-1.081.825.825,0,0,1,.956-.727,19.533,19.533,0,0,1,4.05,1.5,16.766,16.766,0,0,1,3.394,2.2,11.644,11.644,0,0,1,2.876,3.554,33.724,33.724,0,0,1,2.735,9.917c.48,3.177.625,5.665.631,5.77a.889.889,0,0,1-.761.978Z" transform="translate(-33.515 -9.518)" fill="#333"/>
      <path id="パス_20" data-name="パス 20" d="M152.445,114a.844.844,0,0,1,.8.722l5.375,27.531a.965.965,0,0,1-.416,1.005.747.747,0,0,1-.969-.177L146.4,130.1a1.014,1.014,0,0,1-.081-1.145l2.808-4.722-4.59-5.357a1,1,0,0,1-.211-.833.9.9,0,0,1,.494-.662l7.329-3.315A.732.732,0,0,1,152.445,114Zm3.944,25.395-4.533-23.216-5.311,2.4,4.2,4.907a1.013,1.013,0,0,1,.091,1.155l-2.813,4.73Z" transform="translate(-26.795 -9.033)" fill="#333"/>
      <path id="パス_21" data-name="パス 21" d="M166.59,114a.733.733,0,0,1,.3.066l7.329,3.315a.9.9,0,0,1,.494.662,1,1,0,0,1-.211.833l-4.59,5.357,2.808,4.722a1.014,1.014,0,0,1-.081,1.145L161.81,143.083a.747.747,0,0,1-.969.177.965.965,0,0,1-.415-1.005l5.375-27.531a.845.845,0,0,1,.79-.724Zm5.9,4.581-5.311-2.4-4.533,23.216,8.361-10.018-2.813-4.73a1.013,1.013,0,0,1,.091-1.155Z" transform="translate(-29.784 -9.033)" fill="#333"/>
      <path id="パス_22" data-name="パス 22" d="M176.569,113.669a.843.843,0,0,1-.793-.716,52.754,52.754,0,0,1-.741-6.4,83.535,83.535,0,0,1,.57-16.133,22.115,22.115,0,0,0-.682-8.195,24.822,24.822,0,0,0-4.16-8.726,18.252,18.252,0,0,0-5.925-5.121,18.9,18.9,0,0,0-17.08,0,18.252,18.252,0,0,0-5.925,5.121,24.823,24.823,0,0,0-4.16,8.726,22.115,22.115,0,0,0-.682,8.195,83.531,83.531,0,0,1,.57,16.132,52.764,52.764,0,0,1-.741,6.4.818.818,0,0,1-.975.693.93.93,0,0,1-.613-1.1,52.062,52.062,0,0,0,.708-6.169,81.451,81.451,0,0,0-.556-15.679,24.214,24.214,0,0,1,.733-8.987A26.76,26.76,0,0,1,140.6,72.3a19.688,19.688,0,0,1,31.387,0,26.761,26.761,0,0,1,4.489,9.407,24.213,24.213,0,0,1,.733,8.986,81.425,81.425,0,0,0-.553,15.727,51.588,51.588,0,0,0,.7,6.124,1.014,1.014,0,0,1-.158.779A.783.783,0,0,1,176.569,113.669Z" transform="translate(-25.105 -5.111)" fill="#333"/>
      <path id="パス_23" data-name="パス 23" d="M163.649,78.2h.055a.844.844,0,0,1,.726.661h0a13.909,13.909,0,0,0,1.634,3.446,22.478,22.478,0,0,0,6.945,6.877.949.949,0,0,1,.407.8,22.154,22.154,0,0,1-4.642,13.914,16.147,16.147,0,0,1-5.073,4.235,13.312,13.312,0,0,1-12.494,0,16.147,16.147,0,0,1-5.073-4.235A22.156,22.156,0,0,1,141.5,89.986a.872.872,0,0,1,.814-.921h.244a34.972,34.972,0,0,0,9.534-1.5,21.155,21.155,0,0,0,6.37-3.131,12.966,12.966,0,0,0,4.443-5.691A.816.816,0,0,1,163.649,78.2Zm8.138,12.311a24.476,24.476,0,0,1-7.1-7.224,19.1,19.1,0,0,1-1.109-2.052,15.08,15.08,0,0,1-4.213,4.742,22.683,22.683,0,0,1-6.833,3.366,36.247,36.247,0,0,1-9.381,1.555,19.978,19.978,0,0,0,4.2,11.762,12.456,12.456,0,0,0,20.233,0A20.062,20.062,0,0,0,171.787,90.511Z" transform="translate(-26.273 -6.197)" fill="#333"/>
    </g>
    <g id="グループ_4250" data-name="グループ 4250" transform="translate(278.137 2244.697)">
      <path id="長方形_39" data-name="長方形 39" d="M-.186-1H33.446a.872.872,0,0,1,.814.921V81.831a.872.872,0,0,1-.814.921H-.186A.872.872,0,0,1-1,81.831V-.079A.872.872,0,0,1-.186-1ZM32.632.842h-32V80.911h32Z" transform="translate(618.908 56.246)" fill="#333"/>
      <path id="線_9" data-name="線 9" d="M-.186,3.88A.872.872,0,0,1-1,2.959V-.079A.872.872,0,0,1-.186-1a.872.872,0,0,1,.814.921V2.959a.872.872,0,0,1-.814.921Z" transform="translate(627.947 66.006)" fill="#333"/>
      <path id="線_10" data-name="線 10" d="M-.186,3.88A.872.872,0,0,1-1,2.959V-.079A.872.872,0,0,1-.186-1a.872.872,0,0,1,.814.921V2.959a.872.872,0,0,1-.814.921Z" transform="translate(635.766 66.006)" fill="#333"/>
      <path id="線_11" data-name="線 11" d="M-.186,3.88A.872.872,0,0,1-1,2.959V-.079A.872.872,0,0,1-.186-1a.872.872,0,0,1,.814.921V2.959a.872.872,0,0,1-.814.921Z" transform="translate(643.583 66.006)" fill="#333"/>
      <path id="パス_24" data-name="パス 24" d="M821.9,144.973a.872.872,0,0,1-.814-.921V77.942H809.114a.928.928,0,0,1,0-1.842H821.9a.872.872,0,0,1,.814.921v67.031A.872.872,0,0,1,821.9,144.973Z" transform="translate(-150.082 -6.029)" fill="#333"/>
      <path id="線_12" data-name="線 12" d="M-.186,4.064A.872.872,0,0,1-1,3.143V-.079A.872.872,0,0,1-.186-1a.872.872,0,0,1,.814.921V3.143a.872.872,0,0,1-.814.921Z" transform="translate(662.801 81.291)" fill="#333"/>
      <path id="線_13" data-name="線 13" d="M-.186,4.064A.872.872,0,0,1-1,3.143V-.079A.872.872,0,0,1-.186-1a.872.872,0,0,1,.814.921V3.143a.872.872,0,0,1-.814.921Z" transform="translate(662.801 92.432)" fill="#333"/>
      <path id="線_14" data-name="線 14" d="M-.186,4.064A.872.872,0,0,1-1,3.143V-.079A.872.872,0,0,1-.186-1a.872.872,0,0,1,.814.921V3.143a.872.872,0,0,1-.814.921Z" transform="translate(662.801 103.664)" fill="#333"/>
      <path id="線_15" data-name="線 15" d="M-.186,4.064A.872.872,0,0,1-1,3.143V-.079A.872.872,0,0,1-.186-1a.872.872,0,0,1,.814.921V3.143a.872.872,0,0,1-.814.921Z" transform="translate(662.801 114.807)" fill="#333"/>
      <path id="線_16" data-name="線 16" d="M-.186,4.064A.872.872,0,0,1-1,3.143V-.079A.872.872,0,0,1-.186-1a.872.872,0,0,1,.814.921V3.143a.872.872,0,0,1-.814.921Z" transform="translate(662.801 126.039)" fill="#333"/>
      <path id="パス_25" data-name="パス 25" d="M735.814,144.973a.872.872,0,0,1-.814-.921V77.021a.872.872,0,0,1,.814-.921H748.6a.928.928,0,0,1,0,1.842H736.629v66.11A.872.872,0,0,1,735.814,144.973Z" transform="translate(-136.473 -6.029)" fill="#333"/>
      <path id="線_17" data-name="線 17" d="M-.186,4.064A.872.872,0,0,1-1,3.143V-.079A.872.872,0,0,1-.186-1a.872.872,0,0,1,.814.921V3.143a.872.872,0,0,1-.814.921Z" transform="translate(608.729 81.291)" fill="#333"/>
      <path id="線_18" data-name="線 18" d="M-.186,4.064A.872.872,0,0,1-1,3.143V-.079A.872.872,0,0,1-.186-1a.872.872,0,0,1,.814.921V3.143a.872.872,0,0,1-.814.921Z" transform="translate(608.729 92.432)" fill="#333"/>
      <path id="線_19" data-name="線 19" d="M-.186,4.064A.872.872,0,0,1-1,3.143V-.079A.872.872,0,0,1-.186-1a.872.872,0,0,1,.814.921V3.143a.872.872,0,0,1-.814.921Z" transform="translate(608.729 103.664)" fill="#333"/>
      <path id="線_20" data-name="線 20" d="M-.186,4.064A.872.872,0,0,1-1,3.143V-.079A.872.872,0,0,1-.186-1a.872.872,0,0,1,.814.921V3.143a.872.872,0,0,1-.814.921Z" transform="translate(608.729 114.807)" fill="#333"/>
      <path id="線_21" data-name="線 21" d="M-.186,4.064A.872.872,0,0,1-1,3.143V-.079A.872.872,0,0,1-.186-1a.872.872,0,0,1,.814.921V3.143a.872.872,0,0,1-.814.921Z" transform="translate(608.729 126.039)" fill="#333"/>
      <path id="線_22" data-name="線 22" d="M-.186,3.88A.872.872,0,0,1-1,2.959V-.079A.872.872,0,0,1-.186-1a.872.872,0,0,1,.814.921V2.959a.872.872,0,0,1-.814.921Z" transform="translate(627.947 78.252)" fill="#333"/>
      <path id="線_23" data-name="線 23" d="M-.186,3.88A.872.872,0,0,1-1,2.959V-.079A.872.872,0,0,1-.186-1a.872.872,0,0,1,.814.921V2.959a.872.872,0,0,1-.814.921Z" transform="translate(635.766 78.252)" fill="#333"/>
      <path id="線_24" data-name="線 24" d="M-.186,3.88A.872.872,0,0,1-1,2.959V-.079A.872.872,0,0,1-.186-1a.872.872,0,0,1,.814.921V2.959a.872.872,0,0,1-.814.921Z" transform="translate(643.583 78.252)" fill="#333"/>
      <path id="線_25" data-name="線 25" d="M-.186,3.88A.872.872,0,0,1-1,2.959V-.079A.872.872,0,0,1-.186-1a.872.872,0,0,1,.814.921V2.959a.872.872,0,0,1-.814.921Z" transform="translate(627.947 90.59)" fill="#333"/>
      <path id="線_26" data-name="線 26" d="M-.186,3.88A.872.872,0,0,1-1,2.959V-.079A.872.872,0,0,1-.186-1a.872.872,0,0,1,.814.921V2.959a.872.872,0,0,1-.814.921Z" transform="translate(635.766 90.59)" fill="#333"/>
      <path id="線_27" data-name="線 27" d="M-.186,3.88A.872.872,0,0,1-1,2.959V-.079A.872.872,0,0,1-.186-1a.872.872,0,0,1,.814.921V2.959a.872.872,0,0,1-.814.921Z" transform="translate(643.583 90.59)" fill="#333"/>
      <path id="線_28" data-name="線 28" d="M-.186,3.88A.872.872,0,0,1-1,2.959V-.079A.872.872,0,0,1-.186-1a.872.872,0,0,1,.814.921V2.959a.872.872,0,0,1-.814.921Z" transform="translate(627.947 102.836)" fill="#333"/>
      <path id="線_29" data-name="線 29" d="M-.186,3.88A.872.872,0,0,1-1,2.959V-.079A.872.872,0,0,1-.186-1a.872.872,0,0,1,.814.921V2.959a.872.872,0,0,1-.814.921Z" transform="translate(635.766 102.836)" fill="#333"/>
      <path id="線_30" data-name="線 30" d="M-.186,3.88A.872.872,0,0,1-1,2.959V-.079A.872.872,0,0,1-.186-1a.872.872,0,0,1,.814.921V2.959a.872.872,0,0,1-.814.921Z" transform="translate(643.583 102.836)" fill="#333"/>
      <path id="パス_26" data-name="パス 26" d="M784.212,147.868a.872.872,0,0,1-.814-.921V124.942h-8.469v22.006a.82.82,0,1,1-1.629,0V124.021a.872.872,0,0,1,.814-.921h10.1a.872.872,0,0,1,.814.921v22.927A.872.872,0,0,1,784.212,147.868Z" transform="translate(-143.584 -9.754)" fill="#333"/>
      <path id="線_31" data-name="線 31" d="M79.618.842H-.186A.872.872,0,0,1-1-.079.872.872,0,0,1-.186-1h79.8a.872.872,0,0,1,.814.921A.872.872,0,0,1,79.618.842Z" transform="translate(595.863 138.102)" fill="#333"/>
    </g>
    <g id="グループ_4241" data-name="グループ 4241" transform="translate(291 2240)">
      <rect id="長方形_3346" data-name="長方形 3346" width="212" height="36" rx="16" fill="#847c79"/>
      <text id="投資家_お客様_" data-name="投資家（お客様）" transform="translate(50 24)" fill="#fff" font-size="14" font-family="HiraginoSans-W6, Hiragino Sans"><tspan x="0" y="0">投資家（お客様）</tspan></text>
    </g>
    <g id="グループ_4242" data-name="グループ 4242" transform="translate(549 2240)">
      <rect id="長方形_3346-2" data-name="長方形 3346" width="212" height="36" rx="16" fill="#847c79"/>
      <text id="事業者_VERFUND_" data-name="事業者（VERFUND）" transform="translate(38 24)" fill="#fff" font-size="14" font-family="HiraginoSans-W6, Hiragino Sans"><tspan x="0" y="0">事業者（</tspan><tspan y="0" font-family="Helvetica-Bold, Helvetica" font-weight="700">VERFUND</tspan><tspan y="0">）</tspan></text>
    </g>
    <g id="グループ_4243" data-name="グループ 4243" transform="translate(808 2240)">
      <rect id="長方形_3346-3" data-name="長方形 3346" width="212" height="36" rx="16" fill="#847c79"/>
      <text id="投資対象_不動産_" data-name="投資対象（不動産）" transform="translate(43 24)" fill="#fff" font-size="14" font-family="HiraginoSans-W6, Hiragino Sans"><tspan x="0" y="0">投資対象（不動産）</tspan></text>
    </g>
    <text id="クラウドファンディングシステム" transform="translate(654.743 2410)" fill="#211613" font-size="12" font-family="HiraginoSans-W3, Hiragino Sans"><tspan x="-88.68" y="0">クラウドファンディングシステム</tspan></text>
    <g id="グループ_4249" data-name="グループ 4249" transform="translate(290 2240)">
      <g id="グループ_4248" data-name="グループ 4248" transform="translate(0.121 4.697)">
        <path id="長方形_40" data-name="長方形 40" d="M-.186-1H82.061a.872.872,0,0,1,.814.921V62.459a.872.872,0,0,1-.814.921H-.186A.872.872,0,0,1-1,62.459V-.079A.872.872,0,0,1-.186-1ZM81.247.842H.629v60.7H81.247Z" transform="translate(323.879 55.785)" fill="#333"/>
        <path id="長方形_41" data-name="長方形 41" d="M-.186-1H68.38a.872.872,0,0,1,.814.921V49.163a.872.872,0,0,1-.814.921H-.186A.872.872,0,0,1-1,49.163V-.079A.872.872,0,0,1-.186-1ZM67.566.842H.629v47.4H67.566Z" transform="translate(330.72 62.414)" fill="#333"/>
        <path id="パス_27" data-name="パス 27" d="M462.587,149.446H424.314a.854.854,0,0,1-.807-.792.929.929,0,0,1,.581-1.014c3.716-1.213,6.5-2.734,8.264-4.521a7.591,7.591,0,0,0,2.385-5.551v-8.747a.82.82,0,1,1,1.629,0v8.747a9.564,9.564,0,0,1-2.932,6.925,16.994,16.994,0,0,1-4.45,3.111h28.952a17.029,17.029,0,0,1-4.507-3.146,9.507,9.507,0,0,1-2.894-6.89v-8.747a.82.82,0,1,1,1.629,0v8.747a7.531,7.531,0,0,0,2.354,5.517c1.749,1.766,4.541,3.3,8.3,4.557a.93.93,0,0,1,.575,1.015A.854.854,0,0,1,462.587,149.446Z" transform="translate(-78.634 -10.135)" fill="#333"/>
        <path id="パス_28" data-name="パス 28" d="M436.786,93.122a2.568,2.568,0,0,1-2.036-.712,2.111,2.111,0,0,1-.33-2.089c.359-1.217,1.506-2.7,3.507-4.533,1.41-1.289,2.708-2.259,2.763-2.3l.007-.006a10.435,10.435,0,0,1,7.191-1.983l.05.006c.9.157,1.827.415,2.72.664,2.344.654,4.56,1.272,6.619.315l.029-.013a18.743,18.743,0,0,0,3.674-2.033.761.761,0,0,1,1.123.291A.994.994,0,0,1,461.846,82a20.307,20.307,0,0,1-3.966,2.2c-2.549,1.175-5.123.46-7.612-.238-.888-.248-1.728-.482-2.552-.627a8.945,8.945,0,0,0-6.135,1.7c-1.924,1.429-5.147,4.285-5.619,5.872a.909.909,0,0,0-.042.221,2.615,2.615,0,0,0,1.664.1,12.592,12.592,0,0,0,2.543-.645,37.216,37.216,0,0,0,4.371-2.248.769.769,0,0,1,1.1.381.984.984,0,0,1-.337,1.245,38.767,38.767,0,0,1-4.57,2.349l-.033.014a14.148,14.148,0,0,1-2.9.737A7.492,7.492,0,0,1,436.786,93.122Z" transform="translate(-80.636 -6.363)" fill="#333"/>
        <path id="パス_29" data-name="パス 29" d="M460.61,103.83a2.7,2.7,0,0,1-1.1-.235A17.508,17.508,0,0,1,454.929,101a1,1,0,0,1-.206-1.281.757.757,0,0,1,1.133-.233,15.94,15.94,0,0,0,4.192,2.37l.046.019a1.25,1.25,0,0,0,1.3-.165,2.251,2.251,0,0,0,.229-1.71,3.985,3.985,0,0,0-1.448-1.918l-.009-.006-2.85-2.026-.011-.008a42.608,42.608,0,0,0-4.3-2.592c-.9-.5-1.759-.975-2.487-1.422a.985.985,0,0,1-.328-1.249.769.769,0,0,1,1.1-.371c.7.428,1.539.894,2.428,1.387a43.691,43.691,0,0,1,4.462,2.7l2.84,2.018a5.8,5.8,0,0,1,2.117,2.834c.008.021.014.042.02.064a4.288,4.288,0,0,1-.529,3.5.882.882,0,0,1-.139.161,2.8,2.8,0,0,1-1.891.755Z" transform="translate(-83.572 -7.154)" fill="#333"/>
        <path id="パス_30" data-name="パス 30" d="M458.679,108.5a8.512,8.512,0,0,1-3.576-1.054,19.177,19.177,0,0,1-2.111-1.218.992.992,0,0,1-.275-1.264.763.763,0,0,1,1.118-.311c.91.621,3.6,2.188,5.1,1.991a1.915,1.915,0,0,0,1.71-1.179c.02-.092.055-.251-.19-.449a27.365,27.365,0,0,0-3.3-1.955.971.971,0,0,1-.416-1.214.78.78,0,0,1,1.074-.47,28.946,28.946,0,0,1,3.516,2.083l.037.027a2.358,2.358,0,0,1,.862,2.423,3.512,3.512,0,0,1-3.1,2.564,3.463,3.463,0,0,1-.448.028Z" transform="translate(-84.037 -8.027)" fill="#333"/>
        <path id="パス_31" data-name="パス 31" d="M456.649,113.393c-2.313,0-5.316-1.983-5.449-2.072a.99.99,0,0,1-.288-1.261.764.764,0,0,1,1.115-.326c.824.552,3.295,1.941,4.817,1.808a1.805,1.805,0,0,0,1.674-1.133.431.431,0,0,0-.185-.494,27.368,27.368,0,0,0-3.3-1.954.971.971,0,0,1-.416-1.214.78.78,0,0,1,1.074-.47,28.953,28.953,0,0,1,3.516,2.083l.037.027a2.385,2.385,0,0,1,.85,2.5,3.138,3.138,0,0,1-1.106,1.7,3.715,3.715,0,0,1-2.016.791C456.865,113.388,456.758,113.393,456.649,113.393Z" transform="translate(-83.703 -8.416)" fill="#333"/>
        <path id="パス_32" data-name="パス 32" d="M452.313,116.576a16.013,16.013,0,0,1-3.559-.4.925.925,0,0,1-.636-1.087.823.823,0,0,1,.961-.719,14.546,14.546,0,0,0,3.86.352c.84-.084,1.312-.507,1.379-.783.009-.037.033-.133-.144-.286a24.685,24.685,0,0,0-2.879-1.58.966.966,0,0,1-.444-1.2.785.785,0,0,1,1.063-.5,26.253,26.253,0,0,1,3.106,1.708.81.81,0,0,1,.072.052,2.221,2.221,0,0,1,.8,2.3,3.024,3.024,0,0,1-2.831,2.131h-.036Q452.665,116.576,452.313,116.576Z" transform="translate(-83.202 -8.74)" fill="#333"/>
        <path id="パス_33" data-name="パス 33" d="M429.334,109.485a2.809,2.809,0,0,1-2.556-1.647,3.591,3.591,0,0,1,.089-3.325l1.371-2.371a2.643,2.643,0,0,1,3.891-1.027,3.447,3.447,0,0,1,.908,4.4l-1.287,2.364A2.735,2.735,0,0,1,429.334,109.485Zm1.288-7.039a1.123,1.123,0,0,0-.987.645l-.023.042-1.384,2.394a1.43,1.43,0,0,0-.161,1.007,1.287,1.287,0,0,0,.539.822q.033.022.065.048a1.036,1.036,0,0,0,.917.208,1.167,1.167,0,0,0,.746-.638l.02-.041,1.3-2.394.014-.025a1.43,1.43,0,0,0,.158-1.006,1.287,1.287,0,0,0-.539-.82l-.041-.029a1.049,1.049,0,0,0-.632-.216Z" transform="translate(-79.175 -7.975)" fill="#333"/>
        <path id="パス_34" data-name="パス 34" d="M433.008,112.69a2.756,2.756,0,0,1-2.464-1.642,3.508,3.508,0,0,1,.11-3.231l2.031-3.674v-.006a2.607,2.607,0,0,1,3.851-.978,3.408,3.408,0,0,1,.865,4.354l-2.036,3.678a2.7,2.7,0,0,1-2.357,1.5Zm1.059-7.568-2.036,3.683-.011.019a1.431,1.431,0,0,0-.158,1.006,1.287,1.287,0,0,0,.539.82l.016.011a1.068,1.068,0,0,0,1.568-.43l0-.009,2.036-3.683v-.006a1.419,1.419,0,0,0-.358-1.814,1.086,1.086,0,0,0-1.6.4Z" transform="translate(-79.879 -8.135)" fill="#333"/>
        <path id="パス_35" data-name="パス 35" d="M437.208,115.353a2.756,2.756,0,0,1-2.464-1.642,3.508,3.508,0,0,1,.11-3.231l1.624-2.937v-.006a2.608,2.608,0,0,1,3.851-.978,3.408,3.408,0,0,1,.865,4.355l-1.629,2.941A2.7,2.7,0,0,1,437.208,115.353Zm.651-6.831-1.629,2.946-.011.019a1.431,1.431,0,0,0-.158,1.006,1.287,1.287,0,0,0,.539.82l.016.011a1.068,1.068,0,0,0,1.568-.43l0-.009,1.629-2.946v-.006a1.42,1.42,0,0,0-.357-1.814,1.086,1.086,0,0,0-1.6.4Z" transform="translate(-80.658 -8.404)" fill="#333"/>
        <path id="パス_36" data-name="パス 36" d="M441.849,117.561a2.524,2.524,0,0,1-1.357-.4l-.009-.006a3.124,3.124,0,0,1-1.305-1.984,3.476,3.476,0,0,1,.375-2.436l1.3-2.383.006-.01a2.607,2.607,0,0,1,3.852-.975,3.408,3.408,0,0,1,.862,4.355l-.006.011-1.384,2.394A2.7,2.7,0,0,1,441.849,117.561Zm-.553-2a1.066,1.066,0,0,0,1.515-.433l0-.008,1.384-2.388a1.42,1.42,0,0,0-.359-1.814,1.086,1.086,0,0,0-1.6.406l-1.3,2.388-.014.025a1.43,1.43,0,0,0-.159,1,1.288,1.288,0,0,0,.535.82Z" transform="translate(-81.531 -8.627)" fill="#333"/>
        <path id="パス_37" data-name="パス 37" d="M424.544,102.514a.745.745,0,0,1-.419-.133,8.907,8.907,0,0,1-3.257-4.195,1.022,1.022,0,0,1,.076-.933.778.778,0,0,1,.759-.375.837.837,0,0,1,.657.572,7.124,7.124,0,0,0,2.606,3.355.977.977,0,0,1,.363,1.035A.836.836,0,0,1,424.544,102.514Z" transform="translate(-78.131 -7.676)" fill="#333"/>
        <path id="パス_38" data-name="パス 38" d="M428.216,84.412a12.856,12.856,0,0,1-2.116-.176.91.91,0,0,1-.687-1.045.836.836,0,0,1,.924-.777,11.4,11.4,0,0,0,3.134.087c2.792-.361,6.823-1.179,6.863-1.188a.828.828,0,0,1,.946.743.918.918,0,0,1-.657,1.069c-.041.008-4.13.838-6.974,1.205h-.013A12.185,12.185,0,0,1,428.216,84.412Z" transform="translate(-78.987 -6.441)" fill="#333"/>
        <path id="パス_39" data-name="パス 39" d="M415.114,100.315a.791.791,0,0,1-.667-.392,1.023,1.023,0,0,1-.1-.842l6.906-21.651-6.3-3.063a.969.969,0,0,1-.426-1.209.782.782,0,0,1,1.07-.482l7,3.407a.965.965,0,0,1,.444,1.158l-7.166,22.467A.827.827,0,0,1,415.114,100.315Z" transform="translate(-76.926 -5.752)" fill="#333"/>
        <path id="パス_40" data-name="パス 40" d="M478.532,98.045a.816.816,0,0,1-.743-.541l-7.818-19.52a.974.974,0,0,1,.4-1.216l7.085-3.683a.778.778,0,0,1,1.08.452.974.974,0,0,1-.4,1.221l-6.352,3.3,7.484,18.686a1.026,1.026,0,0,1-.057.879.8.8,0,0,1-.684.422Z" transform="translate(-87.249 -5.785)" fill="#333"/>
        <path id="パス_41" data-name="パス 41" d="M468.914,102.964a.842.842,0,0,1-.8-.714.962.962,0,0,1,.439-1.036h0a12.05,12.05,0,0,0,3.605-2.934.755.755,0,0,1,1.137-.207,1,1,0,0,1,.183,1.286,13.836,13.836,0,0,1-4.213,3.512A.738.738,0,0,1,468.914,102.964Z" transform="translate(-86.915 -7.758)" fill="#333"/>
      </g>
      <text id="クラウドファンディングシステム-2" data-name="クラウドファンディングシステム" transform="translate(365 170)" fill="#211613" font-size="12" font-family="HiraginoSans-W3, Hiragino Sans"><tspan x="-88.68" y="0">クラウドファンディングシステム</tspan></text>
    </g>
    <g id="グループ_4253" data-name="グループ 4253">
      <text id="出資" transform="translate(521 2307)" fill="#211613" font-size="14" font-family="HiraginoSans-W6, Hiragino Sans"><tspan x="-14" y="0">出資</tspan></text>
      <text id="配当" transform="translate(521 2359)" fill="#211613" font-size="14" font-family="HiraginoSans-W6, Hiragino Sans"><tspan x="-14" y="0">配当</tspan></text>
      <g id="グループ_4252" data-name="グループ 4252" transform="translate(2.841)">
        <path id="線_3" data-name="線 3" d="M83.973,2.1H0V-2.5H83.973Z" transform="translate(475.159 2319.477)" fill="#ccc"/>
        <path id="パス_2" data-name="パス 2" d="M319.8,87.311l11.97-6.906L319.8,73.5Z" transform="translate(230.116 2238.873)" fill="#ccc"/>
        <path id="線_3-2" data-name="線 3" d="M83.973,2.1H0V-2.5H83.973Z" transform="translate(475.159 2319.477)" fill="#847c79"/>
        <path id="パス_2-2" data-name="パス 2" d="M319.8,87.311l11.97-6.906L319.8,73.5Z" transform="translate(230.116 2238.873)" fill="#847c79"/>
      </g>
      <g id="グループ_4251" data-name="グループ 4251" transform="translate(-1.585)">
        <path id="線_4" data-name="線 4" d="M83.973,2.1H0V-2.5H83.973Z" transform="translate(483.744 2371.039)" fill="#ccc"/>
        <path id="パス_3" data-name="パス 3" d="M242.678,143.311,230.8,136.406l11.878-6.906Z" transform="translate(246.785 2234.436)" fill="#ccc"/>
        <path id="線_4-2" data-name="線 4" d="M83.973,2.1H0V-2.5H83.973Z" transform="translate(483.744 2371.039)" fill="#847c79"/>
        <path id="パス_3-2" data-name="パス 3" d="M242.678,143.311,230.8,136.406l11.878-6.906Z" transform="translate(246.785 2234.436)" fill="#847c79"/>
      </g>
      <text id="出資-2" data-name="出資" transform="translate(521 2307)" fill="#211613" font-size="14" font-family="HiraginoSans-W6, Hiragino Sans"><tspan x="-14" y="0">出資</tspan></text>
      <text id="配当-2" data-name="配当" transform="translate(521 2359)" fill="#211613" font-size="14" font-family="HiraginoSans-W6, Hiragino Sans"><tspan x="-14" y="0">配当</tspan></text>
    </g>
    <g id="グループ_4256" data-name="グループ 4256">
      <g id="グループ_4254" data-name="グループ 4254" transform="translate(1.607)">
        <path id="線_5" data-name="線 5" d="M83.052,2.1H0V-2.5H83.052Z" transform="translate(742.393 2319.477)" fill="#847c79"/>
        <path id="パス_4" data-name="パス 4" d="M651.8,87.311l11.97-6.906L651.8,73.5Z" transform="translate(167.949 2238.873)" fill="#847c79"/>
      </g>
      <g id="グループ_4255" data-name="グループ 4255" transform="translate(-3.234)">
        <path id="線_6" data-name="線 6" d="M83.052,2.1H0V-2.5H83.052Z" transform="translate(750.978 2371.039)" fill="#847c79"/>
        <path id="パス_5" data-name="パス 5" d="M575.678,143.311,563.8,136.406l11.878-6.906Z" transform="translate(184.435 2234.436)" fill="#847c79"/>
      </g>
      <text id="投資" transform="translate(788 2307)" fill="#211613" font-size="14" font-family="HiraginoSans-W6, Hiragino Sans"><tspan x="-14" y="0">投資</tspan></text>
      <text id="収益_売却益" data-name="収益・売却益" transform="translate(788 2359)" fill="#211613" font-size="14" font-family="HiraginoSans-W6, Hiragino Sans"><tspan x="-42" y="0">収益・売却益</tspan></text>
    </g>
  </g>
</svg>
