<svg id="logo_long" xmlns="http://www.w3.org/2000/svg" width="192.394" height="35.001" viewBox="0 0 192.394 35.001">
  <path id="パス_3208" data-name="パス 3208" d="M191.956,15.852H193.3L198.872,31.2l.322-.032V15.874h1.751V38.246l-1.169.087-5.684-15.7-.4.016c-.106,1.259-.032,2.54-.048,3.808s0,2.575,0,3.863v7.941l-1.667.093Zm-21.105.055h1.8V36.35h5.379V15.914h1.838c.029.6.087,13.654.08,19.655,0,2.227-.261,2.485-2.5,2.491-1.61,0-3.219.032-4.829,0-1.325-.038-1.771-.457-1.773-1.748-.014-6.658.006-20.405.006-20.405Zm-75.2-.042h1.8c-1.287,7.513-2.575,14.925-3.862,22.429l-1.855.119c-1.287-7.491-2.558-14.91-3.862-22.484h1.855L92.48,33.275h.4C93.8,27.5,94.714,21.739,95.651,15.865ZM221.846,27.71V20.153a3.32,3.32,0,0,0-2.3-3.5c-2.114-.644-4.3-.289-6.644-.274,0,1.555,0,5.523.026,9.7h-2.034v1.616h2.041c0,4.384.026,8.691.026,10.384,1.806,0,3.4.029,4.989,0a3.6,3.6,0,0,0,3.9-3.93C221.872,32,221.846,29.854,221.846,27.71Zm-1.8,5.839c-.029,2.115-.824,2.868-2.949,2.9h-2.252V27.877l1.335-.18h.521v-.772c.023-.209.045-.431.071-.679h-.071v-.168h-1.369l-.464-.055V18.031a26.309,26.309,0,0,1,3.351.032c1.184.151,1.8,1.033,1.832,2.459.045,1.983.016,3.963.016,5.945C220.056,28.836,220.079,31.193,220.05,33.549Zm-83.806,4.722h1.963c-1.271-3.6-2.617-7.272-3.892-10.877h1.555c1.519-.123,1.9-.4,1.912-1.886.026-2.623.032-5.25,0-7.876-.019-1.432-.412-1.806-1.835-1.838-1.5-.032-3,0-4.5,0h-2.814c0,1.61.029,5.684.058,9.978h-2.124v1.61H128.7c.032,4.616.066,9.158.066,10.873H130.7V27.394h1.77c1.29,3.676,2.529,7.323,3.778,10.877ZM130.749,17.5h5.035v8.258h-5.035Zm27.537-.111V15.874h-6.875V38.191h1.912V27.762h4.583V26.076h-4.583V17.387ZM116.357,36.665v-.023h-5.2c.032-3.055.129-8.943.129-8.943h4.7V26.078h-4.738V17.4h5.108V15.865H109.2V26.071h-2.956v1.616H109.2V38.238h7.158l.029-1.584Z" transform="translate(-29.662 -5.326)" fill="#fff" stroke="#fff" stroke-width="0.4"/>
  <path id="パス_3209" data-name="パス 3209" d="M22.937,17.748h8.4v2.341h-8.4Zm0,4.136h8.4v2.341h-8.4Z" transform="translate(-7.743 -5.991)" fill="#f19917"/>
  <path id="パス_3210" data-name="パス 3210" d="M41.434,4.25,43.01,6.912,31.9,13.4V0H21.492V7.093H11.272v18.8L0,32.69v2.123L39.829,35l.01-2.342L4.859,32.5l8.754-5.284V9.433H23.832V2.341h5.731V17.482L44.2,8.925,45.727,11.5l4.915-7.774Z" fill="#fff"/>
</svg>
