<svg xmlns="http://www.w3.org/2000/svg" width="326" height="211.206" viewBox="0 0 326 211.206">
  <g id="グループ_4325" data-name="グループ 4325" transform="translate(-127 -8527.5)">
    <rect id="長方形_3374" data-name="長方形 3374" width="79.396" height="53.221" rx="6" transform="translate(183.403 8527.5)" fill="#211613"/>
    <text id="VERTEX_約30_" data-name="VERTEX
約30%" transform="translate(221.107 8550.044)" fill="#fff" font-size="17" font-family="Teko-Regular, Teko" letter-spacing="0.1em"><tspan x="-22.347" y="0">VERTEX</tspan><tspan font-size="11" font-family="HiraginoSans-W6, Hiragino Sans"><tspan x="-18.681" y="17">約</tspan><tspan y="17" font-size="17" font-family="Teko-Regular, Teko" letter-spacing="0.05em">30%</tspan></tspan></text>
    <g id="グループ_4321" data-name="グループ 4321" transform="translate(183.403 8620.855)">
      <rect id="長方形_3236" data-name="長方形 3236" width="79.396" height="53.221" rx="6" transform="translate(0)" fill="#f19917"/>
      <text id="VERTEX_が負担" data-name="VERTEX
が負担" transform="translate(37.705 24.289)" fill="#fff" font-size="17" font-family="Teko-Regular, Teko" letter-spacing="0.1em"><tspan x="-22.347" y="0">VERTEX</tspan><tspan font-size="10" font-family="HiraginoSans-W6, Hiragino Sans"><tspan x="-16" y="15">が負担</tspan></tspan></text>
    </g>
    <text id="出資時_物件等価_" data-name="出資時
（物件等価）" transform="translate(147 8553.205)" fill="#211613" font-size="9" font-family="HiraginoSans-W6, Hiragino Sans" letter-spacing="0.1em"><tspan x="-14.85" y="0">出資時</tspan><tspan y="0" font-family="Helvetica-Bold, Helvetica" font-weight="700"></tspan><tspan font-size="6"><tspan x="-19.5" y="9">（物件等価）</tspan></tspan></text>
    <text id="売却時" transform="translate(150.107 8653.359)" fill="#211613" font-size="10" font-family="HiraginoSans-W6, Hiragino Sans" letter-spacing="0.1em"><tspan x="-16" y="0">売却時</tspan></text>
    <line id="線_1140" data-name="線 1140" x2="78.96" y2="39.916" transform="translate(183.621 8580.939)" fill="none" stroke="#707070" stroke-width="1" stroke-dasharray="3"/>
    <g id="グループ_4324" data-name="グループ 4324" transform="translate(183.404 8682.867)">
      <g id="合体_5" data-name="合体 5" fill="#fff">
        <path d="M 259.5968933105469 55.33871841430664 L 9.998991966247559 55.33871841430664 C 4.760725021362305 55.33871841430664 0.4990917146205902 51.07708358764648 0.4990917146205902 45.83881759643555 L 0.4990917146205902 18.28888511657715 C 0.4990917146205902 13.05061817169189 4.760725021362305 8.788985252380371 9.998991966247559 8.788985252380371 L 36.12512588500977 8.788985252380371 L 36.41752624511719 8.788985252380371 L 36.56089019775391 8.53411865234375 L 40.7879524230957 1.019835114479065 L 45.01435852050781 8.534085273742676 L 45.1577262878418 8.788985252380371 L 45.45015716552734 8.788985252380371 L 259.5968933105469 8.788985252380371 C 264.8351440429688 8.788985252380371 269.0968017578125 13.05061817169189 269.0968017578125 18.28888511657715 L 269.0968017578125 45.83881759643555 C 269.0968017578125 51.07708358764648 264.8351440429688 55.33871841430664 259.5968933105469 55.33871841430664 Z" stroke="none"/>
        <path d="M 259.5968933105469 54.83870697021484 C 264.5594482421875 54.83870697021484 268.5968017578125 50.80138778686523 268.5968017578125 45.83881759643555 L 268.5968017578125 18.28888702392578 C 268.5968017578125 13.32631587982178 264.5594482421875 9.288994789123535 259.5968933105469 9.288994789123535 L 44.86531448364258 9.288994789123535 L 40.78793334960938 2.039751291275024 L 36.70995712280273 9.288994789123535 L 9.998993873596191 9.288994789123535 C 5.036422729492188 9.288994789123535 0.9991012215614319 13.32631587982178 0.9991012215614319 18.28888702392578 L 0.9991012215614319 45.83881759643555 C 0.9991012215614319 50.80138778686523 5.036422729492188 54.83870697021484 9.998993873596191 54.83870697021484 L 259.5968933105469 54.83870697021484 M 259.5968933105469 55.83870697021484 L 9.998993873596191 55.83870697021484 C 4.476601123809814 55.83870697021484 -0.0008987688343040645 51.36210250854492 -0.0008987688343040645 45.83881759643555 L -0.0008987688343040645 18.28888702392578 C -0.0008987688343040645 12.76560115814209 4.476601123809814 8.288994789123535 9.998993873596191 8.288994789123535 L 36.12513732910156 8.288994789123535 L 40.78799438476562 -5.565098490478704e-06 L 45.45017242431641 8.288994789123535 L 259.5968933105469 8.288994789123535 C 265.1193237304688 8.288994789123535 269.5968017578125 12.76560115814209 269.5968017578125 18.28888702392578 L 269.5968017578125 45.83881759643555 C 269.5968017578125 51.36210250854492 265.1193237304688 55.83870697021484 259.5968933105469 55.83870697021484 Z" stroke="none" fill="#e65035"/>
      </g>
      <text id="売却損が発生しても当社の出資分より減額_30_を超える減額がない場合_出資者の元本は守られます_" data-name="売却損が発生しても当社の出資分より減額。
30%を超える減額がない場合、出資者の元本は守られます。" transform="translate(124.14 29.067)" fill="#e65035" font-size="8" font-family="HiraginoSans-W6, Hiragino Sans"><tspan x="-79.8" y="0">売却損が発生しても当社の出資分より減額。</tspan><tspan y="0" font-family="Helvetica-Bold, Helvetica" font-weight="700"></tspan><tspan font-family="Helvetica-Bold, Helvetica" font-weight="700"><tspan x="-107.486" y="13">30%</tspan><tspan y="13" font-family="HiraginoSans-W6, Hiragino Sans" font-weight="400">を超える減額がない場合、出資者の元本は守られます。</tspan></tspan></text>
    </g>
    <rect id="長方形_3375" data-name="長方形 3375" width="185.839" height="53.221" rx="6" transform="translate(267.161 8527.5)" fill="#847c79"/>
    <text id="出資者_約70_" data-name="出資者
約70%" transform="translate(359.45 8550.661)" fill="#fff" font-size="12" font-family="HiraginoSans-W6, Hiragino Sans" letter-spacing="0.1em"><tspan x="-19.8" y="0">出資者</tspan><tspan y="0" font-family="Helvetica-Bold, Helvetica" font-weight="700"></tspan><tspan x="-19.398" y="18">約</tspan><tspan y="18" font-size="18" font-family="Teko-Regular, Teko" letter-spacing="0.05em">70%</tspan></text>
    <g id="グループ_4322" data-name="グループ 4322" transform="translate(267.161 8620.855)">
      <rect id="長方形_3237" data-name="長方形 3237" width="185.839" height="53.221" rx="6" fill="#847c79"/>
      <text id="出資者" transform="translate(92.289 31.886)" fill="#fff" font-size="12" font-family="HiraginoSans-W6, Hiragino Sans" letter-spacing="0.1em"><tspan x="-19.2" y="0">出資者</tspan></text>
    </g>
    <g id="グループ_4323" data-name="グループ 4323" transform="translate(267.161 8589.729)">
      <path id="パス_3211" data-name="パス 3211" d="M2357-15111.9v13.031l37.517,9.3,37.517-9.3v-13.031Z" transform="translate(-2357 15111.898)" fill="#e65035"/>
      <text id="売却" transform="translate(36.356 13.45)" fill="#fff" font-size="8" font-family="HiraginoSans-W6, Hiragino Sans" letter-spacing="0.1em"><tspan x="-8.4" y="0">売却</tspan></text>
    </g>
    <line id="線_1139" data-name="線 1139" y2="39.916" transform="translate(262.581 8580.939)" fill="none" stroke="#707070" stroke-width="1" stroke-dasharray="3"/>
  </g>
</svg>
