<svg xmlns="http://www.w3.org/2000/svg" xmlns:xlink="http://www.w3.org/1999/xlink" width="203.586" height="207.201" viewBox="0 0 203.586 207.201">
  <defs>
    <style>
      .cls-1 {
        fill: #211613;
      }

      .cls-2, .cls-3 {
        fill: #fff;
      }

      .cls-4 {
        clip-path: url(#clip-path);
      }

      .cls-5 {
        stroke: #707070;
        fill: url(#pattern);
      }

      .cls-6 {
        fill: #e65035;
      }

      .cls-7, .cls-8 {
        stroke: none;
      }

      .cls-8 {
        fill: #dbdbdb;
      }

      .cls-9 {
        fill: none;
      }

      .cls-10 {
        filter: url(#a_generic_white_noto_printfold_v2016_jp-main._CB480365866_);
      }

      .cls-11 {
        filter: url(#長方形_3282);
      }

      .cls-12 {
        filter: url(#合体_6);
      }

      .cls-13 {
        filter: url(#長方形_3283);
      }
    </style>
    <filter id="長方形_3283" x="105.997" y="81.24" width="67.9" height="60.139" filterUnits="userSpaceOnUse">
      <feOffset dx="3" dy="3" input="SourceAlpha"/>
      <feGaussianBlur stdDeviation="3" result="blur"/>
      <feFlood flood-opacity="0.161"/>
      <feComposite operator="in" in2="blur"/>
      <feComposite in="SourceGraphic"/>
    </filter>
    <filter id="合体_6" x="0" y="0" width="203.586" height="207.201" filterUnits="userSpaceOnUse">
      <feOffset dy="3" input="SourceAlpha"/>
      <feGaussianBlur stdDeviation="3" result="blur-2"/>
      <feFlood flood-opacity="0.161"/>
      <feComposite operator="in" in2="blur-2"/>
      <feComposite in="SourceGraphic"/>
    </filter>
    <filter id="長方形_3282" x="110.997" y="86.24" width="55.9" height="48.139" filterUnits="userSpaceOnUse">
      <feOffset dx="2" dy="2" input="SourceAlpha"/>
      <feGaussianBlur stdDeviation="1" result="blur-3"/>
      <feFlood flood-opacity="0.2"/>
      <feComposite operator="in" in2="blur-3"/>
      <feComposite in="SourceGraphic"/>
    </filter>
    <clipPath id="clip-path">
      <g class="cls-13" transform="matrix(1, 0, 0, 1, 0, 0)">
        <rect id="長方形_3283-2" data-name="長方形 3283" class="cls-1" width="43.063" height="32.086" rx="3"/>
      </g>
    </clipPath>
    <pattern id="pattern" preserveAspectRatio="none" width="100%" height="100%" viewBox="0 0 424 329">
      <image width="424" height="329" xlink:href="%E3%82%AF%E3%82%99%E3%83%AB%E3%83%BC%E3%83%95%E3%82%9A%204339-image.png"/>
    </pattern>
    <filter id="a_generic_white_noto_printfold_v2016_jp-main._CB480365866_" x="96.818" y="75.852" width="80.065" height="71.639" filterUnits="userSpaceOnUse">
      <feOffset dy="3" input="SourceAlpha"/>
      <feGaussianBlur stdDeviation="3" result="blur-4"/>
      <feFlood flood-opacity="0.161"/>
      <feComposite operator="in" in2="blur-4"/>
      <feComposite in="SourceGraphic"/>
    </filter>
  </defs>
  <g id="グループ_4339" data-name="グループ 4339" transform="translate(-575.53 -497.426)">
    <g class="cls-12" transform="matrix(1, 0, 0, 1, 575.53, 497.43)">
      <g id="合体_6-2" data-name="合体 6" class="cls-2" transform="matrix(0.87, -0.48, 0.48, 0.87, 9, 70.58)">
        <path class="cls-7" d="M 67.02619934082031 141.4697265625 L 62.10300064086914 132.7835845947266 L 61.97118377685547 132.5510101318359 L 61.70458221435547 132.5314636230469 C 53.31636428833008 131.9164276123047 45.24167633056641 129.7439270019531 37.70481872558594 126.0742874145508 C 30.38449287414551 122.5100479125977 23.84545707702637 117.6737060546875 18.26934623718262 111.6995620727539 C 6.810619831085205 99.42286682128906 0.5000017285346985 83.40830230712891 0.5000017285346985 66.60594177246094 C 0.5000017285346985 57.68048858642578 2.247619867324829 49.02268600463867 5.694310665130615 40.87303161621094 C 7.350928783416748 36.95599746704102 9.401401519775391 33.17805099487305 11.78876495361328 29.64410591125488 C 14.1535472869873 26.14363288879395 16.86936569213867 22.85196113586426 19.86080169677734 19.86052322387695 C 22.85223770141602 16.86910629272461 26.14389228820801 14.15330600738525 29.64436531066895 11.78854179382324 C 33.17825698852539 9.401196479797363 36.9561653137207 7.350760459899902 40.87313079833984 5.694178581237793 C 49.0225830078125 2.247578620910645 57.68009185791016 0.4999967515468597 66.60516357421875 0.4999967515468597 C 75.52928924560547 0.4999967515468597 84.18621826171875 2.247578620910645 92.33549499511719 5.694178581237793 C 96.25240325927734 7.350778579711914 100.0302734375 9.401214599609375 103.5642013549805 11.78854179382324 C 107.0647277832031 14.15332412719727 110.3564910888672 16.8691234588623 113.3480377197266 19.86054229736328 C 116.3396377563477 22.85199737548828 119.0556182861328 26.14366912841797 121.4205474853516 29.64412498474121 C 123.8081130981445 33.1780891418457 125.8587493896484 36.95605087280273 127.515510559082 40.87305068969727 C 130.9625854492188 49.02283477783203 132.7104034423828 57.68063354492188 132.7104034423828 66.60594177246094 C 132.7104034423828 83.25550842285156 126.4990921020508 99.16259765625 115.2206573486328 111.3969268798828 C 104.0080718994141 123.5598297119141 88.79303741455078 131.0403594970703 72.37834930419922 132.4605102539062 L 72.1160888671875 132.4832000732422 L 71.98638153076172 132.7122344970703 L 67.02619934082031 141.4697265625 Z"/>
        <path class="cls-8" d="M 67.02604675292969 140.4554290771484 L 71.81076812744141 132.0077362060547 L 72.33523559570312 131.9623718261719 C 88.62540435791016 130.5529937744141 103.7251663208008 123.129035949707 114.8530349731445 111.0580368041992 C 126.0461120605469 98.91629028320312 132.2104034423828 83.12957763671875 132.2104034423828 66.60594177246094 C 132.2104034423828 57.74790573120117 130.4758758544922 49.15563201904297 127.0550003051758 41.06781387329102 C 125.4108200073242 37.18056106567383 123.375732421875 33.43125152587891 121.0062408447266 29.92403221130371 C 118.6591262817383 26.44994163513184 115.9635848999023 23.18305206298828 112.9944915771484 20.21408843994141 C 110.0254592895508 17.24519729614258 106.7584762573242 14.54981517791748 103.284309387207 12.2028694152832 C 99.77713012695312 9.833597183227539 96.02789306640625 7.7987060546875 92.14073181152344 6.154687881469727 C 84.05342102050781 2.734287738800049 75.46202087402344 0.9999967813491821 66.60516357421875 0.9999967813491821 C 57.74736404418945 0.9999967813491821 49.1553840637207 2.734287738800049 41.06789398193359 6.154687881469727 C 37.18065643310547 7.7987060546875 33.43140029907227 9.833597183227539 29.92425537109375 12.20285129547119 C 26.45016479492188 14.54979705810547 23.18327522277832 17.24516105651855 20.21436500549316 20.21408843994141 C 17.24542045593262 23.18299674987793 14.55003833770752 26.44990539550781 12.20309257507324 29.92401504516602 C 9.833783149719238 33.43119812011719 7.798856258392334 37.18048858642578 6.154819965362549 41.06777954101562 C 2.734328985214233 49.15548706054688 1.000001668930054 57.74776077270508 1.000001668930054 66.60594177246094 C 1.000001668930054 83.28121185302734 7.262856483459473 99.17461395263672 18.63487434387207 111.3583984375 C 24.16900253295898 117.2875595092773 30.65869331359863 122.0874481201172 37.92370986938477 125.6247406005859 C 45.40320205688477 129.2664489746094 53.41654586791992 131.4224395751953 61.74114608764648 132.0327911376953 L 62.27436447143555 132.0718994140625 L 67.02604675292969 140.4554290771484 M 67.02634429931641 142.4839935302734 L 61.66801834106445 133.0301208496094 C 27.18754768371582 130.5020141601562 1.721191438264214e-06 101.7279052734375 1.721191438264214e-06 66.60594177246094 C 1.721191438264214e-06 29.81661415100098 29.81761932373047 -3.234863243051223e-06 66.60516357421875 -3.234863243051223e-06 C 103.3886413574219 -3.234863243051223e-06 133.2104034423828 29.81661415100098 133.2104034423828 66.60594177246094 C 133.2104034423828 101.4287414550781 106.481071472168 130.0119171142578 72.42144012451172 132.9586486816406 L 67.02634429931641 142.4839935302734 Z"/>
      </g>
    </g>
    <g id="グループ_4161" data-name="グループ 4161" transform="translate(687.527 584.666)">
      <g class="cls-11" transform="matrix(1, 0, 0, 1, -112, -87.24)">
        <rect id="長方形_3282-2" data-name="長方形 3282" class="cls-3" width="43.063" height="32.086" rx="3" transform="matrix(0.97, 0.26, -0.26, 0.97, 120.3, 87.24)"/>
      </g>
      <g id="グループ_4160" data-name="グループ 4160" transform="translate(0 0)">
        <g id="マスクグループ_30" data-name="マスクグループ 30" class="cls-4" transform="matrix(0.966, 0.259, -0.259, 0.966, 8.304, 0)">
          <g class="cls-10" transform="matrix(0.97, -0.26, 0.26, 0.97, -138.78, -53.13)">
            <g id="a_generic_white_noto_printfold_v2016_jp-main._CB480365866_2" data-name="a_generic_white_noto_printfold_v2016_jp-main._CB480365866_" class="cls-5" transform="matrix(0.97, 0.26, -0.26, 0.97, 116.5, 81.85)">
              <rect class="cls-7" width="53.195" height="41.276"/>
              <rect class="cls-9" x="0.5" y="0.5" width="52.195" height="40.276"/>
            </g>
          </g>
        </g>
      </g>
    </g>
    <path id="パス_6573" data-name="パス 6573" class="cls-1" d="M-9.21-5.28A13.132,13.132,0,0,0-7.29-4.22,3.5,3.5,0,0,1-6.7-5.33,8.808,8.808,0,0,1-9.22-6.66a7.344,7.344,0,0,1-1.73-1.75h-1.24A6,6,0,0,1-13.7-6.76a9.243,9.243,0,0,1-2.58,1.48,3.6,3.6,0,0,1,.59,1.02A13.254,13.254,0,0,0-13.8-5.29v.81a8.077,8.077,0,0,1,.92-.04h2.69a9.369,9.369,0,0,1,.98.04Zm-3.72-.2a5.154,5.154,0,0,1-.58-.02,8.927,8.927,0,0,0,1.97-1.91A8.175,8.175,0,0,0-9.53-5.49c-.15.01-.34.01-.59.01ZM-8.29-3.6a5.627,5.627,0,0,1-1.03.05h-4.56a12.324,12.324,0,0,1-1.25-.06v1.13c.42-.04.83-.06,1.24-.06h4.5L-11.03-.52a7.033,7.033,0,0,1-.77.83l1.15.64c.21-.32.38-.56.63-.89l1.93-2.45c.12-.15.34-.4.44-.5Zm5.84-4.69a10.216,10.216,0,0,1-.3,1.74c-.22.01-.39.01-.51.01a6.943,6.943,0,0,1-1.35-.09v1.14l.53.01c.21.01.27.01.4.01s.18,0,.63-.01a15.384,15.384,0,0,1-.94,2.36,9.1,9.1,0,0,1-.97,1.6l1.15.64c.06-.12.06-.12.19-.36.38-.7.47-.88.7-1.37a19.2,19.2,0,0,0,1.1-2.9c.62-.05,1.23-.12,1.59-.18a1.95,1.95,0,0,1,.32-.05L.06-6.89a8.577,8.577,0,0,1-1.6.28c.11-.44.16-.64.21-.88a5.006,5.006,0,0,1,.16-.67Zm6.4,2.6A15.786,15.786,0,0,0,1.13-7.03l-.6.97a12.239,12.239,0,0,1,2.88,1.4ZM3.91-1.18a1.791,1.791,0,0,1-.15-.14,3.687,3.687,0,0,0-.35-.27,6.248,6.248,0,0,0-1.58-.92,10.617,10.617,0,0,1-.09-1.37,3.333,3.333,0,0,1,.12-1.01L.7-4.95A5.3,5.3,0,0,0,.62-3.94c0,.3.02.69.05,1.15a4.967,4.967,0,0,0-.93-.09c-1.27,0-2.16.71-2.16,1.72S-1.56.52-.24.52A2.309,2.309,0,0,0,1.42-.04,1.6,1.6,0,0,0,1.85-1.1c0-.04-.01-.11-.02-.2A6.048,6.048,0,0,1,3.36-.06ZM.71-1.73s.02.24.02.34c0,.56-.33.84-1.01.84-.62,0-.98-.24-.98-.65s.42-.69,1.07-.69A2.521,2.521,0,0,1,.71-1.73ZM8.37-7.15a18.1,18.1,0,0,0,3.9,1.25l.41-1.15A15,15,0,0,1,8.95-8.16Zm-.8.88a4.081,4.081,0,0,1-.06.58c-.18,1.18-.34,2.29-.42,2.91-.05.38-.05.42-.08.6l1.26.04a2.177,2.177,0,0,1,.45-.43,4.551,4.551,0,0,1,2.49-.73c1.06,0,1.69.4,1.69,1.07,0,.85-.98,1.44-2.39,1.44a8.073,8.073,0,0,1-2.69-.5A4.438,4.438,0,0,1,7.97,0a9.2,9.2,0,0,0,2.55.35,4.32,4.32,0,0,0,2.64-.68,2.435,2.435,0,0,0,1.03-1.93c0-1.28-1.12-2.12-2.82-2.12a4.74,4.74,0,0,0-3.03.95l-.02-.02c.03-.15.03-.15.05-.29A21.16,21.16,0,0,1,8.82-6.2ZM-31.47,8.63V7.31a13.737,13.737,0,0,0,2.74-.68c.18-.06.22-.08.33-.11l-.82-.97a8.193,8.193,0,0,1-3.37.85,11.625,11.625,0,0,1,.06,1.56c0,3.79-.25,5.1-1.2,6.26a4.614,4.614,0,0,1,.99.66,6.093,6.093,0,0,0,.89-2.01,13.049,13.049,0,0,0,.37-3.23h1.07v4.03a7.114,7.114,0,0,1-.06,1.18h1.17a6.9,6.9,0,0,1-.06-1.18V9.64h.25a5.7,5.7,0,0,1,.8.04V8.57a4.946,4.946,0,0,1-.91.06ZM-35.63,9.8v.71h-1.01a5.5,5.5,0,0,1-.93-.05v1.06a5.6,5.6,0,0,1,.91-.05h.65a5.148,5.148,0,0,1-1.75,1.72,3.748,3.748,0,0,1,.51,1.02,5,5,0,0,0,1.65-1.85c-.02.23-.03.49-.03.68v1a5.829,5.829,0,0,1-.05.79h1.15a4.791,4.791,0,0,1-.06-.83V13c0-.05-.01-.36-.01-.39-.01-.26-.01-.26-.02-.39a5.072,5.072,0,0,0,.98,1.08,6.053,6.053,0,0,1,.48-.95,4.386,4.386,0,0,1-1.03-.88h.37a7.355,7.355,0,0,1,.91.04V10.46a5.523,5.523,0,0,1-.91.05h-.77V9.8h.81a7.64,7.64,0,0,1,.92.04V8.77a5.51,5.51,0,0,1-.92.05h-.2a3.6,3.6,0,0,0,.22-.44,1.944,1.944,0,0,1,.17-.37c.09-.22.09-.22.15-.35l-.85-.24h.41a7.9,7.9,0,0,1,.94.04V6.39a5.5,5.5,0,0,1-.93.05h-.68V6.29a3.666,3.666,0,0,1,.05-.73h-1.21a3.853,3.853,0,0,1,.05.73v.15h-.76a5.757,5.757,0,0,1-.96-.05V7.46a7.8,7.8,0,0,1,.94-.04h.47l-.88.22a4.176,4.176,0,0,1,.44,1.18h-.24a5.426,5.426,0,0,1-.93-.05V9.84a7.355,7.355,0,0,1,.91-.04Zm1.2-2.38a5.616,5.616,0,0,1-.56,1.4h-1.37l.89-.24a4.428,4.428,0,0,0-.43-1.16Zm10.95,3.08a4.872,4.872,0,0,1,.78.05V9.44a5.748,5.748,0,0,1-.87.05h-.45c.03-.52.04-.73.05-1.3h.45a4.872,4.872,0,0,1,.78.05V7.19a5.748,5.748,0,0,1-.87.05h-.35a8.518,8.518,0,0,1,.06-1.51h-1.16A8.242,8.242,0,0,1-25,7.24h-.47a5.84,5.84,0,0,1-.89-.06V8.24a8.046,8.046,0,0,1,.84-.05h.51c-.01.56-.02.86-.04,1.3h-.57a5.84,5.84,0,0,1-.89-.06v1.13a6.553,6.553,0,0,1,.94-.06h.45a5.919,5.919,0,0,1-.42,1.64,3.754,3.754,0,0,1-1.18,1.53,3.481,3.481,0,0,1,.79.87,4.677,4.677,0,0,0,1.12-1.47,6.03,6.03,0,0,0,.51-1.36,5.755,5.755,0,0,0,1.2,1.58,3.96,3.96,0,0,1,.47-.77c.03-.04.07-.1.13-.18a5.869,5.869,0,0,1-1.54-1.84Zm3.37,1.28v2.23c0,.53.33.72,1.25.72,1.32,0,1.48-.19,1.58-1.94a2.866,2.866,0,0,1-.93-.45c-.05,1.31-.08,1.39-.5,1.39-.32,0-.4-.04-.4-.22V11.78h.23c.02,0,.18.01.42.02h.2a1.322,1.322,0,0,1,.29.02,8.968,8.968,0,0,1-.04-.96V6.98a9.141,9.141,0,0,1,.04-1.01,7.226,7.226,0,0,1-.97.04h-2.52a7.643,7.643,0,0,1-.96-.04,8.522,8.522,0,0,1,.04.99v3.86c0,.43-.01.74-.03.99.24-.02.51-.03.79-.03-.14,1.22-.72,1.83-2.14,2.28a3.782,3.782,0,0,1,.78.87,4.243,4.243,0,0,0,1.77-1.33,3.37,3.37,0,0,0,.59-1.82Zm-1.25-4.8h2.33v.67h-2.33Zm0,1.57h2.33v.67h-2.33Zm0,1.57h2.33v.7h-2.33Zm7.83-.48a8,8,0,0,1,.86-.04h3.34a7.6,7.6,0,0,1,.9.04V8.86a10.663,10.663,0,0,0,1.71.91,4.453,4.453,0,0,1,.55-1.12A10.57,10.57,0,0,1-8.74,7.3a6.073,6.073,0,0,1-1.69-1.66h-1.19A6.585,6.585,0,0,1-13.2,7.32a9.332,9.332,0,0,1-2.51,1.39,4.645,4.645,0,0,1,.58,1.02,9.409,9.409,0,0,0,1.6-.86Zm.87-1.08c-.18,0-.24,0-.41-.01a8.537,8.537,0,0,0,2.08-1.94A8.146,8.146,0,0,0-8.9,8.55c-.19.01-.28.01-.44.01Zm.1,2.89a10.355,10.355,0,0,1-1.07,2c-.51.03-.81.04-.88.04-.14,0-.31-.01-.58-.03l.16,1.22a11.891,11.891,0,0,1,1.29-.14c.4-.03,2.38-.21,3.37-.3.37-.04.97-.11,1.8-.22.17.24.27.38.6.87l.96-.63a20.465,20.465,0,0,0-2.31-2.67l-.99.44c.56.58.73.76,1.05,1.11-1.4.15-1.4.15-3.17.25a10.871,10.871,0,0,0,1.04-1.94h3.44a9.3,9.3,0,0,1,1.17.06V10.35a9.416,9.416,0,0,1-1.17.06h-6.23a9.822,9.822,0,0,1-1.18-.06v1.16a9.368,9.368,0,0,1,1.18-.06ZM-1.91,13.1a7.53,7.53,0,0,1-2.84.83,3.226,3.226,0,0,1,.61.99,11.876,11.876,0,0,0,1.53-.4,8.7,8.7,0,0,0,1.82-.89l-.63-.53H1.3l-.54.49A7.523,7.523,0,0,0,4.1,14.93a3.352,3.352,0,0,1,.62-.98,7.931,7.931,0,0,1-2.88-.85h.8c.5,0,.81.01,1.12.04a1.754,1.754,0,0,1-.03-.4c0-.04-.01-.26-.01-.65V9.56a8.989,8.989,0,0,1,.04-1.07c-.35.03-.63.04-1.12.04H-2.68c-.47,0-.81-.01-1.11-.04a9.9,9.9,0,0,1,.04,1.07v2.53c0,.5-.02.8-.04,1.05.32-.03.61-.04,1.11-.04Zm-.77-3.74H2.64v.46H-2.68Zm0,1.21H2.64v.46H-2.68Zm0,1.21H2.64v.49H-2.68ZM3.35,6.6a6.08,6.08,0,0,1,.04-.77,8.691,8.691,0,0,1-1.13.05H-2.28a8.861,8.861,0,0,1-1.14-.05,4.98,4.98,0,0,1,.05.77v.77c0,.27-.02.5-.04.75.3-.02.65-.03,1.1-.03H2.3c.44,0,.78.01,1.08.03-.02-.23-.03-.45-.03-.75Zm-1.11.13v.55H-2.27V6.73Zm12.21.13a5.579,5.579,0,0,1-.99,1.18,6.794,6.794,0,0,1-.62-.5,10.9,10.9,0,0,0,1.03-1.15l-.83-.55a5.492,5.492,0,0,1-.84,1.08,2.5,2.5,0,0,1-.67-1.13,5.587,5.587,0,0,1-.86.04H8.79a4.5,4.5,0,0,1-.83-.05V6.79a4.452,4.452,0,0,1,.61-.04H9.89a5.223,5.223,0,0,1-.95,1.01,12.368,12.368,0,0,0-1.4-1.22L6.8,7.2A8.375,8.375,0,0,1,8.14,8.37a8.49,8.49,0,0,1-1.88.99,3.124,3.124,0,0,1,.54.95A10.867,10.867,0,0,0,9.29,8.76v.65a3.768,3.768,0,0,1,.63-.04h2.21a3.836,3.836,0,0,1,.67.04V8.82a9.656,9.656,0,0,0,2.42,1.45,3.263,3.263,0,0,1,.52-1,10.444,10.444,0,0,1-1.52-.71,10.835,10.835,0,0,0,.88-.93,1.373,1.373,0,0,1,.18-.21ZM9.98,8.48H9.63a8.011,8.011,0,0,0,1.38-1.57,8.647,8.647,0,0,0,1.38,1.57H9.98ZM7.49,13.6a6.279,6.279,0,0,1-.97-.05v1.08a7.41,7.41,0,0,1,1.04-.05h6.92a7.323,7.323,0,0,1,1.04.05V13.55a6.423,6.423,0,0,1-.98.05H12.83c.07-.1.3-.53.46-.83l-.83-.3h.97a6.571,6.571,0,0,1,.72.03,4.9,4.9,0,0,1-.04-.73V10.5a4.382,4.382,0,0,1,.04-.67,5.657,5.657,0,0,1-.78.04H8.65a6.206,6.206,0,0,1-.79-.04,4.879,4.879,0,0,1,.04.68v1.26a5.742,5.742,0,0,1-.04.73,6.446,6.446,0,0,1,.72-.03H9.65l-.88.32a3.85,3.85,0,0,1,.41.81Zm2.77,0a8.1,8.1,0,0,0-.5-1.13h2.5a5.968,5.968,0,0,1-.51,1.13ZM8.93,10.76h4.12v.81H8.93Zm11.88,1.93a9.088,9.088,0,0,0,.48-1.6l-.76-.25a7.614,7.614,0,0,1-.4,1.63Zm.57-2.32a6.736,6.736,0,0,1,.88,1.59l.77-.51a6.511,6.511,0,0,0-.87-1.49ZM19.05,8.94v.67h-.51a8.5,8.5,0,0,1-.99-.05v1.02a8.18,8.18,0,0,1,.98-.05h.52v2.8a7.4,7.4,0,0,1-1.56.21l.15,1.1a6.035,6.035,0,0,1,.79-.18,22.405,22.405,0,0,0,2.68-.71v-.4l.32.71c.17-.12.17-.12.33-.23.68-.47.68-.47.85-.59a8.518,8.518,0,0,0,.71-.56v.95c0,.22-.07.26-.44.26a3.923,3.923,0,0,1-.78-.1,2.891,2.891,0,0,1,.23,1.01c.39.03.66.04.88.04.81,0,1.1-.24,1.1-.91V12.65q-.03-.81-.06-1.11a5.588,5.588,0,0,0,.76,1.55,6.1,6.1,0,0,0,1.22,1.29,4.22,4.22,0,0,1,.6-.98,4.856,4.856,0,0,1-1.54-1.44,11.177,11.177,0,0,0,1.33-1.42l-.82-.58a4.83,4.83,0,0,1-.97,1.2,4.716,4.716,0,0,1-.48-1.48h1.34a8.522,8.522,0,0,1,.95.05V8.74a6.185,6.185,0,0,1-.96.06h-.06c.04-.52.09-1.4.12-1.92a8.465,8.465,0,0,1,.06-.97,7.431,7.431,0,0,1-.92.04H22.53a6.8,6.8,0,0,1-1-.05v.96a7.875,7.875,0,0,1,.95-.04h2.24c-.01.27-.01.3-.03.55H22.67a5.163,5.163,0,0,1-.91-.05v.95a6.953,6.953,0,0,1,.91-.04h1.98c-.01.17-.02.27-.04.57H22.08a6.46,6.46,0,0,1-.96-.06v.83a4.61,4.61,0,0,1-.71.04h-.4V8.94h.29a3.511,3.511,0,0,1,.59.03V8.22l.08.07a3.608,3.608,0,0,1,.61-.89,3.993,3.993,0,0,1-1.46-1.68h-1.1a4.619,4.619,0,0,1-1.73,2.16,3,3,0,0,1,.46.95c.21-.17.27-.22.46-.39v.53a5.828,5.828,0,0,1,.59-.03Zm4.27.74v1.9a10.693,10.693,0,0,1-2.22,1.45v-.21c-.53.16-.71.22-1.09.31v-2.6h.4a4.1,4.1,0,0,1,.78.05V9.72a7.1,7.1,0,0,1,.89-.04Zm-4.7-1.64a5.959,5.959,0,0,0,1-1.42,5.919,5.919,0,0,0,1.06,1.41c-.13.01-.19.01-.37.01H18.62Zm.2,4.79a10.764,10.764,0,0,0-.44-1.94l-.78.24a10.066,10.066,0,0,1,.42,1.95Zm9.99-4.5a12.551,12.551,0,0,1,1.66-.2c1.94-.14,2.56-.2,3.37-.32a4.422,4.422,0,0,0-1.39,1.01,3.482,3.482,0,0,0-.95,2.35,2.676,2.676,0,0,0,1.43,2.41,6.016,6.016,0,0,0,2.34.66c.19.03.21.03.34.06l.18-1.36c-.1.01-.19.01-.2.01a6.069,6.069,0,0,1-1.49-.26,1.679,1.679,0,0,1-1.33-1.63,3.251,3.251,0,0,1,2.02-2.67,4.472,4.472,0,0,1,1.98-.54,1.548,1.548,0,0,1,.21.01l-.07-1.27a5.388,5.388,0,0,1-1.03.08c-2.67.13-4.38.22-5.11.26-1.47.1-1.47.1-1.65.1-.05,0-.16,0-.38-.01Zm6.12.96a6.749,6.749,0,0,1,1.05,1.49l.7-.37a6.481,6.481,0,0,0-1.05-1.47Zm2.94.47a5.783,5.783,0,0,0-1.04-1.41l-.67.35a7.368,7.368,0,0,1,1.02,1.45Z" transform="translate(673.911 549.579)"/>
    <path id="パス_6574" data-name="パス 6574" class="cls-6" d="M-41.364-1.775h-3.182L-45.144,0H-47.03l3.082-8.637h2.039L-38.851,0h-1.957Zm-.5-1.488-1.078-3.4-1.113,3.4ZM-34.3-4.629a.818.818,0,0,0-.826-.463.986.986,0,0,0-.961.463,1.784,1.784,0,0,0-.135.785V0h-1.693V-6.375H-36.3v.932a2.687,2.687,0,0,1,.586-.709,2,2,0,0,1,1.26-.375,1.992,1.992,0,0,1,1.184.322,1.875,1.875,0,0,1,.551.768,2.123,2.123,0,0,1,.814-.826,2.485,2.485,0,0,1,1.148-.264,2.223,2.223,0,0,1,.832.164,1.856,1.856,0,0,1,.744.574,1.835,1.835,0,0,1,.363.82,5.67,5.67,0,0,1,.059.943L-28.767,0h-1.711V-4.066a1.335,1.335,0,0,0-.117-.6.833.833,0,0,0-.82-.445.96.96,0,0,0-.955.574A1.8,1.8,0,0,0-32.5-3.8V0h-1.682V-3.8A2.136,2.136,0,0,0-34.3-4.629ZM-26.979-5.7a2.727,2.727,0,0,1,2.273-.844,4.039,4.039,0,0,1,1.863.416,1.6,1.6,0,0,1,.814,1.57v2.93q0,.3.012.738a.928.928,0,0,0,.1.445.6.6,0,0,0,.246.193V0h-1.816a1.86,1.86,0,0,1-.105-.363q-.029-.17-.047-.387a3.431,3.431,0,0,1-.8.639A2.4,2.4,0,0,1-25.655.2a2.1,2.1,0,0,1-1.433-.5,1.766,1.766,0,0,1-.565-1.4A1.822,1.822,0,0,1-26.745-3.4a4.033,4.033,0,0,1,1.465-.41l.568-.07a2.607,2.607,0,0,0,.662-.146.5.5,0,0,0,.357-.475.563.563,0,0,0-.272-.542,1.7,1.7,0,0,0-.8-.149A1.042,1.042,0,0,0-25.6-4.9a1.218,1.218,0,0,0-.234.586h-1.611A2.451,2.451,0,0,1-26.979-5.7Zm1.242,4.488a.873.873,0,0,0,.574.193,1.7,1.7,0,0,0,.993-.316A1.349,1.349,0,0,0-23.7-2.484v-.621a1.815,1.815,0,0,1-.319.161,2.671,2.671,0,0,1-.442.114l-.375.07a2.421,2.421,0,0,0-.756.229.766.766,0,0,0-.387.709A.733.733,0,0,0-25.737-1.207ZM-15.618,0h-5.514V-1.3l3.275-3.727h-3.053V-6.387h5.18V-5l-3.24,3.627h3.352Zm6.4-5.578a3.727,3.727,0,0,1,.809,2.4A3.7,3.7,0,0,1-9.22-.776a2.971,2.971,0,0,1-2.455,1,2.971,2.971,0,0,1-2.455-1,3.7,3.7,0,0,1-.809-2.405,3.727,3.727,0,0,1,.809-2.4,2.951,2.951,0,0,1,2.455-1.014A2.951,2.951,0,0,1-9.22-5.578Zm-2.461.4a1.334,1.334,0,0,0-1.128.519,2.4,2.4,0,0,0-.4,1.479,2.413,2.413,0,0,0,.4,1.482,1.331,1.331,0,0,0,1.128.521A1.324,1.324,0,0,0-10.556-1.7a2.426,2.426,0,0,0,.393-1.482,2.413,2.413,0,0,0-.393-1.479A1.326,1.326,0,0,0-11.681-5.18Zm7.471.029a1.163,1.163,0,0,0-1.166.721,2.476,2.476,0,0,0-.164.973V0H-7.2V-6.375h1.611v.932a2.835,2.835,0,0,1,.609-.709,2.118,2.118,0,0,1,1.307-.387,2.465,2.465,0,0,1,1.62.519,2.109,2.109,0,0,1,.63,1.72V0H-3.138V-3.885a1.773,1.773,0,0,0-.135-.773A.948.948,0,0,0-4.21-5.15ZM5.371-7.512,5.179-8.556a6.881,6.881,0,0,1-.144-1.128l-1.584.252a5.59,5.59,0,0,1,.288,1.14l.18,1.008-2.232.348A8.845,8.845,0,0,1,.367-6.8l.24,1.476a11.073,11.073,0,0,1,1.32-.264L4.159-5.94l.36,1.968L1.6-3.5a8.732,8.732,0,0,1-1.272.12L.571-1.92a8.277,8.277,0,0,1,1.224-.252L4.759-2.64,5.191-.276A8.036,8.036,0,0,1,5.347.972L6.955.7A7.9,7.9,0,0,1,6.667-.552L6.235-2.868l2.856-.456.48-.072.192-.036a4.106,4.106,0,0,1,.552-.048l-.264-1.452A8.321,8.321,0,0,1,8.8-4.656L5.983-4.2l-.36-1.968,2.532-.4.684-.108.1-.024c.132-.012.192-.012.372-.024l-.18-1.068.612-.24a8.025,8.025,0,0,0-1.068-1.9L7.795-9.6a7.71,7.71,0,0,1,.9,1.548c-.18.036-.516.1-.792.144Zm5.868-1.14a7,7,0,0,0-1.056-1.824l-.852.336a8.6,8.6,0,0,1,1.032,1.86Zm9.912-.216a4.386,4.386,0,0,1-1.284.12H14.359a8.453,8.453,0,0,1-1.536-.084v1.56a9.526,9.526,0,0,1,1.512-.072h5.712a8.314,8.314,0,0,1-3.636,5.232A9.763,9.763,0,0,1,13.783-.888,4.416,4.416,0,0,1,14.839.54,11.684,11.684,0,0,0,19.3-2.52a11.28,11.28,0,0,0,2.46-5.028,1.8,1.8,0,0,1,.2-.54ZM28.159.54a13.192,13.192,0,0,1-.048-1.332V-3.96a6.2,6.2,0,0,0-.048-.816,3.877,3.877,0,0,0,.408.2A28.391,28.391,0,0,1,32.719-2.28l.84-1.416a35.255,35.255,0,0,0-5.448-2.532V-8.46a8.044,8.044,0,0,1,.048-1.26H26.515A7.713,7.713,0,0,1,26.587-8.5V-.8A8.084,8.084,0,0,1,26.515.54Zm9.12-6.468A7.511,7.511,0,0,1,35.947-6v1.284a9.809,9.809,0,0,1,1.332-.06h.912a7.593,7.593,0,0,1-2.544,1.7,2.576,2.576,0,0,1,.828,1.092,9.868,9.868,0,0,0,1.764-1.2v.612a8.985,8.985,0,0,1,1.272-.072h.36a2.744,2.744,0,0,1-.264.744A3.136,3.136,0,0,1,38.131-.624a5.467,5.467,0,0,1-1.512.48,3.331,3.331,0,0,1,.732,1.188,5.6,5.6,0,0,0,2.844-1.56,4.017,4.017,0,0,0,1.02-2.124h1.944a7.62,7.62,0,0,1-.24,1.992c-.048.18-.216.252-.528.252a9.046,9.046,0,0,1-1.4-.132A3.6,3.6,0,0,1,41.3.768c.5.024.744.036,1.02.036,1.152,0,1.56-.18,1.788-.768A12.4,12.4,0,0,0,44.5-3.1a10.08,10.08,0,0,0,1.848,1.224,3.788,3.788,0,0,1,.768-1.272,6.768,6.768,0,0,1-2.64-1.632h.948a13.49,13.49,0,0,1,1.356.06V-6a7.575,7.575,0,0,1-1.356.072H43.555a10.237,10.237,0,0,1-.576-1.056h1.74a10.567,10.567,0,0,1,1.344.06V-8.208a7.748,7.748,0,0,1-1.344.072h-.576a12.373,12.373,0,0,0,.972-1.392L43.759-9.9a7.428,7.428,0,0,1-1.08,1.764H41.491c.132-.432.264-.888.336-1.212.06-.276.108-.516.156-.684l-1.44-.156v.1a8.863,8.863,0,0,1-.372,1.956h-.624a10.869,10.869,0,0,0-.96-1.728l-1.248.384a8.349,8.349,0,0,1,.852,1.344h-.168a7.439,7.439,0,0,1-1.32-.072v1.284a10.162,10.162,0,0,1,1.32-.06h1.692a7.609,7.609,0,0,1-.588,1.056Zm3.276,0c.216-.4.348-.672.516-1.056h.66a9,9,0,0,0,.48,1.056Zm2.364,1.152a7.715,7.715,0,0,0,.852,1.008H38.9a7.948,7.948,0,0,0,.9-1.008Z" transform="translate(674.048 582.419)"/>
    <path id="パス_6577" data-name="パス 6577" class="cls-1" d="M-31.682-10.178a9.592,9.592,0,0,1-1.792-.1v1.82A10.087,10.087,0,0,1-31.71-8.54h6.664a10.153,10.153,0,0,1-7.308,7.532A5.152,5.152,0,0,1-31.122.658a12.556,12.556,0,0,0,8.036-9.282,1.913,1.913,0,0,0,.266.028A1.625,1.625,0,0,0-21.2-10.22a1.622,1.622,0,0,0-1.624-1.61,1.613,1.613,0,0,0-1.61,1.624c-.238.014-.406.028-.826.028Zm8.862-.952a.911.911,0,0,1,.924.91.923.923,0,0,1-.924.924.92.92,0,0,1-.91-.924A.908.908,0,0,1-22.82-11.13Zm4.62.112a6.81,6.81,0,0,1,.07,1.442l-.056,7.56a4.937,4.937,0,0,1-.126,1.442l.9,1.078a4.011,4.011,0,0,1,.84-.238,12.762,12.762,0,0,0,5.1-1.918A10.437,10.437,0,0,0-8.358-4.914a6.576,6.576,0,0,1-1.33-1.428,8.273,8.273,0,0,1-2.856,3.206A10.069,10.069,0,0,1-16.366-1.6l.07-7.994A10.834,10.834,0,0,1-16.212-11ZM4.746-8.848a2.763,2.763,0,0,1-1.078.238l-5.1.616V-9.758a7.389,7.389,0,0,1,.084-1.3H-3.276a6.958,6.958,0,0,1,.084,1.33V-7.8l-1.484.182c-.378.042-.98.084-1.232.084h-.336l.182,1.722c.294-.07.448-.112.644-.14l.91-.126,1.316-.168v3.206a5.421,5.421,0,0,0,.14,1.778A1.857,1.857,0,0,0-1.848.028,9.659,9.659,0,0,0,.644.266,31.188,31.188,0,0,0,4.116.028,5.833,5.833,0,0,1,4.97-.028l-.084-1.89a15.5,15.5,0,0,1-4.3.546,3.081,3.081,0,0,1-1.736-.28c-.252-.21-.294-.448-.294-1.638V-6.44C.9-6.762,1.61-6.86,2.87-7c.21-.028.322-.042.532-.084A7.139,7.139,0,0,1,.56-4.27a4.535,4.535,0,0,1,1.4,1.12A10.282,10.282,0,0,0,5.39-7.238a3.926,3.926,0,0,1,.392-.686ZM2.772-11.34a9.3,9.3,0,0,1,1.3,2.2L5.11-9.534A8.634,8.634,0,0,0,3.822-11.7Zm4.172,1.176a7.983,7.983,0,0,0-1.288-2.1l-.994.378A9.621,9.621,0,0,1,5.908-9.744ZM8.708-8.988a14.7,14.7,0,0,1,3.57,2.842l1.2-1.526a19.828,19.828,0,0,0-3.612-2.7ZM9.2.252a4.956,4.956,0,0,1,.924-.238,15.122,15.122,0,0,0,5.334-2.1,12.287,12.287,0,0,0,4.438-5.488A6.037,6.037,0,0,1,18.41-8.946a11.69,11.69,0,0,1-1.428,2.8,9.354,9.354,0,0,1-4.158,3.43A13.34,13.34,0,0,1,8.68-1.68ZM26.628.63a15.391,15.391,0,0,1-.056-1.554v-3.7a7.238,7.238,0,0,0-.056-.952,4.523,4.523,0,0,0,.476.238A33.123,33.123,0,0,1,31.948-2.66l.98-1.652a41.131,41.131,0,0,0-6.356-2.954v-2.6a9.385,9.385,0,0,1,.056-1.47H24.71a9,9,0,0,1,.084,1.428V-.938A9.431,9.431,0,0,1,24.71.63Z" transform="translate(673.97 639.777)"/>
    <path id="パス_6575" data-name="パス 6575" class="cls-6" d="M-23.31-22.716h-6.948v3.168h2.808V0h4.14ZM-20.358-4.86V5.112h1.368l3.024-7.38V-4.86ZM-1.134-19.152c0-2.268-1.152-3.564-3.924-3.564H-9.234c-2.772,0-3.924,1.3-3.924,3.564V-3.564C-13.158-1.3-12.006,0-9.234,0h4.176c2.772,0,3.924-1.3,3.924-3.564ZM-5.274-4.14c0,.756-.252.972-1.044.972H-7.974c-.792,0-1.008-.216-1.008-.972V-18.576c0-.756.216-.972,1.008-.972h1.656c.792,0,1.044.216,1.044.972ZM14.094-19.152c0-2.268-1.152-3.564-3.924-3.564H5.994c-2.772,0-3.924,1.3-3.924,3.564V-3.564C2.07-1.3,3.222,0,5.994,0H10.17c2.772,0,3.924-1.3,3.924-3.564ZM9.954-4.14c0,.756-.252.972-1.044.972H7.254c-.792,0-1.008-.216-1.008-.972V-18.576c0-.756.216-.972,1.008-.972H8.91c.792,0,1.044.216,1.044.972ZM29.322-19.152c0-2.268-1.152-3.564-3.924-3.564H21.222c-2.772,0-3.924,1.3-3.924,3.564V-3.564C17.3-1.3,18.45,0,21.222,0H25.4c2.772,0,3.924-1.3,3.924-3.564ZM25.182-4.14c0,.756-.252.972-1.044.972H22.482c-.792,0-1.008-.216-1.008-.972V-18.576c0-.756.216-.972,1.008-.972h1.656c.792,0,1.044.216,1.044.972Z" transform="translate(646.244 615.85)"/>
    <path id="パス_6576" data-name="パス 6576" class="cls-6" d="M2.436,7.28h7.14v2.928c0,.288-.072.324-.54.324-.432,0-1.032-.048-1.824-.132a4.617,4.617,0,0,1,.372,1.3c.468.024,1.128.048,1.6.048a2.952,2.952,0,0,0,1.26-.168c.348-.18.492-.516.492-1.128V2.756a11.81,11.81,0,0,1,.048-1.308A11,11,0,0,1,9.672,1.5h-7.3a12.892,12.892,0,0,1-1.332-.048A10.339,10.339,0,0,1,1.092,2.6v7.848a11.4,11.4,0,0,1-.072,1.44H2.5a8.821,8.821,0,0,1-.06-1.392ZM5.28,6.02H2.436V2.768H5.28Zm1.3,0V2.768h3V6.02ZM4.344,20.248a5.964,5.964,0,0,1-.072.7A4.643,4.643,0,0,1,2.7,23.68a5.662,5.662,0,0,1-1.86,1.1,4.259,4.259,0,0,1,.876,1.176,6.951,6.951,0,0,0,3.048-2.64A6.385,6.385,0,0,0,5.7,20.248H8v.7a11.789,11.789,0,0,1-.372,3.192c-.108.18-.24.228-.684.228A9.865,9.865,0,0,1,5.5,24.208a5.154,5.154,0,0,1,.36,1.4c.8.036,1,.048,1.236.048,1.068,0,1.5-.168,1.764-.7a16.365,16.365,0,0,0,.5-5.016V19.54a12.237,12.237,0,0,0,1.488,1.26,5.587,5.587,0,0,1,.912-1.3,9.306,9.306,0,0,1-3.324-3.48,4.485,4.485,0,0,1-.468-1.044L6.636,15.5a4.922,4.922,0,0,1,.252.5,12,12,0,0,0,1.98,3.012c-.288.012-.456.012-.744.012H3.708A6.2,6.2,0,0,1,3.084,19a13.347,13.347,0,0,0,1.932-2.916,3.394,3.394,0,0,1,.324-.612L3.9,14.956a3.73,3.73,0,0,1-.48,1.212A9.252,9.252,0,0,1,.264,19.612a4.172,4.172,0,0,1,.924,1.176,11.929,11.929,0,0,0,1.5-1.332v.852a8.338,8.338,0,0,1,1.02-.06Z" transform="translate(678.282 588.11)"/>
  </g>
</svg>
